%TF.GenerationSoftware,KiCad,Pcbnew,8.0.6*%
%TF.CreationDate,2025-07-28T17:23:45+02:00*%
%TF.ProjectId,PhaseLoom,50686173-654c-46f6-9f6d-2e6b69636164,rev?*%
%TF.SameCoordinates,Original*%
%TF.FileFunction,Legend,Bot*%
%TF.FilePolarity,Positive*%
%FSLAX46Y46*%
G04 Gerber Fmt 4.6, Leading zero omitted, Abs format (unit mm)*
G04 Created by KiCad (PCBNEW 8.0.6) date 2025-07-28 17:23:45*
%MOMM*%
%LPD*%
G01*
G04 APERTURE LIST*
G04 Aperture macros list*
%AMRoundRect*
0 Rectangle with rounded corners*
0 $1 Rounding radius*
0 $2 $3 $4 $5 $6 $7 $8 $9 X,Y pos of 4 corners*
0 Add a 4 corners polygon primitive as box body*
4,1,4,$2,$3,$4,$5,$6,$7,$8,$9,$2,$3,0*
0 Add four circle primitives for the rounded corners*
1,1,$1+$1,$2,$3*
1,1,$1+$1,$4,$5*
1,1,$1+$1,$6,$7*
1,1,$1+$1,$8,$9*
0 Add four rect primitives between the rounded corners*
20,1,$1+$1,$2,$3,$4,$5,0*
20,1,$1+$1,$4,$5,$6,$7,0*
20,1,$1+$1,$6,$7,$8,$9,0*
20,1,$1+$1,$8,$9,$2,$3,0*%
G04 Aperture macros list end*
%ADD10C,0.150000*%
%ADD11C,0.120000*%
%ADD12RoundRect,0.250000X-1.600000X0.425000X-1.600000X-0.425000X1.600000X-0.425000X1.600000X0.425000X0*%
%ADD13R,1.700000X1.700000*%
%ADD14O,1.700000X1.700000*%
%ADD15RoundRect,0.250000X1.600000X-0.425000X1.600000X0.425000X-1.600000X0.425000X-1.600000X-0.425000X0*%
%ADD16R,1.600000X1.600000*%
%ADD17O,1.600000X1.600000*%
G04 APERTURE END LIST*
D10*
X162994885Y-85513104D02*
X162518695Y-85513104D01*
X163090123Y-85798819D02*
X162756790Y-84798819D01*
X162756790Y-84798819D02*
X162423457Y-85798819D01*
X161566314Y-85798819D02*
X162137742Y-85798819D01*
X161852028Y-85798819D02*
X161852028Y-84798819D01*
X161852028Y-84798819D02*
X161947266Y-84941676D01*
X161947266Y-84941676D02*
X162042504Y-85036914D01*
X162042504Y-85036914D02*
X162137742Y-85084533D01*
D11*
%TO.C,A1*%
X122780600Y-91694000D02*
X122780600Y-124464000D01*
X122780600Y-124464000D02*
X125320600Y-127004000D01*
X125320600Y-86484000D02*
X125320600Y-89154000D01*
X125320600Y-89154000D02*
X122780600Y-91694000D01*
X125320600Y-127004000D02*
X125320600Y-138434000D01*
X125320600Y-138434000D02*
X126970600Y-140083999D01*
X126970600Y-140083999D02*
X191620600Y-140084000D01*
X191620600Y-86484000D02*
X125320600Y-86484000D01*
X191620600Y-89664000D02*
X191620600Y-86484000D01*
X191620600Y-98804000D02*
X193520600Y-98804000D01*
X191620600Y-118874000D02*
X191620600Y-98804000D01*
X191620600Y-130554000D02*
X197970600Y-130554000D01*
X191620600Y-140084000D02*
X191620600Y-130554000D01*
X193520600Y-89664000D02*
X191620600Y-89664000D01*
X193520600Y-98804000D02*
X193520600Y-89664000D01*
X197970600Y-118874000D02*
X191620600Y-118874000D01*
X197970600Y-130554000D02*
X197970600Y-118874000D01*
%TD*%
%LPC*%
D10*
G36*
X166691688Y-96241475D02*
G01*
X166691688Y-95995522D01*
X166905156Y-95995522D01*
X166905156Y-96768795D01*
X166770578Y-96768795D01*
X166770578Y-96898000D01*
X167193851Y-96898000D01*
X167193851Y-96768795D01*
X167061960Y-96768795D01*
X167061960Y-95995522D01*
X167274207Y-95995522D01*
X167274207Y-96241475D01*
X167401946Y-96241475D01*
X167401946Y-95866318D01*
X166563705Y-95866318D01*
X166563705Y-96241475D01*
X166691688Y-96241475D01*
G37*
G36*
X165989001Y-96163317D02*
G01*
X165931022Y-96168576D01*
X165882870Y-96184354D01*
X165838059Y-96217173D01*
X165807399Y-96265138D01*
X165792659Y-96316679D01*
X165787942Y-96365486D01*
X165787745Y-96378739D01*
X165787745Y-96771482D01*
X165665379Y-96771482D01*
X165665379Y-96898000D01*
X165929894Y-96898000D01*
X165929894Y-96430274D01*
X165933054Y-96379144D01*
X165947098Y-96330845D01*
X165952365Y-96322319D01*
X165994470Y-96294109D01*
X166021241Y-96291056D01*
X166075199Y-96300000D01*
X166125063Y-96320036D01*
X166173577Y-96346959D01*
X166218789Y-96377012D01*
X166226650Y-96382647D01*
X166226650Y-96771482D01*
X166101597Y-96771482D01*
X166101597Y-96898000D01*
X166498003Y-96898000D01*
X166498003Y-96771482D01*
X166368799Y-96771482D01*
X166368799Y-95991370D01*
X166498003Y-95991370D01*
X166498003Y-95866318D01*
X166226650Y-95866318D01*
X166226650Y-96266143D01*
X166187166Y-96236520D01*
X166140936Y-96207601D01*
X166095959Y-96185911D01*
X166045070Y-96169744D01*
X165995888Y-96163417D01*
X165989001Y-96163317D01*
G37*
G36*
X165315501Y-96164828D02*
G01*
X165364861Y-96171545D01*
X165415975Y-96185524D01*
X165462414Y-96206304D01*
X165486057Y-96220746D01*
X165524677Y-96252212D01*
X165558236Y-96290710D01*
X165586733Y-96336241D01*
X165450690Y-96370435D01*
X165425893Y-96336054D01*
X165386454Y-96304489D01*
X165339816Y-96287528D01*
X165289734Y-96282752D01*
X165265362Y-96283658D01*
X165216017Y-96293229D01*
X165172497Y-96319877D01*
X165155142Y-96344486D01*
X165140100Y-96393676D01*
X165136594Y-96442487D01*
X165136594Y-96521133D01*
X165183168Y-96494526D01*
X165231543Y-96475520D01*
X165281720Y-96464117D01*
X165333698Y-96460316D01*
X165361338Y-96461672D01*
X165412485Y-96471384D01*
X165459483Y-96488648D01*
X165482028Y-96500123D01*
X165524692Y-96530817D01*
X165558890Y-96569493D01*
X165571340Y-96589609D01*
X165589480Y-96636727D01*
X165595526Y-96688683D01*
X165595007Y-96704021D01*
X165585016Y-96754998D01*
X165562309Y-96801768D01*
X165551322Y-96817219D01*
X165514910Y-96855153D01*
X165473649Y-96883345D01*
X165452463Y-96893637D01*
X165403849Y-96908633D01*
X165351527Y-96913631D01*
X165304991Y-96910136D01*
X165252760Y-96897225D01*
X165202749Y-96874800D01*
X165161651Y-96848007D01*
X165122183Y-96814224D01*
X165122183Y-96898000D01*
X164876231Y-96898000D01*
X164876231Y-96771482D01*
X164997131Y-96771482D01*
X164997131Y-96638125D01*
X165136594Y-96638125D01*
X165136594Y-96719946D01*
X165142316Y-96725146D01*
X165183091Y-96756919D01*
X165231238Y-96783327D01*
X165281033Y-96799173D01*
X165332476Y-96804454D01*
X165380687Y-96797209D01*
X165424556Y-96771482D01*
X165450151Y-96736867D01*
X165460215Y-96688683D01*
X165450018Y-96641300D01*
X165419427Y-96602710D01*
X165416848Y-96600591D01*
X165371556Y-96575839D01*
X165322218Y-96568272D01*
X165275812Y-96572637D01*
X165223605Y-96587986D01*
X165177199Y-96610907D01*
X165136594Y-96638125D01*
X164997131Y-96638125D01*
X164997131Y-96434427D01*
X164997197Y-96425708D01*
X165001329Y-96368802D01*
X165011889Y-96319118D01*
X165031830Y-96271182D01*
X165064298Y-96228530D01*
X165077531Y-96216876D01*
X165119514Y-96191402D01*
X165171236Y-96174080D01*
X165224482Y-96165610D01*
X165276056Y-96163317D01*
X165315501Y-96164828D01*
G37*
G36*
X164112483Y-96410491D02*
G01*
X164112483Y-96771482D01*
X163991583Y-96771482D01*
X163991583Y-96898000D01*
X164254633Y-96898000D01*
X164254633Y-96418795D01*
X164257858Y-96369639D01*
X164272970Y-96322739D01*
X164274172Y-96320854D01*
X164315256Y-96293413D01*
X164338408Y-96291056D01*
X164387257Y-96296933D01*
X164439036Y-96314564D01*
X164486747Y-96339634D01*
X164529429Y-96368285D01*
X164551388Y-96385090D01*
X164551388Y-96771482D01*
X164427068Y-96771482D01*
X164427068Y-96898000D01*
X164818834Y-96898000D01*
X164818834Y-96771482D01*
X164691583Y-96771482D01*
X164691583Y-96305955D01*
X164818834Y-96305955D01*
X164818834Y-96178949D01*
X164551388Y-96178949D01*
X164551388Y-96260526D01*
X164510330Y-96232521D01*
X164462085Y-96205181D01*
X164414956Y-96184676D01*
X164361382Y-96169393D01*
X164309328Y-96163412D01*
X164302016Y-96163317D01*
X164251591Y-96168070D01*
X164204898Y-96184499D01*
X164164887Y-96216125D01*
X164158890Y-96223401D01*
X164134418Y-96267488D01*
X164120142Y-96318343D01*
X164113616Y-96372435D01*
X164112483Y-96410491D01*
G37*
G36*
X163409797Y-96297162D02*
G01*
X163523858Y-96297162D01*
X163523858Y-96178949D01*
X163124033Y-96178949D01*
X163124033Y-96297162D01*
X163235407Y-96297162D01*
X163505296Y-96519912D01*
X163250550Y-96771482D01*
X163124033Y-96771482D01*
X163124033Y-96898000D01*
X163311611Y-96898000D01*
X163672846Y-96535543D01*
X163672846Y-96771482D01*
X163550481Y-96771482D01*
X163550481Y-96898000D01*
X163944200Y-96898000D01*
X163944200Y-96771482D01*
X163814996Y-96771482D01*
X163814996Y-95991370D01*
X163944200Y-95991370D01*
X163944200Y-95866318D01*
X163672846Y-95866318D01*
X163672846Y-96516981D01*
X163409797Y-96297162D01*
G37*
G36*
X162428673Y-96305955D02*
G01*
X162272114Y-96713596D01*
X162120439Y-96305955D01*
X162216426Y-96305955D01*
X162216426Y-96178949D01*
X161871555Y-96178949D01*
X161871555Y-96305955D01*
X161978045Y-96305955D01*
X162334640Y-97226262D01*
X162574975Y-97226262D01*
X162574975Y-97102675D01*
X162432825Y-97102675D01*
X162347096Y-96889207D01*
X162583279Y-96305955D01*
X162704179Y-96305955D01*
X162704179Y-96178949D01*
X162342944Y-96178949D01*
X162342944Y-96305955D01*
X162428673Y-96305955D01*
G37*
G36*
X161515693Y-96166340D02*
G01*
X161566252Y-96175407D01*
X161613879Y-96190520D01*
X161658576Y-96211677D01*
X161684671Y-96227690D01*
X161726984Y-96261051D01*
X161763307Y-96300247D01*
X161793642Y-96345278D01*
X161814799Y-96389226D01*
X161829912Y-96436075D01*
X161838979Y-96485824D01*
X161842002Y-96538474D01*
X161839688Y-96582844D01*
X161831376Y-96631521D01*
X161814799Y-96683692D01*
X161793642Y-96727762D01*
X161774059Y-96758657D01*
X161739596Y-96800298D01*
X161699028Y-96836298D01*
X161657843Y-96863561D01*
X161612917Y-96885467D01*
X161565336Y-96901114D01*
X161515098Y-96910502D01*
X161462204Y-96913631D01*
X161410745Y-96910502D01*
X161361637Y-96901114D01*
X161314880Y-96885467D01*
X161270474Y-96863561D01*
X161239330Y-96843531D01*
X161197412Y-96808786D01*
X161161251Y-96768398D01*
X161133942Y-96727762D01*
X161114337Y-96689319D01*
X161096206Y-96637453D01*
X161086773Y-96589048D01*
X161083628Y-96538474D01*
X161234081Y-96538474D01*
X161235120Y-96562293D01*
X161244500Y-96611428D01*
X161263635Y-96657176D01*
X161273443Y-96673584D01*
X161306996Y-96713815D01*
X161346189Y-96743638D01*
X161362926Y-96752856D01*
X161412454Y-96770353D01*
X161461960Y-96775634D01*
X161485347Y-96774509D01*
X161533722Y-96764354D01*
X161578952Y-96743638D01*
X161598195Y-96730749D01*
X161634291Y-96697345D01*
X161662728Y-96656443D01*
X161672937Y-96635552D01*
X161687811Y-96588343D01*
X161692770Y-96538474D01*
X161691713Y-96515210D01*
X161682179Y-96466690D01*
X161662728Y-96420749D01*
X161650580Y-96400931D01*
X161618841Y-96363412D01*
X161579685Y-96333310D01*
X161559449Y-96322270D01*
X161513130Y-96306187D01*
X161463426Y-96300826D01*
X161439658Y-96301994D01*
X161390988Y-96312536D01*
X161346189Y-96334043D01*
X161327138Y-96347163D01*
X161291517Y-96380775D01*
X161263635Y-96421482D01*
X161253591Y-96442115D01*
X161238959Y-96488884D01*
X161234081Y-96538474D01*
X161083628Y-96538474D01*
X161085371Y-96501013D01*
X161094522Y-96446883D01*
X161111517Y-96395226D01*
X161133209Y-96351384D01*
X161153024Y-96320372D01*
X161187674Y-96278458D01*
X161228235Y-96242070D01*
X161269252Y-96214364D01*
X161313735Y-96192031D01*
X161360721Y-96176079D01*
X161410211Y-96166507D01*
X161462204Y-96163317D01*
X161515693Y-96166340D01*
G37*
G36*
X160657668Y-96790044D02*
G01*
X160608927Y-96784243D01*
X160558200Y-96766841D01*
X160512187Y-96742097D01*
X160471538Y-96713818D01*
X160450795Y-96697232D01*
X160450795Y-96305955D01*
X160578534Y-96305955D01*
X160578534Y-96178949D01*
X160308645Y-96178949D01*
X160308645Y-96771482D01*
X160185058Y-96771482D01*
X160185058Y-96898000D01*
X160450795Y-96898000D01*
X160450795Y-96818132D01*
X160497251Y-96850587D01*
X160542832Y-96876327D01*
X160594903Y-96897870D01*
X160645782Y-96910274D01*
X160688443Y-96913631D01*
X160741403Y-96908859D01*
X160790414Y-96892363D01*
X160832370Y-96860608D01*
X160838652Y-96853303D01*
X160864155Y-96807646D01*
X160877756Y-96759889D01*
X160884698Y-96709912D01*
X160886965Y-96660991D01*
X160887012Y-96652291D01*
X160887012Y-96305955D01*
X160988129Y-96305955D01*
X160988129Y-96178949D01*
X160744863Y-96178949D01*
X160744863Y-96682089D01*
X160739142Y-96732916D01*
X160724591Y-96763910D01*
X160681823Y-96787977D01*
X160657668Y-96790044D01*
G37*
G36*
X159254493Y-96017016D02*
G01*
X159381011Y-96036311D01*
X159394255Y-95988392D01*
X159434500Y-95966213D01*
X159478946Y-95988218D01*
X159479685Y-95989660D01*
X159489823Y-96038996D01*
X159490920Y-96072947D01*
X159490920Y-96178949D01*
X159367089Y-96178949D01*
X159367089Y-96305955D01*
X159490920Y-96305955D01*
X159490920Y-96771482D01*
X159354877Y-96771482D01*
X159354877Y-96898000D01*
X159738827Y-96898000D01*
X159738827Y-96771482D01*
X159633070Y-96771482D01*
X159633070Y-96305955D01*
X159738827Y-96305955D01*
X159738827Y-96178949D01*
X159633070Y-96178949D01*
X159633070Y-96069039D01*
X159629244Y-96017375D01*
X159616021Y-95966724D01*
X159593352Y-95923180D01*
X159584710Y-95911503D01*
X159545839Y-95876878D01*
X159496060Y-95856625D01*
X159447217Y-95850746D01*
X159441339Y-95850686D01*
X159391074Y-95855621D01*
X159344534Y-95872262D01*
X159315310Y-95892452D01*
X159282178Y-95933040D01*
X159263149Y-95978089D01*
X159254493Y-96017016D01*
G37*
G36*
X158957982Y-96166340D02*
G01*
X159008541Y-96175407D01*
X159056168Y-96190520D01*
X159100864Y-96211677D01*
X159126960Y-96227690D01*
X159169273Y-96261051D01*
X159205596Y-96300247D01*
X159235931Y-96345278D01*
X159257088Y-96389226D01*
X159272201Y-96436075D01*
X159281268Y-96485824D01*
X159284291Y-96538474D01*
X159281977Y-96582844D01*
X159273665Y-96631521D01*
X159257088Y-96683692D01*
X159235931Y-96727762D01*
X159216347Y-96758657D01*
X159181885Y-96800298D01*
X159141317Y-96836298D01*
X159100132Y-96863561D01*
X159055206Y-96885467D01*
X159007625Y-96901114D01*
X158957387Y-96910502D01*
X158904493Y-96913631D01*
X158853034Y-96910502D01*
X158803926Y-96901114D01*
X158757169Y-96885467D01*
X158712763Y-96863561D01*
X158681619Y-96843531D01*
X158639701Y-96808786D01*
X158603540Y-96768398D01*
X158576231Y-96727762D01*
X158556626Y-96689319D01*
X158538495Y-96637453D01*
X158529061Y-96589048D01*
X158525917Y-96538474D01*
X158676370Y-96538474D01*
X158677409Y-96562293D01*
X158686789Y-96611428D01*
X158705924Y-96657176D01*
X158715732Y-96673584D01*
X158749285Y-96713815D01*
X158788478Y-96743638D01*
X158805215Y-96752856D01*
X158854743Y-96770353D01*
X158904249Y-96775634D01*
X158927636Y-96774509D01*
X158976011Y-96764354D01*
X159021241Y-96743638D01*
X159040484Y-96730749D01*
X159076580Y-96697345D01*
X159105017Y-96656443D01*
X159115226Y-96635552D01*
X159130100Y-96588343D01*
X159135058Y-96538474D01*
X159134002Y-96515210D01*
X159124468Y-96466690D01*
X159105017Y-96420749D01*
X159092869Y-96400931D01*
X159061130Y-96363412D01*
X159021974Y-96333310D01*
X159001738Y-96322270D01*
X158955419Y-96306187D01*
X158905714Y-96300826D01*
X158881947Y-96301994D01*
X158833277Y-96312536D01*
X158788478Y-96334043D01*
X158769427Y-96347163D01*
X158733806Y-96380775D01*
X158705924Y-96421482D01*
X158695880Y-96442115D01*
X158681248Y-96488884D01*
X158676370Y-96538474D01*
X158525917Y-96538474D01*
X158527660Y-96501013D01*
X158536811Y-96446883D01*
X158553806Y-96395226D01*
X158575498Y-96351384D01*
X158595313Y-96320372D01*
X158629963Y-96278458D01*
X158670524Y-96242070D01*
X158711541Y-96214364D01*
X158756024Y-96192031D01*
X158803010Y-96176079D01*
X158852500Y-96166507D01*
X158904493Y-96163317D01*
X158957982Y-96166340D01*
G37*
G36*
X158160285Y-96606862D02*
G01*
X158160285Y-96771482D01*
X158002993Y-96771482D01*
X158002993Y-96898000D01*
X158446049Y-96898000D01*
X158446049Y-96771482D01*
X158301213Y-96771482D01*
X158301213Y-96305955D01*
X158446049Y-96305955D01*
X158446049Y-96178949D01*
X158188617Y-96178949D01*
X158188617Y-96337218D01*
X158165689Y-96292293D01*
X158136756Y-96250546D01*
X158100711Y-96215083D01*
X158081151Y-96201663D01*
X158035589Y-96181442D01*
X157985325Y-96169646D01*
X157933282Y-96164253D01*
X157897236Y-96163317D01*
X157864996Y-96163317D01*
X157864996Y-96306932D01*
X157895770Y-96306932D01*
X157949840Y-96308840D01*
X158001836Y-96315548D01*
X158052689Y-96330307D01*
X158067717Y-96337462D01*
X158107112Y-96367229D01*
X158135563Y-96410827D01*
X158142211Y-96429297D01*
X158152501Y-96478048D01*
X158157744Y-96527510D01*
X158160003Y-96578709D01*
X158160285Y-96606862D01*
G37*
G36*
X157437082Y-95991370D02*
G01*
X157309343Y-95991370D01*
X157309343Y-96771482D01*
X157437082Y-96771482D01*
X157437082Y-96898000D01*
X157171346Y-96898000D01*
X157171346Y-96793219D01*
X157143024Y-96825992D01*
X157104983Y-96856642D01*
X157059727Y-96881635D01*
X157014518Y-96898508D01*
X156962970Y-96909850D01*
X156909518Y-96913631D01*
X156878848Y-96912373D01*
X156826016Y-96903767D01*
X156776237Y-96887008D01*
X156729511Y-96862096D01*
X156705246Y-96845062D01*
X156665838Y-96810104D01*
X156631916Y-96769620D01*
X156603481Y-96723610D01*
X156585685Y-96684821D01*
X156569226Y-96632752D01*
X156560663Y-96584392D01*
X156557808Y-96534078D01*
X156557905Y-96531391D01*
X156707040Y-96531391D01*
X156708054Y-96555946D01*
X156717201Y-96607322D01*
X156735861Y-96656199D01*
X156747519Y-96677391D01*
X156778610Y-96717887D01*
X156817682Y-96750965D01*
X156837981Y-96763250D01*
X156885497Y-96781147D01*
X156937850Y-96787113D01*
X156961102Y-96785988D01*
X157008891Y-96775833D01*
X157053132Y-96755117D01*
X157071960Y-96742195D01*
X157107451Y-96708480D01*
X157135687Y-96666946D01*
X157145896Y-96645594D01*
X157160770Y-96596738D01*
X157165728Y-96544336D01*
X157164314Y-96514192D01*
X157155310Y-96465454D01*
X157136175Y-96416841D01*
X157124303Y-96396159D01*
X157093159Y-96357120D01*
X157054598Y-96325983D01*
X157034517Y-96314611D01*
X156987708Y-96298044D01*
X156936384Y-96292521D01*
X156912144Y-96293655D01*
X156862982Y-96303887D01*
X156818415Y-96324762D01*
X156802636Y-96335309D01*
X156764355Y-96370678D01*
X156736594Y-96411224D01*
X156726550Y-96432043D01*
X156711918Y-96479863D01*
X156707040Y-96531391D01*
X156557905Y-96531391D01*
X156558911Y-96503423D01*
X156566457Y-96449928D01*
X156581151Y-96398597D01*
X156602993Y-96349430D01*
X156617901Y-96323575D01*
X156649095Y-96281363D01*
X156685891Y-96244715D01*
X156728289Y-96213631D01*
X156753872Y-96199136D01*
X156802294Y-96179237D01*
X156853769Y-96167297D01*
X156908296Y-96163317D01*
X156936879Y-96164386D01*
X156991611Y-96172938D01*
X157043096Y-96190043D01*
X157091336Y-96215700D01*
X157136330Y-96249909D01*
X157171346Y-96284950D01*
X157171346Y-95866318D01*
X157437082Y-95866318D01*
X157437082Y-95991370D01*
G37*
G36*
X156132337Y-96790044D02*
G01*
X156083595Y-96784243D01*
X156032869Y-96766841D01*
X155986856Y-96742097D01*
X155946206Y-96713818D01*
X155925463Y-96697232D01*
X155925463Y-96305955D01*
X156053202Y-96305955D01*
X156053202Y-96178949D01*
X155783314Y-96178949D01*
X155783314Y-96771482D01*
X155659727Y-96771482D01*
X155659727Y-96898000D01*
X155925463Y-96898000D01*
X155925463Y-96818132D01*
X155971920Y-96850587D01*
X156017501Y-96876327D01*
X156069572Y-96897870D01*
X156120450Y-96910274D01*
X156163112Y-96913631D01*
X156216072Y-96908859D01*
X156265083Y-96892363D01*
X156307038Y-96860608D01*
X156313321Y-96853303D01*
X156338823Y-96807646D01*
X156352425Y-96759889D01*
X156359367Y-96709912D01*
X156361634Y-96660991D01*
X156361681Y-96652291D01*
X156361681Y-96305955D01*
X156462797Y-96305955D01*
X156462797Y-96178949D01*
X156219532Y-96178949D01*
X156219532Y-96682089D01*
X156213810Y-96732916D01*
X156199259Y-96763910D01*
X156156491Y-96787977D01*
X156132337Y-96790044D01*
G37*
G36*
X155370055Y-96305955D02*
G01*
X155213495Y-96713596D01*
X155061821Y-96305955D01*
X155157808Y-96305955D01*
X155157808Y-96178949D01*
X154812937Y-96178949D01*
X154812937Y-96305955D01*
X154919427Y-96305955D01*
X155276021Y-97226262D01*
X155516356Y-97226262D01*
X155516356Y-97102675D01*
X155374207Y-97102675D01*
X155288478Y-96889207D01*
X155524661Y-96305955D01*
X155645561Y-96305955D01*
X155645561Y-96178949D01*
X155284326Y-96178949D01*
X155284326Y-96305955D01*
X155370055Y-96305955D01*
G37*
G36*
X154496643Y-95936660D02*
G01*
X154510931Y-95983692D01*
X154522044Y-95996988D01*
X154565641Y-96020801D01*
X154582616Y-96022389D01*
X154629373Y-96008101D01*
X154642456Y-95996988D01*
X154665582Y-95953528D01*
X154667124Y-95936660D01*
X154653248Y-95889399D01*
X154642456Y-95876087D01*
X154599454Y-95852274D01*
X154582616Y-95850686D01*
X154534622Y-95864562D01*
X154521555Y-95875355D01*
X154498200Y-95919089D01*
X154496643Y-95936660D01*
G37*
G36*
X154395038Y-96771482D02*
G01*
X154395038Y-96898000D01*
X154759936Y-96898000D01*
X154759936Y-96771482D01*
X154647096Y-96771482D01*
X154647096Y-96305955D01*
X154759936Y-96305955D01*
X154759936Y-96178949D01*
X154504947Y-96178949D01*
X154504947Y-96771482D01*
X154395038Y-96771482D01*
G37*
G36*
X153625673Y-96410491D02*
G01*
X153625673Y-96771482D01*
X153504772Y-96771482D01*
X153504772Y-96898000D01*
X153767822Y-96898000D01*
X153767822Y-96418795D01*
X153771047Y-96369639D01*
X153786159Y-96322739D01*
X153787361Y-96320854D01*
X153828445Y-96293413D01*
X153851597Y-96291056D01*
X153900446Y-96296933D01*
X153952225Y-96314564D01*
X153999937Y-96339634D01*
X154042618Y-96368285D01*
X154064577Y-96385090D01*
X154064577Y-96771482D01*
X153940257Y-96771482D01*
X153940257Y-96898000D01*
X154332023Y-96898000D01*
X154332023Y-96771482D01*
X154204772Y-96771482D01*
X154204772Y-96305955D01*
X154332023Y-96305955D01*
X154332023Y-96178949D01*
X154064577Y-96178949D01*
X154064577Y-96260526D01*
X154023520Y-96232521D01*
X153975274Y-96205181D01*
X153928145Y-96184676D01*
X153874571Y-96169393D01*
X153822517Y-96163412D01*
X153815205Y-96163317D01*
X153764780Y-96168070D01*
X153718087Y-96184499D01*
X153678076Y-96216125D01*
X153672079Y-96223401D01*
X153647607Y-96267488D01*
X153633331Y-96318343D01*
X153626806Y-96372435D01*
X153625673Y-96410491D01*
G37*
G36*
X153102680Y-96164587D02*
G01*
X153155756Y-96173275D01*
X153206012Y-96190193D01*
X153253446Y-96215341D01*
X153282910Y-96236103D01*
X153322533Y-96271948D01*
X153356670Y-96313435D01*
X153382407Y-96355048D01*
X153400679Y-96394087D01*
X153417578Y-96446272D01*
X153426370Y-96494541D01*
X153429301Y-96544580D01*
X153428204Y-96575410D01*
X153420699Y-96628950D01*
X153406085Y-96679978D01*
X153384361Y-96728495D01*
X153369458Y-96753870D01*
X153338306Y-96795487D01*
X153301589Y-96831888D01*
X153259308Y-96863073D01*
X153228562Y-96880255D01*
X153179803Y-96899362D01*
X153127875Y-96910471D01*
X153079057Y-96913631D01*
X153034306Y-96910554D01*
X152985025Y-96900062D01*
X152935687Y-96882124D01*
X152893264Y-96860166D01*
X152852274Y-96830778D01*
X152817229Y-96795906D01*
X152817229Y-96865027D01*
X152819358Y-96905779D01*
X152828823Y-96955253D01*
X152848520Y-97004270D01*
X152877801Y-97046255D01*
X152902073Y-97069579D01*
X152944662Y-97095517D01*
X152994671Y-97110598D01*
X153045352Y-97114887D01*
X153056353Y-97114713D01*
X153105533Y-97109304D01*
X153154284Y-97095103D01*
X153169778Y-97088520D01*
X153213162Y-97065012D01*
X153253446Y-97036485D01*
X153344793Y-97141754D01*
X153305314Y-97170603D01*
X153254664Y-97198767D01*
X153200442Y-97219890D01*
X153152528Y-97232114D01*
X153102134Y-97239449D01*
X153049259Y-97241893D01*
X153015775Y-97240990D01*
X152963393Y-97235467D01*
X152906186Y-97222212D01*
X152855144Y-97201727D01*
X152810267Y-97174012D01*
X152771555Y-97139067D01*
X152744114Y-97104899D01*
X152717323Y-97058325D01*
X152697231Y-97005672D01*
X152685603Y-96957150D01*
X152678626Y-96904407D01*
X152676301Y-96847441D01*
X152676301Y-96540672D01*
X152815763Y-96540672D01*
X152816828Y-96564918D01*
X152826440Y-96615389D01*
X152846049Y-96663038D01*
X152858248Y-96683471D01*
X152890452Y-96722147D01*
X152930557Y-96753163D01*
X152954911Y-96766202D01*
X153003487Y-96781919D01*
X153052190Y-96786625D01*
X153076671Y-96785474D01*
X153126118Y-96775087D01*
X153170648Y-96753896D01*
X153186257Y-96743032D01*
X153223870Y-96706647D01*
X153250760Y-96664992D01*
X153261704Y-96639984D01*
X153274898Y-96590689D01*
X153278848Y-96541893D01*
X153277809Y-96517656D01*
X153268429Y-96467263D01*
X153249294Y-96419772D01*
X153237396Y-96399256D01*
X153206020Y-96360459D01*
X153166984Y-96329402D01*
X153146697Y-96318031D01*
X153099913Y-96301463D01*
X153049259Y-96295941D01*
X153024968Y-96297169D01*
X152975340Y-96308254D01*
X152929825Y-96330868D01*
X152910582Y-96344655D01*
X152874486Y-96379889D01*
X152846049Y-96422459D01*
X152835757Y-96443880D01*
X152820762Y-96491470D01*
X152815763Y-96540672D01*
X152676301Y-96540672D01*
X152676301Y-96305955D01*
X152545875Y-96305955D01*
X152545875Y-96178949D01*
X152817229Y-96178949D01*
X152817229Y-96276890D01*
X152850727Y-96246922D01*
X152892352Y-96216592D01*
X152938617Y-96191405D01*
X152970216Y-96179116D01*
X153019790Y-96167267D01*
X153071974Y-96163317D01*
X153102680Y-96164587D01*
G37*
G36*
X151774312Y-96166340D02*
G01*
X151824870Y-96175407D01*
X151872497Y-96190520D01*
X151917194Y-96211677D01*
X151943289Y-96227690D01*
X151985602Y-96261051D01*
X152021926Y-96300247D01*
X152052260Y-96345278D01*
X152073418Y-96389226D01*
X152088530Y-96436075D01*
X152097598Y-96485824D01*
X152100620Y-96538474D01*
X152098306Y-96582844D01*
X152089994Y-96631521D01*
X152073418Y-96683692D01*
X152052260Y-96727762D01*
X152032677Y-96758657D01*
X151998214Y-96800298D01*
X151957647Y-96836298D01*
X151916461Y-96863561D01*
X151871536Y-96885467D01*
X151823954Y-96901114D01*
X151773716Y-96910502D01*
X151720823Y-96913631D01*
X151669364Y-96910502D01*
X151620256Y-96901114D01*
X151573498Y-96885467D01*
X151529092Y-96863561D01*
X151497948Y-96843531D01*
X151456030Y-96808786D01*
X151419870Y-96768398D01*
X151392560Y-96727762D01*
X151372955Y-96689319D01*
X151354825Y-96637453D01*
X151345391Y-96589048D01*
X151342246Y-96538474D01*
X151492700Y-96538474D01*
X151493739Y-96562293D01*
X151503119Y-96611428D01*
X151522253Y-96657176D01*
X151532061Y-96673584D01*
X151565614Y-96713815D01*
X151604807Y-96743638D01*
X151621544Y-96752856D01*
X151671072Y-96770353D01*
X151720578Y-96775634D01*
X151743966Y-96774509D01*
X151792340Y-96764354D01*
X151837571Y-96743638D01*
X151856813Y-96730749D01*
X151892909Y-96697345D01*
X151921346Y-96656443D01*
X151931556Y-96635552D01*
X151946430Y-96588343D01*
X151951388Y-96538474D01*
X151950332Y-96515210D01*
X151940797Y-96466690D01*
X151921346Y-96420749D01*
X151909199Y-96400931D01*
X151877460Y-96363412D01*
X151838303Y-96333310D01*
X151818068Y-96322270D01*
X151771749Y-96306187D01*
X151722044Y-96300826D01*
X151698276Y-96301994D01*
X151649607Y-96312536D01*
X151604807Y-96334043D01*
X151585756Y-96347163D01*
X151550135Y-96380775D01*
X151522253Y-96421482D01*
X151512210Y-96442115D01*
X151497577Y-96488884D01*
X151492700Y-96538474D01*
X151342246Y-96538474D01*
X151343989Y-96501013D01*
X151353141Y-96446883D01*
X151370136Y-96395226D01*
X151391827Y-96351384D01*
X151411643Y-96320372D01*
X151446292Y-96278458D01*
X151486853Y-96242070D01*
X151527871Y-96214364D01*
X151572353Y-96192031D01*
X151619340Y-96176079D01*
X151668829Y-96166507D01*
X151720823Y-96163317D01*
X151774312Y-96166340D01*
G37*
G36*
X150976615Y-96606862D02*
G01*
X150976615Y-96771482D01*
X150819322Y-96771482D01*
X150819322Y-96898000D01*
X151262379Y-96898000D01*
X151262379Y-96771482D01*
X151117543Y-96771482D01*
X151117543Y-96305955D01*
X151262379Y-96305955D01*
X151262379Y-96178949D01*
X151004947Y-96178949D01*
X151004947Y-96337218D01*
X150982019Y-96292293D01*
X150953086Y-96250546D01*
X150917041Y-96215083D01*
X150897480Y-96201663D01*
X150851918Y-96181442D01*
X150801654Y-96169646D01*
X150749611Y-96164253D01*
X150713565Y-96163317D01*
X150681325Y-96163317D01*
X150681325Y-96306932D01*
X150712100Y-96306932D01*
X150766169Y-96308840D01*
X150818165Y-96315548D01*
X150869018Y-96330307D01*
X150884047Y-96337462D01*
X150923441Y-96367229D01*
X150951892Y-96410827D01*
X150958541Y-96429297D01*
X150968831Y-96478048D01*
X150974073Y-96527510D01*
X150976332Y-96578709D01*
X150976615Y-96606862D01*
G37*
G36*
X150118101Y-96771482D02*
G01*
X150118101Y-96305955D01*
X150239734Y-96305955D01*
X150239734Y-96178949D01*
X149976684Y-96178949D01*
X149976684Y-96264678D01*
X149937108Y-96235477D01*
X149889916Y-96206969D01*
X149843050Y-96185589D01*
X149788785Y-96169652D01*
X149734965Y-96163416D01*
X149727312Y-96163317D01*
X149676354Y-96168728D01*
X149627303Y-96188165D01*
X149588052Y-96221737D01*
X149558602Y-96269444D01*
X149555610Y-96276401D01*
X149512574Y-96245582D01*
X149470325Y-96219987D01*
X149420666Y-96196168D01*
X149372139Y-96179870D01*
X149316958Y-96170363D01*
X149293781Y-96169423D01*
X149242743Y-96174432D01*
X149194590Y-96191512D01*
X149154807Y-96220714D01*
X149125188Y-96262413D01*
X149108931Y-96311490D01*
X149102987Y-96364755D01*
X149102784Y-96377762D01*
X149102784Y-96771482D01*
X148976510Y-96771482D01*
X148976510Y-96898000D01*
X149243712Y-96898000D01*
X149243712Y-96438334D01*
X149245434Y-96388149D01*
X149248597Y-96361154D01*
X149268685Y-96315927D01*
X149273509Y-96310595D01*
X149319645Y-96290828D01*
X149337745Y-96289835D01*
X149388801Y-96298101D01*
X149429092Y-96313282D01*
X149472447Y-96336243D01*
X149514040Y-96364379D01*
X149539001Y-96383868D01*
X149539001Y-96771482D01*
X149416880Y-96771482D01*
X149416880Y-96898000D01*
X149681151Y-96898000D01*
X149681151Y-96420260D01*
X149684617Y-96370193D01*
X149700863Y-96322296D01*
X149702155Y-96320365D01*
X149743851Y-96292816D01*
X149771276Y-96289835D01*
X149824919Y-96299018D01*
X149874737Y-96319588D01*
X149923361Y-96347228D01*
X149968779Y-96378083D01*
X149976684Y-96383868D01*
X149976684Y-96771482D01*
X149849678Y-96771482D01*
X149849678Y-96898000D01*
X150248038Y-96898000D01*
X150248038Y-96771482D01*
X150118101Y-96771482D01*
G37*
G36*
X148632737Y-96164828D02*
G01*
X148682097Y-96171545D01*
X148733211Y-96185524D01*
X148779650Y-96206304D01*
X148803293Y-96220746D01*
X148841914Y-96252212D01*
X148875473Y-96290710D01*
X148903970Y-96336241D01*
X148767927Y-96370435D01*
X148743129Y-96336054D01*
X148703691Y-96304489D01*
X148657052Y-96287528D01*
X148606971Y-96282752D01*
X148582599Y-96283658D01*
X148533254Y-96293229D01*
X148489734Y-96319877D01*
X148472378Y-96344486D01*
X148457336Y-96393676D01*
X148453830Y-96442487D01*
X148453830Y-96521133D01*
X148500404Y-96494526D01*
X148548780Y-96475520D01*
X148598956Y-96464117D01*
X148650934Y-96460316D01*
X148678575Y-96461672D01*
X148729722Y-96471384D01*
X148776719Y-96488648D01*
X148799265Y-96500123D01*
X148841928Y-96530817D01*
X148876126Y-96569493D01*
X148888577Y-96589609D01*
X148906716Y-96636727D01*
X148912763Y-96688683D01*
X148912244Y-96704021D01*
X148902253Y-96754998D01*
X148879546Y-96801768D01*
X148868558Y-96817219D01*
X148832147Y-96855153D01*
X148790885Y-96883345D01*
X148769699Y-96893637D01*
X148721086Y-96908633D01*
X148668764Y-96913631D01*
X148622227Y-96910136D01*
X148569996Y-96897225D01*
X148519986Y-96874800D01*
X148478887Y-96848007D01*
X148439420Y-96814224D01*
X148439420Y-96898000D01*
X148193467Y-96898000D01*
X148193467Y-96771482D01*
X148314368Y-96771482D01*
X148314368Y-96638125D01*
X148453830Y-96638125D01*
X148453830Y-96719946D01*
X148459552Y-96725146D01*
X148500328Y-96756919D01*
X148548474Y-96783327D01*
X148598269Y-96799173D01*
X148649713Y-96804454D01*
X148697924Y-96797209D01*
X148741793Y-96771482D01*
X148767388Y-96736867D01*
X148777452Y-96688683D01*
X148767255Y-96641300D01*
X148736663Y-96602710D01*
X148734084Y-96600591D01*
X148688792Y-96575839D01*
X148639455Y-96568272D01*
X148593049Y-96572637D01*
X148540842Y-96587986D01*
X148494436Y-96610907D01*
X148453830Y-96638125D01*
X148314368Y-96638125D01*
X148314368Y-96434427D01*
X148314433Y-96425708D01*
X148318566Y-96368802D01*
X148329126Y-96319118D01*
X148349066Y-96271182D01*
X148381534Y-96228530D01*
X148394767Y-96216876D01*
X148436750Y-96191402D01*
X148488472Y-96174080D01*
X148541719Y-96165610D01*
X148593293Y-96163317D01*
X148632737Y-96164828D01*
G37*
G36*
X147611192Y-96297162D02*
G01*
X147725254Y-96297162D01*
X147725254Y-96178949D01*
X147325428Y-96178949D01*
X147325428Y-96297162D01*
X147436803Y-96297162D01*
X147706691Y-96519912D01*
X147451946Y-96771482D01*
X147325428Y-96771482D01*
X147325428Y-96898000D01*
X147513007Y-96898000D01*
X147874242Y-96535543D01*
X147874242Y-96771482D01*
X147751876Y-96771482D01*
X147751876Y-96898000D01*
X148145596Y-96898000D01*
X148145596Y-96771482D01*
X148016391Y-96771482D01*
X148016391Y-95991370D01*
X148145596Y-95991370D01*
X148145596Y-95866318D01*
X147874242Y-95866318D01*
X147874242Y-96516981D01*
X147611192Y-96297162D01*
G37*
G36*
X147009134Y-95936660D02*
G01*
X147023422Y-95983692D01*
X147034535Y-95996988D01*
X147078132Y-96020801D01*
X147095107Y-96022389D01*
X147141865Y-96008101D01*
X147154947Y-95996988D01*
X147178074Y-95953528D01*
X147179615Y-95936660D01*
X147165739Y-95889399D01*
X147154947Y-95876087D01*
X147111945Y-95852274D01*
X147095107Y-95850686D01*
X147047114Y-95864562D01*
X147034047Y-95875355D01*
X147010691Y-95919089D01*
X147009134Y-95936660D01*
G37*
G36*
X146907529Y-96771482D02*
G01*
X146907529Y-96898000D01*
X147272428Y-96898000D01*
X147272428Y-96771482D01*
X147159587Y-96771482D01*
X147159587Y-96305955D01*
X147272428Y-96305955D01*
X147272428Y-96178949D01*
X147017438Y-96178949D01*
X147017438Y-96771482D01*
X146907529Y-96771482D01*
G37*
G36*
X146138164Y-96410491D02*
G01*
X146138164Y-96771482D01*
X146017264Y-96771482D01*
X146017264Y-96898000D01*
X146280313Y-96898000D01*
X146280313Y-96418795D01*
X146283538Y-96369639D01*
X146298650Y-96322739D01*
X146299853Y-96320854D01*
X146340937Y-96293413D01*
X146364088Y-96291056D01*
X146412937Y-96296933D01*
X146464717Y-96314564D01*
X146512428Y-96339634D01*
X146555109Y-96368285D01*
X146577068Y-96385090D01*
X146577068Y-96771482D01*
X146452749Y-96771482D01*
X146452749Y-96898000D01*
X146844514Y-96898000D01*
X146844514Y-96771482D01*
X146717264Y-96771482D01*
X146717264Y-96305955D01*
X146844514Y-96305955D01*
X146844514Y-96178949D01*
X146577068Y-96178949D01*
X146577068Y-96260526D01*
X146536011Y-96232521D01*
X146487765Y-96205181D01*
X146440636Y-96184676D01*
X146387063Y-96169393D01*
X146335009Y-96163412D01*
X146327696Y-96163317D01*
X146277271Y-96168070D01*
X146230579Y-96184499D01*
X146190567Y-96216125D01*
X146184570Y-96223401D01*
X146160098Y-96267488D01*
X146145823Y-96318343D01*
X146139297Y-96372435D01*
X146138164Y-96410491D01*
G37*
G36*
X145615171Y-96164587D02*
G01*
X145668247Y-96173275D01*
X145718503Y-96190193D01*
X145765938Y-96215341D01*
X145795401Y-96236103D01*
X145835025Y-96271948D01*
X145869161Y-96313435D01*
X145894898Y-96355048D01*
X145913170Y-96394087D01*
X145930069Y-96446272D01*
X145938862Y-96494541D01*
X145941793Y-96544580D01*
X145940695Y-96575410D01*
X145933191Y-96628950D01*
X145918576Y-96679978D01*
X145896852Y-96728495D01*
X145881949Y-96753870D01*
X145850797Y-96795487D01*
X145814080Y-96831888D01*
X145771800Y-96863073D01*
X145741054Y-96880255D01*
X145692294Y-96899362D01*
X145640366Y-96910471D01*
X145591548Y-96913631D01*
X145546798Y-96910554D01*
X145497517Y-96900062D01*
X145448178Y-96882124D01*
X145405755Y-96860166D01*
X145364765Y-96830778D01*
X145329720Y-96795906D01*
X145329720Y-96865027D01*
X145331850Y-96905779D01*
X145341314Y-96955253D01*
X145361012Y-97004270D01*
X145390292Y-97046255D01*
X145414564Y-97069579D01*
X145457154Y-97095517D01*
X145507162Y-97110598D01*
X145557843Y-97114887D01*
X145568844Y-97114713D01*
X145618024Y-97109304D01*
X145666775Y-97095103D01*
X145682269Y-97088520D01*
X145725653Y-97065012D01*
X145765938Y-97036485D01*
X145857285Y-97141754D01*
X145817805Y-97170603D01*
X145767155Y-97198767D01*
X145712933Y-97219890D01*
X145665020Y-97232114D01*
X145614625Y-97239449D01*
X145561751Y-97241893D01*
X145528266Y-97240990D01*
X145475884Y-97235467D01*
X145418677Y-97222212D01*
X145367635Y-97201727D01*
X145322758Y-97174012D01*
X145284047Y-97139067D01*
X145256605Y-97104899D01*
X145229815Y-97058325D01*
X145209722Y-97005672D01*
X145198094Y-96957150D01*
X145191117Y-96904407D01*
X145188792Y-96847441D01*
X145188792Y-96540672D01*
X145328255Y-96540672D01*
X145329319Y-96564918D01*
X145338932Y-96615389D01*
X145358541Y-96663038D01*
X145370739Y-96683471D01*
X145402944Y-96722147D01*
X145443049Y-96753163D01*
X145467402Y-96766202D01*
X145515978Y-96781919D01*
X145564682Y-96786625D01*
X145589162Y-96785474D01*
X145638610Y-96775087D01*
X145683139Y-96753896D01*
X145698748Y-96743032D01*
X145736361Y-96706647D01*
X145763251Y-96664992D01*
X145774195Y-96639984D01*
X145787389Y-96590689D01*
X145791339Y-96541893D01*
X145790300Y-96517656D01*
X145780920Y-96467263D01*
X145761786Y-96419772D01*
X145749887Y-96399256D01*
X145718511Y-96360459D01*
X145679476Y-96329402D01*
X145659188Y-96318031D01*
X145612404Y-96301463D01*
X145561751Y-96295941D01*
X145537459Y-96297169D01*
X145487832Y-96308254D01*
X145442316Y-96330868D01*
X145423073Y-96344655D01*
X145386978Y-96379889D01*
X145358541Y-96422459D01*
X145348248Y-96443880D01*
X145333253Y-96491470D01*
X145328255Y-96540672D01*
X145188792Y-96540672D01*
X145188792Y-96305955D01*
X145058366Y-96305955D01*
X145058366Y-96178949D01*
X145329720Y-96178949D01*
X145329720Y-96276890D01*
X145363219Y-96246922D01*
X145404844Y-96216592D01*
X145451109Y-96191405D01*
X145482708Y-96179116D01*
X145532281Y-96167267D01*
X145584465Y-96163317D01*
X145615171Y-96164587D01*
G37*
G36*
X164862309Y-97858949D02*
G01*
X164862309Y-97985955D01*
X164994200Y-97985955D01*
X164994200Y-98364775D01*
X164990616Y-98415858D01*
X164981499Y-98441468D01*
X164937780Y-98459053D01*
X164888307Y-98453478D01*
X164862309Y-98446108D01*
X164862309Y-98574336D01*
X164911697Y-98586829D01*
X164960973Y-98593461D01*
X164968799Y-98593631D01*
X165019651Y-98589242D01*
X165067828Y-98572390D01*
X165097271Y-98548690D01*
X165121084Y-98505803D01*
X165132533Y-98456315D01*
X165136311Y-98401090D01*
X165136349Y-98394329D01*
X165136349Y-97985955D01*
X165230627Y-97985955D01*
X165230627Y-97858949D01*
X165136349Y-97858949D01*
X165136349Y-97751726D01*
X164994200Y-97624475D01*
X164994200Y-97858949D01*
X164862309Y-97858949D01*
G37*
G36*
X164286629Y-97843317D02*
G01*
X164228649Y-97848576D01*
X164180497Y-97864354D01*
X164135686Y-97897173D01*
X164105026Y-97945138D01*
X164090286Y-97996679D01*
X164085569Y-98045486D01*
X164085372Y-98058739D01*
X164085372Y-98451482D01*
X163963007Y-98451482D01*
X163963007Y-98578000D01*
X164227522Y-98578000D01*
X164227522Y-98110274D01*
X164230682Y-98059144D01*
X164244726Y-98010845D01*
X164249992Y-98002319D01*
X164292097Y-97974109D01*
X164318869Y-97971056D01*
X164372826Y-97980000D01*
X164422690Y-98000036D01*
X164471204Y-98026959D01*
X164516416Y-98057012D01*
X164524277Y-98062647D01*
X164524277Y-98451482D01*
X164399224Y-98451482D01*
X164399224Y-98578000D01*
X164795631Y-98578000D01*
X164795631Y-98451482D01*
X164666426Y-98451482D01*
X164666426Y-97671370D01*
X164795631Y-97671370D01*
X164795631Y-97546318D01*
X164524277Y-97546318D01*
X164524277Y-97946143D01*
X164484794Y-97916520D01*
X164438563Y-97887601D01*
X164393586Y-97865911D01*
X164342698Y-97849744D01*
X164293515Y-97843417D01*
X164286629Y-97843317D01*
G37*
G36*
X163644514Y-97616660D02*
G01*
X163658802Y-97663692D01*
X163669915Y-97676988D01*
X163713513Y-97700801D01*
X163730488Y-97702389D01*
X163777245Y-97688101D01*
X163790327Y-97676988D01*
X163813454Y-97633528D01*
X163814996Y-97616660D01*
X163801120Y-97569399D01*
X163790327Y-97556087D01*
X163747325Y-97532274D01*
X163730488Y-97530686D01*
X163682494Y-97544562D01*
X163669427Y-97555355D01*
X163646071Y-97599089D01*
X163644514Y-97616660D01*
G37*
G36*
X163542909Y-98451482D02*
G01*
X163542909Y-98578000D01*
X163907808Y-98578000D01*
X163907808Y-98451482D01*
X163794968Y-98451482D01*
X163794968Y-97985955D01*
X163907808Y-97985955D01*
X163907808Y-97858949D01*
X163652818Y-97858949D01*
X163652818Y-98451482D01*
X163542909Y-98451482D01*
G37*
G36*
X163023649Y-97883861D02*
G01*
X163023649Y-97858949D01*
X162900062Y-97858949D01*
X162900062Y-98093422D01*
X163023649Y-98093422D01*
X163023649Y-98049214D01*
X163057385Y-98010211D01*
X163102126Y-97979653D01*
X163154053Y-97963199D01*
X163192665Y-97960065D01*
X163243773Y-97966415D01*
X163284744Y-97985466D01*
X163316190Y-98025117D01*
X163320404Y-98050923D01*
X163303857Y-98097017D01*
X163293293Y-98106611D01*
X163245393Y-98126512D01*
X163194050Y-98137920D01*
X163171416Y-98141782D01*
X163075917Y-98160588D01*
X163025828Y-98172549D01*
X162972608Y-98193317D01*
X162929824Y-98220548D01*
X162892258Y-98261758D01*
X162869718Y-98312277D01*
X162862413Y-98361485D01*
X162862204Y-98372103D01*
X162868329Y-98425321D01*
X162886702Y-98472318D01*
X162917324Y-98513094D01*
X162939629Y-98533059D01*
X162981379Y-98559559D01*
X163029450Y-98578488D01*
X163083839Y-98589845D01*
X163136615Y-98593572D01*
X163144549Y-98593631D01*
X163194924Y-98589845D01*
X163244444Y-98578488D01*
X163292056Y-98560331D01*
X163326510Y-98540875D01*
X163326510Y-98578000D01*
X163453028Y-98578000D01*
X163453028Y-98327895D01*
X163326510Y-98327895D01*
X163326510Y-98353785D01*
X163308682Y-98400124D01*
X163274432Y-98437018D01*
X163268624Y-98441224D01*
X163223791Y-98463763D01*
X163173068Y-98473681D01*
X163157494Y-98474196D01*
X163106012Y-98470085D01*
X163058732Y-98455122D01*
X163048317Y-98449284D01*
X163015076Y-98411175D01*
X163008506Y-98375278D01*
X163029467Y-98329499D01*
X163040257Y-98322277D01*
X163087762Y-98304386D01*
X163138982Y-98291732D01*
X163167264Y-98285885D01*
X163240781Y-98270009D01*
X163291721Y-98256912D01*
X163340306Y-98237433D01*
X163383459Y-98209898D01*
X163400760Y-98193806D01*
X163429683Y-98153175D01*
X163446601Y-98105502D01*
X163451562Y-98056053D01*
X163445395Y-98004149D01*
X163426893Y-97958776D01*
X163414193Y-97940037D01*
X163380206Y-97904893D01*
X163339366Y-97877650D01*
X163318206Y-97867741D01*
X163270212Y-97851928D01*
X163221090Y-97844176D01*
X163198038Y-97843317D01*
X163148304Y-97845851D01*
X163097244Y-97854760D01*
X163046582Y-97872181D01*
X163023649Y-97883861D01*
G37*
G36*
X161923396Y-97845240D02*
G01*
X161975648Y-97855338D01*
X162025428Y-97874092D01*
X162068460Y-97899059D01*
X162108893Y-97931645D01*
X162143398Y-97967881D01*
X162143398Y-97858949D01*
X162406447Y-97858949D01*
X162406447Y-97985955D01*
X162285547Y-97985955D01*
X162285547Y-98779744D01*
X162416217Y-98779744D01*
X162416217Y-98906262D01*
X162002714Y-98906262D01*
X162002714Y-98779744D01*
X162143398Y-98779744D01*
X162143398Y-98482745D01*
X162129699Y-98496172D01*
X162086886Y-98531258D01*
X162041497Y-98558546D01*
X161993532Y-98578038D01*
X161942991Y-98589733D01*
X161889873Y-98593631D01*
X161859620Y-98592397D01*
X161807327Y-98583954D01*
X161757816Y-98567513D01*
X161711088Y-98543073D01*
X161686659Y-98526303D01*
X161646894Y-98491608D01*
X161612539Y-98451118D01*
X161583593Y-98404831D01*
X161567739Y-98371495D01*
X161550109Y-98319784D01*
X161539858Y-98266025D01*
X161536943Y-98216520D01*
X161536985Y-98215299D01*
X161684465Y-98215299D01*
X161685410Y-98239422D01*
X161693937Y-98290038D01*
X161711332Y-98338397D01*
X161718316Y-98352491D01*
X161747928Y-98395868D01*
X161785582Y-98429988D01*
X161797611Y-98437888D01*
X161842597Y-98457242D01*
X161892072Y-98463694D01*
X161932171Y-98461487D01*
X161981310Y-98451679D01*
X162030679Y-98431267D01*
X162073788Y-98400923D01*
X162097943Y-98375702D01*
X162124804Y-98331558D01*
X162140421Y-98279840D01*
X162144863Y-98227511D01*
X162143449Y-98197939D01*
X162134444Y-98149853D01*
X162115310Y-98101482D01*
X162103386Y-98080756D01*
X162071777Y-98041330D01*
X162032267Y-98009402D01*
X162008104Y-97995793D01*
X161959757Y-97979387D01*
X161911123Y-97974475D01*
X161891289Y-97975274D01*
X161842678Y-97984831D01*
X161795107Y-98007204D01*
X161779539Y-98017974D01*
X161741659Y-98053905D01*
X161714019Y-98094887D01*
X161703975Y-98115864D01*
X161689343Y-98163848D01*
X161684465Y-98215299D01*
X161536985Y-98215299D01*
X161538028Y-98185232D01*
X161545451Y-98130868D01*
X161559907Y-98079015D01*
X161581395Y-98029674D01*
X161596074Y-98003749D01*
X161626855Y-97961440D01*
X161663239Y-97924734D01*
X161705226Y-97893631D01*
X161735883Y-97876532D01*
X161784864Y-97857517D01*
X161837438Y-97846462D01*
X161887187Y-97843317D01*
X161923396Y-97845240D01*
G37*
G36*
X161171799Y-98286862D02*
G01*
X161171799Y-98451482D01*
X161014507Y-98451482D01*
X161014507Y-98578000D01*
X161457564Y-98578000D01*
X161457564Y-98451482D01*
X161312728Y-98451482D01*
X161312728Y-97985955D01*
X161457564Y-97985955D01*
X161457564Y-97858949D01*
X161200132Y-97858949D01*
X161200132Y-98017218D01*
X161177203Y-97972293D01*
X161148271Y-97930546D01*
X161112226Y-97895083D01*
X161092665Y-97881663D01*
X161047103Y-97861442D01*
X160996839Y-97849646D01*
X160944796Y-97844253D01*
X160908750Y-97843317D01*
X160876510Y-97843317D01*
X160876510Y-97986932D01*
X160907284Y-97986932D01*
X160961354Y-97988840D01*
X161013350Y-97995548D01*
X161064203Y-98010307D01*
X161079231Y-98017462D01*
X161118626Y-98047229D01*
X161147077Y-98090827D01*
X161153726Y-98109297D01*
X161164016Y-98158048D01*
X161169258Y-98207510D01*
X161171517Y-98258709D01*
X161171799Y-98286862D01*
G37*
G36*
X160558750Y-97846340D02*
G01*
X160609308Y-97855407D01*
X160656936Y-97870520D01*
X160701632Y-97891677D01*
X160727727Y-97907690D01*
X160770040Y-97941051D01*
X160806364Y-97980247D01*
X160836698Y-98025278D01*
X160857856Y-98069226D01*
X160872968Y-98116075D01*
X160882036Y-98165824D01*
X160885058Y-98218474D01*
X160882744Y-98262844D01*
X160874432Y-98311521D01*
X160857856Y-98363692D01*
X160836698Y-98407762D01*
X160817115Y-98438657D01*
X160782652Y-98480298D01*
X160742085Y-98516298D01*
X160700899Y-98543561D01*
X160655974Y-98565467D01*
X160608392Y-98581114D01*
X160558155Y-98590502D01*
X160505261Y-98593631D01*
X160453802Y-98590502D01*
X160404694Y-98581114D01*
X160357937Y-98565467D01*
X160313530Y-98543561D01*
X160282386Y-98523531D01*
X160240468Y-98488786D01*
X160204308Y-98448398D01*
X160176998Y-98407762D01*
X160157394Y-98369319D01*
X160139263Y-98317453D01*
X160129829Y-98269048D01*
X160126684Y-98218474D01*
X160277138Y-98218474D01*
X160278177Y-98242293D01*
X160287557Y-98291428D01*
X160306691Y-98337176D01*
X160316499Y-98353584D01*
X160350052Y-98393815D01*
X160389245Y-98423638D01*
X160405982Y-98432856D01*
X160455510Y-98450353D01*
X160505017Y-98455634D01*
X160528404Y-98454509D01*
X160576778Y-98444354D01*
X160622009Y-98423638D01*
X160641252Y-98410749D01*
X160677347Y-98377345D01*
X160705784Y-98336443D01*
X160715994Y-98315552D01*
X160730868Y-98268343D01*
X160735826Y-98218474D01*
X160734770Y-98195210D01*
X160725235Y-98146690D01*
X160705784Y-98100749D01*
X160693637Y-98080931D01*
X160661898Y-98043412D01*
X160622742Y-98013310D01*
X160602506Y-98002270D01*
X160556187Y-97986187D01*
X160506482Y-97980826D01*
X160482714Y-97981994D01*
X160434045Y-97992536D01*
X160389245Y-98014043D01*
X160370194Y-98027163D01*
X160334573Y-98060775D01*
X160306691Y-98101482D01*
X160296648Y-98122115D01*
X160282015Y-98168884D01*
X160277138Y-98218474D01*
X160126684Y-98218474D01*
X160128427Y-98181013D01*
X160137579Y-98126883D01*
X160154574Y-98075226D01*
X160176266Y-98031384D01*
X160196081Y-98000372D01*
X160230730Y-97958458D01*
X160271291Y-97922070D01*
X160312309Y-97894364D01*
X160356792Y-97872031D01*
X160403778Y-97856079D01*
X160453268Y-97846507D01*
X160505261Y-97843317D01*
X160558750Y-97846340D01*
G37*
G36*
X159662867Y-97858949D02*
G01*
X159662867Y-97985955D01*
X159794758Y-97985955D01*
X159794758Y-98364775D01*
X159791174Y-98415858D01*
X159782058Y-98441468D01*
X159738338Y-98459053D01*
X159688865Y-98453478D01*
X159662867Y-98446108D01*
X159662867Y-98574336D01*
X159712256Y-98586829D01*
X159761532Y-98593461D01*
X159769357Y-98593631D01*
X159820209Y-98589242D01*
X159868386Y-98572390D01*
X159897829Y-98548690D01*
X159921642Y-98505803D01*
X159933091Y-98456315D01*
X159936869Y-98401090D01*
X159936908Y-98394329D01*
X159936908Y-97985955D01*
X160031185Y-97985955D01*
X160031185Y-97858949D01*
X159936908Y-97858949D01*
X159936908Y-97751726D01*
X159794758Y-97624475D01*
X159794758Y-97858949D01*
X159662867Y-97858949D01*
G37*
G36*
X159241793Y-97846340D02*
G01*
X159292351Y-97855407D01*
X159339978Y-97870520D01*
X159384675Y-97891677D01*
X159410770Y-97907690D01*
X159453083Y-97941051D01*
X159489406Y-97980247D01*
X159519741Y-98025278D01*
X159540898Y-98069226D01*
X159556011Y-98116075D01*
X159565078Y-98165824D01*
X159568101Y-98218474D01*
X159565787Y-98262844D01*
X159557475Y-98311521D01*
X159540898Y-98363692D01*
X159519741Y-98407762D01*
X159500158Y-98438657D01*
X159465695Y-98480298D01*
X159425127Y-98516298D01*
X159383942Y-98543561D01*
X159339016Y-98565467D01*
X159291435Y-98581114D01*
X159241197Y-98590502D01*
X159188303Y-98593631D01*
X159136844Y-98590502D01*
X159087736Y-98581114D01*
X159040979Y-98565467D01*
X158996573Y-98543561D01*
X158965429Y-98523531D01*
X158923511Y-98488786D01*
X158887350Y-98448398D01*
X158860041Y-98407762D01*
X158840436Y-98369319D01*
X158822305Y-98317453D01*
X158812872Y-98269048D01*
X158809727Y-98218474D01*
X158960181Y-98218474D01*
X158961219Y-98242293D01*
X158970599Y-98291428D01*
X158989734Y-98337176D01*
X158999542Y-98353584D01*
X159033095Y-98393815D01*
X159072288Y-98423638D01*
X159089025Y-98432856D01*
X159138553Y-98450353D01*
X159188059Y-98455634D01*
X159211446Y-98454509D01*
X159259821Y-98444354D01*
X159305051Y-98423638D01*
X159324294Y-98410749D01*
X159360390Y-98377345D01*
X159388827Y-98336443D01*
X159399036Y-98315552D01*
X159413910Y-98268343D01*
X159418869Y-98218474D01*
X159417812Y-98195210D01*
X159408278Y-98146690D01*
X159388827Y-98100749D01*
X159376679Y-98080931D01*
X159344940Y-98043412D01*
X159305784Y-98013310D01*
X159285548Y-98002270D01*
X159239229Y-97986187D01*
X159189525Y-97980826D01*
X159165757Y-97981994D01*
X159117087Y-97992536D01*
X159072288Y-98014043D01*
X159053237Y-98027163D01*
X159017616Y-98060775D01*
X158989734Y-98101482D01*
X158979690Y-98122115D01*
X158965058Y-98168884D01*
X158960181Y-98218474D01*
X158809727Y-98218474D01*
X158811470Y-98181013D01*
X158820621Y-98126883D01*
X158837616Y-98075226D01*
X158859308Y-98031384D01*
X158879123Y-98000372D01*
X158913773Y-97958458D01*
X158954334Y-97922070D01*
X158995351Y-97894364D01*
X159039834Y-97872031D01*
X159086820Y-97856079D01*
X159136310Y-97846507D01*
X159188303Y-97843317D01*
X159241793Y-97846340D01*
G37*
G36*
X158345910Y-97858949D02*
G01*
X158345910Y-97985955D01*
X158477801Y-97985955D01*
X158477801Y-98364775D01*
X158474216Y-98415858D01*
X158465100Y-98441468D01*
X158421381Y-98459053D01*
X158371908Y-98453478D01*
X158345910Y-98446108D01*
X158345910Y-98574336D01*
X158395298Y-98586829D01*
X158444574Y-98593461D01*
X158452400Y-98593631D01*
X158503252Y-98589242D01*
X158551429Y-98572390D01*
X158580871Y-98548690D01*
X158604685Y-98505803D01*
X158616134Y-98456315D01*
X158619912Y-98401090D01*
X158619950Y-98394329D01*
X158619950Y-97985955D01*
X158714228Y-97985955D01*
X158714228Y-97858949D01*
X158619950Y-97858949D01*
X158619950Y-97751726D01*
X158477801Y-97624475D01*
X158477801Y-97858949D01*
X158345910Y-97858949D01*
G37*
G36*
X158006412Y-97985955D02*
G01*
X157849853Y-98393596D01*
X157698178Y-97985955D01*
X157794165Y-97985955D01*
X157794165Y-97858949D01*
X157449294Y-97858949D01*
X157449294Y-97985955D01*
X157555784Y-97985955D01*
X157912379Y-98906262D01*
X158152714Y-98906262D01*
X158152714Y-98782675D01*
X158010564Y-98782675D01*
X157924835Y-98569207D01*
X158161018Y-97985955D01*
X158281918Y-97985955D01*
X158281918Y-97858949D01*
X157920683Y-97858949D01*
X157920683Y-97985955D01*
X158006412Y-97985955D01*
G37*
G36*
X156921302Y-97845240D02*
G01*
X156973555Y-97855338D01*
X157023335Y-97874092D01*
X157066366Y-97899059D01*
X157106800Y-97931645D01*
X157141304Y-97967881D01*
X157141304Y-97858949D01*
X157404354Y-97858949D01*
X157404354Y-97985955D01*
X157283453Y-97985955D01*
X157283453Y-98779744D01*
X157414123Y-98779744D01*
X157414123Y-98906262D01*
X157000620Y-98906262D01*
X157000620Y-98779744D01*
X157141304Y-98779744D01*
X157141304Y-98482745D01*
X157127605Y-98496172D01*
X157084792Y-98531258D01*
X157039403Y-98558546D01*
X156991438Y-98578038D01*
X156940897Y-98589733D01*
X156887780Y-98593631D01*
X156857526Y-98592397D01*
X156805233Y-98583954D01*
X156755723Y-98567513D01*
X156708994Y-98543073D01*
X156684565Y-98526303D01*
X156644800Y-98491608D01*
X156610445Y-98451118D01*
X156581499Y-98404831D01*
X156565646Y-98371495D01*
X156548015Y-98319784D01*
X156537765Y-98266025D01*
X156534849Y-98216520D01*
X156534891Y-98215299D01*
X156682372Y-98215299D01*
X156683316Y-98239422D01*
X156691843Y-98290038D01*
X156709238Y-98338397D01*
X156716222Y-98352491D01*
X156745835Y-98395868D01*
X156783488Y-98429988D01*
X156795517Y-98437888D01*
X156840504Y-98457242D01*
X156889978Y-98463694D01*
X156930078Y-98461487D01*
X156979216Y-98451679D01*
X157028585Y-98431267D01*
X157071695Y-98400923D01*
X157095849Y-98375702D01*
X157122710Y-98331558D01*
X157138327Y-98279840D01*
X157142769Y-98227511D01*
X157141355Y-98197939D01*
X157132351Y-98149853D01*
X157113216Y-98101482D01*
X157101292Y-98080756D01*
X157069683Y-98041330D01*
X157030174Y-98009402D01*
X157006011Y-97995793D01*
X156957664Y-97979387D01*
X156909029Y-97974475D01*
X156889195Y-97975274D01*
X156840585Y-97984831D01*
X156793014Y-98007204D01*
X156777446Y-98017974D01*
X156739565Y-98053905D01*
X156711925Y-98094887D01*
X156701882Y-98115864D01*
X156687249Y-98163848D01*
X156682372Y-98215299D01*
X156534891Y-98215299D01*
X156535934Y-98185232D01*
X156543357Y-98130868D01*
X156557813Y-98079015D01*
X156579301Y-98029674D01*
X156593981Y-98003749D01*
X156624762Y-97961440D01*
X156661146Y-97924734D01*
X156703132Y-97893631D01*
X156733790Y-97876532D01*
X156782770Y-97857517D01*
X156835344Y-97846462D01*
X156885093Y-97843317D01*
X156921302Y-97845240D01*
G37*
G36*
X156106936Y-97846340D02*
G01*
X156155784Y-97855407D01*
X156202435Y-97870520D01*
X156246887Y-97891677D01*
X156278022Y-97911134D01*
X156319895Y-97945279D01*
X156355972Y-97985375D01*
X156383174Y-98026011D01*
X156404973Y-98070188D01*
X156420543Y-98116991D01*
X156429886Y-98166420D01*
X156433000Y-98218474D01*
X156429855Y-98270864D01*
X156420421Y-98320568D01*
X156404698Y-98367584D01*
X156382686Y-98411914D01*
X156358650Y-98447621D01*
X156322114Y-98488240D01*
X156284317Y-98519351D01*
X156241513Y-98545759D01*
X156235809Y-98548705D01*
X156188358Y-98568900D01*
X156137670Y-98583112D01*
X156083745Y-98591340D01*
X156033907Y-98593631D01*
X155978662Y-98590761D01*
X155925524Y-98582152D01*
X155874493Y-98567802D01*
X155825568Y-98547713D01*
X155779879Y-98521992D01*
X155738801Y-98490744D01*
X155702332Y-98453970D01*
X155670474Y-98411670D01*
X155795526Y-98356715D01*
X155817401Y-98384010D01*
X155854850Y-98417853D01*
X155897864Y-98443177D01*
X155929050Y-98455466D01*
X155978292Y-98467316D01*
X156030488Y-98471265D01*
X156054381Y-98470369D01*
X156104710Y-98461793D01*
X156155056Y-98441614D01*
X156195351Y-98413868D01*
X156211353Y-98398870D01*
X156243911Y-98355698D01*
X156264118Y-98309910D01*
X156275707Y-98257553D01*
X155670474Y-98257553D01*
X155671167Y-98241779D01*
X155676345Y-98188660D01*
X155682547Y-98155948D01*
X155819462Y-98155948D01*
X156271555Y-98155948D01*
X156269249Y-98145122D01*
X156252653Y-98095028D01*
X156227613Y-98051661D01*
X156194130Y-98015020D01*
X156154317Y-97986813D01*
X156106004Y-97967851D01*
X156052958Y-97961531D01*
X156042473Y-97961739D01*
X155992393Y-97969052D01*
X155946226Y-97986813D01*
X155903970Y-98015020D01*
X155892270Y-98025306D01*
X155858916Y-98063965D01*
X155834244Y-98109350D01*
X155819462Y-98155948D01*
X155682547Y-98155948D01*
X155685800Y-98138790D01*
X155701844Y-98085774D01*
X155723474Y-98037002D01*
X155746480Y-97998251D01*
X155777037Y-97959031D01*
X155816851Y-97921368D01*
X155857075Y-97893631D01*
X155901283Y-97871619D01*
X155949155Y-97855896D01*
X156000690Y-97846462D01*
X156055889Y-97843317D01*
X156106936Y-97846340D01*
G37*
G36*
X155215938Y-97675522D02*
G01*
X155086977Y-97675522D01*
X155086977Y-98448795D01*
X155215938Y-98448795D01*
X155215938Y-98578000D01*
X154795596Y-98578000D01*
X154795596Y-98448795D01*
X154930174Y-98448795D01*
X154930174Y-98187211D01*
X154794130Y-98187211D01*
X154756175Y-98186174D01*
X154697639Y-98181059D01*
X154645006Y-98171710D01*
X154589640Y-98154903D01*
X154542774Y-98132000D01*
X154498841Y-98097574D01*
X154473721Y-98068632D01*
X154445706Y-98023706D01*
X154426036Y-97973637D01*
X154414711Y-97918426D01*
X154411646Y-97867009D01*
X154411742Y-97863589D01*
X154570404Y-97863589D01*
X154571060Y-97886809D01*
X154577986Y-97935822D01*
X154597271Y-97983757D01*
X154598964Y-97986434D01*
X154634173Y-98022452D01*
X154681046Y-98044573D01*
X154684640Y-98045655D01*
X154733653Y-98055959D01*
X154782788Y-98060768D01*
X154833453Y-98062159D01*
X154930174Y-98062159D01*
X154930174Y-97675522D01*
X154822462Y-97675522D01*
X154773564Y-97677119D01*
X154723722Y-97683020D01*
X154671043Y-97696995D01*
X154627557Y-97720951D01*
X154620636Y-97726804D01*
X154590552Y-97766290D01*
X154574925Y-97812906D01*
X154570404Y-97863589D01*
X154411742Y-97863589D01*
X154412618Y-97832385D01*
X154418216Y-97781552D01*
X154430463Y-97731080D01*
X154451458Y-97683338D01*
X154459379Y-97670645D01*
X154492390Y-97632864D01*
X154535562Y-97602048D01*
X154583104Y-97580267D01*
X154619709Y-97568730D01*
X154668124Y-97558286D01*
X154722685Y-97551092D01*
X154774346Y-97547511D01*
X154830522Y-97546318D01*
X155215938Y-97546318D01*
X155215938Y-97675522D01*
G37*
G36*
X153843781Y-97843317D02*
G01*
X153785802Y-97848576D01*
X153737650Y-97864354D01*
X153692839Y-97897173D01*
X153662179Y-97945138D01*
X153647439Y-97996679D01*
X153642722Y-98045486D01*
X153642525Y-98058739D01*
X153642525Y-98451482D01*
X153520160Y-98451482D01*
X153520160Y-98578000D01*
X153784675Y-98578000D01*
X153784675Y-98110274D01*
X153787834Y-98059144D01*
X153801878Y-98010845D01*
X153807145Y-98002319D01*
X153849250Y-97974109D01*
X153876021Y-97971056D01*
X153929979Y-97980000D01*
X153979843Y-98000036D01*
X154028357Y-98026959D01*
X154073569Y-98057012D01*
X154081430Y-98062647D01*
X154081430Y-98451482D01*
X153956377Y-98451482D01*
X153956377Y-98578000D01*
X154352783Y-98578000D01*
X154352783Y-98451482D01*
X154223579Y-98451482D01*
X154223579Y-97671370D01*
X154352783Y-97671370D01*
X154352783Y-97546318D01*
X154081430Y-97546318D01*
X154081430Y-97946143D01*
X154041946Y-97916520D01*
X153995716Y-97887601D01*
X153950739Y-97865911D01*
X153899850Y-97849744D01*
X153850668Y-97843417D01*
X153843781Y-97843317D01*
G37*
G36*
X153170281Y-97844828D02*
G01*
X153219641Y-97851545D01*
X153270755Y-97865524D01*
X153317194Y-97886304D01*
X153340837Y-97900746D01*
X153379458Y-97932212D01*
X153413016Y-97970710D01*
X153441513Y-98016241D01*
X153305470Y-98050435D01*
X153280673Y-98016054D01*
X153241234Y-97984489D01*
X153194596Y-97967528D01*
X153144514Y-97962752D01*
X153120142Y-97963658D01*
X153070798Y-97973229D01*
X153027278Y-97999877D01*
X153009922Y-98024486D01*
X152994880Y-98073676D01*
X152991374Y-98122487D01*
X152991374Y-98201133D01*
X153037948Y-98174526D01*
X153086323Y-98155520D01*
X153136500Y-98144117D01*
X153188478Y-98140316D01*
X153216118Y-98141672D01*
X153267265Y-98151384D01*
X153314263Y-98168648D01*
X153336809Y-98180123D01*
X153379472Y-98210817D01*
X153413670Y-98249493D01*
X153426120Y-98269609D01*
X153444260Y-98316727D01*
X153450306Y-98368683D01*
X153449787Y-98384021D01*
X153439796Y-98434998D01*
X153417089Y-98481768D01*
X153406102Y-98497219D01*
X153369690Y-98535153D01*
X153328429Y-98563345D01*
X153307243Y-98573637D01*
X153258629Y-98588633D01*
X153206308Y-98593631D01*
X153159771Y-98590136D01*
X153107540Y-98577225D01*
X153057529Y-98554800D01*
X153016431Y-98528007D01*
X152976963Y-98494224D01*
X152976963Y-98578000D01*
X152731011Y-98578000D01*
X152731011Y-98451482D01*
X152851911Y-98451482D01*
X152851911Y-98318125D01*
X152991374Y-98318125D01*
X152991374Y-98399946D01*
X152997096Y-98405146D01*
X153037872Y-98436919D01*
X153086018Y-98463327D01*
X153135813Y-98479173D01*
X153187257Y-98484454D01*
X153235467Y-98477209D01*
X153279336Y-98451482D01*
X153304932Y-98416867D01*
X153314996Y-98368683D01*
X153304798Y-98321300D01*
X153274207Y-98282710D01*
X153271628Y-98280591D01*
X153226336Y-98255839D01*
X153176998Y-98248272D01*
X153130592Y-98252637D01*
X153078385Y-98267986D01*
X153031979Y-98290907D01*
X152991374Y-98318125D01*
X152851911Y-98318125D01*
X152851911Y-98114427D01*
X152851977Y-98105708D01*
X152856109Y-98048802D01*
X152866669Y-97999118D01*
X152886610Y-97951182D01*
X152919078Y-97908530D01*
X152932311Y-97896876D01*
X152974294Y-97871402D01*
X153026016Y-97854080D01*
X153079262Y-97845610D01*
X153130836Y-97843317D01*
X153170281Y-97844828D01*
G37*
G36*
X152217368Y-97883861D02*
G01*
X152217368Y-97858949D01*
X152093781Y-97858949D01*
X152093781Y-98093422D01*
X152217368Y-98093422D01*
X152217368Y-98049214D01*
X152251104Y-98010211D01*
X152295845Y-97979653D01*
X152347773Y-97963199D01*
X152386384Y-97960065D01*
X152437492Y-97966415D01*
X152478464Y-97985466D01*
X152509910Y-98025117D01*
X152514123Y-98050923D01*
X152497576Y-98097017D01*
X152487012Y-98106611D01*
X152439113Y-98126512D01*
X152387770Y-98137920D01*
X152365135Y-98141782D01*
X152269636Y-98160588D01*
X152219547Y-98172549D01*
X152166328Y-98193317D01*
X152123544Y-98220548D01*
X152085977Y-98261758D01*
X152063437Y-98312277D01*
X152056132Y-98361485D01*
X152055924Y-98372103D01*
X152062048Y-98425321D01*
X152080421Y-98472318D01*
X152111044Y-98513094D01*
X152133349Y-98533059D01*
X152175099Y-98559559D01*
X152223169Y-98578488D01*
X152277559Y-98589845D01*
X152330334Y-98593572D01*
X152338268Y-98593631D01*
X152388644Y-98589845D01*
X152438164Y-98578488D01*
X152485775Y-98560331D01*
X152520229Y-98540875D01*
X152520229Y-98578000D01*
X152646747Y-98578000D01*
X152646747Y-98327895D01*
X152520229Y-98327895D01*
X152520229Y-98353785D01*
X152502401Y-98400124D01*
X152468151Y-98437018D01*
X152462344Y-98441224D01*
X152417511Y-98463763D01*
X152366788Y-98473681D01*
X152351213Y-98474196D01*
X152299732Y-98470085D01*
X152252451Y-98455122D01*
X152242037Y-98449284D01*
X152208796Y-98411175D01*
X152202225Y-98375278D01*
X152223186Y-98329499D01*
X152233977Y-98322277D01*
X152281482Y-98304386D01*
X152332702Y-98291732D01*
X152360983Y-98285885D01*
X152434500Y-98270009D01*
X152485440Y-98256912D01*
X152534025Y-98237433D01*
X152577178Y-98209898D01*
X152594479Y-98193806D01*
X152623403Y-98153175D01*
X152640321Y-98105502D01*
X152645282Y-98056053D01*
X152639114Y-98004149D01*
X152620612Y-97958776D01*
X152607913Y-97940037D01*
X152573925Y-97904893D01*
X152533085Y-97877650D01*
X152511925Y-97867741D01*
X152463932Y-97851928D01*
X152414810Y-97844176D01*
X152391758Y-97843317D01*
X152342024Y-97845851D01*
X152290963Y-97854760D01*
X152240302Y-97872181D01*
X152217368Y-97883861D01*
G37*
G36*
X151626545Y-97846340D02*
G01*
X151675393Y-97855407D01*
X151722044Y-97870520D01*
X151766496Y-97891677D01*
X151797631Y-97911134D01*
X151839504Y-97945279D01*
X151875581Y-97985375D01*
X151902783Y-98026011D01*
X151924582Y-98070188D01*
X151940153Y-98116991D01*
X151949495Y-98166420D01*
X151952609Y-98218474D01*
X151949464Y-98270864D01*
X151940030Y-98320568D01*
X151924307Y-98367584D01*
X151902295Y-98411914D01*
X151878259Y-98447621D01*
X151841723Y-98488240D01*
X151803926Y-98519351D01*
X151761123Y-98545759D01*
X151755419Y-98548705D01*
X151707967Y-98568900D01*
X151657279Y-98583112D01*
X151603355Y-98591340D01*
X151553516Y-98593631D01*
X151498271Y-98590761D01*
X151445133Y-98582152D01*
X151394102Y-98567802D01*
X151345177Y-98547713D01*
X151299488Y-98521992D01*
X151258410Y-98490744D01*
X151221941Y-98453970D01*
X151190083Y-98411670D01*
X151315135Y-98356715D01*
X151337010Y-98384010D01*
X151374459Y-98417853D01*
X151417473Y-98443177D01*
X151448660Y-98455466D01*
X151497901Y-98467316D01*
X151550097Y-98471265D01*
X151573991Y-98470369D01*
X151624319Y-98461793D01*
X151674666Y-98441614D01*
X151714961Y-98413868D01*
X151730962Y-98398870D01*
X151763520Y-98355698D01*
X151783727Y-98309910D01*
X151795317Y-98257553D01*
X151190083Y-98257553D01*
X151190776Y-98241779D01*
X151195954Y-98188660D01*
X151202156Y-98155948D01*
X151339071Y-98155948D01*
X151791164Y-98155948D01*
X151788858Y-98145122D01*
X151772262Y-98095028D01*
X151747223Y-98051661D01*
X151713739Y-98015020D01*
X151673926Y-97986813D01*
X151625613Y-97967851D01*
X151572567Y-97961531D01*
X151562082Y-97961739D01*
X151512003Y-97969052D01*
X151465835Y-97986813D01*
X151423579Y-98015020D01*
X151411880Y-98025306D01*
X151378525Y-98063965D01*
X151353853Y-98109350D01*
X151339071Y-98155948D01*
X151202156Y-98155948D01*
X151205409Y-98138790D01*
X151221453Y-98085774D01*
X151243084Y-98037002D01*
X151266089Y-97998251D01*
X151296646Y-97959031D01*
X151336461Y-97921368D01*
X151376684Y-97893631D01*
X151420892Y-97871619D01*
X151468764Y-97855896D01*
X151520299Y-97846462D01*
X151575498Y-97843317D01*
X151626545Y-97846340D01*
G37*
G36*
X150828848Y-97675522D02*
G01*
X150828848Y-98448795D01*
X150488862Y-98448795D01*
X150488862Y-98124685D01*
X150360390Y-98124685D01*
X150360390Y-98578000D01*
X151118764Y-98578000D01*
X151118764Y-98448795D01*
X150985652Y-98448795D01*
X150985652Y-97675522D01*
X151118764Y-97675522D01*
X151118764Y-97546318D01*
X150695735Y-97546318D01*
X150695735Y-97675522D01*
X150828848Y-97675522D01*
G37*
G36*
X149939071Y-97846340D02*
G01*
X149989629Y-97855407D01*
X150037257Y-97870520D01*
X150081953Y-97891677D01*
X150108048Y-97907690D01*
X150150361Y-97941051D01*
X150186685Y-97980247D01*
X150217019Y-98025278D01*
X150238177Y-98069226D01*
X150253289Y-98116075D01*
X150262357Y-98165824D01*
X150265379Y-98218474D01*
X150263065Y-98262844D01*
X150254753Y-98311521D01*
X150238177Y-98363692D01*
X150217019Y-98407762D01*
X150197436Y-98438657D01*
X150162973Y-98480298D01*
X150122406Y-98516298D01*
X150081220Y-98543561D01*
X150036295Y-98565467D01*
X149988713Y-98581114D01*
X149938476Y-98590502D01*
X149885582Y-98593631D01*
X149834123Y-98590502D01*
X149785015Y-98581114D01*
X149738258Y-98565467D01*
X149693851Y-98543561D01*
X149662707Y-98523531D01*
X149620789Y-98488786D01*
X149584629Y-98448398D01*
X149557319Y-98407762D01*
X149537715Y-98369319D01*
X149519584Y-98317453D01*
X149510150Y-98269048D01*
X149507005Y-98218474D01*
X149657459Y-98218474D01*
X149658498Y-98242293D01*
X149667878Y-98291428D01*
X149687012Y-98337176D01*
X149696820Y-98353584D01*
X149730373Y-98393815D01*
X149769566Y-98423638D01*
X149786303Y-98432856D01*
X149835831Y-98450353D01*
X149885338Y-98455634D01*
X149908725Y-98454509D01*
X149957099Y-98444354D01*
X150002330Y-98423638D01*
X150021573Y-98410749D01*
X150057668Y-98377345D01*
X150086105Y-98336443D01*
X150096315Y-98315552D01*
X150111189Y-98268343D01*
X150116147Y-98218474D01*
X150115091Y-98195210D01*
X150105556Y-98146690D01*
X150086105Y-98100749D01*
X150073958Y-98080931D01*
X150042219Y-98043412D01*
X150003063Y-98013310D01*
X149982827Y-98002270D01*
X149936508Y-97986187D01*
X149886803Y-97980826D01*
X149863035Y-97981994D01*
X149814366Y-97992536D01*
X149769566Y-98014043D01*
X149750515Y-98027163D01*
X149714894Y-98060775D01*
X149687012Y-98101482D01*
X149676969Y-98122115D01*
X149662336Y-98168884D01*
X149657459Y-98218474D01*
X149507005Y-98218474D01*
X149508748Y-98181013D01*
X149517900Y-98126883D01*
X149534895Y-98075226D01*
X149556587Y-98031384D01*
X149576402Y-98000372D01*
X149611051Y-97958458D01*
X149651612Y-97922070D01*
X149692630Y-97894364D01*
X149737113Y-97872031D01*
X149784099Y-97856079D01*
X149833589Y-97846507D01*
X149885582Y-97843317D01*
X149939071Y-97846340D01*
G37*
G36*
X149078359Y-97846340D02*
G01*
X149128917Y-97855407D01*
X149176545Y-97870520D01*
X149221241Y-97891677D01*
X149247336Y-97907690D01*
X149289649Y-97941051D01*
X149325973Y-97980247D01*
X149356308Y-98025278D01*
X149377465Y-98069226D01*
X149392578Y-98116075D01*
X149401645Y-98165824D01*
X149404668Y-98218474D01*
X149402353Y-98262844D01*
X149394042Y-98311521D01*
X149377465Y-98363692D01*
X149356308Y-98407762D01*
X149336724Y-98438657D01*
X149302262Y-98480298D01*
X149261694Y-98516298D01*
X149220508Y-98543561D01*
X149175583Y-98565467D01*
X149128002Y-98581114D01*
X149077764Y-98590502D01*
X149024870Y-98593631D01*
X148973411Y-98590502D01*
X148924303Y-98581114D01*
X148877546Y-98565467D01*
X148833139Y-98543561D01*
X148801996Y-98523531D01*
X148760078Y-98488786D01*
X148723917Y-98448398D01*
X148696608Y-98407762D01*
X148677003Y-98369319D01*
X148658872Y-98317453D01*
X148649438Y-98269048D01*
X148646294Y-98218474D01*
X148796747Y-98218474D01*
X148797786Y-98242293D01*
X148807166Y-98291428D01*
X148826301Y-98337176D01*
X148836108Y-98353584D01*
X148869661Y-98393815D01*
X148908855Y-98423638D01*
X148925591Y-98432856D01*
X148975119Y-98450353D01*
X149024626Y-98455634D01*
X149048013Y-98454509D01*
X149096388Y-98444354D01*
X149141618Y-98423638D01*
X149160861Y-98410749D01*
X149196956Y-98377345D01*
X149225393Y-98336443D01*
X149235603Y-98315552D01*
X149250477Y-98268343D01*
X149255435Y-98218474D01*
X149254379Y-98195210D01*
X149244844Y-98146690D01*
X149225393Y-98100749D01*
X149213246Y-98080931D01*
X149181507Y-98043412D01*
X149142351Y-98013310D01*
X149122115Y-98002270D01*
X149075796Y-97986187D01*
X149026091Y-97980826D01*
X149002323Y-97981994D01*
X148953654Y-97992536D01*
X148908855Y-98014043D01*
X148889804Y-98027163D01*
X148854182Y-98060775D01*
X148826301Y-98101482D01*
X148816257Y-98122115D01*
X148801625Y-98168884D01*
X148796747Y-98218474D01*
X148646294Y-98218474D01*
X148648037Y-98181013D01*
X148657188Y-98126883D01*
X148674183Y-98075226D01*
X148695875Y-98031384D01*
X148715690Y-98000372D01*
X148750339Y-97958458D01*
X148790901Y-97922070D01*
X148831918Y-97894364D01*
X148876401Y-97872031D01*
X148923387Y-97856079D01*
X148972877Y-97846507D01*
X149024870Y-97843317D01*
X149078359Y-97846340D01*
G37*
G36*
X148435268Y-98451482D02*
G01*
X148435268Y-97985955D01*
X148556901Y-97985955D01*
X148556901Y-97858949D01*
X148293851Y-97858949D01*
X148293851Y-97944678D01*
X148254275Y-97915477D01*
X148207083Y-97886969D01*
X148160217Y-97865589D01*
X148105952Y-97849652D01*
X148052132Y-97843416D01*
X148044479Y-97843317D01*
X147993520Y-97848728D01*
X147944470Y-97868165D01*
X147905219Y-97901737D01*
X147875769Y-97949444D01*
X147872776Y-97956401D01*
X147829741Y-97925582D01*
X147787492Y-97899987D01*
X147737832Y-97876168D01*
X147689306Y-97859870D01*
X147634125Y-97850363D01*
X147610948Y-97849423D01*
X147559910Y-97854432D01*
X147511757Y-97871512D01*
X147471974Y-97900714D01*
X147442355Y-97942413D01*
X147426098Y-97991490D01*
X147420153Y-98044755D01*
X147419950Y-98057762D01*
X147419950Y-98451482D01*
X147293677Y-98451482D01*
X147293677Y-98578000D01*
X147560878Y-98578000D01*
X147560878Y-98118334D01*
X147562600Y-98068149D01*
X147565763Y-98041154D01*
X147585852Y-97995927D01*
X147590676Y-97990595D01*
X147636811Y-97970828D01*
X147654912Y-97969835D01*
X147705968Y-97978101D01*
X147746259Y-97993282D01*
X147789613Y-98016243D01*
X147831207Y-98044379D01*
X147856168Y-98063868D01*
X147856168Y-98451482D01*
X147734047Y-98451482D01*
X147734047Y-98578000D01*
X147998317Y-98578000D01*
X147998317Y-98100260D01*
X148001784Y-98050193D01*
X148018030Y-98002296D01*
X148019322Y-98000365D01*
X148061018Y-97972816D01*
X148088443Y-97969835D01*
X148142086Y-97979018D01*
X148191904Y-97999588D01*
X148240528Y-98027228D01*
X148285946Y-98058083D01*
X148293851Y-98063868D01*
X148293851Y-98451482D01*
X148166845Y-98451482D01*
X148166845Y-98578000D01*
X148565205Y-98578000D01*
X148565205Y-98451482D01*
X148435268Y-98451482D01*
G37*
G36*
X147020613Y-98296632D02*
G01*
X147095351Y-98296632D01*
X147133209Y-97857727D01*
X147133209Y-97546318D01*
X146982756Y-97546318D01*
X146982756Y-97857727D01*
X147020613Y-98296632D01*
G37*
G36*
X147149085Y-98578000D02*
G01*
X147149085Y-98390421D01*
X146965659Y-98390421D01*
X146965659Y-98578000D01*
X147149085Y-98578000D01*
G37*
G36*
X165436036Y-101031370D02*
G01*
X165311716Y-101031370D01*
X165590642Y-101808795D01*
X165715694Y-101808795D01*
X165715694Y-101938000D01*
X165304877Y-101938000D01*
X165304877Y-101808795D01*
X165436036Y-101808795D01*
X165355680Y-101575055D01*
X164980034Y-101575055D01*
X164899679Y-101808795D01*
X165034989Y-101808795D01*
X165034989Y-101938000D01*
X164626859Y-101938000D01*
X164626859Y-101808795D01*
X164742386Y-101808795D01*
X164870446Y-101453422D01*
X165021312Y-101453422D01*
X165315136Y-101453422D01*
X165168834Y-101031370D01*
X165164194Y-101031370D01*
X165021312Y-101453422D01*
X164870446Y-101453422D01*
X165022533Y-101031370D01*
X164898213Y-101031370D01*
X164898213Y-100906318D01*
X165436036Y-100906318D01*
X165436036Y-101031370D01*
G37*
G36*
X164581919Y-101035522D02*
G01*
X164454180Y-101035522D01*
X164454180Y-101808795D01*
X164581919Y-101808795D01*
X164581919Y-101938000D01*
X164223370Y-101938000D01*
X164209981Y-101937923D01*
X164158528Y-101936097D01*
X164098945Y-101930391D01*
X164044621Y-101920880D01*
X163995556Y-101907565D01*
X163943621Y-101886564D01*
X163899260Y-101860086D01*
X163862489Y-101828278D01*
X163829205Y-101784853D01*
X163806276Y-101734625D01*
X163794864Y-101686159D01*
X163791060Y-101632696D01*
X163791103Y-101630009D01*
X163949818Y-101630009D01*
X163950736Y-101653474D01*
X163960434Y-101701954D01*
X163987432Y-101747002D01*
X163994636Y-101754043D01*
X164036582Y-101782035D01*
X164084640Y-101797316D01*
X164088397Y-101798022D01*
X164138543Y-101804748D01*
X164187468Y-101807887D01*
X164237048Y-101808795D01*
X164298841Y-101808795D01*
X164298841Y-101456841D01*
X164199190Y-101456841D01*
X164160905Y-101457891D01*
X164106447Y-101463936D01*
X164055180Y-101477159D01*
X164010635Y-101499828D01*
X163976010Y-101534605D01*
X163955757Y-101579830D01*
X163949818Y-101630009D01*
X163791103Y-101630009D01*
X163791242Y-101621435D01*
X163797586Y-101568021D01*
X163812994Y-101519425D01*
X163837466Y-101475648D01*
X163846526Y-101463501D01*
X163881903Y-101427475D01*
X163925247Y-101398318D01*
X163971067Y-101377951D01*
X163948934Y-101366158D01*
X163908106Y-101334481D01*
X163877034Y-101294420D01*
X163864471Y-101269689D01*
X163849327Y-101219544D01*
X163845573Y-101177183D01*
X163999399Y-101177183D01*
X163999590Y-101186485D01*
X164008761Y-101236093D01*
X164036846Y-101280533D01*
X164083654Y-101310505D01*
X164138677Y-101324678D01*
X164195038Y-101328369D01*
X164298841Y-101328369D01*
X164298841Y-101035522D01*
X164196503Y-101035522D01*
X164146971Y-101038343D01*
X164095562Y-101049452D01*
X164050935Y-101071182D01*
X164036088Y-101083172D01*
X164007905Y-101125754D01*
X163999399Y-101177183D01*
X163845573Y-101177183D01*
X163844794Y-101168390D01*
X163845153Y-101152078D01*
X163852077Y-101099160D01*
X163867814Y-101052741D01*
X163896588Y-101007648D01*
X163936873Y-100971042D01*
X163954988Y-100959475D01*
X164003868Y-100936910D01*
X164053133Y-100922499D01*
X164109198Y-100912638D01*
X164161114Y-100907898D01*
X164217753Y-100906318D01*
X164581919Y-100906318D01*
X164581919Y-101035522D01*
G37*
G36*
X162908611Y-101035522D02*
G01*
X163056378Y-101035522D01*
X163056378Y-100906318D01*
X162631639Y-100906318D01*
X162631639Y-101035522D01*
X162783559Y-101035522D01*
X162783559Y-101953631D01*
X162944270Y-101953631D01*
X163441060Y-101068006D01*
X163441060Y-101808795D01*
X163292561Y-101808795D01*
X163292561Y-101938000D01*
X163716322Y-101938000D01*
X163716322Y-101808795D01*
X163568799Y-101808795D01*
X163568799Y-101035522D01*
X163716322Y-101035522D01*
X163716322Y-100906318D01*
X163363391Y-100906318D01*
X162908611Y-101711586D01*
X162908611Y-101035522D01*
G37*
G36*
X162308995Y-100976660D02*
G01*
X162323283Y-101023692D01*
X162334396Y-101036988D01*
X162377993Y-101060801D01*
X162394968Y-101062389D01*
X162441725Y-101048101D01*
X162454808Y-101036988D01*
X162477934Y-100993528D01*
X162479476Y-100976660D01*
X162465600Y-100929399D01*
X162454808Y-100916087D01*
X162411806Y-100892274D01*
X162394968Y-100890686D01*
X162346974Y-100904562D01*
X162333907Y-100915355D01*
X162310552Y-100959089D01*
X162308995Y-100976660D01*
G37*
G36*
X162207390Y-101811482D02*
G01*
X162207390Y-101938000D01*
X162572288Y-101938000D01*
X162572288Y-101811482D01*
X162459448Y-101811482D01*
X162459448Y-101345955D01*
X162572288Y-101345955D01*
X162572288Y-101218949D01*
X162317299Y-101218949D01*
X162317299Y-101811482D01*
X162207390Y-101811482D01*
G37*
G36*
X161799748Y-101206340D02*
G01*
X161848597Y-101215407D01*
X161895247Y-101230520D01*
X161939699Y-101251677D01*
X161970835Y-101271134D01*
X162012708Y-101305279D01*
X162048784Y-101345375D01*
X162075987Y-101386011D01*
X162097786Y-101430188D01*
X162113356Y-101476991D01*
X162122698Y-101526420D01*
X162125813Y-101578474D01*
X162122668Y-101630864D01*
X162113234Y-101680568D01*
X162097511Y-101727584D01*
X162075499Y-101771914D01*
X162051463Y-101807621D01*
X162014926Y-101848240D01*
X161977130Y-101879351D01*
X161934326Y-101905759D01*
X161928622Y-101908705D01*
X161881170Y-101928900D01*
X161830482Y-101943112D01*
X161776558Y-101951340D01*
X161726720Y-101953631D01*
X161671475Y-101950761D01*
X161618337Y-101942152D01*
X161567305Y-101927802D01*
X161518381Y-101907713D01*
X161472692Y-101881992D01*
X161431613Y-101850744D01*
X161395145Y-101813970D01*
X161363286Y-101771670D01*
X161488339Y-101716715D01*
X161510214Y-101744010D01*
X161547663Y-101777853D01*
X161590676Y-101803177D01*
X161621863Y-101815466D01*
X161671105Y-101827316D01*
X161723300Y-101831265D01*
X161747194Y-101830369D01*
X161797523Y-101821793D01*
X161847869Y-101801614D01*
X161888164Y-101773868D01*
X161904166Y-101758870D01*
X161936724Y-101715698D01*
X161956930Y-101669910D01*
X161968520Y-101617553D01*
X161363286Y-101617553D01*
X161363980Y-101601779D01*
X161369158Y-101548660D01*
X161375360Y-101515948D01*
X161512275Y-101515948D01*
X161964368Y-101515948D01*
X161962062Y-101505122D01*
X161945466Y-101455028D01*
X161920426Y-101411661D01*
X161886943Y-101375020D01*
X161847130Y-101346813D01*
X161798817Y-101327851D01*
X161745771Y-101321531D01*
X161735285Y-101321739D01*
X161685206Y-101329052D01*
X161639038Y-101346813D01*
X161596783Y-101375020D01*
X161585083Y-101385306D01*
X161551729Y-101423965D01*
X161527056Y-101469350D01*
X161512275Y-101515948D01*
X161375360Y-101515948D01*
X161378613Y-101498790D01*
X161394656Y-101445774D01*
X161416287Y-101397002D01*
X161439293Y-101358251D01*
X161469850Y-101319031D01*
X161509664Y-101281368D01*
X161549888Y-101253631D01*
X161594096Y-101231619D01*
X161641967Y-101215896D01*
X161693503Y-101206462D01*
X161748702Y-101203317D01*
X161799748Y-101206340D01*
G37*
G36*
X160908018Y-101811482D02*
G01*
X160908018Y-101938000D01*
X161287815Y-101938000D01*
X161287815Y-101811482D01*
X161160076Y-101811482D01*
X161160076Y-101031370D01*
X161287815Y-101031370D01*
X161287815Y-100906318D01*
X161017927Y-100906318D01*
X161017927Y-101811482D01*
X160908018Y-101811482D01*
G37*
G36*
X160375080Y-101243861D02*
G01*
X160375080Y-101218949D01*
X160251493Y-101218949D01*
X160251493Y-101453422D01*
X160375080Y-101453422D01*
X160375080Y-101409214D01*
X160408816Y-101370211D01*
X160453557Y-101339653D01*
X160505485Y-101323199D01*
X160544096Y-101320065D01*
X160595204Y-101326415D01*
X160636175Y-101345466D01*
X160667621Y-101385117D01*
X160671835Y-101410923D01*
X160655288Y-101457017D01*
X160644724Y-101466611D01*
X160596824Y-101486512D01*
X160545481Y-101497920D01*
X160522847Y-101501782D01*
X160427348Y-101520588D01*
X160377259Y-101532549D01*
X160324040Y-101553317D01*
X160281255Y-101580548D01*
X160243689Y-101621758D01*
X160221149Y-101672277D01*
X160213844Y-101721485D01*
X160213635Y-101732103D01*
X160219760Y-101785321D01*
X160238133Y-101832318D01*
X160268755Y-101873094D01*
X160291060Y-101893059D01*
X160332811Y-101919559D01*
X160380881Y-101938488D01*
X160435270Y-101949845D01*
X160488046Y-101953572D01*
X160495980Y-101953631D01*
X160546355Y-101949845D01*
X160595875Y-101938488D01*
X160643487Y-101920331D01*
X160677941Y-101900875D01*
X160677941Y-101938000D01*
X160804459Y-101938000D01*
X160804459Y-101687895D01*
X160677941Y-101687895D01*
X160677941Y-101713785D01*
X160660113Y-101760124D01*
X160625863Y-101797018D01*
X160620055Y-101801224D01*
X160575223Y-101823763D01*
X160524499Y-101833681D01*
X160508925Y-101834196D01*
X160457443Y-101830085D01*
X160410163Y-101815122D01*
X160399748Y-101809284D01*
X160366507Y-101771175D01*
X160359937Y-101735278D01*
X160380898Y-101689499D01*
X160391688Y-101682277D01*
X160439194Y-101664386D01*
X160490413Y-101651732D01*
X160518695Y-101645885D01*
X160592212Y-101630009D01*
X160643152Y-101616912D01*
X160691737Y-101597433D01*
X160734890Y-101569898D01*
X160752191Y-101553806D01*
X160781114Y-101513175D01*
X160798032Y-101465502D01*
X160802993Y-101416053D01*
X160796826Y-101364149D01*
X160778324Y-101318776D01*
X160765624Y-101300037D01*
X160731637Y-101264893D01*
X160690797Y-101237650D01*
X160669637Y-101227741D01*
X160621643Y-101211928D01*
X160572522Y-101204176D01*
X160549469Y-101203317D01*
X160499735Y-101205851D01*
X160448675Y-101214760D01*
X160398013Y-101232181D01*
X160375080Y-101243861D01*
G37*
G36*
X159784256Y-101206340D02*
G01*
X159833105Y-101215407D01*
X159879755Y-101230520D01*
X159924208Y-101251677D01*
X159955343Y-101271134D01*
X159997216Y-101305279D01*
X160033292Y-101345375D01*
X160060495Y-101386011D01*
X160082294Y-101430188D01*
X160097864Y-101476991D01*
X160107206Y-101526420D01*
X160110321Y-101578474D01*
X160107176Y-101630864D01*
X160097742Y-101680568D01*
X160082019Y-101727584D01*
X160060007Y-101771914D01*
X160035971Y-101807621D01*
X159999434Y-101848240D01*
X159961638Y-101879351D01*
X159918834Y-101905759D01*
X159913130Y-101908705D01*
X159865678Y-101928900D01*
X159814990Y-101943112D01*
X159761066Y-101951340D01*
X159711228Y-101953631D01*
X159655983Y-101950761D01*
X159602845Y-101942152D01*
X159551814Y-101927802D01*
X159502889Y-101907713D01*
X159457200Y-101881992D01*
X159416121Y-101850744D01*
X159379653Y-101813970D01*
X159347794Y-101771670D01*
X159472847Y-101716715D01*
X159494722Y-101744010D01*
X159532171Y-101777853D01*
X159575184Y-101803177D01*
X159606371Y-101815466D01*
X159655613Y-101827316D01*
X159707808Y-101831265D01*
X159731702Y-101830369D01*
X159782031Y-101821793D01*
X159832377Y-101801614D01*
X159872672Y-101773868D01*
X159888674Y-101758870D01*
X159921232Y-101715698D01*
X159941438Y-101669910D01*
X159953028Y-101617553D01*
X159347794Y-101617553D01*
X159348488Y-101601779D01*
X159353666Y-101548660D01*
X159359868Y-101515948D01*
X159496783Y-101515948D01*
X159948876Y-101515948D01*
X159946570Y-101505122D01*
X159929974Y-101455028D01*
X159904934Y-101411661D01*
X159871451Y-101375020D01*
X159831638Y-101346813D01*
X159783325Y-101327851D01*
X159730279Y-101321531D01*
X159719793Y-101321739D01*
X159669714Y-101329052D01*
X159623546Y-101346813D01*
X159581291Y-101375020D01*
X159569591Y-101385306D01*
X159536237Y-101423965D01*
X159511564Y-101469350D01*
X159496783Y-101515948D01*
X159359868Y-101515948D01*
X159363121Y-101498790D01*
X159379164Y-101445774D01*
X159400795Y-101397002D01*
X159423801Y-101358251D01*
X159454358Y-101319031D01*
X159494172Y-101281368D01*
X159534396Y-101253631D01*
X159578604Y-101231619D01*
X159626475Y-101215896D01*
X159678011Y-101206462D01*
X159733210Y-101203317D01*
X159784256Y-101206340D01*
G37*
G36*
X158557913Y-101450491D02*
G01*
X158557913Y-101811482D01*
X158437013Y-101811482D01*
X158437013Y-101938000D01*
X158700062Y-101938000D01*
X158700062Y-101458795D01*
X158703287Y-101409639D01*
X158718400Y-101362739D01*
X158719602Y-101360854D01*
X158760686Y-101333413D01*
X158783838Y-101331056D01*
X158832686Y-101336933D01*
X158884466Y-101354564D01*
X158932177Y-101379634D01*
X158974858Y-101408285D01*
X158996817Y-101425090D01*
X158996817Y-101811482D01*
X158872498Y-101811482D01*
X158872498Y-101938000D01*
X159264263Y-101938000D01*
X159264263Y-101811482D01*
X159137013Y-101811482D01*
X159137013Y-101345955D01*
X159264263Y-101345955D01*
X159264263Y-101218949D01*
X158996817Y-101218949D01*
X158996817Y-101300526D01*
X158955760Y-101272521D01*
X158907514Y-101245181D01*
X158860385Y-101224676D01*
X158806812Y-101209393D01*
X158754758Y-101203412D01*
X158747445Y-101203317D01*
X158697020Y-101208070D01*
X158650328Y-101224499D01*
X158610316Y-101256125D01*
X158604319Y-101263401D01*
X158579847Y-101307488D01*
X158565572Y-101358343D01*
X158559046Y-101412435D01*
X158557913Y-101450491D01*
G37*
G36*
X158284605Y-101938000D02*
G01*
X158284605Y-101750421D01*
X158101179Y-101750421D01*
X158101179Y-101938000D01*
X158284605Y-101938000D01*
G37*
G36*
X157362833Y-101271949D02*
G01*
X157362833Y-101218949D01*
X157236315Y-101218949D01*
X157236315Y-101484685D01*
X157362589Y-101484685D01*
X157375377Y-101434459D01*
X157404037Y-101391132D01*
X157425847Y-101372577D01*
X157469468Y-101348912D01*
X157517896Y-101336170D01*
X157552854Y-101333743D01*
X157604659Y-101339914D01*
X157651509Y-101358426D01*
X157663984Y-101365983D01*
X157702686Y-101398374D01*
X157732880Y-101439553D01*
X157739944Y-101452933D01*
X157757181Y-101499277D01*
X157765630Y-101549007D01*
X157766566Y-101573101D01*
X157762796Y-101625781D01*
X157751484Y-101673423D01*
X157729745Y-101721000D01*
X157706238Y-101753596D01*
X157669133Y-101787481D01*
X157620790Y-101812125D01*
X157570878Y-101822599D01*
X157546748Y-101823694D01*
X157492489Y-101818920D01*
X157444566Y-101804597D01*
X157396666Y-101775819D01*
X157362474Y-101740809D01*
X157334619Y-101696250D01*
X157330593Y-101687895D01*
X157212379Y-101742849D01*
X157239502Y-101792251D01*
X157271043Y-101835066D01*
X157307004Y-101871294D01*
X157347384Y-101900936D01*
X157392184Y-101923990D01*
X157441403Y-101940457D01*
X157495041Y-101950338D01*
X157553098Y-101953631D01*
X157605564Y-101950502D01*
X157655008Y-101941114D01*
X157701430Y-101925467D01*
X157744829Y-101903561D01*
X157788938Y-101872460D01*
X157827020Y-101835486D01*
X157859074Y-101792639D01*
X157874277Y-101766297D01*
X157894259Y-101721524D01*
X157908532Y-101674400D01*
X157917096Y-101624926D01*
X157919951Y-101573101D01*
X157917050Y-101522252D01*
X157908349Y-101473755D01*
X157891627Y-101422005D01*
X157873545Y-101383812D01*
X157844717Y-101338840D01*
X157810441Y-101299818D01*
X157770717Y-101266746D01*
X157746294Y-101250944D01*
X157699213Y-101227921D01*
X157649196Y-101212433D01*
X157596242Y-101204480D01*
X157565554Y-101203317D01*
X157515449Y-101206601D01*
X157462135Y-101218397D01*
X157413035Y-101238773D01*
X157368147Y-101267727D01*
X157362833Y-101271949D01*
G37*
G36*
X156803272Y-101206340D02*
G01*
X156853831Y-101215407D01*
X156901458Y-101230520D01*
X156946154Y-101251677D01*
X156972250Y-101267690D01*
X157014563Y-101301051D01*
X157050886Y-101340247D01*
X157081221Y-101385278D01*
X157102378Y-101429226D01*
X157117491Y-101476075D01*
X157126558Y-101525824D01*
X157129581Y-101578474D01*
X157127267Y-101622844D01*
X157118955Y-101671521D01*
X157102378Y-101723692D01*
X157081221Y-101767762D01*
X157061637Y-101798657D01*
X157027175Y-101840298D01*
X156986607Y-101876298D01*
X156945422Y-101903561D01*
X156900496Y-101925467D01*
X156852915Y-101941114D01*
X156802677Y-101950502D01*
X156749783Y-101953631D01*
X156698324Y-101950502D01*
X156649216Y-101941114D01*
X156602459Y-101925467D01*
X156558053Y-101903561D01*
X156526909Y-101883531D01*
X156484991Y-101848786D01*
X156448830Y-101808398D01*
X156421521Y-101767762D01*
X156401916Y-101729319D01*
X156383785Y-101677453D01*
X156374351Y-101629048D01*
X156371207Y-101578474D01*
X156521660Y-101578474D01*
X156522699Y-101602293D01*
X156532079Y-101651428D01*
X156551214Y-101697176D01*
X156561022Y-101713584D01*
X156594575Y-101753815D01*
X156633768Y-101783638D01*
X156650505Y-101792856D01*
X156700033Y-101810353D01*
X156749539Y-101815634D01*
X156772926Y-101814509D01*
X156821301Y-101804354D01*
X156866531Y-101783638D01*
X156885774Y-101770749D01*
X156921870Y-101737345D01*
X156950307Y-101696443D01*
X156960516Y-101675552D01*
X156975390Y-101628343D01*
X156980348Y-101578474D01*
X156979292Y-101555210D01*
X156969758Y-101506690D01*
X156950307Y-101460749D01*
X156938159Y-101440931D01*
X156906420Y-101403412D01*
X156867264Y-101373310D01*
X156847028Y-101362270D01*
X156800709Y-101346187D01*
X156751004Y-101340826D01*
X156727237Y-101341994D01*
X156678567Y-101352536D01*
X156633768Y-101374043D01*
X156614717Y-101387163D01*
X156579096Y-101420775D01*
X156551214Y-101461482D01*
X156541170Y-101482115D01*
X156526538Y-101528884D01*
X156521660Y-101578474D01*
X156371207Y-101578474D01*
X156372950Y-101541013D01*
X156382101Y-101486883D01*
X156399096Y-101435226D01*
X156420788Y-101391384D01*
X156440603Y-101360372D01*
X156475253Y-101318458D01*
X156515814Y-101282070D01*
X156556831Y-101254364D01*
X156601314Y-101232031D01*
X156648300Y-101216079D01*
X156697790Y-101206507D01*
X156749783Y-101203317D01*
X156803272Y-101206340D01*
G37*
G36*
X156160181Y-101811482D02*
G01*
X156160181Y-101345955D01*
X156281814Y-101345955D01*
X156281814Y-101218949D01*
X156018764Y-101218949D01*
X156018764Y-101304678D01*
X155979188Y-101275477D01*
X155931996Y-101246969D01*
X155885130Y-101225589D01*
X155830865Y-101209652D01*
X155777045Y-101203416D01*
X155769392Y-101203317D01*
X155718434Y-101208728D01*
X155669383Y-101228165D01*
X155630132Y-101261737D01*
X155600682Y-101309444D01*
X155597690Y-101316401D01*
X155554654Y-101285582D01*
X155512405Y-101259987D01*
X155462746Y-101236168D01*
X155414219Y-101219870D01*
X155359038Y-101210363D01*
X155335861Y-101209423D01*
X155284823Y-101214432D01*
X155236670Y-101231512D01*
X155196887Y-101260714D01*
X155167268Y-101302413D01*
X155151011Y-101351490D01*
X155145067Y-101404755D01*
X155144863Y-101417762D01*
X155144863Y-101811482D01*
X155018590Y-101811482D01*
X155018590Y-101938000D01*
X155285792Y-101938000D01*
X155285792Y-101478334D01*
X155287514Y-101428149D01*
X155290676Y-101401154D01*
X155310765Y-101355927D01*
X155315589Y-101350595D01*
X155361725Y-101330828D01*
X155379825Y-101329835D01*
X155430881Y-101338101D01*
X155471172Y-101353282D01*
X155514526Y-101376243D01*
X155556120Y-101404379D01*
X155581081Y-101423868D01*
X155581081Y-101811482D01*
X155458960Y-101811482D01*
X155458960Y-101938000D01*
X155723231Y-101938000D01*
X155723231Y-101460260D01*
X155726697Y-101410193D01*
X155742943Y-101362296D01*
X155744235Y-101360365D01*
X155785931Y-101332816D01*
X155813356Y-101329835D01*
X155866999Y-101339018D01*
X155916817Y-101359588D01*
X155965441Y-101387228D01*
X156010859Y-101418083D01*
X156018764Y-101423868D01*
X156018764Y-101811482D01*
X155891758Y-101811482D01*
X155891758Y-101938000D01*
X156290118Y-101938000D01*
X156290118Y-101811482D01*
X156160181Y-101811482D01*
G37*
G36*
X154997585Y-101953631D02*
G01*
X154467090Y-100890686D01*
X154344235Y-100890686D01*
X154873998Y-101953631D01*
X154997585Y-101953631D01*
G37*
G36*
X154313217Y-101035522D02*
G01*
X154184256Y-101035522D01*
X154184256Y-101808795D01*
X154313217Y-101808795D01*
X154313217Y-101938000D01*
X153892875Y-101938000D01*
X153892875Y-101808795D01*
X154027452Y-101808795D01*
X154027452Y-101547211D01*
X153891409Y-101547211D01*
X153853454Y-101546174D01*
X153794918Y-101541059D01*
X153742285Y-101531710D01*
X153686919Y-101514903D01*
X153640053Y-101492000D01*
X153596120Y-101457574D01*
X153571000Y-101428632D01*
X153542985Y-101383706D01*
X153523315Y-101333637D01*
X153511990Y-101278426D01*
X153508925Y-101227009D01*
X153509021Y-101223589D01*
X153667683Y-101223589D01*
X153668339Y-101246809D01*
X153675265Y-101295822D01*
X153694549Y-101343757D01*
X153696243Y-101346434D01*
X153731452Y-101382452D01*
X153778325Y-101404573D01*
X153781919Y-101405655D01*
X153830932Y-101415959D01*
X153880067Y-101420768D01*
X153930732Y-101422159D01*
X154027452Y-101422159D01*
X154027452Y-101035522D01*
X153919741Y-101035522D01*
X153870843Y-101037119D01*
X153821001Y-101043020D01*
X153768322Y-101056995D01*
X153724836Y-101080951D01*
X153717915Y-101086804D01*
X153687831Y-101126290D01*
X153672204Y-101172906D01*
X153667683Y-101223589D01*
X153509021Y-101223589D01*
X153509897Y-101192385D01*
X153515495Y-101141552D01*
X153527742Y-101091080D01*
X153548736Y-101043338D01*
X153556658Y-101030645D01*
X153589669Y-100992864D01*
X153632841Y-100962048D01*
X153680383Y-100940267D01*
X153716988Y-100928730D01*
X153765403Y-100918286D01*
X153819964Y-100911092D01*
X153871625Y-100907511D01*
X153927801Y-100906318D01*
X154313217Y-100906318D01*
X154313217Y-101035522D01*
G37*
G36*
X152941060Y-101203317D02*
G01*
X152883081Y-101208576D01*
X152834929Y-101224354D01*
X152790118Y-101257173D01*
X152759458Y-101305138D01*
X152744718Y-101356679D01*
X152740001Y-101405486D01*
X152739804Y-101418739D01*
X152739804Y-101811482D01*
X152617439Y-101811482D01*
X152617439Y-101938000D01*
X152881954Y-101938000D01*
X152881954Y-101470274D01*
X152885113Y-101419144D01*
X152899157Y-101370845D01*
X152904424Y-101362319D01*
X152946529Y-101334109D01*
X152973300Y-101331056D01*
X153027258Y-101340000D01*
X153077122Y-101360036D01*
X153125636Y-101386959D01*
X153170848Y-101417012D01*
X153178709Y-101422647D01*
X153178709Y-101811482D01*
X153053656Y-101811482D01*
X153053656Y-101938000D01*
X153450062Y-101938000D01*
X153450062Y-101811482D01*
X153320858Y-101811482D01*
X153320858Y-101031370D01*
X153450062Y-101031370D01*
X153450062Y-100906318D01*
X153178709Y-100906318D01*
X153178709Y-101306143D01*
X153139225Y-101276520D01*
X153092995Y-101247601D01*
X153048018Y-101225911D01*
X152997129Y-101209744D01*
X152947947Y-101203417D01*
X152941060Y-101203317D01*
G37*
G36*
X152267560Y-101204828D02*
G01*
X152316920Y-101211545D01*
X152368034Y-101225524D01*
X152414473Y-101246304D01*
X152438116Y-101260746D01*
X152476736Y-101292212D01*
X152510295Y-101330710D01*
X152538792Y-101376241D01*
X152402749Y-101410435D01*
X152377952Y-101376054D01*
X152338513Y-101344489D01*
X152291875Y-101327528D01*
X152241793Y-101322752D01*
X152217421Y-101323658D01*
X152168077Y-101333229D01*
X152124556Y-101359877D01*
X152107201Y-101384486D01*
X152092159Y-101433676D01*
X152088653Y-101482487D01*
X152088653Y-101561133D01*
X152135227Y-101534526D01*
X152183602Y-101515520D01*
X152233779Y-101504117D01*
X152285757Y-101500316D01*
X152313397Y-101501672D01*
X152364544Y-101511384D01*
X152411542Y-101528648D01*
X152434088Y-101540123D01*
X152476751Y-101570817D01*
X152510949Y-101609493D01*
X152523399Y-101629609D01*
X152541539Y-101676727D01*
X152547585Y-101728683D01*
X152547066Y-101744021D01*
X152537075Y-101794998D01*
X152514368Y-101841768D01*
X152503381Y-101857219D01*
X152466969Y-101895153D01*
X152425708Y-101923345D01*
X152404522Y-101933637D01*
X152355908Y-101948633D01*
X152303586Y-101953631D01*
X152257050Y-101950136D01*
X152204819Y-101937225D01*
X152154808Y-101914800D01*
X152113710Y-101888007D01*
X152074242Y-101854224D01*
X152074242Y-101938000D01*
X151828290Y-101938000D01*
X151828290Y-101811482D01*
X151949190Y-101811482D01*
X151949190Y-101678125D01*
X152088653Y-101678125D01*
X152088653Y-101759946D01*
X152094375Y-101765146D01*
X152135150Y-101796919D01*
X152183297Y-101823327D01*
X152233092Y-101839173D01*
X152284536Y-101844454D01*
X152332746Y-101837209D01*
X152376615Y-101811482D01*
X152402210Y-101776867D01*
X152412275Y-101728683D01*
X152402077Y-101681300D01*
X152371486Y-101642710D01*
X152368907Y-101640591D01*
X152323615Y-101615839D01*
X152274277Y-101608272D01*
X152227871Y-101612637D01*
X152175664Y-101627986D01*
X152129258Y-101650907D01*
X152088653Y-101678125D01*
X151949190Y-101678125D01*
X151949190Y-101474427D01*
X151949256Y-101465708D01*
X151953388Y-101408802D01*
X151963948Y-101359118D01*
X151983889Y-101311182D01*
X152016357Y-101268530D01*
X152029590Y-101256876D01*
X152071573Y-101231402D01*
X152123295Y-101214080D01*
X152176541Y-101205610D01*
X152228115Y-101203317D01*
X152267560Y-101204828D01*
G37*
G36*
X151314647Y-101243861D02*
G01*
X151314647Y-101218949D01*
X151191060Y-101218949D01*
X151191060Y-101453422D01*
X151314647Y-101453422D01*
X151314647Y-101409214D01*
X151348383Y-101370211D01*
X151393124Y-101339653D01*
X151445052Y-101323199D01*
X151483663Y-101320065D01*
X151534771Y-101326415D01*
X151575743Y-101345466D01*
X151607189Y-101385117D01*
X151611402Y-101410923D01*
X151594855Y-101457017D01*
X151584291Y-101466611D01*
X151536392Y-101486512D01*
X151485049Y-101497920D01*
X151462414Y-101501782D01*
X151366915Y-101520588D01*
X151316826Y-101532549D01*
X151263607Y-101553317D01*
X151220823Y-101580548D01*
X151183256Y-101621758D01*
X151160716Y-101672277D01*
X151153411Y-101721485D01*
X151153203Y-101732103D01*
X151159327Y-101785321D01*
X151177700Y-101832318D01*
X151208323Y-101873094D01*
X151230628Y-101893059D01*
X151272378Y-101919559D01*
X151320448Y-101938488D01*
X151374838Y-101949845D01*
X151427613Y-101953572D01*
X151435547Y-101953631D01*
X151485922Y-101949845D01*
X151535443Y-101938488D01*
X151583054Y-101920331D01*
X151617508Y-101900875D01*
X151617508Y-101938000D01*
X151744026Y-101938000D01*
X151744026Y-101687895D01*
X151617508Y-101687895D01*
X151617508Y-101713785D01*
X151599680Y-101760124D01*
X151565430Y-101797018D01*
X151559623Y-101801224D01*
X151514790Y-101823763D01*
X151464067Y-101833681D01*
X151448492Y-101834196D01*
X151397011Y-101830085D01*
X151349730Y-101815122D01*
X151339316Y-101809284D01*
X151306075Y-101771175D01*
X151299504Y-101735278D01*
X151320465Y-101689499D01*
X151331256Y-101682277D01*
X151378761Y-101664386D01*
X151429981Y-101651732D01*
X151458262Y-101645885D01*
X151531779Y-101630009D01*
X151582719Y-101616912D01*
X151631304Y-101597433D01*
X151674457Y-101569898D01*
X151691758Y-101553806D01*
X151720682Y-101513175D01*
X151737599Y-101465502D01*
X151742561Y-101416053D01*
X151736393Y-101364149D01*
X151717891Y-101318776D01*
X151705191Y-101300037D01*
X151671204Y-101264893D01*
X151630364Y-101237650D01*
X151609204Y-101227741D01*
X151561211Y-101211928D01*
X151512089Y-101204176D01*
X151489037Y-101203317D01*
X151439303Y-101205851D01*
X151388242Y-101214760D01*
X151337581Y-101232181D01*
X151314647Y-101243861D01*
G37*
G36*
X150723824Y-101206340D02*
G01*
X150772672Y-101215407D01*
X150819323Y-101230520D01*
X150863775Y-101251677D01*
X150894910Y-101271134D01*
X150936783Y-101305279D01*
X150972860Y-101345375D01*
X151000062Y-101386011D01*
X151021861Y-101430188D01*
X151037432Y-101476991D01*
X151046774Y-101526420D01*
X151049888Y-101578474D01*
X151046743Y-101630864D01*
X151037309Y-101680568D01*
X151021586Y-101727584D01*
X150999574Y-101771914D01*
X150975538Y-101807621D01*
X150939002Y-101848240D01*
X150901205Y-101879351D01*
X150858402Y-101905759D01*
X150852698Y-101908705D01*
X150805246Y-101928900D01*
X150754558Y-101943112D01*
X150700634Y-101951340D01*
X150650795Y-101953631D01*
X150595550Y-101950761D01*
X150542412Y-101942152D01*
X150491381Y-101927802D01*
X150442456Y-101907713D01*
X150396767Y-101881992D01*
X150355689Y-101850744D01*
X150319220Y-101813970D01*
X150287362Y-101771670D01*
X150412414Y-101716715D01*
X150434289Y-101744010D01*
X150471738Y-101777853D01*
X150514752Y-101803177D01*
X150545939Y-101815466D01*
X150595180Y-101827316D01*
X150647376Y-101831265D01*
X150671270Y-101830369D01*
X150721598Y-101821793D01*
X150771945Y-101801614D01*
X150812240Y-101773868D01*
X150828241Y-101758870D01*
X150860799Y-101715698D01*
X150881006Y-101669910D01*
X150892596Y-101617553D01*
X150287362Y-101617553D01*
X150288055Y-101601779D01*
X150293233Y-101548660D01*
X150299435Y-101515948D01*
X150436350Y-101515948D01*
X150888443Y-101515948D01*
X150886137Y-101505122D01*
X150869541Y-101455028D01*
X150844502Y-101411661D01*
X150811018Y-101375020D01*
X150771205Y-101346813D01*
X150722892Y-101327851D01*
X150669846Y-101321531D01*
X150659361Y-101321739D01*
X150609281Y-101329052D01*
X150563114Y-101346813D01*
X150520858Y-101375020D01*
X150509159Y-101385306D01*
X150475804Y-101423965D01*
X150451132Y-101469350D01*
X150436350Y-101515948D01*
X150299435Y-101515948D01*
X150302688Y-101498790D01*
X150318732Y-101445774D01*
X150340362Y-101397002D01*
X150363368Y-101358251D01*
X150393925Y-101319031D01*
X150433740Y-101281368D01*
X150473963Y-101253631D01*
X150518171Y-101231619D01*
X150566043Y-101215896D01*
X150617578Y-101206462D01*
X150672777Y-101203317D01*
X150723824Y-101206340D01*
G37*
G36*
X149926127Y-101035522D02*
G01*
X149926127Y-101808795D01*
X149586141Y-101808795D01*
X149586141Y-101484685D01*
X149457669Y-101484685D01*
X149457669Y-101938000D01*
X150216043Y-101938000D01*
X150216043Y-101808795D01*
X150082930Y-101808795D01*
X150082930Y-101035522D01*
X150216043Y-101035522D01*
X150216043Y-100906318D01*
X149793014Y-100906318D01*
X149793014Y-101035522D01*
X149926127Y-101035522D01*
G37*
G36*
X149036350Y-101206340D02*
G01*
X149086908Y-101215407D01*
X149134536Y-101230520D01*
X149179232Y-101251677D01*
X149205327Y-101267690D01*
X149247640Y-101301051D01*
X149283964Y-101340247D01*
X149314298Y-101385278D01*
X149335456Y-101429226D01*
X149350568Y-101476075D01*
X149359636Y-101525824D01*
X149362658Y-101578474D01*
X149360344Y-101622844D01*
X149352032Y-101671521D01*
X149335456Y-101723692D01*
X149314298Y-101767762D01*
X149294715Y-101798657D01*
X149260252Y-101840298D01*
X149219685Y-101876298D01*
X149178499Y-101903561D01*
X149133574Y-101925467D01*
X149085992Y-101941114D01*
X149035755Y-101950502D01*
X148982861Y-101953631D01*
X148931402Y-101950502D01*
X148882294Y-101941114D01*
X148835536Y-101925467D01*
X148791130Y-101903561D01*
X148759986Y-101883531D01*
X148718068Y-101848786D01*
X148681908Y-101808398D01*
X148654598Y-101767762D01*
X148634994Y-101729319D01*
X148616863Y-101677453D01*
X148607429Y-101629048D01*
X148604284Y-101578474D01*
X148754738Y-101578474D01*
X148755777Y-101602293D01*
X148765157Y-101651428D01*
X148784291Y-101697176D01*
X148794099Y-101713584D01*
X148827652Y-101753815D01*
X148866845Y-101783638D01*
X148883582Y-101792856D01*
X148933110Y-101810353D01*
X148982616Y-101815634D01*
X149006004Y-101814509D01*
X149054378Y-101804354D01*
X149099609Y-101783638D01*
X149118851Y-101770749D01*
X149154947Y-101737345D01*
X149183384Y-101696443D01*
X149193594Y-101675552D01*
X149208468Y-101628343D01*
X149213426Y-101578474D01*
X149212370Y-101555210D01*
X149202835Y-101506690D01*
X149183384Y-101460749D01*
X149171237Y-101440931D01*
X149139498Y-101403412D01*
X149100342Y-101373310D01*
X149080106Y-101362270D01*
X149033787Y-101346187D01*
X148984082Y-101340826D01*
X148960314Y-101341994D01*
X148911645Y-101352536D01*
X148866845Y-101374043D01*
X148847794Y-101387163D01*
X148812173Y-101420775D01*
X148784291Y-101461482D01*
X148774248Y-101482115D01*
X148759615Y-101528884D01*
X148754738Y-101578474D01*
X148604284Y-101578474D01*
X148606027Y-101541013D01*
X148615179Y-101486883D01*
X148632174Y-101435226D01*
X148653866Y-101391384D01*
X148673681Y-101360372D01*
X148708330Y-101318458D01*
X148748891Y-101282070D01*
X148789909Y-101254364D01*
X148834392Y-101232031D01*
X148881378Y-101216079D01*
X148930868Y-101206507D01*
X148982861Y-101203317D01*
X149036350Y-101206340D01*
G37*
G36*
X148175638Y-101206340D02*
G01*
X148226196Y-101215407D01*
X148273824Y-101230520D01*
X148318520Y-101251677D01*
X148344615Y-101267690D01*
X148386928Y-101301051D01*
X148423252Y-101340247D01*
X148453586Y-101385278D01*
X148474744Y-101429226D01*
X148489857Y-101476075D01*
X148498924Y-101525824D01*
X148501947Y-101578474D01*
X148499632Y-101622844D01*
X148491321Y-101671521D01*
X148474744Y-101723692D01*
X148453586Y-101767762D01*
X148434003Y-101798657D01*
X148399541Y-101840298D01*
X148358973Y-101876298D01*
X148317787Y-101903561D01*
X148272862Y-101925467D01*
X148225280Y-101941114D01*
X148175043Y-101950502D01*
X148122149Y-101953631D01*
X148070690Y-101950502D01*
X148021582Y-101941114D01*
X147974825Y-101925467D01*
X147930418Y-101903561D01*
X147899274Y-101883531D01*
X147857357Y-101848786D01*
X147821196Y-101808398D01*
X147793887Y-101767762D01*
X147774282Y-101729319D01*
X147756151Y-101677453D01*
X147746717Y-101629048D01*
X147743572Y-101578474D01*
X147894026Y-101578474D01*
X147895065Y-101602293D01*
X147904445Y-101651428D01*
X147923579Y-101697176D01*
X147933387Y-101713584D01*
X147966940Y-101753815D01*
X148006134Y-101783638D01*
X148022870Y-101792856D01*
X148072398Y-101810353D01*
X148121905Y-101815634D01*
X148145292Y-101814509D01*
X148193667Y-101804354D01*
X148238897Y-101783638D01*
X148258140Y-101770749D01*
X148294235Y-101737345D01*
X148322672Y-101696443D01*
X148332882Y-101675552D01*
X148347756Y-101628343D01*
X148352714Y-101578474D01*
X148351658Y-101555210D01*
X148342123Y-101506690D01*
X148322672Y-101460749D01*
X148310525Y-101440931D01*
X148278786Y-101403412D01*
X148239630Y-101373310D01*
X148219394Y-101362270D01*
X148173075Y-101346187D01*
X148123370Y-101340826D01*
X148099602Y-101341994D01*
X148050933Y-101352536D01*
X148006134Y-101374043D01*
X147987083Y-101387163D01*
X147951461Y-101420775D01*
X147923579Y-101461482D01*
X147913536Y-101482115D01*
X147898904Y-101528884D01*
X147894026Y-101578474D01*
X147743572Y-101578474D01*
X147745316Y-101541013D01*
X147754467Y-101486883D01*
X147771462Y-101435226D01*
X147793154Y-101391384D01*
X147812969Y-101360372D01*
X147847618Y-101318458D01*
X147888180Y-101282070D01*
X147929197Y-101254364D01*
X147973680Y-101232031D01*
X148020666Y-101216079D01*
X148070156Y-101206507D01*
X148122149Y-101203317D01*
X148175638Y-101206340D01*
G37*
G36*
X147532547Y-101811482D02*
G01*
X147532547Y-101345955D01*
X147654180Y-101345955D01*
X147654180Y-101218949D01*
X147391130Y-101218949D01*
X147391130Y-101304678D01*
X147351554Y-101275477D01*
X147304362Y-101246969D01*
X147257496Y-101225589D01*
X147203231Y-101209652D01*
X147149411Y-101203416D01*
X147141758Y-101203317D01*
X147090799Y-101208728D01*
X147041749Y-101228165D01*
X147002498Y-101261737D01*
X146973048Y-101309444D01*
X146970055Y-101316401D01*
X146927020Y-101285582D01*
X146884771Y-101259987D01*
X146835111Y-101236168D01*
X146786585Y-101219870D01*
X146731404Y-101210363D01*
X146708227Y-101209423D01*
X146657189Y-101214432D01*
X146609036Y-101231512D01*
X146569253Y-101260714D01*
X146539634Y-101302413D01*
X146523376Y-101351490D01*
X146517432Y-101404755D01*
X146517229Y-101417762D01*
X146517229Y-101811482D01*
X146390956Y-101811482D01*
X146390956Y-101938000D01*
X146658157Y-101938000D01*
X146658157Y-101478334D01*
X146659879Y-101428149D01*
X146663042Y-101401154D01*
X146683131Y-101355927D01*
X146687955Y-101350595D01*
X146734090Y-101330828D01*
X146752191Y-101329835D01*
X146803247Y-101338101D01*
X146843538Y-101353282D01*
X146886892Y-101376243D01*
X146928486Y-101404379D01*
X146953447Y-101423868D01*
X146953447Y-101811482D01*
X146831325Y-101811482D01*
X146831325Y-101938000D01*
X147095596Y-101938000D01*
X147095596Y-101460260D01*
X147099063Y-101410193D01*
X147115309Y-101362296D01*
X147116601Y-101360365D01*
X147158297Y-101332816D01*
X147185722Y-101329835D01*
X147239365Y-101339018D01*
X147289183Y-101359588D01*
X147337807Y-101387228D01*
X147383225Y-101418083D01*
X147391130Y-101423868D01*
X147391130Y-101811482D01*
X147264124Y-101811482D01*
X147264124Y-101938000D01*
X147662484Y-101938000D01*
X147662484Y-101811482D01*
X147532547Y-101811482D01*
G37*
D12*
%TO.C,J3*%
X127797699Y-134524000D03*
X127797699Y-128874000D03*
%TD*%
D13*
%TO.C,J2*%
X177800000Y-137414000D03*
D14*
X180340000Y-137414000D03*
X182879999Y-137414000D03*
X185420000Y-137414000D03*
X187960000Y-137414000D03*
%TD*%
D12*
%TO.C,J5*%
X125100000Y-122967000D03*
X125100000Y-117317000D03*
%TD*%
%TO.C,J8*%
X125054500Y-111410000D03*
X125054500Y-105760000D03*
%TD*%
D13*
%TO.C,J1*%
X171450000Y-89154000D03*
D14*
X168910000Y-89154000D03*
%TD*%
D12*
%TO.C,J7*%
X125091000Y-99878400D03*
X125091000Y-94228400D03*
%TD*%
D15*
%TO.C,J4*%
X189245100Y-110484400D03*
X189245100Y-116134400D03*
%TD*%
%TO.C,J6*%
X189270500Y-99283000D03*
X189270500Y-104933000D03*
%TD*%
D16*
%TO.C,A1*%
X163550600Y-89154000D03*
D17*
X161010600Y-89154000D03*
X158470601Y-89154000D03*
X155930600Y-89154000D03*
X153390600Y-89154000D03*
X150850600Y-89154000D03*
X148310600Y-89154000D03*
X145770599Y-89154000D03*
X140690600Y-89154000D03*
X138150600Y-89154000D03*
X135610601Y-89154000D03*
X133070600Y-89154000D03*
X130530600Y-89154000D03*
X127990600Y-89154000D03*
X127990600Y-137414000D03*
X130530600Y-137414000D03*
X133070600Y-137414000D03*
X135610600Y-137414000D03*
X138150600Y-137414000D03*
X140690600Y-137414000D03*
X143230600Y-137414000D03*
X145770600Y-137414000D03*
X149830600Y-137414000D03*
X152370600Y-137414000D03*
X154910600Y-137414000D03*
X157450600Y-137414000D03*
X159990600Y-137414000D03*
X162530600Y-137414000D03*
X165070600Y-137414000D03*
X167610600Y-137414000D03*
X170150600Y-137414000D03*
X172690600Y-137414000D03*
%TD*%
%LPD*%
M02*
