%TF.GenerationSoftware,KiCad,Pcbnew,8.0.6*%
%TF.CreationDate,2025-06-24T21:55:00+02:00*%
%TF.ProjectId,PhaseLoom,50686173-654c-46f6-9f6d-2e6b69636164,rev?*%
%TF.SameCoordinates,Original*%
%TF.FileFunction,Soldermask,Top*%
%TF.FilePolarity,Negative*%
%FSLAX46Y46*%
G04 Gerber Fmt 4.6, Leading zero omitted, Abs format (unit mm)*
G04 Created by KiCad (PCBNEW 8.0.6) date 2025-06-24 21:55:00*
%MOMM*%
%LPD*%
G01*
G04 APERTURE LIST*
G04 Aperture macros list*
%AMRoundRect*
0 Rectangle with rounded corners*
0 $1 Rounding radius*
0 $2 $3 $4 $5 $6 $7 $8 $9 X,Y pos of 4 corners*
0 Add a 4 corners polygon primitive as box body*
4,1,4,$2,$3,$4,$5,$6,$7,$8,$9,$2,$3,0*
0 Add four circle primitives for the rounded corners*
1,1,$1+$1,$2,$3*
1,1,$1+$1,$4,$5*
1,1,$1+$1,$6,$7*
1,1,$1+$1,$8,$9*
0 Add four rect primitives between the rounded corners*
20,1,$1+$1,$2,$3,$4,$5,0*
20,1,$1+$1,$4,$5,$6,$7,0*
20,1,$1+$1,$6,$7,$8,$9,0*
20,1,$1+$1,$8,$9,$2,$3,0*%
G04 Aperture macros list end*
%ADD10C,0.100000*%
%ADD11C,0.150000*%
%ADD12C,0.200000*%
%ADD13R,1.000000X1.700000*%
%ADD14RoundRect,0.200000X-0.200000X-0.275000X0.200000X-0.275000X0.200000X0.275000X-0.200000X0.275000X0*%
%ADD15RoundRect,0.200000X-0.275000X0.200000X-0.275000X-0.200000X0.275000X-0.200000X0.275000X0.200000X0*%
%ADD16RoundRect,0.218750X-0.218750X-0.256250X0.218750X-0.256250X0.218750X0.256250X-0.218750X0.256250X0*%
%ADD17RoundRect,0.218750X0.256250X-0.218750X0.256250X0.218750X-0.256250X0.218750X-0.256250X-0.218750X0*%
%ADD18RoundRect,0.200000X0.200000X0.275000X-0.200000X0.275000X-0.200000X-0.275000X0.200000X-0.275000X0*%
%ADD19RoundRect,0.225000X0.225000X0.250000X-0.225000X0.250000X-0.225000X-0.250000X0.225000X-0.250000X0*%
%ADD20RoundRect,0.150000X0.512500X0.150000X-0.512500X0.150000X-0.512500X-0.150000X0.512500X-0.150000X0*%
%ADD21RoundRect,0.250000X0.475000X-0.250000X0.475000X0.250000X-0.475000X0.250000X-0.475000X-0.250000X0*%
%ADD22RoundRect,0.150000X-0.150000X0.587500X-0.150000X-0.587500X0.150000X-0.587500X0.150000X0.587500X0*%
%ADD23RoundRect,0.200000X0.275000X-0.200000X0.275000X0.200000X-0.275000X0.200000X-0.275000X-0.200000X0*%
%ADD24RoundRect,0.250000X-1.350000X0.385000X-1.350000X-0.385000X1.350000X-0.385000X1.350000X0.385000X0*%
%ADD25RoundRect,0.250000X-1.600000X0.425000X-1.600000X-0.425000X1.600000X-0.425000X1.600000X0.425000X0*%
%ADD26RoundRect,0.087500X-0.725000X-0.087500X0.725000X-0.087500X0.725000X0.087500X-0.725000X0.087500X0*%
%ADD27RoundRect,0.225000X0.017678X-0.335876X0.335876X-0.017678X-0.017678X0.335876X-0.335876X0.017678X0*%
%ADD28R,1.700000X1.700000*%
%ADD29O,1.700000X1.700000*%
%ADD30RoundRect,0.250000X-0.866206X-0.335876X-0.335876X-0.866206X0.866206X0.335876X0.335876X0.866206X0*%
%ADD31RoundRect,0.135000X0.135000X0.185000X-0.135000X0.185000X-0.135000X-0.185000X0.135000X-0.185000X0*%
%ADD32RoundRect,0.150000X-0.150000X0.825000X-0.150000X-0.825000X0.150000X-0.825000X0.150000X0.825000X0*%
%ADD33RoundRect,0.100000X-0.100000X0.637500X-0.100000X-0.637500X0.100000X-0.637500X0.100000X0.637500X0*%
%ADD34RoundRect,0.190000X-0.635000X-0.190000X0.635000X-0.190000X0.635000X0.190000X-0.635000X0.190000X0*%
%ADD35R,1.400000X1.200000*%
%ADD36RoundRect,0.135000X-0.135000X-0.185000X0.135000X-0.185000X0.135000X0.185000X-0.135000X0.185000X0*%
%ADD37RoundRect,0.225000X0.250000X-0.225000X0.250000X0.225000X-0.250000X0.225000X-0.250000X-0.225000X0*%
%ADD38RoundRect,0.225000X-0.225000X-0.250000X0.225000X-0.250000X0.225000X0.250000X-0.225000X0.250000X0*%
%ADD39RoundRect,0.225000X-0.335876X-0.017678X-0.017678X-0.335876X0.335876X0.017678X0.017678X0.335876X0*%
%ADD40RoundRect,0.225000X-0.250000X0.225000X-0.250000X-0.225000X0.250000X-0.225000X0.250000X0.225000X0*%
%ADD41RoundRect,0.135000X0.185000X-0.135000X0.185000X0.135000X-0.185000X0.135000X-0.185000X-0.135000X0*%
%ADD42RoundRect,0.250000X1.350000X-0.385000X1.350000X0.385000X-1.350000X0.385000X-1.350000X-0.385000X0*%
%ADD43RoundRect,0.250000X1.600000X-0.425000X1.600000X0.425000X-1.600000X0.425000X-1.600000X-0.425000X0*%
%ADD44R,1.600000X1.600000*%
%ADD45O,1.600000X1.600000*%
G04 APERTURE END LIST*
D10*
X184457074Y-134732895D02*
X184952312Y-134732895D01*
X184952312Y-134732895D02*
X184685646Y-135037657D01*
X184685646Y-135037657D02*
X184799931Y-135037657D01*
X184799931Y-135037657D02*
X184876122Y-135075752D01*
X184876122Y-135075752D02*
X184914217Y-135113847D01*
X184914217Y-135113847D02*
X184952312Y-135190038D01*
X184952312Y-135190038D02*
X184952312Y-135380514D01*
X184952312Y-135380514D02*
X184914217Y-135456704D01*
X184914217Y-135456704D02*
X184876122Y-135494800D01*
X184876122Y-135494800D02*
X184799931Y-135532895D01*
X184799931Y-135532895D02*
X184571360Y-135532895D01*
X184571360Y-135532895D02*
X184495169Y-135494800D01*
X184495169Y-135494800D02*
X184457074Y-135456704D01*
X185218979Y-134999561D02*
X185409455Y-135532895D01*
X185409455Y-135532895D02*
X185599932Y-134999561D01*
X185828503Y-134732895D02*
X186323741Y-134732895D01*
X186323741Y-134732895D02*
X186057075Y-135037657D01*
X186057075Y-135037657D02*
X186171360Y-135037657D01*
X186171360Y-135037657D02*
X186247551Y-135075752D01*
X186247551Y-135075752D02*
X186285646Y-135113847D01*
X186285646Y-135113847D02*
X186323741Y-135190038D01*
X186323741Y-135190038D02*
X186323741Y-135380514D01*
X186323741Y-135380514D02*
X186285646Y-135456704D01*
X186285646Y-135456704D02*
X186247551Y-135494800D01*
X186247551Y-135494800D02*
X186171360Y-135532895D01*
X186171360Y-135532895D02*
X185942789Y-135532895D01*
X185942789Y-135532895D02*
X185866598Y-135494800D01*
X185866598Y-135494800D02*
X185828503Y-135456704D01*
D11*
X127924160Y-124974160D02*
X128400350Y-124974160D01*
X127828922Y-125259875D02*
X128162255Y-124259875D01*
X128162255Y-124259875D02*
X128495588Y-125259875D01*
X129257493Y-124593208D02*
X129257493Y-125259875D01*
X128828922Y-124593208D02*
X128828922Y-125117017D01*
X128828922Y-125117017D02*
X128876541Y-125212256D01*
X128876541Y-125212256D02*
X128971779Y-125259875D01*
X128971779Y-125259875D02*
X129114636Y-125259875D01*
X129114636Y-125259875D02*
X129209874Y-125212256D01*
X129209874Y-125212256D02*
X129257493Y-125164636D01*
X129638446Y-125259875D02*
X130162255Y-124593208D01*
X129638446Y-124593208D02*
X130162255Y-125259875D01*
X128257493Y-127250771D02*
X128209874Y-127203152D01*
X128209874Y-127203152D02*
X128114636Y-127060295D01*
X128114636Y-127060295D02*
X128067017Y-126965057D01*
X128067017Y-126965057D02*
X128019398Y-126822200D01*
X128019398Y-126822200D02*
X127971779Y-126584104D01*
X127971779Y-126584104D02*
X127971779Y-126393628D01*
X127971779Y-126393628D02*
X128019398Y-126155533D01*
X128019398Y-126155533D02*
X128067017Y-126012676D01*
X128067017Y-126012676D02*
X128114636Y-125917438D01*
X128114636Y-125917438D02*
X128209874Y-125774580D01*
X128209874Y-125774580D02*
X128257493Y-125726961D01*
X129209874Y-126774580D02*
X129162255Y-126822200D01*
X129162255Y-126822200D02*
X129019398Y-126869819D01*
X129019398Y-126869819D02*
X128924160Y-126869819D01*
X128924160Y-126869819D02*
X128781303Y-126822200D01*
X128781303Y-126822200D02*
X128686065Y-126726961D01*
X128686065Y-126726961D02*
X128638446Y-126631723D01*
X128638446Y-126631723D02*
X128590827Y-126441247D01*
X128590827Y-126441247D02*
X128590827Y-126298390D01*
X128590827Y-126298390D02*
X128638446Y-126107914D01*
X128638446Y-126107914D02*
X128686065Y-126012676D01*
X128686065Y-126012676D02*
X128781303Y-125917438D01*
X128781303Y-125917438D02*
X128924160Y-125869819D01*
X128924160Y-125869819D02*
X129019398Y-125869819D01*
X129019398Y-125869819D02*
X129162255Y-125917438D01*
X129162255Y-125917438D02*
X129209874Y-125965057D01*
X130114636Y-126869819D02*
X129638446Y-126869819D01*
X129638446Y-126869819D02*
X129638446Y-125869819D01*
X130447970Y-126869819D02*
X130447970Y-125869819D01*
X131019398Y-126869819D02*
X130590827Y-126298390D01*
X131019398Y-125869819D02*
X130447970Y-126441247D01*
X131400351Y-125965057D02*
X131447970Y-125917438D01*
X131447970Y-125917438D02*
X131543208Y-125869819D01*
X131543208Y-125869819D02*
X131781303Y-125869819D01*
X131781303Y-125869819D02*
X131876541Y-125917438D01*
X131876541Y-125917438D02*
X131924160Y-125965057D01*
X131924160Y-125965057D02*
X131971779Y-126060295D01*
X131971779Y-126060295D02*
X131971779Y-126155533D01*
X131971779Y-126155533D02*
X131924160Y-126298390D01*
X131924160Y-126298390D02*
X131352732Y-126869819D01*
X131352732Y-126869819D02*
X131971779Y-126869819D01*
X132305113Y-127250771D02*
X132352732Y-127203152D01*
X132352732Y-127203152D02*
X132447970Y-127060295D01*
X132447970Y-127060295D02*
X132495589Y-126965057D01*
X132495589Y-126965057D02*
X132543208Y-126822200D01*
X132543208Y-126822200D02*
X132590827Y-126584104D01*
X132590827Y-126584104D02*
X132590827Y-126393628D01*
X132590827Y-126393628D02*
X132543208Y-126155533D01*
X132543208Y-126155533D02*
X132495589Y-126012676D01*
X132495589Y-126012676D02*
X132447970Y-125917438D01*
X132447970Y-125917438D02*
X132352732Y-125774580D01*
X132352732Y-125774580D02*
X132305113Y-125726961D01*
D10*
X179338969Y-135494800D02*
X179453255Y-135532895D01*
X179453255Y-135532895D02*
X179643731Y-135532895D01*
X179643731Y-135532895D02*
X179719922Y-135494800D01*
X179719922Y-135494800D02*
X179758017Y-135456704D01*
X179758017Y-135456704D02*
X179796112Y-135380514D01*
X179796112Y-135380514D02*
X179796112Y-135304323D01*
X179796112Y-135304323D02*
X179758017Y-135228133D01*
X179758017Y-135228133D02*
X179719922Y-135190038D01*
X179719922Y-135190038D02*
X179643731Y-135151942D01*
X179643731Y-135151942D02*
X179491350Y-135113847D01*
X179491350Y-135113847D02*
X179415160Y-135075752D01*
X179415160Y-135075752D02*
X179377065Y-135037657D01*
X179377065Y-135037657D02*
X179338969Y-134961466D01*
X179338969Y-134961466D02*
X179338969Y-134885276D01*
X179338969Y-134885276D02*
X179377065Y-134809085D01*
X179377065Y-134809085D02*
X179415160Y-134770990D01*
X179415160Y-134770990D02*
X179491350Y-134732895D01*
X179491350Y-134732895D02*
X179681827Y-134732895D01*
X179681827Y-134732895D02*
X179796112Y-134770990D01*
X180596113Y-135456704D02*
X180558017Y-135494800D01*
X180558017Y-135494800D02*
X180443732Y-135532895D01*
X180443732Y-135532895D02*
X180367541Y-135532895D01*
X180367541Y-135532895D02*
X180253255Y-135494800D01*
X180253255Y-135494800D02*
X180177065Y-135418609D01*
X180177065Y-135418609D02*
X180138970Y-135342419D01*
X180138970Y-135342419D02*
X180100874Y-135190038D01*
X180100874Y-135190038D02*
X180100874Y-135075752D01*
X180100874Y-135075752D02*
X180138970Y-134923371D01*
X180138970Y-134923371D02*
X180177065Y-134847180D01*
X180177065Y-134847180D02*
X180253255Y-134770990D01*
X180253255Y-134770990D02*
X180367541Y-134732895D01*
X180367541Y-134732895D02*
X180443732Y-134732895D01*
X180443732Y-134732895D02*
X180558017Y-134770990D01*
X180558017Y-134770990D02*
X180596113Y-134809085D01*
X181319922Y-135532895D02*
X180938970Y-135532895D01*
X180938970Y-135532895D02*
X180938970Y-134732895D01*
X177052969Y-135494800D02*
X177167255Y-135532895D01*
X177167255Y-135532895D02*
X177357731Y-135532895D01*
X177357731Y-135532895D02*
X177433922Y-135494800D01*
X177433922Y-135494800D02*
X177472017Y-135456704D01*
X177472017Y-135456704D02*
X177510112Y-135380514D01*
X177510112Y-135380514D02*
X177510112Y-135304323D01*
X177510112Y-135304323D02*
X177472017Y-135228133D01*
X177472017Y-135228133D02*
X177433922Y-135190038D01*
X177433922Y-135190038D02*
X177357731Y-135151942D01*
X177357731Y-135151942D02*
X177205350Y-135113847D01*
X177205350Y-135113847D02*
X177129160Y-135075752D01*
X177129160Y-135075752D02*
X177091065Y-135037657D01*
X177091065Y-135037657D02*
X177052969Y-134961466D01*
X177052969Y-134961466D02*
X177052969Y-134885276D01*
X177052969Y-134885276D02*
X177091065Y-134809085D01*
X177091065Y-134809085D02*
X177129160Y-134770990D01*
X177129160Y-134770990D02*
X177205350Y-134732895D01*
X177205350Y-134732895D02*
X177395827Y-134732895D01*
X177395827Y-134732895D02*
X177510112Y-134770990D01*
X177852970Y-135532895D02*
X177852970Y-134732895D01*
X177852970Y-134732895D02*
X178043446Y-134732895D01*
X178043446Y-134732895D02*
X178157732Y-134770990D01*
X178157732Y-134770990D02*
X178233922Y-134847180D01*
X178233922Y-134847180D02*
X178272017Y-134923371D01*
X178272017Y-134923371D02*
X178310113Y-135075752D01*
X178310113Y-135075752D02*
X178310113Y-135190038D01*
X178310113Y-135190038D02*
X178272017Y-135342419D01*
X178272017Y-135342419D02*
X178233922Y-135418609D01*
X178233922Y-135418609D02*
X178157732Y-135494800D01*
X178157732Y-135494800D02*
X178043446Y-135532895D01*
X178043446Y-135532895D02*
X177852970Y-135532895D01*
X178614874Y-135304323D02*
X178995827Y-135304323D01*
X178538684Y-135532895D02*
X178805351Y-134732895D01*
X178805351Y-134732895D02*
X179072017Y-135532895D01*
D11*
X128447969Y-115099875D02*
X127971779Y-115099875D01*
X127971779Y-115099875D02*
X127971779Y-114099875D01*
X128971779Y-114099875D02*
X129162255Y-114099875D01*
X129162255Y-114099875D02*
X129257493Y-114147494D01*
X129257493Y-114147494D02*
X129352731Y-114242732D01*
X129352731Y-114242732D02*
X129400350Y-114433208D01*
X129400350Y-114433208D02*
X129400350Y-114766541D01*
X129400350Y-114766541D02*
X129352731Y-114957017D01*
X129352731Y-114957017D02*
X129257493Y-115052256D01*
X129257493Y-115052256D02*
X129162255Y-115099875D01*
X129162255Y-115099875D02*
X128971779Y-115099875D01*
X128971779Y-115099875D02*
X128876541Y-115052256D01*
X128876541Y-115052256D02*
X128781303Y-114957017D01*
X128781303Y-114957017D02*
X128733684Y-114766541D01*
X128733684Y-114766541D02*
X128733684Y-114433208D01*
X128733684Y-114433208D02*
X128781303Y-114242732D01*
X128781303Y-114242732D02*
X128876541Y-114147494D01*
X128876541Y-114147494D02*
X128971779Y-114099875D01*
X130590827Y-114718922D02*
X131352732Y-114718922D01*
X130971779Y-115099875D02*
X130971779Y-114337970D01*
X132638446Y-115099875D02*
X132828922Y-115099875D01*
X132828922Y-115099875D02*
X132924160Y-115052256D01*
X132924160Y-115052256D02*
X132971779Y-115004636D01*
X132971779Y-115004636D02*
X133067017Y-114861779D01*
X133067017Y-114861779D02*
X133114636Y-114671303D01*
X133114636Y-114671303D02*
X133114636Y-114290351D01*
X133114636Y-114290351D02*
X133067017Y-114195113D01*
X133067017Y-114195113D02*
X133019398Y-114147494D01*
X133019398Y-114147494D02*
X132924160Y-114099875D01*
X132924160Y-114099875D02*
X132733684Y-114099875D01*
X132733684Y-114099875D02*
X132638446Y-114147494D01*
X132638446Y-114147494D02*
X132590827Y-114195113D01*
X132590827Y-114195113D02*
X132543208Y-114290351D01*
X132543208Y-114290351D02*
X132543208Y-114528446D01*
X132543208Y-114528446D02*
X132590827Y-114623684D01*
X132590827Y-114623684D02*
X132638446Y-114671303D01*
X132638446Y-114671303D02*
X132733684Y-114718922D01*
X132733684Y-114718922D02*
X132924160Y-114718922D01*
X132924160Y-114718922D02*
X133019398Y-114671303D01*
X133019398Y-114671303D02*
X133067017Y-114623684D01*
X133067017Y-114623684D02*
X133114636Y-114528446D01*
X133733684Y-114099875D02*
X133828922Y-114099875D01*
X133828922Y-114099875D02*
X133924160Y-114147494D01*
X133924160Y-114147494D02*
X133971779Y-114195113D01*
X133971779Y-114195113D02*
X134019398Y-114290351D01*
X134019398Y-114290351D02*
X134067017Y-114480827D01*
X134067017Y-114480827D02*
X134067017Y-114718922D01*
X134067017Y-114718922D02*
X134019398Y-114909398D01*
X134019398Y-114909398D02*
X133971779Y-115004636D01*
X133971779Y-115004636D02*
X133924160Y-115052256D01*
X133924160Y-115052256D02*
X133828922Y-115099875D01*
X133828922Y-115099875D02*
X133733684Y-115099875D01*
X133733684Y-115099875D02*
X133638446Y-115052256D01*
X133638446Y-115052256D02*
X133590827Y-115004636D01*
X133590827Y-115004636D02*
X133543208Y-114909398D01*
X133543208Y-114909398D02*
X133495589Y-114718922D01*
X133495589Y-114718922D02*
X133495589Y-114480827D01*
X133495589Y-114480827D02*
X133543208Y-114290351D01*
X133543208Y-114290351D02*
X133590827Y-114195113D01*
X133590827Y-114195113D02*
X133638446Y-114147494D01*
X133638446Y-114147494D02*
X133733684Y-114099875D01*
X134638446Y-114099875D02*
X134543208Y-114147494D01*
X134543208Y-114147494D02*
X134495589Y-114242732D01*
X134495589Y-114242732D02*
X134543208Y-114337970D01*
X134543208Y-114337970D02*
X134638446Y-114385589D01*
X134638446Y-114385589D02*
X134733684Y-114337970D01*
X134733684Y-114337970D02*
X134781303Y-114242732D01*
X134781303Y-114242732D02*
X134733684Y-114147494D01*
X134733684Y-114147494D02*
X134638446Y-114099875D01*
X128257493Y-117090771D02*
X128209874Y-117043152D01*
X128209874Y-117043152D02*
X128114636Y-116900295D01*
X128114636Y-116900295D02*
X128067017Y-116805057D01*
X128067017Y-116805057D02*
X128019398Y-116662200D01*
X128019398Y-116662200D02*
X127971779Y-116424104D01*
X127971779Y-116424104D02*
X127971779Y-116233628D01*
X127971779Y-116233628D02*
X128019398Y-115995533D01*
X128019398Y-115995533D02*
X128067017Y-115852676D01*
X128067017Y-115852676D02*
X128114636Y-115757438D01*
X128114636Y-115757438D02*
X128209874Y-115614580D01*
X128209874Y-115614580D02*
X128257493Y-115566961D01*
X129209874Y-116614580D02*
X129162255Y-116662200D01*
X129162255Y-116662200D02*
X129019398Y-116709819D01*
X129019398Y-116709819D02*
X128924160Y-116709819D01*
X128924160Y-116709819D02*
X128781303Y-116662200D01*
X128781303Y-116662200D02*
X128686065Y-116566961D01*
X128686065Y-116566961D02*
X128638446Y-116471723D01*
X128638446Y-116471723D02*
X128590827Y-116281247D01*
X128590827Y-116281247D02*
X128590827Y-116138390D01*
X128590827Y-116138390D02*
X128638446Y-115947914D01*
X128638446Y-115947914D02*
X128686065Y-115852676D01*
X128686065Y-115852676D02*
X128781303Y-115757438D01*
X128781303Y-115757438D02*
X128924160Y-115709819D01*
X128924160Y-115709819D02*
X129019398Y-115709819D01*
X129019398Y-115709819D02*
X129162255Y-115757438D01*
X129162255Y-115757438D02*
X129209874Y-115805057D01*
X130114636Y-116709819D02*
X129638446Y-116709819D01*
X129638446Y-116709819D02*
X129638446Y-115709819D01*
X130447970Y-116709819D02*
X130447970Y-115709819D01*
X131019398Y-116709819D02*
X130590827Y-116138390D01*
X131019398Y-115709819D02*
X130447970Y-116281247D01*
X131971779Y-116709819D02*
X131400351Y-116709819D01*
X131686065Y-116709819D02*
X131686065Y-115709819D01*
X131686065Y-115709819D02*
X131590827Y-115852676D01*
X131590827Y-115852676D02*
X131495589Y-115947914D01*
X131495589Y-115947914D02*
X131400351Y-115995533D01*
X132305113Y-117090771D02*
X132352732Y-117043152D01*
X132352732Y-117043152D02*
X132447970Y-116900295D01*
X132447970Y-116900295D02*
X132495589Y-116805057D01*
X132495589Y-116805057D02*
X132543208Y-116662200D01*
X132543208Y-116662200D02*
X132590827Y-116424104D01*
X132590827Y-116424104D02*
X132590827Y-116233628D01*
X132590827Y-116233628D02*
X132543208Y-115995533D01*
X132543208Y-115995533D02*
X132495589Y-115852676D01*
X132495589Y-115852676D02*
X132447970Y-115757438D01*
X132447970Y-115757438D02*
X132352732Y-115614580D01*
X132352732Y-115614580D02*
X132305113Y-115566961D01*
D10*
X182336112Y-134770990D02*
X182259922Y-134732895D01*
X182259922Y-134732895D02*
X182145636Y-134732895D01*
X182145636Y-134732895D02*
X182031350Y-134770990D01*
X182031350Y-134770990D02*
X181955160Y-134847180D01*
X181955160Y-134847180D02*
X181917065Y-134923371D01*
X181917065Y-134923371D02*
X181878969Y-135075752D01*
X181878969Y-135075752D02*
X181878969Y-135190038D01*
X181878969Y-135190038D02*
X181917065Y-135342419D01*
X181917065Y-135342419D02*
X181955160Y-135418609D01*
X181955160Y-135418609D02*
X182031350Y-135494800D01*
X182031350Y-135494800D02*
X182145636Y-135532895D01*
X182145636Y-135532895D02*
X182221827Y-135532895D01*
X182221827Y-135532895D02*
X182336112Y-135494800D01*
X182336112Y-135494800D02*
X182374208Y-135456704D01*
X182374208Y-135456704D02*
X182374208Y-135190038D01*
X182374208Y-135190038D02*
X182221827Y-135190038D01*
X182717065Y-135532895D02*
X182717065Y-134732895D01*
X182717065Y-134732895D02*
X183174208Y-135532895D01*
X183174208Y-135532895D02*
X183174208Y-134732895D01*
X183555160Y-135532895D02*
X183555160Y-134732895D01*
X183555160Y-134732895D02*
X183745636Y-134732895D01*
X183745636Y-134732895D02*
X183859922Y-134770990D01*
X183859922Y-134770990D02*
X183936112Y-134847180D01*
X183936112Y-134847180D02*
X183974207Y-134923371D01*
X183974207Y-134923371D02*
X184012303Y-135075752D01*
X184012303Y-135075752D02*
X184012303Y-135190038D01*
X184012303Y-135190038D02*
X183974207Y-135342419D01*
X183974207Y-135342419D02*
X183936112Y-135418609D01*
X183936112Y-135418609D02*
X183859922Y-135494800D01*
X183859922Y-135494800D02*
X183745636Y-135532895D01*
X183745636Y-135532895D02*
X183555160Y-135532895D01*
X167832693Y-91249038D02*
X167737455Y-91201419D01*
X167737455Y-91201419D02*
X167594598Y-91201419D01*
X167594598Y-91201419D02*
X167451741Y-91249038D01*
X167451741Y-91249038D02*
X167356503Y-91344276D01*
X167356503Y-91344276D02*
X167308884Y-91439514D01*
X167308884Y-91439514D02*
X167261265Y-91629990D01*
X167261265Y-91629990D02*
X167261265Y-91772847D01*
X167261265Y-91772847D02*
X167308884Y-91963323D01*
X167308884Y-91963323D02*
X167356503Y-92058561D01*
X167356503Y-92058561D02*
X167451741Y-92153800D01*
X167451741Y-92153800D02*
X167594598Y-92201419D01*
X167594598Y-92201419D02*
X167689836Y-92201419D01*
X167689836Y-92201419D02*
X167832693Y-92153800D01*
X167832693Y-92153800D02*
X167880312Y-92106180D01*
X167880312Y-92106180D02*
X167880312Y-91772847D01*
X167880312Y-91772847D02*
X167689836Y-91772847D01*
X168308884Y-92201419D02*
X168308884Y-91201419D01*
X168308884Y-91201419D02*
X168880312Y-92201419D01*
X168880312Y-92201419D02*
X168880312Y-91201419D01*
X169356503Y-92201419D02*
X169356503Y-91201419D01*
X169356503Y-91201419D02*
X169594598Y-91201419D01*
X169594598Y-91201419D02*
X169737455Y-91249038D01*
X169737455Y-91249038D02*
X169832693Y-91344276D01*
X169832693Y-91344276D02*
X169880312Y-91439514D01*
X169880312Y-91439514D02*
X169927931Y-91629990D01*
X169927931Y-91629990D02*
X169927931Y-91772847D01*
X169927931Y-91772847D02*
X169880312Y-91963323D01*
X169880312Y-91963323D02*
X169832693Y-92058561D01*
X169832693Y-92058561D02*
X169737455Y-92153800D01*
X169737455Y-92153800D02*
X169594598Y-92201419D01*
X169594598Y-92201419D02*
X169356503Y-92201419D01*
D11*
G36*
X146529051Y-121764716D02*
G01*
X146584404Y-121772006D01*
X146637335Y-121784156D01*
X146687845Y-121801167D01*
X146735933Y-121823037D01*
X146751424Y-121831407D01*
X146795663Y-121859065D01*
X146836054Y-121890380D01*
X146872599Y-121925354D01*
X146905297Y-121963985D01*
X146934148Y-122006274D01*
X146942910Y-122021184D01*
X146966152Y-122067603D01*
X146984584Y-122116186D01*
X146998209Y-122166934D01*
X147007024Y-122219845D01*
X147011031Y-122274919D01*
X147011298Y-122293759D01*
X147009289Y-122345605D01*
X147003261Y-122395631D01*
X146993215Y-122443836D01*
X146976415Y-122497775D01*
X146954146Y-122549237D01*
X146926957Y-122597377D01*
X146895188Y-122641567D01*
X146858837Y-122681807D01*
X146817904Y-122718096D01*
X146792457Y-122737059D01*
X146744956Y-122766239D01*
X146694136Y-122789880D01*
X146639996Y-122807980D01*
X146590949Y-122819086D01*
X146548214Y-122825231D01*
X146595871Y-122844988D01*
X146644751Y-122863425D01*
X146670824Y-122872126D01*
X146720779Y-122884323D01*
X146761194Y-122887757D01*
X146811121Y-122881539D01*
X146816881Y-122880186D01*
X146762659Y-123008657D01*
X146721382Y-123012810D01*
X146670606Y-123007848D01*
X146640049Y-123000109D01*
X146592239Y-122982707D01*
X146547165Y-122963163D01*
X146530384Y-122955412D01*
X146482620Y-122934919D01*
X146434892Y-122916064D01*
X146421940Y-122911449D01*
X146372806Y-122900114D01*
X146343050Y-122898260D01*
X146294299Y-122905882D01*
X146289805Y-122907541D01*
X146246463Y-122931384D01*
X146241933Y-122934652D01*
X146192596Y-122868951D01*
X146232569Y-122837655D01*
X146278097Y-122814362D01*
X146305192Y-122807401D01*
X146252569Y-122788927D01*
X146203846Y-122766171D01*
X146159022Y-122739134D01*
X146118099Y-122707815D01*
X146081074Y-122672215D01*
X146047950Y-122632334D01*
X146035792Y-122615182D01*
X146008492Y-122570304D01*
X145985818Y-122523291D01*
X145967772Y-122474143D01*
X145954353Y-122422860D01*
X145945561Y-122369443D01*
X145941396Y-122313891D01*
X145941046Y-122292293D01*
X146110775Y-122292293D01*
X146112890Y-122342155D01*
X146120489Y-122396163D01*
X146133613Y-122446996D01*
X146152263Y-122494654D01*
X146154983Y-122500388D01*
X146179621Y-122543527D01*
X146213105Y-122586001D01*
X146252693Y-122622061D01*
X146282478Y-122642537D01*
X146331432Y-122667095D01*
X146378484Y-122682177D01*
X146428862Y-122690909D01*
X146475674Y-122693340D01*
X146528934Y-122689783D01*
X146578805Y-122679113D01*
X146625288Y-122661329D01*
X146668381Y-122636431D01*
X146707415Y-122605687D01*
X146741715Y-122570608D01*
X146771284Y-122531193D01*
X146796120Y-122487443D01*
X146815782Y-122440808D01*
X146829826Y-122392982D01*
X146838252Y-122343966D01*
X146841061Y-122293759D01*
X146838069Y-122240895D01*
X146829093Y-122190261D01*
X146814133Y-122141855D01*
X146793190Y-122095678D01*
X146766979Y-122052859D01*
X146735976Y-122014772D01*
X146700179Y-121981418D01*
X146659589Y-121952796D01*
X146615289Y-121929821D01*
X146568120Y-121913411D01*
X146518081Y-121903565D01*
X146465171Y-121900283D01*
X146414796Y-121903489D01*
X146361482Y-121914759D01*
X146311722Y-121934143D01*
X146280524Y-121951574D01*
X146237809Y-121983321D01*
X146200891Y-122021135D01*
X146169769Y-122065015D01*
X146154983Y-122092014D01*
X146135642Y-122137962D01*
X146121827Y-122186658D01*
X146113538Y-122238102D01*
X146110775Y-122292293D01*
X145941046Y-122292293D01*
X145941026Y-122291072D01*
X145943388Y-122235201D01*
X145950472Y-122181529D01*
X145962278Y-122130055D01*
X145978808Y-122080779D01*
X146000060Y-122033701D01*
X146008193Y-122018497D01*
X146035353Y-121975031D01*
X146066273Y-121935309D01*
X146100955Y-121899331D01*
X146139397Y-121867097D01*
X146181601Y-121838606D01*
X146196504Y-121829941D01*
X146243001Y-121806949D01*
X146291816Y-121788714D01*
X146342950Y-121775236D01*
X146396402Y-121766515D01*
X146452172Y-121762550D01*
X146471277Y-121762286D01*
X146529051Y-121764716D01*
G37*
G36*
X147458263Y-122701644D02*
G01*
X147507005Y-122695843D01*
X147557731Y-122678441D01*
X147603744Y-122653697D01*
X147644393Y-122625418D01*
X147665137Y-122608832D01*
X147665137Y-122217555D01*
X147537398Y-122217555D01*
X147537398Y-122090549D01*
X147807286Y-122090549D01*
X147807286Y-122683082D01*
X147930873Y-122683082D01*
X147930873Y-122809600D01*
X147665137Y-122809600D01*
X147665137Y-122729732D01*
X147618680Y-122762187D01*
X147573099Y-122787927D01*
X147521028Y-122809470D01*
X147470150Y-122821874D01*
X147427488Y-122825231D01*
X147374528Y-122820459D01*
X147325517Y-122803963D01*
X147283561Y-122772208D01*
X147277279Y-122764903D01*
X147251776Y-122719246D01*
X147238175Y-122671489D01*
X147231233Y-122621512D01*
X147228966Y-122572591D01*
X147228919Y-122563891D01*
X147228919Y-122217555D01*
X147127802Y-122217555D01*
X147127802Y-122090549D01*
X147371068Y-122090549D01*
X147371068Y-122593689D01*
X147376789Y-122644516D01*
X147391340Y-122675510D01*
X147434109Y-122699577D01*
X147458263Y-122701644D01*
G37*
G36*
X148398637Y-122077210D02*
G01*
X148451883Y-122085680D01*
X148503605Y-122103002D01*
X148545588Y-122128476D01*
X148558821Y-122140130D01*
X148591289Y-122182782D01*
X148611230Y-122230718D01*
X148621790Y-122280402D01*
X148625922Y-122337308D01*
X148625988Y-122346027D01*
X148625988Y-122683082D01*
X148746888Y-122683082D01*
X148746888Y-122809600D01*
X148500936Y-122809600D01*
X148500936Y-122725824D01*
X148461468Y-122759607D01*
X148420370Y-122786400D01*
X148370359Y-122808825D01*
X148318128Y-122821736D01*
X148271592Y-122825231D01*
X148219270Y-122820233D01*
X148170656Y-122805237D01*
X148149470Y-122794945D01*
X148108209Y-122766753D01*
X148071797Y-122728819D01*
X148060810Y-122713368D01*
X148038103Y-122666598D01*
X148028112Y-122615621D01*
X148027593Y-122600283D01*
X148162903Y-122600283D01*
X148172967Y-122648467D01*
X148198563Y-122683082D01*
X148242432Y-122708809D01*
X148290642Y-122716054D01*
X148342086Y-122710773D01*
X148391881Y-122694927D01*
X148440027Y-122668519D01*
X148480803Y-122636746D01*
X148486525Y-122631546D01*
X148486525Y-122549725D01*
X148445920Y-122522507D01*
X148399514Y-122499586D01*
X148347307Y-122484237D01*
X148300901Y-122479872D01*
X148251563Y-122487439D01*
X148206271Y-122512191D01*
X148203692Y-122514310D01*
X148173101Y-122552900D01*
X148162903Y-122600283D01*
X148027593Y-122600283D01*
X148033639Y-122548327D01*
X148051779Y-122501209D01*
X148064229Y-122481093D01*
X148098427Y-122442417D01*
X148141090Y-122411723D01*
X148163636Y-122400248D01*
X148210634Y-122382984D01*
X148261781Y-122373272D01*
X148289421Y-122371916D01*
X148341399Y-122375717D01*
X148391576Y-122387120D01*
X148439951Y-122406126D01*
X148486525Y-122432733D01*
X148486525Y-122354087D01*
X148483019Y-122305276D01*
X148467977Y-122256086D01*
X148450622Y-122231477D01*
X148407101Y-122204829D01*
X148357757Y-122195258D01*
X148333385Y-122194352D01*
X148283303Y-122199128D01*
X148236665Y-122216089D01*
X148197226Y-122247654D01*
X148172429Y-122282035D01*
X148036386Y-122247841D01*
X148064883Y-122202310D01*
X148098441Y-122163812D01*
X148137062Y-122132346D01*
X148160705Y-122117904D01*
X148207144Y-122097124D01*
X148258258Y-122083145D01*
X148307618Y-122076428D01*
X148347063Y-122074917D01*
X148398637Y-122077210D01*
G37*
G36*
X149575848Y-122670625D02*
G01*
X149706274Y-122670625D01*
X149706274Y-122809600D01*
X149434920Y-122809600D01*
X149434920Y-122694317D01*
X149392777Y-122733495D01*
X149347680Y-122764567D01*
X149299629Y-122787534D01*
X149248624Y-122802394D01*
X149194665Y-122809149D01*
X149176023Y-122809600D01*
X149125281Y-122806608D01*
X149071847Y-122796089D01*
X149022276Y-122777997D01*
X148991375Y-122761728D01*
X148949251Y-122732076D01*
X148912730Y-122696976D01*
X148881812Y-122656428D01*
X148867056Y-122631546D01*
X148845686Y-122583757D01*
X148831309Y-122533264D01*
X148823927Y-122480065D01*
X148822848Y-122449341D01*
X148823092Y-122445189D01*
X148973301Y-122445189D01*
X148977560Y-122493893D01*
X148991786Y-122542469D01*
X149003587Y-122566822D01*
X149031782Y-122607048D01*
X149070170Y-122641803D01*
X149085897Y-122652063D01*
X149133969Y-122673267D01*
X149182793Y-122682324D01*
X149202645Y-122683082D01*
X149254090Y-122677519D01*
X149301261Y-122660831D01*
X149321592Y-122649376D01*
X149360865Y-122618282D01*
X149392561Y-122579771D01*
X149404634Y-122559495D01*
X149424243Y-122512562D01*
X149433855Y-122463049D01*
X149434920Y-122439327D01*
X149429922Y-122388593D01*
X149414927Y-122341567D01*
X149404634Y-122321114D01*
X149376315Y-122281204D01*
X149337072Y-122246609D01*
X149320859Y-122236362D01*
X149275101Y-122216278D01*
X149224748Y-122206433D01*
X149199959Y-122205343D01*
X149149271Y-122210865D01*
X149103178Y-122227432D01*
X149083455Y-122238804D01*
X149042903Y-122272076D01*
X149012615Y-122310507D01*
X149002855Y-122327220D01*
X148983720Y-122373319D01*
X148974340Y-122421916D01*
X148973301Y-122445189D01*
X148823092Y-122445189D01*
X148825779Y-122399424D01*
X148836083Y-122345676D01*
X148853805Y-122294478D01*
X148869742Y-122261763D01*
X148899098Y-122216322D01*
X148934134Y-122176446D01*
X148974849Y-122142133D01*
X148999924Y-122125475D01*
X149047854Y-122101035D01*
X149097949Y-122084594D01*
X149150207Y-122076151D01*
X149180175Y-122074917D01*
X149231569Y-122078798D01*
X149280971Y-122090442D01*
X149312799Y-122102516D01*
X149359510Y-122127464D01*
X149401364Y-122158116D01*
X149434920Y-122188734D01*
X149434920Y-121902970D01*
X149295458Y-121902970D01*
X149295458Y-121777918D01*
X149575848Y-121777918D01*
X149575848Y-122670625D01*
G37*
G36*
X150035758Y-122518462D02*
G01*
X150035758Y-122683082D01*
X150193050Y-122683082D01*
X150193050Y-122809600D01*
X149749993Y-122809600D01*
X149749993Y-122683082D01*
X149894829Y-122683082D01*
X149894829Y-122217555D01*
X149749993Y-122217555D01*
X149749993Y-122090549D01*
X150007425Y-122090549D01*
X150007425Y-122248818D01*
X150030354Y-122203893D01*
X150059286Y-122162146D01*
X150095331Y-122126683D01*
X150114892Y-122113263D01*
X150160454Y-122093042D01*
X150210718Y-122081246D01*
X150262761Y-122075853D01*
X150298807Y-122074917D01*
X150331047Y-122074917D01*
X150331047Y-122218532D01*
X150300273Y-122218532D01*
X150246203Y-122220440D01*
X150194207Y-122227148D01*
X150143354Y-122241907D01*
X150128326Y-122249062D01*
X150088931Y-122278829D01*
X150060480Y-122322427D01*
X150053832Y-122340897D01*
X150043541Y-122389648D01*
X150038299Y-122439110D01*
X150036040Y-122490309D01*
X150035758Y-122518462D01*
G37*
G36*
X150794171Y-122077210D02*
G01*
X150847417Y-122085680D01*
X150899139Y-122103002D01*
X150941122Y-122128476D01*
X150954355Y-122140130D01*
X150986823Y-122182782D01*
X151006763Y-122230718D01*
X151017324Y-122280402D01*
X151021456Y-122337308D01*
X151021522Y-122346027D01*
X151021522Y-122683082D01*
X151142422Y-122683082D01*
X151142422Y-122809600D01*
X150896469Y-122809600D01*
X150896469Y-122725824D01*
X150857002Y-122759607D01*
X150815904Y-122786400D01*
X150765893Y-122808825D01*
X150713662Y-122821736D01*
X150667125Y-122825231D01*
X150614803Y-122820233D01*
X150566190Y-122805237D01*
X150545004Y-122794945D01*
X150503742Y-122766753D01*
X150467331Y-122728819D01*
X150456344Y-122713368D01*
X150433637Y-122666598D01*
X150423646Y-122615621D01*
X150423127Y-122600283D01*
X150558437Y-122600283D01*
X150568501Y-122648467D01*
X150594097Y-122683082D01*
X150637966Y-122708809D01*
X150686176Y-122716054D01*
X150737620Y-122710773D01*
X150787415Y-122694927D01*
X150835561Y-122668519D01*
X150876337Y-122636746D01*
X150882059Y-122631546D01*
X150882059Y-122549725D01*
X150841454Y-122522507D01*
X150795048Y-122499586D01*
X150742841Y-122484237D01*
X150696435Y-122479872D01*
X150647097Y-122487439D01*
X150601805Y-122512191D01*
X150599226Y-122514310D01*
X150568634Y-122552900D01*
X150558437Y-122600283D01*
X150423127Y-122600283D01*
X150429173Y-122548327D01*
X150447313Y-122501209D01*
X150459763Y-122481093D01*
X150493961Y-122442417D01*
X150536624Y-122411723D01*
X150559170Y-122400248D01*
X150606168Y-122382984D01*
X150657314Y-122373272D01*
X150684955Y-122371916D01*
X150736933Y-122375717D01*
X150787110Y-122387120D01*
X150835485Y-122406126D01*
X150882059Y-122432733D01*
X150882059Y-122354087D01*
X150878553Y-122305276D01*
X150863511Y-122256086D01*
X150846155Y-122231477D01*
X150802635Y-122204829D01*
X150753291Y-122195258D01*
X150728919Y-122194352D01*
X150678837Y-122199128D01*
X150632199Y-122216089D01*
X150592760Y-122247654D01*
X150567963Y-122282035D01*
X150431919Y-122247841D01*
X150460416Y-122202310D01*
X150493975Y-122163812D01*
X150532596Y-122132346D01*
X150556239Y-122117904D01*
X150602678Y-122097124D01*
X150653792Y-122083145D01*
X150703152Y-122076428D01*
X150742596Y-122074917D01*
X150794171Y-122077210D01*
G37*
G36*
X151579861Y-122090549D02*
G01*
X151579861Y-122217555D01*
X151447970Y-122217555D01*
X151447970Y-122596375D01*
X151451554Y-122647458D01*
X151460670Y-122673068D01*
X151504390Y-122690653D01*
X151553863Y-122685078D01*
X151579861Y-122677708D01*
X151579861Y-122805936D01*
X151530472Y-122818429D01*
X151481196Y-122825061D01*
X151473371Y-122825231D01*
X151422519Y-122820842D01*
X151374342Y-122803990D01*
X151344899Y-122780290D01*
X151321086Y-122737403D01*
X151309637Y-122687915D01*
X151305859Y-122632690D01*
X151305820Y-122625929D01*
X151305820Y-122217555D01*
X151211543Y-122217555D01*
X151211543Y-122090549D01*
X151305820Y-122090549D01*
X151305820Y-121983326D01*
X151447970Y-121856075D01*
X151447970Y-122090549D01*
X151579861Y-122090549D01*
G37*
G36*
X151998249Y-122701644D02*
G01*
X152046991Y-122695843D01*
X152097717Y-122678441D01*
X152143730Y-122653697D01*
X152184379Y-122625418D01*
X152205123Y-122608832D01*
X152205123Y-122217555D01*
X152077384Y-122217555D01*
X152077384Y-122090549D01*
X152347272Y-122090549D01*
X152347272Y-122683082D01*
X152470859Y-122683082D01*
X152470859Y-122809600D01*
X152205123Y-122809600D01*
X152205123Y-122729732D01*
X152158666Y-122762187D01*
X152113085Y-122787927D01*
X152061014Y-122809470D01*
X152010136Y-122821874D01*
X151967474Y-122825231D01*
X151914514Y-122820459D01*
X151865503Y-122803963D01*
X151823548Y-122772208D01*
X151817265Y-122764903D01*
X151791763Y-122719246D01*
X151778161Y-122671489D01*
X151771219Y-122621512D01*
X151768952Y-122572591D01*
X151768905Y-122563891D01*
X151768905Y-122217555D01*
X151667788Y-122217555D01*
X151667788Y-122090549D01*
X151911054Y-122090549D01*
X151911054Y-122593689D01*
X151916776Y-122644516D01*
X151931326Y-122675510D01*
X151974095Y-122699577D01*
X151998249Y-122701644D01*
G37*
G36*
X152814264Y-122518462D02*
G01*
X152814264Y-122683082D01*
X152971557Y-122683082D01*
X152971557Y-122809600D01*
X152528500Y-122809600D01*
X152528500Y-122683082D01*
X152673336Y-122683082D01*
X152673336Y-122217555D01*
X152528500Y-122217555D01*
X152528500Y-122090549D01*
X152785932Y-122090549D01*
X152785932Y-122248818D01*
X152808860Y-122203893D01*
X152837793Y-122162146D01*
X152873838Y-122126683D01*
X152893399Y-122113263D01*
X152938961Y-122093042D01*
X152989225Y-122081246D01*
X153041268Y-122075853D01*
X153077314Y-122074917D01*
X153109554Y-122074917D01*
X153109554Y-122218532D01*
X153078779Y-122218532D01*
X153024710Y-122220440D01*
X152972713Y-122227148D01*
X152921861Y-122241907D01*
X152906832Y-122249062D01*
X152867437Y-122278829D01*
X152838987Y-122322427D01*
X152832338Y-122340897D01*
X152822048Y-122389648D01*
X152816806Y-122439110D01*
X152814547Y-122490309D01*
X152814264Y-122518462D01*
G37*
G36*
X153533315Y-122078062D02*
G01*
X153584850Y-122087496D01*
X153632722Y-122103219D01*
X153676930Y-122125231D01*
X153717154Y-122152968D01*
X153756968Y-122190631D01*
X153787525Y-122229851D01*
X153810531Y-122268602D01*
X153832162Y-122317374D01*
X153848205Y-122370390D01*
X153857660Y-122420260D01*
X153862838Y-122473379D01*
X153863532Y-122489153D01*
X153258298Y-122489153D01*
X153269888Y-122541510D01*
X153290094Y-122587298D01*
X153322652Y-122630470D01*
X153338654Y-122645468D01*
X153378949Y-122673214D01*
X153429295Y-122693393D01*
X153479624Y-122701969D01*
X153503518Y-122702865D01*
X153555713Y-122698916D01*
X153604955Y-122687066D01*
X153636141Y-122674777D01*
X153679155Y-122649453D01*
X153716604Y-122615610D01*
X153738479Y-122588315D01*
X153863532Y-122643270D01*
X153831673Y-122685570D01*
X153795205Y-122722344D01*
X153754126Y-122753592D01*
X153708437Y-122779313D01*
X153659512Y-122799402D01*
X153608481Y-122813752D01*
X153555343Y-122822361D01*
X153500098Y-122825231D01*
X153450260Y-122822940D01*
X153396335Y-122814712D01*
X153345647Y-122800500D01*
X153298196Y-122780305D01*
X153292492Y-122777359D01*
X153249688Y-122750951D01*
X153211892Y-122719840D01*
X153175355Y-122679221D01*
X153151319Y-122643514D01*
X153129307Y-122599184D01*
X153113584Y-122552168D01*
X153104150Y-122502464D01*
X153101005Y-122450074D01*
X153104119Y-122398020D01*
X153106098Y-122387548D01*
X153262450Y-122387548D01*
X153714543Y-122387548D01*
X153699761Y-122340950D01*
X153675089Y-122295565D01*
X153641735Y-122256906D01*
X153630035Y-122246620D01*
X153587779Y-122218413D01*
X153541612Y-122200652D01*
X153491532Y-122193339D01*
X153481047Y-122193131D01*
X153428001Y-122199451D01*
X153379688Y-122218413D01*
X153339875Y-122246620D01*
X153306392Y-122283261D01*
X153281352Y-122326628D01*
X153264756Y-122376722D01*
X153262450Y-122387548D01*
X153106098Y-122387548D01*
X153113462Y-122348591D01*
X153129032Y-122301788D01*
X153150831Y-122257611D01*
X153178033Y-122216975D01*
X153214110Y-122176879D01*
X153255983Y-122142734D01*
X153287118Y-122123277D01*
X153331571Y-122102120D01*
X153378221Y-122087007D01*
X153427070Y-122077940D01*
X153478116Y-122074917D01*
X153533315Y-122078062D01*
G37*
G36*
X154875185Y-121844840D02*
G01*
X154875185Y-121777918D01*
X155001459Y-121777918D01*
X155001459Y-122090549D01*
X154875185Y-122090549D01*
X154875185Y-122017764D01*
X154842974Y-121976013D01*
X154806607Y-121942900D01*
X154758925Y-121915186D01*
X154705587Y-121899229D01*
X154655367Y-121894910D01*
X154605979Y-121898225D01*
X154556978Y-121910957D01*
X154524697Y-121928860D01*
X154492264Y-121967060D01*
X154479909Y-122014624D01*
X154479512Y-122026313D01*
X154488957Y-122077400D01*
X154519854Y-122117814D01*
X154522499Y-122119858D01*
X154564923Y-122144282D01*
X154612533Y-122162493D01*
X154653901Y-122174324D01*
X154775534Y-122206320D01*
X154823708Y-122220730D01*
X154872438Y-122239518D01*
X154919195Y-122263610D01*
X154953587Y-122287653D01*
X154991269Y-122322994D01*
X155020658Y-122363260D01*
X155034676Y-122394631D01*
X155047011Y-122442649D01*
X155053057Y-122495020D01*
X155053727Y-122520660D01*
X155050636Y-122571198D01*
X155039215Y-122625016D01*
X155019380Y-122673293D01*
X154991130Y-122716030D01*
X154965799Y-122743165D01*
X154924468Y-122775142D01*
X154877409Y-122799265D01*
X154824624Y-122815534D01*
X154774821Y-122823227D01*
X154730105Y-122825231D01*
X154678233Y-122821642D01*
X154628130Y-122810874D01*
X154579796Y-122792928D01*
X154533230Y-122767803D01*
X154488434Y-122735500D01*
X154473894Y-122723138D01*
X154473894Y-122809600D01*
X154344690Y-122809600D01*
X154344690Y-122434442D01*
X154473894Y-122434442D01*
X154473894Y-122524568D01*
X154504270Y-122572978D01*
X154537388Y-122613182D01*
X154580751Y-122650597D01*
X154628063Y-122676197D01*
X154679326Y-122689982D01*
X154715695Y-122692607D01*
X154766375Y-122688266D01*
X154813308Y-122673463D01*
X154851005Y-122648155D01*
X154882158Y-122606031D01*
X154896819Y-122556486D01*
X154899121Y-122522858D01*
X154889336Y-122471766D01*
X154859981Y-122429130D01*
X154818242Y-122398761D01*
X154770540Y-122377884D01*
X154742562Y-122369230D01*
X154613357Y-122333082D01*
X154563617Y-122317256D01*
X154512056Y-122296298D01*
X154467460Y-122272651D01*
X154425023Y-122242334D01*
X154407216Y-122225859D01*
X154375102Y-122184403D01*
X154353498Y-122136146D01*
X154343118Y-122087541D01*
X154340782Y-122047562D01*
X154343616Y-121998784D01*
X154354084Y-121947303D01*
X154372266Y-121901665D01*
X154402492Y-121856663D01*
X154421382Y-121837024D01*
X154465636Y-121804326D01*
X154510644Y-121783379D01*
X154561519Y-121769585D01*
X154618262Y-121762943D01*
X154644376Y-121762286D01*
X154697662Y-121766237D01*
X154749382Y-121778088D01*
X154799536Y-121797839D01*
X154848124Y-121825492D01*
X154875185Y-121844840D01*
G37*
G36*
X155538344Y-122077210D02*
G01*
X155591590Y-122085680D01*
X155643312Y-122103002D01*
X155685295Y-122128476D01*
X155698528Y-122140130D01*
X155730996Y-122182782D01*
X155750936Y-122230718D01*
X155761497Y-122280402D01*
X155765629Y-122337308D01*
X155765695Y-122346027D01*
X155765695Y-122683082D01*
X155886595Y-122683082D01*
X155886595Y-122809600D01*
X155640642Y-122809600D01*
X155640642Y-122725824D01*
X155601175Y-122759607D01*
X155560077Y-122786400D01*
X155510066Y-122808825D01*
X155457835Y-122821736D01*
X155411298Y-122825231D01*
X155358977Y-122820233D01*
X155310363Y-122805237D01*
X155289177Y-122794945D01*
X155247915Y-122766753D01*
X155211504Y-122728819D01*
X155200517Y-122713368D01*
X155177810Y-122666598D01*
X155167819Y-122615621D01*
X155167300Y-122600283D01*
X155302610Y-122600283D01*
X155312674Y-122648467D01*
X155338270Y-122683082D01*
X155382139Y-122708809D01*
X155430349Y-122716054D01*
X155481793Y-122710773D01*
X155531588Y-122694927D01*
X155579734Y-122668519D01*
X155620510Y-122636746D01*
X155626232Y-122631546D01*
X155626232Y-122549725D01*
X155585627Y-122522507D01*
X155539221Y-122499586D01*
X155487014Y-122484237D01*
X155440608Y-122479872D01*
X155391270Y-122487439D01*
X155345978Y-122512191D01*
X155343399Y-122514310D01*
X155312807Y-122552900D01*
X155302610Y-122600283D01*
X155167300Y-122600283D01*
X155173346Y-122548327D01*
X155191486Y-122501209D01*
X155203936Y-122481093D01*
X155238134Y-122442417D01*
X155280797Y-122411723D01*
X155303343Y-122400248D01*
X155350341Y-122382984D01*
X155401487Y-122373272D01*
X155429128Y-122371916D01*
X155481106Y-122375717D01*
X155531283Y-122387120D01*
X155579658Y-122406126D01*
X155626232Y-122432733D01*
X155626232Y-122354087D01*
X155622726Y-122305276D01*
X155607684Y-122256086D01*
X155590328Y-122231477D01*
X155546808Y-122204829D01*
X155497464Y-122195258D01*
X155473092Y-122194352D01*
X155423010Y-122199128D01*
X155376372Y-122216089D01*
X155336933Y-122247654D01*
X155312136Y-122282035D01*
X155176093Y-122247841D01*
X155204590Y-122202310D01*
X155238148Y-122163812D01*
X155276769Y-122132346D01*
X155300412Y-122117904D01*
X155346851Y-122097124D01*
X155397965Y-122083145D01*
X155447325Y-122076428D01*
X155486769Y-122074917D01*
X155538344Y-122077210D01*
G37*
G36*
X156071243Y-122683082D02*
G01*
X156071243Y-122217555D01*
X155949610Y-122217555D01*
X155949610Y-122090549D01*
X156212659Y-122090549D01*
X156212659Y-122176278D01*
X156252235Y-122147077D01*
X156299428Y-122118569D01*
X156346294Y-122097189D01*
X156400558Y-122081252D01*
X156454379Y-122075016D01*
X156462031Y-122074917D01*
X156512990Y-122080328D01*
X156562041Y-122099765D01*
X156601291Y-122133337D01*
X156630742Y-122181044D01*
X156633734Y-122188001D01*
X156676770Y-122157182D01*
X156719019Y-122131587D01*
X156768678Y-122107768D01*
X156817204Y-122091470D01*
X156872385Y-122081963D01*
X156895562Y-122081023D01*
X156946600Y-122086032D01*
X156994753Y-122103112D01*
X157034536Y-122132314D01*
X157064155Y-122174013D01*
X157080413Y-122223090D01*
X157086357Y-122276355D01*
X157086560Y-122289362D01*
X157086560Y-122683082D01*
X157212834Y-122683082D01*
X157212834Y-122809600D01*
X156945632Y-122809600D01*
X156945632Y-122349934D01*
X156943910Y-122299749D01*
X156940747Y-122272754D01*
X156920658Y-122227527D01*
X156915834Y-122222195D01*
X156869699Y-122202428D01*
X156851598Y-122201435D01*
X156800543Y-122209701D01*
X156760252Y-122224882D01*
X156716897Y-122247843D01*
X156675303Y-122275979D01*
X156650342Y-122295468D01*
X156650342Y-122683082D01*
X156772464Y-122683082D01*
X156772464Y-122809600D01*
X156508193Y-122809600D01*
X156508193Y-122331860D01*
X156504726Y-122281793D01*
X156488480Y-122233896D01*
X156487188Y-122231965D01*
X156445492Y-122204416D01*
X156418067Y-122201435D01*
X156364425Y-122210618D01*
X156314607Y-122231188D01*
X156265982Y-122258828D01*
X156220564Y-122289683D01*
X156212659Y-122295468D01*
X156212659Y-122683082D01*
X156339665Y-122683082D01*
X156339665Y-122809600D01*
X155941305Y-122809600D01*
X155941305Y-122683082D01*
X156071243Y-122683082D01*
G37*
G36*
X157822876Y-122078062D02*
G01*
X157875450Y-122089117D01*
X157924430Y-122108132D01*
X157955088Y-122125231D01*
X157997074Y-122156334D01*
X158033458Y-122193040D01*
X158064239Y-122235349D01*
X158078919Y-122261274D01*
X158100407Y-122310615D01*
X158114863Y-122362468D01*
X158122286Y-122416832D01*
X158123371Y-122448120D01*
X158120455Y-122497625D01*
X158110205Y-122551384D01*
X158092574Y-122603095D01*
X158076721Y-122636431D01*
X158047775Y-122682718D01*
X158013420Y-122723208D01*
X157973655Y-122757903D01*
X157949226Y-122774673D01*
X157902497Y-122799113D01*
X157852987Y-122815554D01*
X157800694Y-122823997D01*
X157770440Y-122825231D01*
X157717323Y-122821333D01*
X157666782Y-122809638D01*
X157618817Y-122790146D01*
X157573428Y-122762858D01*
X157530615Y-122727772D01*
X157516916Y-122714345D01*
X157516916Y-123011344D01*
X157657600Y-123011344D01*
X157657600Y-123137862D01*
X157244097Y-123137862D01*
X157244097Y-123011344D01*
X157374767Y-123011344D01*
X157374767Y-122459111D01*
X157515451Y-122459111D01*
X157519893Y-122511440D01*
X157535510Y-122563158D01*
X157562371Y-122607302D01*
X157586525Y-122632523D01*
X157629635Y-122662867D01*
X157679004Y-122683279D01*
X157728142Y-122693087D01*
X157768242Y-122695294D01*
X157817716Y-122688842D01*
X157862703Y-122669488D01*
X157874732Y-122661588D01*
X157912385Y-122627468D01*
X157941998Y-122584091D01*
X157948982Y-122569997D01*
X157966377Y-122521638D01*
X157974904Y-122471022D01*
X157975848Y-122446899D01*
X157970971Y-122395448D01*
X157956338Y-122347464D01*
X157946295Y-122326487D01*
X157918655Y-122285505D01*
X157880774Y-122249574D01*
X157865206Y-122238804D01*
X157817635Y-122216431D01*
X157769025Y-122206874D01*
X157749191Y-122206075D01*
X157700556Y-122210987D01*
X157652209Y-122227393D01*
X157628047Y-122241002D01*
X157588537Y-122272930D01*
X157556928Y-122312356D01*
X157545004Y-122333082D01*
X157525869Y-122381453D01*
X157516865Y-122429539D01*
X157515451Y-122459111D01*
X157374767Y-122459111D01*
X157374767Y-122217555D01*
X157253866Y-122217555D01*
X157253866Y-122090549D01*
X157516916Y-122090549D01*
X157516916Y-122199481D01*
X157551420Y-122163245D01*
X157591854Y-122130659D01*
X157634885Y-122105692D01*
X157684665Y-122086938D01*
X157736918Y-122076840D01*
X157773127Y-122074917D01*
X157822876Y-122078062D01*
G37*
G36*
X158578395Y-122683082D02*
G01*
X158578395Y-122809600D01*
X158198598Y-122809600D01*
X158198598Y-122683082D01*
X158326337Y-122683082D01*
X158326337Y-121902970D01*
X158198598Y-121902970D01*
X158198598Y-121777918D01*
X158468486Y-121777918D01*
X158468486Y-122683082D01*
X158578395Y-122683082D01*
G37*
G36*
X158918381Y-121848260D02*
G01*
X158904093Y-121895292D01*
X158892980Y-121908588D01*
X158849383Y-121932401D01*
X158832408Y-121933989D01*
X158785651Y-121919701D01*
X158772568Y-121908588D01*
X158749442Y-121865128D01*
X158747900Y-121848260D01*
X158761776Y-121800999D01*
X158772568Y-121787687D01*
X158815570Y-121763874D01*
X158832408Y-121762286D01*
X158880402Y-121776162D01*
X158893469Y-121786955D01*
X158916824Y-121830689D01*
X158918381Y-121848260D01*
G37*
G36*
X159019986Y-122683082D02*
G01*
X159019986Y-122809600D01*
X158655088Y-122809600D01*
X158655088Y-122683082D01*
X158767928Y-122683082D01*
X158767928Y-122217555D01*
X158655088Y-122217555D01*
X158655088Y-122090549D01*
X158910077Y-122090549D01*
X158910077Y-122683082D01*
X159019986Y-122683082D01*
G37*
G36*
X159789351Y-122322091D02*
G01*
X159789351Y-122683082D01*
X159910252Y-122683082D01*
X159910252Y-122809600D01*
X159647202Y-122809600D01*
X159647202Y-122330395D01*
X159643977Y-122281239D01*
X159628865Y-122234339D01*
X159627663Y-122232454D01*
X159586579Y-122205013D01*
X159563427Y-122202656D01*
X159514578Y-122208533D01*
X159462799Y-122226164D01*
X159415087Y-122251234D01*
X159372406Y-122279885D01*
X159350447Y-122296690D01*
X159350447Y-122683082D01*
X159474767Y-122683082D01*
X159474767Y-122809600D01*
X159083001Y-122809600D01*
X159083001Y-122683082D01*
X159210252Y-122683082D01*
X159210252Y-122217555D01*
X159083001Y-122217555D01*
X159083001Y-122090549D01*
X159350447Y-122090549D01*
X159350447Y-122172126D01*
X159391504Y-122144121D01*
X159439750Y-122116781D01*
X159486879Y-122096276D01*
X159540453Y-122080993D01*
X159592507Y-122075012D01*
X159599819Y-122074917D01*
X159650244Y-122079670D01*
X159696937Y-122096099D01*
X159736948Y-122127725D01*
X159742945Y-122135001D01*
X159767417Y-122179088D01*
X159781693Y-122229943D01*
X159788218Y-122284035D01*
X159789351Y-122322091D01*
G37*
G36*
X160395234Y-122078867D02*
G01*
X160444808Y-122090716D01*
X160476407Y-122103005D01*
X160522672Y-122128192D01*
X160564297Y-122158522D01*
X160597795Y-122188490D01*
X160597795Y-122090549D01*
X160869149Y-122090549D01*
X160869149Y-122217555D01*
X160738723Y-122217555D01*
X160738723Y-122759041D01*
X160736398Y-122816007D01*
X160729421Y-122868750D01*
X160717793Y-122917272D01*
X160697701Y-122969925D01*
X160670910Y-123016499D01*
X160643469Y-123050667D01*
X160604757Y-123085612D01*
X160559880Y-123113327D01*
X160508838Y-123133812D01*
X160451631Y-123147067D01*
X160399249Y-123152590D01*
X160365765Y-123153493D01*
X160312890Y-123151049D01*
X160262496Y-123143714D01*
X160214582Y-123131490D01*
X160160360Y-123110367D01*
X160109710Y-123082203D01*
X160070231Y-123053354D01*
X160161578Y-122948085D01*
X160201862Y-122976612D01*
X160245246Y-123000120D01*
X160260740Y-123006703D01*
X160309491Y-123020904D01*
X160358672Y-123026313D01*
X160369672Y-123026487D01*
X160420353Y-123022198D01*
X160470362Y-123007117D01*
X160512951Y-122981179D01*
X160537223Y-122957855D01*
X160566504Y-122915870D01*
X160586201Y-122866853D01*
X160595666Y-122817379D01*
X160597795Y-122776627D01*
X160597795Y-122707506D01*
X160562750Y-122742378D01*
X160521760Y-122771766D01*
X160479338Y-122793724D01*
X160429999Y-122811662D01*
X160380718Y-122822154D01*
X160335967Y-122825231D01*
X160287149Y-122822071D01*
X160235221Y-122810962D01*
X160186462Y-122791855D01*
X160155716Y-122774673D01*
X160113435Y-122743488D01*
X160076718Y-122707087D01*
X160045566Y-122665470D01*
X160030663Y-122640095D01*
X160008939Y-122591578D01*
X159994325Y-122540550D01*
X159986820Y-122487010D01*
X159985723Y-122456180D01*
X159985880Y-122453493D01*
X160136176Y-122453493D01*
X160140126Y-122502289D01*
X160153320Y-122551584D01*
X160164264Y-122576592D01*
X160191154Y-122618247D01*
X160228767Y-122654632D01*
X160244376Y-122665496D01*
X160288906Y-122686687D01*
X160338353Y-122697074D01*
X160362834Y-122698225D01*
X160411537Y-122693519D01*
X160460113Y-122677802D01*
X160484467Y-122664763D01*
X160524572Y-122633747D01*
X160556776Y-122595071D01*
X160568975Y-122574638D01*
X160588584Y-122526989D01*
X160598196Y-122476518D01*
X160599261Y-122452272D01*
X160594262Y-122403070D01*
X160579267Y-122355480D01*
X160568975Y-122334059D01*
X160540538Y-122291489D01*
X160504442Y-122256255D01*
X160485199Y-122242468D01*
X160439684Y-122219854D01*
X160390056Y-122208769D01*
X160365765Y-122207541D01*
X160315111Y-122213063D01*
X160268327Y-122229631D01*
X160248040Y-122241002D01*
X160209004Y-122272059D01*
X160177628Y-122310856D01*
X160165730Y-122331372D01*
X160146595Y-122378863D01*
X160137215Y-122429256D01*
X160136176Y-122453493D01*
X159985880Y-122453493D01*
X159988654Y-122406141D01*
X159997446Y-122357872D01*
X160014345Y-122305687D01*
X160032617Y-122266648D01*
X160058354Y-122225035D01*
X160092491Y-122183548D01*
X160132114Y-122147703D01*
X160161578Y-122126941D01*
X160209012Y-122101793D01*
X160259268Y-122084875D01*
X160312344Y-122076187D01*
X160343050Y-122074917D01*
X160395234Y-122078867D01*
G37*
G36*
X161729936Y-121778972D02*
G01*
X161785298Y-121782134D01*
X161837819Y-121787404D01*
X161887497Y-121794782D01*
X161949313Y-121807899D01*
X162006077Y-121824763D01*
X162057787Y-121845375D01*
X162104445Y-121869734D01*
X162146051Y-121897841D01*
X162191083Y-121938687D01*
X162228483Y-121986427D01*
X162252907Y-122029581D01*
X162272446Y-122077148D01*
X162287101Y-122129126D01*
X162296871Y-122185515D01*
X162301756Y-122246316D01*
X162302366Y-122278371D01*
X162299859Y-122342561D01*
X162292337Y-122402630D01*
X162279800Y-122458577D01*
X162262249Y-122510402D01*
X162239683Y-122558106D01*
X162212103Y-122601688D01*
X162179508Y-122641148D01*
X162141899Y-122676487D01*
X162099343Y-122707685D01*
X162051910Y-122734724D01*
X161999600Y-122757602D01*
X161942413Y-122776321D01*
X161880349Y-122790881D01*
X161830600Y-122799070D01*
X161778107Y-122804920D01*
X161722872Y-122808430D01*
X161664892Y-122809600D01*
X161278012Y-122809600D01*
X161278012Y-122680395D01*
X161416742Y-122680395D01*
X161573545Y-122680395D01*
X161671731Y-122680395D01*
X161729498Y-122678907D01*
X161783243Y-122674442D01*
X161832966Y-122667000D01*
X161889462Y-122653512D01*
X161939674Y-122635372D01*
X161983601Y-122612582D01*
X162021243Y-122585140D01*
X162058844Y-122545499D01*
X162088665Y-122498198D01*
X162107574Y-122452929D01*
X162121080Y-122402342D01*
X162129183Y-122346435D01*
X162131885Y-122285210D01*
X162129664Y-122230142D01*
X162123002Y-122179703D01*
X162109950Y-122127725D01*
X162091098Y-122081792D01*
X162085478Y-122071253D01*
X162055086Y-122028022D01*
X162016115Y-121991475D01*
X161974274Y-121964600D01*
X161938444Y-121947911D01*
X161891441Y-121932018D01*
X161838267Y-121920028D01*
X161787777Y-121912858D01*
X161732754Y-121908556D01*
X161683438Y-121907162D01*
X161673197Y-121907122D01*
X161573545Y-121907122D01*
X161573545Y-122680395D01*
X161416742Y-122680395D01*
X161416742Y-121907122D01*
X161278012Y-121907122D01*
X161278012Y-121777918D01*
X161671731Y-121777918D01*
X161729936Y-121778972D01*
G37*
G36*
X162852645Y-122078062D02*
G01*
X162904180Y-122087496D01*
X162952052Y-122103219D01*
X162996260Y-122125231D01*
X163036484Y-122152968D01*
X163076298Y-122190631D01*
X163106855Y-122229851D01*
X163129861Y-122268602D01*
X163151492Y-122317374D01*
X163167535Y-122370390D01*
X163176990Y-122420260D01*
X163182168Y-122473379D01*
X163182862Y-122489153D01*
X162577628Y-122489153D01*
X162589218Y-122541510D01*
X162609424Y-122587298D01*
X162641982Y-122630470D01*
X162657984Y-122645468D01*
X162698279Y-122673214D01*
X162748625Y-122693393D01*
X162798954Y-122701969D01*
X162822848Y-122702865D01*
X162875043Y-122698916D01*
X162924285Y-122687066D01*
X162955471Y-122674777D01*
X162998485Y-122649453D01*
X163035934Y-122615610D01*
X163057809Y-122588315D01*
X163182862Y-122643270D01*
X163151003Y-122685570D01*
X163114535Y-122722344D01*
X163073456Y-122753592D01*
X163027767Y-122779313D01*
X162978842Y-122799402D01*
X162927811Y-122813752D01*
X162874673Y-122822361D01*
X162819428Y-122825231D01*
X162769590Y-122822940D01*
X162715666Y-122814712D01*
X162664978Y-122800500D01*
X162617526Y-122780305D01*
X162611822Y-122777359D01*
X162569018Y-122750951D01*
X162531222Y-122719840D01*
X162494685Y-122679221D01*
X162470649Y-122643514D01*
X162448637Y-122599184D01*
X162432914Y-122552168D01*
X162423480Y-122502464D01*
X162420335Y-122450074D01*
X162423450Y-122398020D01*
X162425429Y-122387548D01*
X162581780Y-122387548D01*
X163033873Y-122387548D01*
X163019092Y-122340950D01*
X162994419Y-122295565D01*
X162961065Y-122256906D01*
X162949365Y-122246620D01*
X162907109Y-122218413D01*
X162860942Y-122200652D01*
X162810863Y-122193339D01*
X162800377Y-122193131D01*
X162747331Y-122199451D01*
X162699018Y-122218413D01*
X162659205Y-122246620D01*
X162625722Y-122283261D01*
X162600682Y-122326628D01*
X162584086Y-122376722D01*
X162581780Y-122387548D01*
X162425429Y-122387548D01*
X162432792Y-122348591D01*
X162448362Y-122301788D01*
X162470161Y-122257611D01*
X162497363Y-122216975D01*
X162533440Y-122176879D01*
X162575313Y-122142734D01*
X162606448Y-122123277D01*
X162650901Y-122102120D01*
X162697551Y-122087007D01*
X162746400Y-122077940D01*
X162797446Y-122074917D01*
X162852645Y-122078062D01*
G37*
G36*
X163646435Y-122090549D02*
G01*
X163646435Y-122217555D01*
X163514543Y-122217555D01*
X163514543Y-122596375D01*
X163518128Y-122647458D01*
X163527244Y-122673068D01*
X163570963Y-122690653D01*
X163620436Y-122685078D01*
X163646435Y-122677708D01*
X163646435Y-122805936D01*
X163597046Y-122818429D01*
X163547770Y-122825061D01*
X163539945Y-122825231D01*
X163489092Y-122820842D01*
X163440916Y-122803990D01*
X163411473Y-122780290D01*
X163387659Y-122737403D01*
X163376210Y-122687915D01*
X163372432Y-122632690D01*
X163372394Y-122625929D01*
X163372394Y-122217555D01*
X163278116Y-122217555D01*
X163278116Y-122090549D01*
X163372394Y-122090549D01*
X163372394Y-121983326D01*
X163514543Y-121856075D01*
X163514543Y-122090549D01*
X163646435Y-122090549D01*
G37*
G36*
X164173511Y-122078062D02*
G01*
X164225046Y-122087496D01*
X164272917Y-122103219D01*
X164317125Y-122125231D01*
X164357349Y-122152968D01*
X164397163Y-122190631D01*
X164427720Y-122229851D01*
X164450726Y-122268602D01*
X164472357Y-122317374D01*
X164488401Y-122370390D01*
X164497856Y-122420260D01*
X164503033Y-122473379D01*
X164503727Y-122489153D01*
X163898493Y-122489153D01*
X163910083Y-122541510D01*
X163930290Y-122587298D01*
X163962847Y-122630470D01*
X163978849Y-122645468D01*
X164019144Y-122673214D01*
X164069491Y-122693393D01*
X164119819Y-122701969D01*
X164143713Y-122702865D01*
X164195908Y-122698916D01*
X164245150Y-122687066D01*
X164276337Y-122674777D01*
X164319350Y-122649453D01*
X164356800Y-122615610D01*
X164378675Y-122588315D01*
X164503727Y-122643270D01*
X164471868Y-122685570D01*
X164435400Y-122722344D01*
X164394321Y-122753592D01*
X164348633Y-122779313D01*
X164299708Y-122799402D01*
X164248676Y-122813752D01*
X164195538Y-122822361D01*
X164140294Y-122825231D01*
X164090455Y-122822940D01*
X164036531Y-122814712D01*
X163985843Y-122800500D01*
X163938391Y-122780305D01*
X163932687Y-122777359D01*
X163889884Y-122750951D01*
X163852087Y-122719840D01*
X163815551Y-122679221D01*
X163791515Y-122643514D01*
X163769502Y-122599184D01*
X163753779Y-122552168D01*
X163744345Y-122502464D01*
X163741201Y-122450074D01*
X163744315Y-122398020D01*
X163746294Y-122387548D01*
X163902645Y-122387548D01*
X164354739Y-122387548D01*
X164339957Y-122340950D01*
X164315284Y-122295565D01*
X164281930Y-122256906D01*
X164270231Y-122246620D01*
X164227975Y-122218413D01*
X164181807Y-122200652D01*
X164131728Y-122193339D01*
X164121243Y-122193131D01*
X164068197Y-122199451D01*
X164019884Y-122218413D01*
X163980070Y-122246620D01*
X163946587Y-122283261D01*
X163921547Y-122326628D01*
X163904951Y-122376722D01*
X163902645Y-122387548D01*
X163746294Y-122387548D01*
X163753657Y-122348591D01*
X163769228Y-122301788D01*
X163791026Y-122257611D01*
X163818229Y-122216975D01*
X163854306Y-122176879D01*
X163896179Y-122142734D01*
X163927314Y-122123277D01*
X163971766Y-122102120D01*
X164018416Y-122087007D01*
X164067265Y-122077940D01*
X164118312Y-122074917D01*
X164173511Y-122078062D01*
G37*
G36*
X165162938Y-122143549D02*
G01*
X165162938Y-122090549D01*
X165289456Y-122090549D01*
X165289456Y-122356285D01*
X165163183Y-122356285D01*
X165150394Y-122306059D01*
X165121734Y-122262732D01*
X165099924Y-122244177D01*
X165056303Y-122220512D01*
X165007875Y-122207770D01*
X164972917Y-122205343D01*
X164921112Y-122211514D01*
X164874262Y-122230026D01*
X164861787Y-122237583D01*
X164823085Y-122269974D01*
X164792891Y-122311153D01*
X164785827Y-122324533D01*
X164768590Y-122370877D01*
X164760141Y-122420607D01*
X164759205Y-122444701D01*
X164762975Y-122497381D01*
X164774287Y-122545023D01*
X164796026Y-122592600D01*
X164819533Y-122625196D01*
X164856638Y-122659081D01*
X164904981Y-122683725D01*
X164954893Y-122694199D01*
X164979023Y-122695294D01*
X165033283Y-122690520D01*
X165081205Y-122676197D01*
X165129105Y-122647419D01*
X165163297Y-122612409D01*
X165191152Y-122567850D01*
X165195178Y-122559495D01*
X165313392Y-122614449D01*
X165286270Y-122663851D01*
X165254728Y-122706666D01*
X165218767Y-122742894D01*
X165178387Y-122772536D01*
X165133587Y-122795590D01*
X165084368Y-122812057D01*
X165030730Y-122821938D01*
X164972673Y-122825231D01*
X164920207Y-122822102D01*
X164870763Y-122812714D01*
X164824341Y-122797067D01*
X164780943Y-122775161D01*
X164736833Y-122744060D01*
X164698751Y-122707086D01*
X164666697Y-122664239D01*
X164651494Y-122637897D01*
X164631512Y-122593124D01*
X164617239Y-122546000D01*
X164608675Y-122496526D01*
X164605820Y-122444701D01*
X164608721Y-122393852D01*
X164617422Y-122345355D01*
X164634144Y-122293605D01*
X164652227Y-122255412D01*
X164681054Y-122210440D01*
X164715330Y-122171418D01*
X164755054Y-122138346D01*
X164779477Y-122122544D01*
X164826558Y-122099521D01*
X164876575Y-122084033D01*
X164929529Y-122076080D01*
X164960217Y-122074917D01*
X165010322Y-122078201D01*
X165063636Y-122089997D01*
X165112736Y-122110373D01*
X165157624Y-122139327D01*
X165162938Y-122143549D01*
G37*
G36*
X165757670Y-122090549D02*
G01*
X165757670Y-122217555D01*
X165625779Y-122217555D01*
X165625779Y-122596375D01*
X165629363Y-122647458D01*
X165638479Y-122673068D01*
X165682199Y-122690653D01*
X165731671Y-122685078D01*
X165757670Y-122677708D01*
X165757670Y-122805936D01*
X165708281Y-122818429D01*
X165659005Y-122825061D01*
X165651180Y-122825231D01*
X165600328Y-122820842D01*
X165552151Y-122803990D01*
X165522708Y-122780290D01*
X165498894Y-122737403D01*
X165487445Y-122687915D01*
X165483667Y-122632690D01*
X165483629Y-122625929D01*
X165483629Y-122217555D01*
X165389351Y-122217555D01*
X165389351Y-122090549D01*
X165483629Y-122090549D01*
X165483629Y-121983326D01*
X165625779Y-121856075D01*
X165625779Y-122090549D01*
X165757670Y-122090549D01*
G37*
G36*
X166284227Y-122078107D02*
G01*
X166333716Y-122087679D01*
X166380703Y-122103631D01*
X166425185Y-122125964D01*
X166466203Y-122153670D01*
X166506764Y-122190058D01*
X166541413Y-122231972D01*
X166561229Y-122262984D01*
X166582920Y-122306826D01*
X166599916Y-122358483D01*
X166609067Y-122412613D01*
X166610810Y-122450074D01*
X166607665Y-122500648D01*
X166598231Y-122549053D01*
X166580101Y-122600919D01*
X166560496Y-122639362D01*
X166533187Y-122679998D01*
X166497026Y-122720386D01*
X166455108Y-122755131D01*
X166423964Y-122775161D01*
X166379558Y-122797067D01*
X166332801Y-122812714D01*
X166283692Y-122822102D01*
X166232234Y-122825231D01*
X166179340Y-122822102D01*
X166129102Y-122812714D01*
X166081520Y-122797067D01*
X166036595Y-122775161D01*
X165995410Y-122747898D01*
X165954842Y-122711898D01*
X165920379Y-122670257D01*
X165900796Y-122639362D01*
X165879638Y-122595292D01*
X165863062Y-122543121D01*
X165854750Y-122494444D01*
X165852436Y-122450074D01*
X166001668Y-122450074D01*
X166006626Y-122499943D01*
X166021501Y-122547152D01*
X166031710Y-122568043D01*
X166060147Y-122608945D01*
X166096243Y-122642349D01*
X166115485Y-122655238D01*
X166160716Y-122675954D01*
X166209091Y-122686109D01*
X166232478Y-122687234D01*
X166281984Y-122681953D01*
X166331512Y-122664456D01*
X166348249Y-122655238D01*
X166387442Y-122625415D01*
X166420995Y-122585184D01*
X166430803Y-122568776D01*
X166449938Y-122523028D01*
X166459317Y-122473893D01*
X166460356Y-122450074D01*
X166455479Y-122400484D01*
X166440846Y-122353715D01*
X166430803Y-122333082D01*
X166402921Y-122292375D01*
X166367300Y-122258763D01*
X166348249Y-122245643D01*
X166303449Y-122224136D01*
X166254780Y-122213594D01*
X166231012Y-122212426D01*
X166181307Y-122217787D01*
X166134989Y-122233870D01*
X166114753Y-122244910D01*
X166075597Y-122275012D01*
X166043857Y-122312531D01*
X166031710Y-122332349D01*
X166012259Y-122378290D01*
X166002724Y-122426810D01*
X166001668Y-122450074D01*
X165852436Y-122450074D01*
X165855458Y-122397424D01*
X165864526Y-122347675D01*
X165879638Y-122300826D01*
X165900796Y-122256878D01*
X165931131Y-122211847D01*
X165967454Y-122172651D01*
X166009767Y-122139290D01*
X166035862Y-122123277D01*
X166080559Y-122102120D01*
X166128186Y-122087007D01*
X166178744Y-122077940D01*
X166232234Y-122074917D01*
X166284227Y-122078107D01*
G37*
G36*
X166976441Y-122518462D02*
G01*
X166976441Y-122683082D01*
X167133734Y-122683082D01*
X167133734Y-122809600D01*
X166690677Y-122809600D01*
X166690677Y-122683082D01*
X166835513Y-122683082D01*
X166835513Y-122217555D01*
X166690677Y-122217555D01*
X166690677Y-122090549D01*
X166948109Y-122090549D01*
X166948109Y-122248818D01*
X166971038Y-122203893D01*
X166999970Y-122162146D01*
X167036015Y-122126683D01*
X167055576Y-122113263D01*
X167101138Y-122093042D01*
X167151402Y-122081246D01*
X167203445Y-122075853D01*
X167239491Y-122074917D01*
X167271731Y-122074917D01*
X167271731Y-122218532D01*
X167240956Y-122218532D01*
X167186887Y-122220440D01*
X167134891Y-122227148D01*
X167084038Y-122241907D01*
X167069010Y-122249062D01*
X167029615Y-122278829D01*
X167001164Y-122322427D01*
X166994515Y-122340897D01*
X166984225Y-122389648D01*
X166978983Y-122439110D01*
X166976724Y-122490309D01*
X166976441Y-122518462D01*
G37*
G36*
X145072499Y-123459111D02*
G01*
X145124159Y-123462692D01*
X145178721Y-123469886D01*
X145227135Y-123480330D01*
X145263740Y-123491867D01*
X145311283Y-123513648D01*
X145354454Y-123544464D01*
X145387465Y-123582245D01*
X145395387Y-123594938D01*
X145416382Y-123642680D01*
X145428628Y-123693152D01*
X145434227Y-123743985D01*
X145435199Y-123778609D01*
X145432133Y-123830026D01*
X145420808Y-123885237D01*
X145401138Y-123935306D01*
X145373124Y-123980232D01*
X145348004Y-124009174D01*
X145304071Y-124043600D01*
X145257205Y-124066503D01*
X145201838Y-124083310D01*
X145149206Y-124092659D01*
X145090670Y-124097774D01*
X145052715Y-124098811D01*
X144916671Y-124098811D01*
X144916671Y-124360395D01*
X145051249Y-124360395D01*
X145051249Y-124489600D01*
X144630907Y-124489600D01*
X144630907Y-124360395D01*
X144759867Y-124360395D01*
X144759867Y-123973759D01*
X144916671Y-123973759D01*
X145013392Y-123973759D01*
X145064057Y-123972368D01*
X145113192Y-123967559D01*
X145162205Y-123957255D01*
X145165799Y-123956173D01*
X145212671Y-123934052D01*
X145247881Y-123898034D01*
X145249574Y-123895357D01*
X145268859Y-123847422D01*
X145275785Y-123798409D01*
X145276441Y-123775189D01*
X145271920Y-123724506D01*
X145256292Y-123677890D01*
X145226209Y-123638404D01*
X145219288Y-123632551D01*
X145175802Y-123608595D01*
X145123122Y-123594620D01*
X145073281Y-123588719D01*
X145024382Y-123587122D01*
X144916671Y-123587122D01*
X144916671Y-123973759D01*
X144759867Y-123973759D01*
X144759867Y-123587122D01*
X144630907Y-123587122D01*
X144630907Y-123457918D01*
X145016322Y-123457918D01*
X145072499Y-123459111D01*
G37*
G36*
X146003064Y-123754917D02*
G01*
X146061043Y-123760176D01*
X146109195Y-123775954D01*
X146154006Y-123808773D01*
X146184666Y-123856738D01*
X146199406Y-123908279D01*
X146204123Y-123957086D01*
X146204320Y-123970339D01*
X146204320Y-124363082D01*
X146326685Y-124363082D01*
X146326685Y-124489600D01*
X146062170Y-124489600D01*
X146062170Y-124021874D01*
X146059010Y-123970744D01*
X146044966Y-123922445D01*
X146039700Y-123913919D01*
X145997595Y-123885709D01*
X145970823Y-123882656D01*
X145916866Y-123891600D01*
X145867002Y-123911636D01*
X145818488Y-123938559D01*
X145773276Y-123968612D01*
X145765415Y-123974247D01*
X145765415Y-124363082D01*
X145890468Y-124363082D01*
X145890468Y-124489600D01*
X145494061Y-124489600D01*
X145494061Y-124363082D01*
X145623266Y-124363082D01*
X145623266Y-123582970D01*
X145494061Y-123582970D01*
X145494061Y-123457918D01*
X145765415Y-123457918D01*
X145765415Y-123857743D01*
X145804898Y-123828120D01*
X145851129Y-123799201D01*
X145896106Y-123777511D01*
X145946995Y-123761344D01*
X145996177Y-123755017D01*
X146003064Y-123754917D01*
G37*
G36*
X146767583Y-123757210D02*
G01*
X146820829Y-123765680D01*
X146872551Y-123783002D01*
X146914534Y-123808476D01*
X146927767Y-123820130D01*
X146960235Y-123862782D01*
X146980175Y-123910718D01*
X146990736Y-123960402D01*
X146994868Y-124017308D01*
X146994934Y-124026027D01*
X146994934Y-124363082D01*
X147115834Y-124363082D01*
X147115834Y-124489600D01*
X146869881Y-124489600D01*
X146869881Y-124405824D01*
X146830414Y-124439607D01*
X146789316Y-124466400D01*
X146739305Y-124488825D01*
X146687074Y-124501736D01*
X146640537Y-124505231D01*
X146588215Y-124500233D01*
X146539602Y-124485237D01*
X146518416Y-124474945D01*
X146477154Y-124446753D01*
X146440743Y-124408819D01*
X146429756Y-124393368D01*
X146407049Y-124346598D01*
X146397058Y-124295621D01*
X146396539Y-124280283D01*
X146531849Y-124280283D01*
X146541913Y-124328467D01*
X146567509Y-124363082D01*
X146611378Y-124388809D01*
X146659588Y-124396054D01*
X146711032Y-124390773D01*
X146760827Y-124374927D01*
X146808973Y-124348519D01*
X146849749Y-124316746D01*
X146855471Y-124311546D01*
X146855471Y-124229725D01*
X146814866Y-124202507D01*
X146768460Y-124179586D01*
X146716253Y-124164237D01*
X146669847Y-124159872D01*
X146620509Y-124167439D01*
X146575217Y-124192191D01*
X146572638Y-124194310D01*
X146542046Y-124232900D01*
X146531849Y-124280283D01*
X146396539Y-124280283D01*
X146402585Y-124228327D01*
X146420725Y-124181209D01*
X146433175Y-124161093D01*
X146467373Y-124122417D01*
X146510036Y-124091723D01*
X146532582Y-124080248D01*
X146579580Y-124062984D01*
X146630726Y-124053272D01*
X146658367Y-124051916D01*
X146710345Y-124055717D01*
X146760522Y-124067120D01*
X146808897Y-124086126D01*
X146855471Y-124112733D01*
X146855471Y-124034087D01*
X146851965Y-123985276D01*
X146836923Y-123936086D01*
X146819567Y-123911477D01*
X146776047Y-123884829D01*
X146726703Y-123875258D01*
X146702331Y-123874352D01*
X146652249Y-123879128D01*
X146605611Y-123896089D01*
X146566172Y-123927654D01*
X146541375Y-123962035D01*
X146405331Y-123927841D01*
X146433828Y-123882310D01*
X146467387Y-123843812D01*
X146506008Y-123812346D01*
X146529651Y-123797904D01*
X146576090Y-123777124D01*
X146627204Y-123763145D01*
X146676564Y-123756428D01*
X146716008Y-123754917D01*
X146767583Y-123757210D01*
G37*
G36*
X147629477Y-123795461D02*
G01*
X147629477Y-123770549D01*
X147753064Y-123770549D01*
X147753064Y-124005022D01*
X147629477Y-124005022D01*
X147629477Y-123960814D01*
X147595741Y-123921811D01*
X147551000Y-123891253D01*
X147499072Y-123874799D01*
X147460461Y-123871665D01*
X147409353Y-123878015D01*
X147368381Y-123897066D01*
X147336935Y-123936717D01*
X147332722Y-123962523D01*
X147349269Y-124008617D01*
X147359833Y-124018211D01*
X147407732Y-124038112D01*
X147459075Y-124049520D01*
X147481710Y-124053382D01*
X147577209Y-124072188D01*
X147627298Y-124084149D01*
X147680517Y-124104917D01*
X147723301Y-124132148D01*
X147760868Y-124173358D01*
X147783408Y-124223877D01*
X147790712Y-124273085D01*
X147790921Y-124283703D01*
X147784797Y-124336921D01*
X147766423Y-124383918D01*
X147735801Y-124424694D01*
X147713496Y-124444659D01*
X147671746Y-124471159D01*
X147623676Y-124490088D01*
X147569286Y-124501445D01*
X147516511Y-124505172D01*
X147508576Y-124505231D01*
X147458201Y-124501445D01*
X147408681Y-124490088D01*
X147361070Y-124471931D01*
X147326616Y-124452475D01*
X147326616Y-124489600D01*
X147200098Y-124489600D01*
X147200098Y-124239495D01*
X147326616Y-124239495D01*
X147326616Y-124265385D01*
X147344444Y-124311724D01*
X147378694Y-124348618D01*
X147384501Y-124352824D01*
X147429334Y-124375363D01*
X147480057Y-124385281D01*
X147495632Y-124385796D01*
X147547113Y-124381685D01*
X147594393Y-124366722D01*
X147604808Y-124360884D01*
X147638049Y-124322775D01*
X147644620Y-124286878D01*
X147623659Y-124241099D01*
X147612868Y-124233877D01*
X147565363Y-124215986D01*
X147514143Y-124203332D01*
X147485862Y-124197485D01*
X147412345Y-124181609D01*
X147361405Y-124168512D01*
X147312819Y-124149033D01*
X147269667Y-124121498D01*
X147252366Y-124105406D01*
X147223442Y-124064775D01*
X147206524Y-124017102D01*
X147201563Y-123967653D01*
X147207731Y-123915749D01*
X147226233Y-123870376D01*
X147238932Y-123851637D01*
X147272920Y-123816493D01*
X147313759Y-123789250D01*
X147334920Y-123779341D01*
X147382913Y-123763528D01*
X147432035Y-123755776D01*
X147455087Y-123754917D01*
X147504821Y-123757451D01*
X147555882Y-123766360D01*
X147606543Y-123783781D01*
X147629477Y-123795461D01*
G37*
G36*
X148326546Y-123758062D02*
G01*
X148378081Y-123767496D01*
X148425953Y-123783219D01*
X148470161Y-123805231D01*
X148510384Y-123832968D01*
X148550198Y-123870631D01*
X148580756Y-123909851D01*
X148603761Y-123948602D01*
X148625392Y-123997374D01*
X148641436Y-124050390D01*
X148650891Y-124100260D01*
X148656068Y-124153379D01*
X148656762Y-124169153D01*
X148051528Y-124169153D01*
X148063118Y-124221510D01*
X148083325Y-124267298D01*
X148115882Y-124310470D01*
X148131884Y-124325468D01*
X148172179Y-124353214D01*
X148222526Y-124373393D01*
X148272854Y-124381969D01*
X148296748Y-124382865D01*
X148348944Y-124378916D01*
X148398185Y-124367066D01*
X148429372Y-124354777D01*
X148472385Y-124329453D01*
X148509835Y-124295610D01*
X148531710Y-124268315D01*
X148656762Y-124323270D01*
X148624904Y-124365570D01*
X148588435Y-124402344D01*
X148547357Y-124433592D01*
X148501668Y-124459313D01*
X148452743Y-124479402D01*
X148401711Y-124493752D01*
X148348573Y-124502361D01*
X148293329Y-124505231D01*
X148243490Y-124502940D01*
X148189566Y-124494712D01*
X148138878Y-124480500D01*
X148091426Y-124460305D01*
X148085722Y-124457359D01*
X148042919Y-124430951D01*
X148005122Y-124399840D01*
X147968586Y-124359221D01*
X147944550Y-124323514D01*
X147922538Y-124279184D01*
X147906814Y-124232168D01*
X147897381Y-124182464D01*
X147894236Y-124130074D01*
X147897350Y-124078020D01*
X147899329Y-124067548D01*
X148055680Y-124067548D01*
X148507774Y-124067548D01*
X148492992Y-124020950D01*
X148468320Y-123975565D01*
X148434965Y-123936906D01*
X148423266Y-123926620D01*
X148381010Y-123898413D01*
X148334842Y-123880652D01*
X148284763Y-123873339D01*
X148274278Y-123873131D01*
X148221232Y-123879451D01*
X148172919Y-123898413D01*
X148133105Y-123926620D01*
X148099622Y-123963261D01*
X148074583Y-124006628D01*
X148057986Y-124056722D01*
X148055680Y-124067548D01*
X147899329Y-124067548D01*
X147906692Y-124028591D01*
X147922263Y-123981788D01*
X147944061Y-123937611D01*
X147971264Y-123896975D01*
X148007341Y-123856879D01*
X148049214Y-123822734D01*
X148080349Y-123803277D01*
X148124801Y-123782120D01*
X148171452Y-123767007D01*
X148220300Y-123757940D01*
X148271347Y-123754917D01*
X148326546Y-123758062D01*
G37*
G36*
X149397062Y-123587122D02*
G01*
X149397062Y-124360395D01*
X149737048Y-124360395D01*
X149737048Y-124036285D01*
X149865520Y-124036285D01*
X149865520Y-124489600D01*
X149107146Y-124489600D01*
X149107146Y-124360395D01*
X149240258Y-124360395D01*
X149240258Y-123587122D01*
X149107146Y-123587122D01*
X149107146Y-123457918D01*
X149530174Y-123457918D01*
X149530174Y-123587122D01*
X149397062Y-123587122D01*
G37*
G36*
X150392321Y-123758107D02*
G01*
X150441811Y-123767679D01*
X150488797Y-123783631D01*
X150533280Y-123805964D01*
X150574297Y-123833670D01*
X150614859Y-123870058D01*
X150649508Y-123911972D01*
X150669323Y-123942984D01*
X150691015Y-123986826D01*
X150708010Y-124038483D01*
X150717161Y-124092613D01*
X150718904Y-124130074D01*
X150715760Y-124180648D01*
X150706326Y-124229053D01*
X150688195Y-124280919D01*
X150668590Y-124319362D01*
X150641281Y-124359998D01*
X150605120Y-124400386D01*
X150563202Y-124435131D01*
X150532059Y-124455161D01*
X150487652Y-124477067D01*
X150440895Y-124492714D01*
X150391787Y-124502102D01*
X150340328Y-124505231D01*
X150287434Y-124502102D01*
X150237196Y-124492714D01*
X150189615Y-124477067D01*
X150144689Y-124455161D01*
X150103504Y-124427898D01*
X150062936Y-124391898D01*
X150028474Y-124350257D01*
X150008890Y-124319362D01*
X149987733Y-124275292D01*
X149971156Y-124223121D01*
X149962844Y-124174444D01*
X149960530Y-124130074D01*
X150109763Y-124130074D01*
X150114721Y-124179943D01*
X150129595Y-124227152D01*
X150139805Y-124248043D01*
X150168242Y-124288945D01*
X150204337Y-124322349D01*
X150223580Y-124335238D01*
X150268810Y-124355954D01*
X150317185Y-124366109D01*
X150340572Y-124367234D01*
X150390079Y-124361953D01*
X150439607Y-124344456D01*
X150456343Y-124335238D01*
X150495537Y-124305415D01*
X150529090Y-124265184D01*
X150538897Y-124248776D01*
X150558032Y-124203028D01*
X150567412Y-124153893D01*
X150568451Y-124130074D01*
X150563573Y-124080484D01*
X150548941Y-124033715D01*
X150538897Y-124013082D01*
X150511016Y-123972375D01*
X150475394Y-123938763D01*
X150456343Y-123925643D01*
X150411544Y-123904136D01*
X150362875Y-123893594D01*
X150339107Y-123892426D01*
X150289402Y-123897787D01*
X150243083Y-123913870D01*
X150222847Y-123924910D01*
X150183691Y-123955012D01*
X150151952Y-123992531D01*
X150139805Y-124012349D01*
X150120354Y-124058290D01*
X150110819Y-124106810D01*
X150109763Y-124130074D01*
X149960530Y-124130074D01*
X149963553Y-124077424D01*
X149972620Y-124027675D01*
X149987733Y-123980826D01*
X150008890Y-123936878D01*
X150039225Y-123891847D01*
X150075549Y-123852651D01*
X150117862Y-123819290D01*
X150143957Y-123803277D01*
X150188653Y-123782120D01*
X150236281Y-123767007D01*
X150286839Y-123757940D01*
X150340328Y-123754917D01*
X150392321Y-123758107D01*
G37*
G36*
X151378360Y-123823549D02*
G01*
X151378360Y-123770549D01*
X151504878Y-123770549D01*
X151504878Y-124036285D01*
X151378604Y-124036285D01*
X151365816Y-123986059D01*
X151337156Y-123942732D01*
X151315345Y-123924177D01*
X151271725Y-123900512D01*
X151223296Y-123887770D01*
X151188339Y-123885343D01*
X151136534Y-123891514D01*
X151089684Y-123910026D01*
X151077209Y-123917583D01*
X151038507Y-123949974D01*
X151008313Y-123991153D01*
X151001249Y-124004533D01*
X150984012Y-124050877D01*
X150975563Y-124100607D01*
X150974627Y-124124701D01*
X150978397Y-124177381D01*
X150989709Y-124225023D01*
X151011448Y-124272600D01*
X151034955Y-124305196D01*
X151072060Y-124339081D01*
X151120403Y-124363725D01*
X151170315Y-124374199D01*
X151194445Y-124375294D01*
X151248704Y-124370520D01*
X151296627Y-124356197D01*
X151344527Y-124327419D01*
X151378719Y-124292409D01*
X151406574Y-124247850D01*
X151410600Y-124239495D01*
X151528814Y-124294449D01*
X151501691Y-124343851D01*
X151470150Y-124386666D01*
X151434189Y-124422894D01*
X151393808Y-124452536D01*
X151349009Y-124475590D01*
X151299790Y-124492057D01*
X151246152Y-124501938D01*
X151188095Y-124505231D01*
X151135629Y-124502102D01*
X151086185Y-124492714D01*
X151039763Y-124477067D01*
X150996364Y-124455161D01*
X150952255Y-124424060D01*
X150914173Y-124387086D01*
X150882119Y-124344239D01*
X150866916Y-124317897D01*
X150846933Y-124273124D01*
X150832661Y-124226000D01*
X150824097Y-124176526D01*
X150821242Y-124124701D01*
X150824143Y-124073852D01*
X150832844Y-124025355D01*
X150849566Y-123973605D01*
X150867648Y-123935412D01*
X150896476Y-123890440D01*
X150930752Y-123851418D01*
X150970476Y-123818346D01*
X150994899Y-123802544D01*
X151041980Y-123779521D01*
X151091997Y-123764033D01*
X151144951Y-123756080D01*
X151175639Y-123754917D01*
X151225744Y-123758201D01*
X151279058Y-123769997D01*
X151328158Y-123790373D01*
X151373045Y-123819327D01*
X151378360Y-123823549D01*
G37*
G36*
X152117927Y-123888762D02*
G01*
X152003866Y-123888762D01*
X152003866Y-123770549D01*
X152403692Y-123770549D01*
X152403692Y-123888762D01*
X152292317Y-123888762D01*
X152022428Y-124111512D01*
X152277174Y-124363082D01*
X152403692Y-124363082D01*
X152403692Y-124489600D01*
X152216113Y-124489600D01*
X151854878Y-124127143D01*
X151854878Y-124363082D01*
X151977244Y-124363082D01*
X151977244Y-124489600D01*
X151583524Y-124489600D01*
X151583524Y-124363082D01*
X151712729Y-124363082D01*
X151712729Y-123582970D01*
X151583524Y-123582970D01*
X151583524Y-123457918D01*
X151854878Y-123457918D01*
X151854878Y-124108581D01*
X152117927Y-123888762D01*
G37*
G36*
X152907565Y-123758062D02*
G01*
X152959100Y-123767496D01*
X153006971Y-123783219D01*
X153051179Y-123805231D01*
X153091403Y-123832968D01*
X153131217Y-123870631D01*
X153161774Y-123909851D01*
X153184780Y-123948602D01*
X153206411Y-123997374D01*
X153222455Y-124050390D01*
X153231910Y-124100260D01*
X153237087Y-124153379D01*
X153237781Y-124169153D01*
X152632547Y-124169153D01*
X152644137Y-124221510D01*
X152664344Y-124267298D01*
X152696901Y-124310470D01*
X152712903Y-124325468D01*
X152753198Y-124353214D01*
X152803545Y-124373393D01*
X152853873Y-124381969D01*
X152877767Y-124382865D01*
X152929962Y-124378916D01*
X152979204Y-124367066D01*
X153010391Y-124354777D01*
X153053404Y-124329453D01*
X153090854Y-124295610D01*
X153112729Y-124268315D01*
X153237781Y-124323270D01*
X153205922Y-124365570D01*
X153169454Y-124402344D01*
X153128375Y-124433592D01*
X153082687Y-124459313D01*
X153033762Y-124479402D01*
X152982730Y-124493752D01*
X152929592Y-124502361D01*
X152874348Y-124505231D01*
X152824509Y-124502940D01*
X152770585Y-124494712D01*
X152719897Y-124480500D01*
X152672445Y-124460305D01*
X152666741Y-124457359D01*
X152623938Y-124430951D01*
X152586141Y-124399840D01*
X152549605Y-124359221D01*
X152525569Y-124323514D01*
X152503556Y-124279184D01*
X152487833Y-124232168D01*
X152478399Y-124182464D01*
X152475255Y-124130074D01*
X152478369Y-124078020D01*
X152480348Y-124067548D01*
X152636699Y-124067548D01*
X153088793Y-124067548D01*
X153074011Y-124020950D01*
X153049338Y-123975565D01*
X153015984Y-123936906D01*
X153004285Y-123926620D01*
X152962029Y-123898413D01*
X152915861Y-123880652D01*
X152865782Y-123873339D01*
X152855297Y-123873131D01*
X152802251Y-123879451D01*
X152753938Y-123898413D01*
X152714124Y-123926620D01*
X152680641Y-123963261D01*
X152655601Y-124006628D01*
X152639005Y-124056722D01*
X152636699Y-124067548D01*
X152480348Y-124067548D01*
X152487711Y-124028591D01*
X152503282Y-123981788D01*
X152525080Y-123937611D01*
X152552283Y-123896975D01*
X152588360Y-123856879D01*
X152630233Y-123822734D01*
X152661368Y-123803277D01*
X152705820Y-123782120D01*
X152752470Y-123767007D01*
X152801319Y-123757940D01*
X152852366Y-123754917D01*
X152907565Y-123758062D01*
G37*
G36*
X154092875Y-124350625D02*
G01*
X154223301Y-124350625D01*
X154223301Y-124489600D01*
X153951947Y-124489600D01*
X153951947Y-124374317D01*
X153909804Y-124413495D01*
X153864706Y-124444567D01*
X153816656Y-124467534D01*
X153765651Y-124482394D01*
X153711692Y-124489149D01*
X153693050Y-124489600D01*
X153642308Y-124486608D01*
X153588873Y-124476089D01*
X153539303Y-124457997D01*
X153508402Y-124441728D01*
X153466278Y-124412076D01*
X153429757Y-124376976D01*
X153398838Y-124336428D01*
X153384082Y-124311546D01*
X153362712Y-124263757D01*
X153348336Y-124213264D01*
X153340954Y-124160065D01*
X153339874Y-124129341D01*
X153340118Y-124125189D01*
X153490328Y-124125189D01*
X153494587Y-124173893D01*
X153508813Y-124222469D01*
X153520614Y-124246822D01*
X153548809Y-124287048D01*
X153587197Y-124321803D01*
X153602924Y-124332063D01*
X153650996Y-124353267D01*
X153699820Y-124362324D01*
X153719672Y-124363082D01*
X153771116Y-124357519D01*
X153818288Y-124340831D01*
X153838618Y-124329376D01*
X153877892Y-124298282D01*
X153909588Y-124259771D01*
X153921661Y-124239495D01*
X153941270Y-124192562D01*
X153950882Y-124143049D01*
X153951947Y-124119327D01*
X153946949Y-124068593D01*
X153931953Y-124021567D01*
X153921661Y-124001114D01*
X153893342Y-123961204D01*
X153854099Y-123926609D01*
X153837886Y-123916362D01*
X153792128Y-123896278D01*
X153741775Y-123886433D01*
X153716985Y-123885343D01*
X153666298Y-123890865D01*
X153620205Y-123907432D01*
X153600482Y-123918804D01*
X153559930Y-123952076D01*
X153529642Y-123990507D01*
X153519881Y-124007220D01*
X153500747Y-124053319D01*
X153491367Y-124101916D01*
X153490328Y-124125189D01*
X153340118Y-124125189D01*
X153342805Y-124079424D01*
X153353109Y-124025676D01*
X153370832Y-123974478D01*
X153386769Y-123941763D01*
X153416125Y-123896322D01*
X153451160Y-123856446D01*
X153491876Y-123822133D01*
X153516950Y-123805475D01*
X153564881Y-123781035D01*
X153614976Y-123764594D01*
X153667234Y-123756151D01*
X153697202Y-123754917D01*
X153748596Y-123758798D01*
X153797998Y-123770442D01*
X153829826Y-123782516D01*
X153876537Y-123807464D01*
X153918390Y-123838116D01*
X153951947Y-123868734D01*
X153951947Y-123582970D01*
X153812484Y-123582970D01*
X153812484Y-123457918D01*
X154092875Y-123457918D01*
X154092875Y-124350625D01*
G37*
G36*
X154927697Y-123587122D02*
G01*
X154927697Y-124360395D01*
X155267683Y-124360395D01*
X155267683Y-124036285D01*
X155396155Y-124036285D01*
X155396155Y-124489600D01*
X154637781Y-124489600D01*
X154637781Y-124360395D01*
X154770893Y-124360395D01*
X154770893Y-123587122D01*
X154637781Y-123587122D01*
X154637781Y-123457918D01*
X155060810Y-123457918D01*
X155060810Y-123587122D01*
X154927697Y-123587122D01*
G37*
G36*
X155922956Y-123758107D02*
G01*
X155972446Y-123767679D01*
X156019432Y-123783631D01*
X156063915Y-123805964D01*
X156104932Y-123833670D01*
X156145494Y-123870058D01*
X156180143Y-123911972D01*
X156199958Y-123942984D01*
X156221650Y-123986826D01*
X156238645Y-124038483D01*
X156247796Y-124092613D01*
X156249539Y-124130074D01*
X156246395Y-124180648D01*
X156236961Y-124229053D01*
X156218830Y-124280919D01*
X156199225Y-124319362D01*
X156171916Y-124359998D01*
X156135755Y-124400386D01*
X156093838Y-124435131D01*
X156062694Y-124455161D01*
X156018287Y-124477067D01*
X155971530Y-124492714D01*
X155922422Y-124502102D01*
X155870963Y-124505231D01*
X155818069Y-124502102D01*
X155767831Y-124492714D01*
X155720250Y-124477067D01*
X155675325Y-124455161D01*
X155634139Y-124427898D01*
X155593571Y-124391898D01*
X155559109Y-124350257D01*
X155539525Y-124319362D01*
X155518368Y-124275292D01*
X155501791Y-124223121D01*
X155493480Y-124174444D01*
X155491165Y-124130074D01*
X155640398Y-124130074D01*
X155645356Y-124179943D01*
X155660230Y-124227152D01*
X155670440Y-124248043D01*
X155698877Y-124288945D01*
X155734972Y-124322349D01*
X155754215Y-124335238D01*
X155799445Y-124355954D01*
X155847820Y-124366109D01*
X155871207Y-124367234D01*
X155920714Y-124361953D01*
X155970242Y-124344456D01*
X155986978Y-124335238D01*
X156026172Y-124305415D01*
X156059725Y-124265184D01*
X156069532Y-124248776D01*
X156088667Y-124203028D01*
X156098047Y-124153893D01*
X156099086Y-124130074D01*
X156094208Y-124080484D01*
X156079576Y-124033715D01*
X156069532Y-124013082D01*
X156041651Y-123972375D01*
X156006029Y-123938763D01*
X155986978Y-123925643D01*
X155942179Y-123904136D01*
X155893510Y-123893594D01*
X155869742Y-123892426D01*
X155820037Y-123897787D01*
X155773718Y-123913870D01*
X155753482Y-123924910D01*
X155714326Y-123955012D01*
X155682587Y-123992531D01*
X155670440Y-124012349D01*
X155650989Y-124058290D01*
X155641454Y-124106810D01*
X155640398Y-124130074D01*
X155491165Y-124130074D01*
X155494188Y-124077424D01*
X155503255Y-124027675D01*
X155518368Y-123980826D01*
X155539525Y-123936878D01*
X155569860Y-123891847D01*
X155606184Y-123852651D01*
X155648497Y-123819290D01*
X155674592Y-123803277D01*
X155719288Y-123782120D01*
X155766916Y-123767007D01*
X155817474Y-123757940D01*
X155870963Y-123754917D01*
X155922956Y-123758107D01*
G37*
G36*
X156783668Y-123758107D02*
G01*
X156833158Y-123767679D01*
X156880144Y-123783631D01*
X156924627Y-123805964D01*
X156965644Y-123833670D01*
X157006205Y-123870058D01*
X157040855Y-123911972D01*
X157060670Y-123942984D01*
X157082362Y-123986826D01*
X157099357Y-124038483D01*
X157108508Y-124092613D01*
X157110251Y-124130074D01*
X157107107Y-124180648D01*
X157097673Y-124229053D01*
X157079542Y-124280919D01*
X157059937Y-124319362D01*
X157032628Y-124359998D01*
X156996467Y-124400386D01*
X156954549Y-124435131D01*
X156923405Y-124455161D01*
X156878999Y-124477067D01*
X156832242Y-124492714D01*
X156783134Y-124502102D01*
X156731675Y-124505231D01*
X156678781Y-124502102D01*
X156628543Y-124492714D01*
X156580962Y-124477067D01*
X156536036Y-124455161D01*
X156494851Y-124427898D01*
X156454283Y-124391898D01*
X156419821Y-124350257D01*
X156400237Y-124319362D01*
X156379080Y-124275292D01*
X156362503Y-124223121D01*
X156354191Y-124174444D01*
X156351877Y-124130074D01*
X156501110Y-124130074D01*
X156506068Y-124179943D01*
X156520942Y-124227152D01*
X156531151Y-124248043D01*
X156559588Y-124288945D01*
X156595684Y-124322349D01*
X156614927Y-124335238D01*
X156660157Y-124355954D01*
X156708532Y-124366109D01*
X156731919Y-124367234D01*
X156781425Y-124361953D01*
X156830953Y-124344456D01*
X156847690Y-124335238D01*
X156886884Y-124305415D01*
X156920436Y-124265184D01*
X156930244Y-124248776D01*
X156949379Y-124203028D01*
X156958759Y-124153893D01*
X156959798Y-124130074D01*
X156954920Y-124080484D01*
X156940288Y-124033715D01*
X156930244Y-124013082D01*
X156902362Y-123972375D01*
X156866741Y-123938763D01*
X156847690Y-123925643D01*
X156802891Y-123904136D01*
X156754222Y-123893594D01*
X156730454Y-123892426D01*
X156680749Y-123897787D01*
X156634430Y-123913870D01*
X156614194Y-123924910D01*
X156575038Y-123955012D01*
X156543299Y-123992531D01*
X156531151Y-124012349D01*
X156511701Y-124058290D01*
X156502166Y-124106810D01*
X156501110Y-124130074D01*
X156351877Y-124130074D01*
X156354900Y-124077424D01*
X156363967Y-124027675D01*
X156379080Y-123980826D01*
X156400237Y-123936878D01*
X156430572Y-123891847D01*
X156466896Y-123852651D01*
X156509208Y-123819290D01*
X156535304Y-123803277D01*
X156580000Y-123782120D01*
X156627627Y-123767007D01*
X156678186Y-123757940D01*
X156731675Y-123754917D01*
X156783668Y-123758107D01*
G37*
G36*
X157754976Y-123758062D02*
G01*
X157807550Y-123769117D01*
X157856530Y-123788132D01*
X157887188Y-123805231D01*
X157929174Y-123836334D01*
X157965558Y-123873040D01*
X157996339Y-123915349D01*
X158011019Y-123941274D01*
X158032507Y-123990615D01*
X158046963Y-124042468D01*
X158054386Y-124096832D01*
X158055471Y-124128120D01*
X158052555Y-124177625D01*
X158042305Y-124231384D01*
X158024675Y-124283095D01*
X158008821Y-124316431D01*
X157979875Y-124362718D01*
X157945520Y-124403208D01*
X157905755Y-124437903D01*
X157881326Y-124454673D01*
X157834597Y-124479113D01*
X157785087Y-124495554D01*
X157732794Y-124503997D01*
X157702540Y-124505231D01*
X157649423Y-124501333D01*
X157598882Y-124489638D01*
X157550917Y-124470146D01*
X157505528Y-124442858D01*
X157462715Y-124407772D01*
X157449016Y-124394345D01*
X157449016Y-124691344D01*
X157589700Y-124691344D01*
X157589700Y-124817862D01*
X157176197Y-124817862D01*
X157176197Y-124691344D01*
X157306867Y-124691344D01*
X157306867Y-124139111D01*
X157447551Y-124139111D01*
X157451993Y-124191440D01*
X157467610Y-124243158D01*
X157494471Y-124287302D01*
X157518625Y-124312523D01*
X157561735Y-124342867D01*
X157611104Y-124363279D01*
X157660242Y-124373087D01*
X157700342Y-124375294D01*
X157749816Y-124368842D01*
X157794803Y-124349488D01*
X157806832Y-124341588D01*
X157844485Y-124307468D01*
X157874098Y-124264091D01*
X157881082Y-124249997D01*
X157898477Y-124201638D01*
X157907004Y-124151022D01*
X157907948Y-124126899D01*
X157903071Y-124075448D01*
X157888439Y-124027464D01*
X157878395Y-124006487D01*
X157850755Y-123965505D01*
X157812874Y-123929574D01*
X157797306Y-123918804D01*
X157749735Y-123896431D01*
X157701125Y-123886874D01*
X157681291Y-123886075D01*
X157632656Y-123890987D01*
X157584309Y-123907393D01*
X157560147Y-123921002D01*
X157520637Y-123952930D01*
X157489028Y-123992356D01*
X157477104Y-124013082D01*
X157457969Y-124061453D01*
X157448965Y-124109539D01*
X157447551Y-124139111D01*
X157306867Y-124139111D01*
X157306867Y-123897555D01*
X157185967Y-123897555D01*
X157185967Y-123770549D01*
X157449016Y-123770549D01*
X157449016Y-123879481D01*
X157483520Y-123843245D01*
X157523954Y-123810659D01*
X157566985Y-123785692D01*
X157616765Y-123766938D01*
X157669018Y-123756840D01*
X157705227Y-123754917D01*
X157754976Y-123758062D01*
G37*
G36*
X158795527Y-123587122D02*
G01*
X158795527Y-124360395D01*
X159135513Y-124360395D01*
X159135513Y-124036285D01*
X159263985Y-124036285D01*
X159263985Y-124489600D01*
X158505611Y-124489600D01*
X158505611Y-124360395D01*
X158638723Y-124360395D01*
X158638723Y-123587122D01*
X158505611Y-123587122D01*
X158505611Y-123457918D01*
X158928639Y-123457918D01*
X158928639Y-123587122D01*
X158795527Y-123587122D01*
G37*
G36*
X159954801Y-123443980D02*
G01*
X160011176Y-123450483D01*
X160064974Y-123461863D01*
X160116196Y-123478120D01*
X160164842Y-123499255D01*
X160188200Y-123511651D01*
X160232412Y-123539366D01*
X160272727Y-123570670D01*
X160309143Y-123605563D01*
X160341660Y-123644046D01*
X160370280Y-123686118D01*
X160378953Y-123700939D01*
X160401945Y-123747033D01*
X160420181Y-123795187D01*
X160433659Y-123845401D01*
X160442380Y-123897677D01*
X160446344Y-123952013D01*
X160446609Y-123970583D01*
X160444153Y-124028257D01*
X160436785Y-124083492D01*
X160424506Y-124136289D01*
X160407316Y-124186647D01*
X160385214Y-124234566D01*
X160376755Y-124249997D01*
X160348771Y-124293844D01*
X160317026Y-124333792D01*
X160281520Y-124369841D01*
X160242254Y-124401993D01*
X160199226Y-124430246D01*
X160184047Y-124438797D01*
X160136792Y-124461374D01*
X160087167Y-124479280D01*
X160035172Y-124492515D01*
X159980807Y-124501079D01*
X159924072Y-124504972D01*
X159904634Y-124505231D01*
X159847859Y-124502801D01*
X159793488Y-124495511D01*
X159741521Y-124483361D01*
X159691959Y-124466351D01*
X159644801Y-124444480D01*
X159629616Y-124436110D01*
X159586425Y-124408227D01*
X159546978Y-124376599D01*
X159511275Y-124341228D01*
X159479315Y-124302113D01*
X159451099Y-124259254D01*
X159442526Y-124244135D01*
X159419783Y-124197066D01*
X159401745Y-124147816D01*
X159388413Y-124096385D01*
X159379786Y-124042772D01*
X159375865Y-123986979D01*
X159375624Y-123969362D01*
X159545841Y-123969362D01*
X159547956Y-124018808D01*
X159555555Y-124072370D01*
X159568679Y-124122787D01*
X159587329Y-124170059D01*
X159590049Y-124175747D01*
X159614687Y-124218551D01*
X159648171Y-124260720D01*
X159687759Y-124296552D01*
X159717544Y-124316920D01*
X159766498Y-124341242D01*
X159813549Y-124356179D01*
X159863928Y-124364826D01*
X159910740Y-124367234D01*
X159962565Y-124363784D01*
X160011551Y-124353434D01*
X160057698Y-124336184D01*
X160101005Y-124312035D01*
X160140511Y-124282176D01*
X160175255Y-124247799D01*
X160205236Y-124208903D01*
X160230454Y-124165489D01*
X160250436Y-124119053D01*
X160264709Y-124071089D01*
X160273272Y-124021600D01*
X160276127Y-123970583D01*
X160273089Y-123918789D01*
X160263976Y-123868917D01*
X160248787Y-123820969D01*
X160227523Y-123774945D01*
X160201038Y-123732157D01*
X160169942Y-123694162D01*
X160129450Y-123657147D01*
X160093922Y-123632551D01*
X160050034Y-123609684D01*
X160003369Y-123593350D01*
X159953925Y-123583550D01*
X159901703Y-123580283D01*
X159850687Y-123583459D01*
X159802662Y-123592984D01*
X159752211Y-123611291D01*
X159715590Y-123631086D01*
X159672875Y-123662715D01*
X159635957Y-123700449D01*
X159604835Y-123744288D01*
X159590049Y-123771281D01*
X159570708Y-123817092D01*
X159556893Y-123865376D01*
X159548604Y-123916133D01*
X159545841Y-123969362D01*
X159375624Y-123969362D01*
X159375604Y-123967897D01*
X159378008Y-123911986D01*
X159385221Y-123858377D01*
X159397242Y-123807069D01*
X159414072Y-123758062D01*
X159435710Y-123711356D01*
X159443992Y-123696299D01*
X159471458Y-123653348D01*
X159502564Y-123614073D01*
X159537312Y-123578473D01*
X159575700Y-123546547D01*
X159617728Y-123518297D01*
X159632547Y-123509697D01*
X159678769Y-123486788D01*
X159727310Y-123468619D01*
X159778168Y-123455189D01*
X159831346Y-123446499D01*
X159886841Y-123442549D01*
X159905855Y-123442286D01*
X159954801Y-123443980D01*
G37*
G36*
X161473161Y-123524840D02*
G01*
X161473161Y-123457918D01*
X161599435Y-123457918D01*
X161599435Y-123770549D01*
X161473161Y-123770549D01*
X161473161Y-123697764D01*
X161440950Y-123656013D01*
X161404582Y-123622900D01*
X161356901Y-123595186D01*
X161303563Y-123579229D01*
X161253343Y-123574910D01*
X161203955Y-123578225D01*
X161154954Y-123590957D01*
X161122673Y-123608860D01*
X161090240Y-123647060D01*
X161077885Y-123694624D01*
X161077488Y-123706313D01*
X161086933Y-123757400D01*
X161117830Y-123797814D01*
X161120475Y-123799858D01*
X161162899Y-123824282D01*
X161210509Y-123842493D01*
X161251877Y-123854324D01*
X161373510Y-123886320D01*
X161421684Y-123900730D01*
X161470414Y-123919518D01*
X161517171Y-123943610D01*
X161551563Y-123967653D01*
X161589245Y-124002994D01*
X161618634Y-124043260D01*
X161632652Y-124074631D01*
X161644987Y-124122649D01*
X161651033Y-124175020D01*
X161651703Y-124200660D01*
X161648612Y-124251198D01*
X161637191Y-124305016D01*
X161617356Y-124353293D01*
X161589106Y-124396030D01*
X161563775Y-124423165D01*
X161522444Y-124455142D01*
X161475385Y-124479265D01*
X161422600Y-124495534D01*
X161372797Y-124503227D01*
X161328081Y-124505231D01*
X161276209Y-124501642D01*
X161226106Y-124490874D01*
X161177771Y-124472928D01*
X161131206Y-124447803D01*
X161086409Y-124415500D01*
X161071870Y-124403138D01*
X161071870Y-124489600D01*
X160942666Y-124489600D01*
X160942666Y-124114442D01*
X161071870Y-124114442D01*
X161071870Y-124204568D01*
X161102246Y-124252978D01*
X161135364Y-124293182D01*
X161178726Y-124330597D01*
X161226039Y-124356197D01*
X161277301Y-124369982D01*
X161313671Y-124372607D01*
X161364351Y-124368266D01*
X161411284Y-124353463D01*
X161448981Y-124328155D01*
X161480134Y-124286031D01*
X161494795Y-124236486D01*
X161497097Y-124202858D01*
X161487312Y-124151766D01*
X161457957Y-124109130D01*
X161416218Y-124078761D01*
X161368516Y-124057884D01*
X161340537Y-124049230D01*
X161211333Y-124013082D01*
X161161593Y-123997256D01*
X161110032Y-123976298D01*
X161065436Y-123952651D01*
X161022999Y-123922334D01*
X161005192Y-123905859D01*
X160973078Y-123864403D01*
X160951474Y-123816146D01*
X160941093Y-123767541D01*
X160938758Y-123727562D01*
X160941591Y-123678784D01*
X160952060Y-123627303D01*
X160970242Y-123581665D01*
X161000467Y-123536663D01*
X161019358Y-123517024D01*
X161063612Y-123484326D01*
X161108620Y-123463379D01*
X161159495Y-123449585D01*
X161216238Y-123442943D01*
X161242352Y-123442286D01*
X161295638Y-123446237D01*
X161347358Y-123458088D01*
X161397512Y-123477839D01*
X161446100Y-123505492D01*
X161473161Y-123524840D01*
G37*
G36*
X161937711Y-123897555D02*
G01*
X162094271Y-124305196D01*
X162245946Y-123897555D01*
X162149958Y-123897555D01*
X162149958Y-123770549D01*
X162494829Y-123770549D01*
X162494829Y-123897555D01*
X162388339Y-123897555D01*
X162031745Y-124817862D01*
X161791410Y-124817862D01*
X161791410Y-124694275D01*
X161933559Y-124694275D01*
X162019288Y-124480807D01*
X161783105Y-123897555D01*
X161662205Y-123897555D01*
X161662205Y-123770549D01*
X162023440Y-123770549D01*
X162023440Y-123897555D01*
X161937711Y-123897555D01*
G37*
G36*
X163254180Y-124002091D02*
G01*
X163254180Y-124363082D01*
X163375080Y-124363082D01*
X163375080Y-124489600D01*
X163112031Y-124489600D01*
X163112031Y-124010395D01*
X163108806Y-123961239D01*
X163093693Y-123914339D01*
X163092491Y-123912454D01*
X163051407Y-123885013D01*
X163028255Y-123882656D01*
X162979407Y-123888533D01*
X162927627Y-123906164D01*
X162879916Y-123931234D01*
X162837235Y-123959885D01*
X162815276Y-123976690D01*
X162815276Y-124363082D01*
X162939595Y-124363082D01*
X162939595Y-124489600D01*
X162547830Y-124489600D01*
X162547830Y-124363082D01*
X162675080Y-124363082D01*
X162675080Y-123897555D01*
X162547830Y-123897555D01*
X162547830Y-123770549D01*
X162815276Y-123770549D01*
X162815276Y-123852126D01*
X162856333Y-123824121D01*
X162904579Y-123796781D01*
X162951708Y-123776276D01*
X163005281Y-123760993D01*
X163057335Y-123755012D01*
X163064648Y-123754917D01*
X163115073Y-123759670D01*
X163161765Y-123776099D01*
X163201777Y-123807725D01*
X163207774Y-123815001D01*
X163232246Y-123859088D01*
X163246521Y-123909943D01*
X163253047Y-123964035D01*
X163254180Y-124002091D01*
G37*
G36*
X163812031Y-123770549D02*
G01*
X163812031Y-123897555D01*
X163680140Y-123897555D01*
X163680140Y-124276375D01*
X163683724Y-124327458D01*
X163692840Y-124353068D01*
X163736560Y-124370653D01*
X163786032Y-124365078D01*
X163812031Y-124357708D01*
X163812031Y-124485936D01*
X163762642Y-124498429D01*
X163713366Y-124505061D01*
X163705541Y-124505231D01*
X163654689Y-124500842D01*
X163606512Y-124483990D01*
X163577069Y-124460290D01*
X163553255Y-124417403D01*
X163541807Y-124367915D01*
X163538028Y-124312690D01*
X163537990Y-124305929D01*
X163537990Y-123897555D01*
X163443713Y-123897555D01*
X163443713Y-123770549D01*
X163537990Y-123770549D01*
X163537990Y-123663326D01*
X163680140Y-123536075D01*
X163680140Y-123770549D01*
X163812031Y-123770549D01*
G37*
G36*
X164387711Y-123754917D02*
G01*
X164445690Y-123760176D01*
X164493842Y-123775954D01*
X164538653Y-123808773D01*
X164569313Y-123856738D01*
X164584054Y-123908279D01*
X164588771Y-123957086D01*
X164588967Y-123970339D01*
X164588967Y-124363082D01*
X164711333Y-124363082D01*
X164711333Y-124489600D01*
X164446818Y-124489600D01*
X164446818Y-124021874D01*
X164443658Y-123970744D01*
X164429614Y-123922445D01*
X164424348Y-123913919D01*
X164382242Y-123885709D01*
X164355471Y-123882656D01*
X164301513Y-123891600D01*
X164251650Y-123911636D01*
X164203135Y-123938559D01*
X164157924Y-123968612D01*
X164150063Y-123974247D01*
X164150063Y-124363082D01*
X164275115Y-124363082D01*
X164275115Y-124489600D01*
X163878709Y-124489600D01*
X163878709Y-124363082D01*
X164007913Y-124363082D01*
X164007913Y-123582970D01*
X163878709Y-123582970D01*
X163878709Y-123457918D01*
X164150063Y-123457918D01*
X164150063Y-123857743D01*
X164189546Y-123828120D01*
X164235777Y-123799201D01*
X164280754Y-123777511D01*
X164331642Y-123761344D01*
X164380824Y-123755017D01*
X164387711Y-123754917D01*
G37*
G36*
X165217404Y-123758062D02*
G01*
X165268939Y-123767496D01*
X165316811Y-123783219D01*
X165361019Y-123805231D01*
X165401243Y-123832968D01*
X165441057Y-123870631D01*
X165471614Y-123909851D01*
X165494620Y-123948602D01*
X165516250Y-123997374D01*
X165532294Y-124050390D01*
X165541749Y-124100260D01*
X165546927Y-124153379D01*
X165547620Y-124169153D01*
X164942387Y-124169153D01*
X164953976Y-124221510D01*
X164974183Y-124267298D01*
X165006741Y-124310470D01*
X165022743Y-124325468D01*
X165063038Y-124353214D01*
X165113384Y-124373393D01*
X165163713Y-124381969D01*
X165187606Y-124382865D01*
X165239802Y-124378916D01*
X165289044Y-124367066D01*
X165320230Y-124354777D01*
X165363244Y-124329453D01*
X165400693Y-124295610D01*
X165422568Y-124268315D01*
X165547620Y-124323270D01*
X165515762Y-124365570D01*
X165479293Y-124402344D01*
X165438215Y-124433592D01*
X165392526Y-124459313D01*
X165343601Y-124479402D01*
X165292570Y-124493752D01*
X165239432Y-124502361D01*
X165184187Y-124505231D01*
X165134349Y-124502940D01*
X165080424Y-124494712D01*
X165029736Y-124480500D01*
X164982285Y-124460305D01*
X164976581Y-124457359D01*
X164933777Y-124430951D01*
X164895980Y-124399840D01*
X164859444Y-124359221D01*
X164835408Y-124323514D01*
X164813396Y-124279184D01*
X164797673Y-124232168D01*
X164788239Y-124182464D01*
X164785094Y-124130074D01*
X164788208Y-124078020D01*
X164790187Y-124067548D01*
X164946539Y-124067548D01*
X165398632Y-124067548D01*
X165383850Y-124020950D01*
X165359178Y-123975565D01*
X165325824Y-123936906D01*
X165314124Y-123926620D01*
X165271868Y-123898413D01*
X165225701Y-123880652D01*
X165175621Y-123873339D01*
X165165136Y-123873131D01*
X165112090Y-123879451D01*
X165063777Y-123898413D01*
X165023964Y-123926620D01*
X164990481Y-123963261D01*
X164965441Y-124006628D01*
X164948845Y-124056722D01*
X164946539Y-124067548D01*
X164790187Y-124067548D01*
X164797551Y-124028591D01*
X164813121Y-123981788D01*
X164834920Y-123937611D01*
X164862122Y-123896975D01*
X164898199Y-123856879D01*
X164940072Y-123822734D01*
X164971207Y-123803277D01*
X165015659Y-123782120D01*
X165062310Y-123767007D01*
X165111158Y-123757940D01*
X165162205Y-123754917D01*
X165217404Y-123758062D01*
G37*
G36*
X166087397Y-123795461D02*
G01*
X166087397Y-123770549D01*
X166210984Y-123770549D01*
X166210984Y-124005022D01*
X166087397Y-124005022D01*
X166087397Y-123960814D01*
X166053661Y-123921811D01*
X166008920Y-123891253D01*
X165956992Y-123874799D01*
X165918381Y-123871665D01*
X165867273Y-123878015D01*
X165826301Y-123897066D01*
X165794856Y-123936717D01*
X165790642Y-123962523D01*
X165807189Y-124008617D01*
X165817753Y-124018211D01*
X165865652Y-124038112D01*
X165916996Y-124049520D01*
X165939630Y-124053382D01*
X166035129Y-124072188D01*
X166085218Y-124084149D01*
X166138437Y-124104917D01*
X166181222Y-124132148D01*
X166218788Y-124173358D01*
X166241328Y-124223877D01*
X166248633Y-124273085D01*
X166248842Y-124283703D01*
X166242717Y-124336921D01*
X166224344Y-124383918D01*
X166193722Y-124424694D01*
X166171417Y-124444659D01*
X166129666Y-124471159D01*
X166081596Y-124490088D01*
X166027206Y-124501445D01*
X165974431Y-124505172D01*
X165966497Y-124505231D01*
X165916122Y-124501445D01*
X165866602Y-124490088D01*
X165818990Y-124471931D01*
X165784536Y-124452475D01*
X165784536Y-124489600D01*
X165658018Y-124489600D01*
X165658018Y-124239495D01*
X165784536Y-124239495D01*
X165784536Y-124265385D01*
X165802364Y-124311724D01*
X165836614Y-124348618D01*
X165842422Y-124352824D01*
X165887254Y-124375363D01*
X165937978Y-124385281D01*
X165953552Y-124385796D01*
X166005034Y-124381685D01*
X166052314Y-124366722D01*
X166062729Y-124360884D01*
X166095970Y-124322775D01*
X166102540Y-124286878D01*
X166081579Y-124241099D01*
X166070789Y-124233877D01*
X166023283Y-124215986D01*
X165972063Y-124203332D01*
X165943782Y-124197485D01*
X165870265Y-124181609D01*
X165819325Y-124168512D01*
X165770740Y-124149033D01*
X165727587Y-124121498D01*
X165710286Y-124105406D01*
X165681362Y-124064775D01*
X165664445Y-124017102D01*
X165659484Y-123967653D01*
X165665651Y-123915749D01*
X165684153Y-123870376D01*
X165696853Y-123851637D01*
X165730840Y-123816493D01*
X165771680Y-123789250D01*
X165792840Y-123779341D01*
X165840833Y-123763528D01*
X165889955Y-123755776D01*
X165913008Y-123754917D01*
X165962742Y-123757451D01*
X166013802Y-123766360D01*
X166064464Y-123783781D01*
X166087397Y-123795461D01*
G37*
G36*
X166596888Y-123528260D02*
G01*
X166582599Y-123575292D01*
X166571486Y-123588588D01*
X166527889Y-123612401D01*
X166510914Y-123613989D01*
X166464157Y-123599701D01*
X166451075Y-123588588D01*
X166427948Y-123545128D01*
X166426406Y-123528260D01*
X166440282Y-123480999D01*
X166451075Y-123467687D01*
X166494077Y-123443874D01*
X166510914Y-123442286D01*
X166558908Y-123456162D01*
X166571975Y-123466955D01*
X166595331Y-123510689D01*
X166596888Y-123528260D01*
G37*
G36*
X166698493Y-124363082D02*
G01*
X166698493Y-124489600D01*
X166333594Y-124489600D01*
X166333594Y-124363082D01*
X166446434Y-124363082D01*
X166446434Y-123897555D01*
X166333594Y-123897555D01*
X166333594Y-123770549D01*
X166588583Y-123770549D01*
X166588583Y-124363082D01*
X166698493Y-124363082D01*
G37*
G36*
X166938828Y-124372851D02*
G01*
X167270021Y-124372851D01*
X167270021Y-124223863D01*
X167393608Y-124223863D01*
X167393608Y-124489600D01*
X166773231Y-124489600D01*
X166773231Y-124372851D01*
X167223126Y-123888762D01*
X166927837Y-123888762D01*
X166927837Y-124020653D01*
X166806937Y-124020653D01*
X166806937Y-123770549D01*
X167393608Y-123770549D01*
X167393608Y-123897555D01*
X166938828Y-124372851D01*
G37*
G36*
X167920684Y-123758062D02*
G01*
X167972219Y-123767496D01*
X168020091Y-123783219D01*
X168064299Y-123805231D01*
X168104522Y-123832968D01*
X168144337Y-123870631D01*
X168174894Y-123909851D01*
X168197900Y-123948602D01*
X168219530Y-123997374D01*
X168235574Y-124050390D01*
X168245029Y-124100260D01*
X168250207Y-124153379D01*
X168250900Y-124169153D01*
X167645666Y-124169153D01*
X167657256Y-124221510D01*
X167677463Y-124267298D01*
X167710021Y-124310470D01*
X167726022Y-124325468D01*
X167766317Y-124353214D01*
X167816664Y-124373393D01*
X167866992Y-124381969D01*
X167890886Y-124382865D01*
X167943082Y-124378916D01*
X167992323Y-124367066D01*
X168023510Y-124354777D01*
X168066524Y-124329453D01*
X168103973Y-124295610D01*
X168125848Y-124268315D01*
X168250900Y-124323270D01*
X168219042Y-124365570D01*
X168182573Y-124402344D01*
X168141495Y-124433592D01*
X168095806Y-124459313D01*
X168046881Y-124479402D01*
X167995850Y-124493752D01*
X167942712Y-124502361D01*
X167887467Y-124505231D01*
X167837628Y-124502940D01*
X167783704Y-124494712D01*
X167733016Y-124480500D01*
X167685564Y-124460305D01*
X167679860Y-124457359D01*
X167637057Y-124430951D01*
X167599260Y-124399840D01*
X167562724Y-124359221D01*
X167538688Y-124323514D01*
X167516676Y-124279184D01*
X167500953Y-124232168D01*
X167491519Y-124182464D01*
X167488374Y-124130074D01*
X167491488Y-124078020D01*
X167493467Y-124067548D01*
X167649819Y-124067548D01*
X168101912Y-124067548D01*
X168087130Y-124020950D01*
X168062458Y-123975565D01*
X168029103Y-123936906D01*
X168017404Y-123926620D01*
X167975148Y-123898413D01*
X167928981Y-123880652D01*
X167878901Y-123873339D01*
X167868416Y-123873131D01*
X167815370Y-123879451D01*
X167767057Y-123898413D01*
X167727244Y-123926620D01*
X167693760Y-123963261D01*
X167668721Y-124006628D01*
X167652125Y-124056722D01*
X167649819Y-124067548D01*
X167493467Y-124067548D01*
X167500830Y-124028591D01*
X167516401Y-123981788D01*
X167538200Y-123937611D01*
X167565402Y-123896975D01*
X167601479Y-123856879D01*
X167643352Y-123822734D01*
X167674487Y-123803277D01*
X167718939Y-123782120D01*
X167765590Y-123767007D01*
X167814438Y-123757940D01*
X167865485Y-123754917D01*
X167920684Y-123758062D01*
G37*
G36*
X168616288Y-124198462D02*
G01*
X168616288Y-124363082D01*
X168773580Y-124363082D01*
X168773580Y-124489600D01*
X168330523Y-124489600D01*
X168330523Y-124363082D01*
X168475359Y-124363082D01*
X168475359Y-123897555D01*
X168330523Y-123897555D01*
X168330523Y-123770549D01*
X168587955Y-123770549D01*
X168587955Y-123928818D01*
X168610884Y-123883893D01*
X168639816Y-123842146D01*
X168675861Y-123806683D01*
X168695422Y-123793263D01*
X168740984Y-123773042D01*
X168791248Y-123761246D01*
X168843291Y-123755853D01*
X168879337Y-123754917D01*
X168911577Y-123754917D01*
X168911577Y-123898532D01*
X168880803Y-123898532D01*
X168826733Y-123900440D01*
X168774737Y-123907148D01*
X168723884Y-123921907D01*
X168708856Y-123929062D01*
X168669461Y-123958829D01*
X168641010Y-124002427D01*
X168634362Y-124020897D01*
X168624071Y-124069648D01*
X168618829Y-124119110D01*
X168616570Y-124170309D01*
X168616288Y-124198462D01*
G37*
G36*
X152611542Y-125204840D02*
G01*
X152611542Y-125137918D01*
X152737816Y-125137918D01*
X152737816Y-125450549D01*
X152611542Y-125450549D01*
X152611542Y-125377764D01*
X152579331Y-125336013D01*
X152542963Y-125302900D01*
X152495282Y-125275186D01*
X152441944Y-125259229D01*
X152391724Y-125254910D01*
X152342336Y-125258225D01*
X152293335Y-125270957D01*
X152261054Y-125288860D01*
X152228621Y-125327060D01*
X152216266Y-125374624D01*
X152215869Y-125386313D01*
X152225314Y-125437400D01*
X152256211Y-125477814D01*
X152258855Y-125479858D01*
X152301280Y-125504282D01*
X152348889Y-125522493D01*
X152390258Y-125534324D01*
X152511891Y-125566320D01*
X152560065Y-125580730D01*
X152608795Y-125599518D01*
X152655552Y-125623610D01*
X152689944Y-125647653D01*
X152727626Y-125682994D01*
X152757015Y-125723260D01*
X152771033Y-125754631D01*
X152783367Y-125802649D01*
X152789414Y-125855020D01*
X152790084Y-125880660D01*
X152786992Y-125931198D01*
X152775572Y-125985016D01*
X152755737Y-126033293D01*
X152727487Y-126076030D01*
X152702156Y-126103165D01*
X152660825Y-126135142D01*
X152613766Y-126159265D01*
X152560981Y-126175534D01*
X152511178Y-126183227D01*
X152466462Y-126185231D01*
X152414590Y-126181642D01*
X152364487Y-126170874D01*
X152316152Y-126152928D01*
X152269587Y-126127803D01*
X152224790Y-126095500D01*
X152210251Y-126083138D01*
X152210251Y-126169600D01*
X152081047Y-126169600D01*
X152081047Y-125794442D01*
X152210251Y-125794442D01*
X152210251Y-125884568D01*
X152240626Y-125932978D01*
X152273745Y-125973182D01*
X152317107Y-126010597D01*
X152364420Y-126036197D01*
X152415682Y-126049982D01*
X152452052Y-126052607D01*
X152502732Y-126048266D01*
X152549665Y-126033463D01*
X152587362Y-126008155D01*
X152618515Y-125966031D01*
X152633176Y-125916486D01*
X152635478Y-125882858D01*
X152625693Y-125831766D01*
X152596338Y-125789130D01*
X152554599Y-125758761D01*
X152506897Y-125737884D01*
X152478918Y-125729230D01*
X152349714Y-125693082D01*
X152299974Y-125677256D01*
X152248413Y-125656298D01*
X152203817Y-125632651D01*
X152161380Y-125602334D01*
X152143573Y-125585859D01*
X152111459Y-125544403D01*
X152089855Y-125496146D01*
X152079474Y-125447541D01*
X152077139Y-125407562D01*
X152079972Y-125358784D01*
X152090441Y-125307303D01*
X152108623Y-125261665D01*
X152138848Y-125216663D01*
X152157739Y-125197024D01*
X152201993Y-125164326D01*
X152247001Y-125143379D01*
X152297876Y-125129585D01*
X152354618Y-125122943D01*
X152380733Y-125122286D01*
X152434019Y-125126237D01*
X152485739Y-125138088D01*
X152535893Y-125157839D01*
X152584481Y-125185492D01*
X152611542Y-125204840D01*
G37*
G36*
X153302580Y-125138972D02*
G01*
X153357943Y-125142134D01*
X153410463Y-125147404D01*
X153460141Y-125154782D01*
X153521957Y-125167899D01*
X153578721Y-125184763D01*
X153630432Y-125205375D01*
X153677090Y-125229734D01*
X153718695Y-125257841D01*
X153763727Y-125298687D01*
X153801127Y-125346427D01*
X153825551Y-125389581D01*
X153845091Y-125437148D01*
X153859745Y-125489126D01*
X153869515Y-125545515D01*
X153874400Y-125606316D01*
X153875010Y-125638371D01*
X153872503Y-125702561D01*
X153864981Y-125762630D01*
X153852445Y-125818577D01*
X153834894Y-125870402D01*
X153812328Y-125918106D01*
X153784747Y-125961688D01*
X153752152Y-126001148D01*
X153714543Y-126036487D01*
X153671987Y-126067685D01*
X153624555Y-126094724D01*
X153572245Y-126117602D01*
X153515058Y-126136321D01*
X153452993Y-126150881D01*
X153403244Y-126159070D01*
X153350752Y-126164920D01*
X153295516Y-126168430D01*
X153237537Y-126169600D01*
X152850656Y-126169600D01*
X152850656Y-126040395D01*
X152989386Y-126040395D01*
X153146190Y-126040395D01*
X153244375Y-126040395D01*
X153302143Y-126038907D01*
X153355887Y-126034442D01*
X153405610Y-126027000D01*
X153462107Y-126013512D01*
X153512318Y-125995372D01*
X153556245Y-125972582D01*
X153593887Y-125945140D01*
X153631488Y-125905499D01*
X153661309Y-125858198D01*
X153680218Y-125812929D01*
X153693724Y-125762342D01*
X153701828Y-125706435D01*
X153704529Y-125645210D01*
X153702308Y-125590142D01*
X153695646Y-125539703D01*
X153682595Y-125487725D01*
X153663742Y-125441792D01*
X153658123Y-125431253D01*
X153627730Y-125388022D01*
X153588760Y-125351475D01*
X153546918Y-125324600D01*
X153511089Y-125307911D01*
X153464085Y-125292018D01*
X153410911Y-125280028D01*
X153360421Y-125272858D01*
X153305398Y-125268556D01*
X153256082Y-125267162D01*
X153245841Y-125267122D01*
X153146190Y-125267122D01*
X153146190Y-126040395D01*
X152989386Y-126040395D01*
X152989386Y-125267122D01*
X152850656Y-125267122D01*
X152850656Y-125137918D01*
X153244375Y-125137918D01*
X153302580Y-125138972D01*
G37*
G36*
X154445020Y-125139510D02*
G01*
X154499355Y-125144286D01*
X154548241Y-125152247D01*
X154599709Y-125166003D01*
X154649836Y-125187846D01*
X154673685Y-125203131D01*
X154712473Y-125240332D01*
X154740180Y-125286967D01*
X154755332Y-125335511D01*
X154761998Y-125391279D01*
X154762345Y-125408539D01*
X154757882Y-125461944D01*
X154744493Y-125510325D01*
X154719148Y-125558191D01*
X154705925Y-125575601D01*
X154670790Y-125610197D01*
X154628584Y-125638146D01*
X154579308Y-125659450D01*
X154548876Y-125668413D01*
X154731570Y-126040395D01*
X154857844Y-126040395D01*
X154857844Y-126169600D01*
X154625813Y-126169600D01*
X154396957Y-125689907D01*
X154252121Y-125689907D01*
X154252121Y-126040395D01*
X154384012Y-126040395D01*
X154384012Y-126169600D01*
X153955366Y-126169600D01*
X153955366Y-126040395D01*
X154095317Y-126040395D01*
X154095317Y-125559969D01*
X154252121Y-125559969D01*
X154402575Y-125559969D01*
X154455181Y-125557207D01*
X154503934Y-125547656D01*
X154548963Y-125527191D01*
X154552052Y-125525043D01*
X154585444Y-125485085D01*
X154599183Y-125435878D01*
X154600900Y-125406096D01*
X154594512Y-125357633D01*
X154570910Y-125314724D01*
X154555471Y-125300828D01*
X154510011Y-125279005D01*
X154457881Y-125269229D01*
X154412100Y-125267122D01*
X154252121Y-125267122D01*
X154252121Y-125559969D01*
X154095317Y-125559969D01*
X154095317Y-125267122D01*
X153955366Y-125267122D01*
X153955366Y-125137918D01*
X154385234Y-125137918D01*
X154445020Y-125139510D01*
G37*
G36*
X155948388Y-125434917D02*
G01*
X155948388Y-125267122D01*
X155560286Y-125267122D01*
X155560286Y-125575601D01*
X155894654Y-125575601D01*
X155894654Y-125704805D01*
X155560286Y-125704805D01*
X155560286Y-126040395D01*
X155692177Y-126040395D01*
X155692177Y-126169600D01*
X155273056Y-126169600D01*
X155273056Y-126040395D01*
X155403482Y-126040395D01*
X155403482Y-125267122D01*
X155273056Y-125267122D01*
X155273056Y-125137918D01*
X156076127Y-125137918D01*
X156076127Y-125434917D01*
X155948388Y-125434917D01*
G37*
G36*
X156377278Y-125878462D02*
G01*
X156377278Y-126043082D01*
X156534571Y-126043082D01*
X156534571Y-126169600D01*
X156091514Y-126169600D01*
X156091514Y-126043082D01*
X156236350Y-126043082D01*
X156236350Y-125577555D01*
X156091514Y-125577555D01*
X156091514Y-125450549D01*
X156348946Y-125450549D01*
X156348946Y-125608818D01*
X156371874Y-125563893D01*
X156400807Y-125522146D01*
X156436852Y-125486683D01*
X156456413Y-125473263D01*
X156501975Y-125453042D01*
X156552239Y-125441246D01*
X156604282Y-125435853D01*
X156640328Y-125434917D01*
X156672568Y-125434917D01*
X156672568Y-125578532D01*
X156641793Y-125578532D01*
X156587724Y-125580440D01*
X156535728Y-125587148D01*
X156484875Y-125601907D01*
X156469846Y-125609062D01*
X156430452Y-125638829D01*
X156402001Y-125682427D01*
X156395352Y-125700897D01*
X156385062Y-125749648D01*
X156379820Y-125799110D01*
X156377561Y-125850309D01*
X156377278Y-125878462D01*
G37*
G36*
X157095810Y-125438107D02*
G01*
X157145300Y-125447679D01*
X157192286Y-125463631D01*
X157236769Y-125485964D01*
X157277786Y-125513670D01*
X157318348Y-125550058D01*
X157352997Y-125591972D01*
X157372812Y-125622984D01*
X157394504Y-125666826D01*
X157411499Y-125718483D01*
X157420650Y-125772613D01*
X157422394Y-125810074D01*
X157419249Y-125860648D01*
X157409815Y-125909053D01*
X157391684Y-125960919D01*
X157372079Y-125999362D01*
X157344770Y-126039998D01*
X157308609Y-126080386D01*
X157266692Y-126115131D01*
X157235548Y-126135161D01*
X157191141Y-126157067D01*
X157144384Y-126172714D01*
X157095276Y-126182102D01*
X157043817Y-126185231D01*
X156990923Y-126182102D01*
X156940686Y-126172714D01*
X156893104Y-126157067D01*
X156848179Y-126135161D01*
X156806993Y-126107898D01*
X156766425Y-126071898D01*
X156731963Y-126030257D01*
X156712380Y-125999362D01*
X156691222Y-125955292D01*
X156674645Y-125903121D01*
X156666334Y-125854444D01*
X156664019Y-125810074D01*
X156813252Y-125810074D01*
X156818210Y-125859943D01*
X156833084Y-125907152D01*
X156843294Y-125928043D01*
X156871731Y-125968945D01*
X156907826Y-126002349D01*
X156927069Y-126015238D01*
X156972299Y-126035954D01*
X157020674Y-126046109D01*
X157044061Y-126047234D01*
X157093568Y-126041953D01*
X157143096Y-126024456D01*
X157159832Y-126015238D01*
X157199026Y-125985415D01*
X157232579Y-125945184D01*
X157242387Y-125928776D01*
X157261521Y-125883028D01*
X157270901Y-125833893D01*
X157271940Y-125810074D01*
X157267062Y-125760484D01*
X157252430Y-125713715D01*
X157242387Y-125693082D01*
X157214505Y-125652375D01*
X157178883Y-125618763D01*
X157159832Y-125605643D01*
X157115033Y-125584136D01*
X157066364Y-125573594D01*
X157042596Y-125572426D01*
X156992891Y-125577787D01*
X156946572Y-125593870D01*
X156926336Y-125604910D01*
X156887180Y-125635012D01*
X156855441Y-125672531D01*
X156843294Y-125692349D01*
X156823843Y-125738290D01*
X156814308Y-125786810D01*
X156813252Y-125810074D01*
X156664019Y-125810074D01*
X156667042Y-125757424D01*
X156676109Y-125707675D01*
X156691222Y-125660826D01*
X156712380Y-125616878D01*
X156742714Y-125571847D01*
X156779038Y-125532651D01*
X156821351Y-125499290D01*
X156847446Y-125483277D01*
X156892142Y-125462120D01*
X156939770Y-125447007D01*
X156990328Y-125437940D01*
X157043817Y-125434917D01*
X157095810Y-125438107D01*
G37*
G36*
X158212519Y-125682091D02*
G01*
X158212519Y-126043082D01*
X158333419Y-126043082D01*
X158333419Y-126169600D01*
X158070370Y-126169600D01*
X158070370Y-125690395D01*
X158067145Y-125641239D01*
X158052032Y-125594339D01*
X158050830Y-125592454D01*
X158009746Y-125565013D01*
X157986594Y-125562656D01*
X157937746Y-125568533D01*
X157885966Y-125586164D01*
X157838255Y-125611234D01*
X157795574Y-125639885D01*
X157773615Y-125656690D01*
X157773615Y-126043082D01*
X157897934Y-126043082D01*
X157897934Y-126169600D01*
X157506169Y-126169600D01*
X157506169Y-126043082D01*
X157633419Y-126043082D01*
X157633419Y-125577555D01*
X157506169Y-125577555D01*
X157506169Y-125450549D01*
X157773615Y-125450549D01*
X157773615Y-125532126D01*
X157814672Y-125504121D01*
X157862918Y-125476781D01*
X157910047Y-125456276D01*
X157963620Y-125440993D01*
X158015674Y-125435012D01*
X158022987Y-125434917D01*
X158073412Y-125439670D01*
X158120104Y-125456099D01*
X158160116Y-125487725D01*
X158166113Y-125495001D01*
X158190585Y-125539088D01*
X158204860Y-125589943D01*
X158211386Y-125644035D01*
X158212519Y-125682091D01*
G37*
G36*
X158770370Y-125450549D02*
G01*
X158770370Y-125577555D01*
X158638479Y-125577555D01*
X158638479Y-125956375D01*
X158642063Y-126007458D01*
X158651179Y-126033068D01*
X158694899Y-126050653D01*
X158744372Y-126045078D01*
X158770370Y-126037708D01*
X158770370Y-126165936D01*
X158720981Y-126178429D01*
X158671705Y-126185061D01*
X158663880Y-126185231D01*
X158613028Y-126180842D01*
X158564851Y-126163990D01*
X158535408Y-126140290D01*
X158511594Y-126097403D01*
X158500146Y-126047915D01*
X158496367Y-125992690D01*
X158496329Y-125985929D01*
X158496329Y-125577555D01*
X158402052Y-125577555D01*
X158402052Y-125450549D01*
X158496329Y-125450549D01*
X158496329Y-125343326D01*
X158638479Y-125216075D01*
X158638479Y-125450549D01*
X158770370Y-125450549D01*
G37*
G36*
X159297446Y-125438062D02*
G01*
X159348981Y-125447496D01*
X159396853Y-125463219D01*
X159441061Y-125485231D01*
X159481284Y-125512968D01*
X159521099Y-125550631D01*
X159551656Y-125589851D01*
X159574661Y-125628602D01*
X159596292Y-125677374D01*
X159612336Y-125730390D01*
X159621791Y-125780260D01*
X159626969Y-125833379D01*
X159627662Y-125849153D01*
X159022428Y-125849153D01*
X159034018Y-125901510D01*
X159054225Y-125947298D01*
X159086783Y-125990470D01*
X159102784Y-126005468D01*
X159143079Y-126033214D01*
X159193426Y-126053393D01*
X159243754Y-126061969D01*
X159267648Y-126062865D01*
X159319844Y-126058916D01*
X159369085Y-126047066D01*
X159400272Y-126034777D01*
X159443286Y-126009453D01*
X159480735Y-125975610D01*
X159502610Y-125948315D01*
X159627662Y-126003270D01*
X159595804Y-126045570D01*
X159559335Y-126082344D01*
X159518257Y-126113592D01*
X159472568Y-126139313D01*
X159423643Y-126159402D01*
X159372612Y-126173752D01*
X159319473Y-126182361D01*
X159264229Y-126185231D01*
X159214390Y-126182940D01*
X159160466Y-126174712D01*
X159109778Y-126160500D01*
X159062326Y-126140305D01*
X159056622Y-126137359D01*
X159013819Y-126110951D01*
X158976022Y-126079840D01*
X158939486Y-126039221D01*
X158915450Y-126003514D01*
X158893438Y-125959184D01*
X158877715Y-125912168D01*
X158868281Y-125862464D01*
X158865136Y-125810074D01*
X158868250Y-125758020D01*
X158870229Y-125747548D01*
X159026581Y-125747548D01*
X159478674Y-125747548D01*
X159463892Y-125700950D01*
X159439220Y-125655565D01*
X159405865Y-125616906D01*
X159394166Y-125606620D01*
X159351910Y-125578413D01*
X159305742Y-125560652D01*
X159255663Y-125553339D01*
X159245178Y-125553131D01*
X159192132Y-125559451D01*
X159143819Y-125578413D01*
X159104006Y-125606620D01*
X159070522Y-125643261D01*
X159045483Y-125686628D01*
X159028887Y-125736722D01*
X159026581Y-125747548D01*
X158870229Y-125747548D01*
X158877592Y-125708591D01*
X158893163Y-125661788D01*
X158914962Y-125617611D01*
X158942164Y-125576975D01*
X158978241Y-125536879D01*
X159020114Y-125502734D01*
X159051249Y-125483277D01*
X159095701Y-125462120D01*
X159142352Y-125447007D01*
X159191200Y-125437940D01*
X159242247Y-125434917D01*
X159297446Y-125438062D01*
G37*
G36*
X160417544Y-125682091D02*
G01*
X160417544Y-126043082D01*
X160538444Y-126043082D01*
X160538444Y-126169600D01*
X160275394Y-126169600D01*
X160275394Y-125690395D01*
X160272169Y-125641239D01*
X160257057Y-125594339D01*
X160255855Y-125592454D01*
X160214771Y-125565013D01*
X160191619Y-125562656D01*
X160142770Y-125568533D01*
X160090991Y-125586164D01*
X160043280Y-125611234D01*
X160000598Y-125639885D01*
X159978639Y-125656690D01*
X159978639Y-126043082D01*
X160102959Y-126043082D01*
X160102959Y-126169600D01*
X159711193Y-126169600D01*
X159711193Y-126043082D01*
X159838444Y-126043082D01*
X159838444Y-125577555D01*
X159711193Y-125577555D01*
X159711193Y-125450549D01*
X159978639Y-125450549D01*
X159978639Y-125532126D01*
X160019697Y-125504121D01*
X160067942Y-125476781D01*
X160115071Y-125456276D01*
X160168645Y-125440993D01*
X160220699Y-125435012D01*
X160228011Y-125434917D01*
X160278436Y-125439670D01*
X160325129Y-125456099D01*
X160365140Y-125487725D01*
X160371137Y-125495001D01*
X160395609Y-125539088D01*
X160409885Y-125589943D01*
X160416411Y-125644035D01*
X160417544Y-125682091D01*
G37*
G36*
X161366915Y-126030625D02*
G01*
X161497341Y-126030625D01*
X161497341Y-126169600D01*
X161225987Y-126169600D01*
X161225987Y-126054317D01*
X161183844Y-126093495D01*
X161138747Y-126124567D01*
X161090696Y-126147534D01*
X161039691Y-126162394D01*
X160985733Y-126169149D01*
X160967090Y-126169600D01*
X160916348Y-126166608D01*
X160862914Y-126156089D01*
X160813343Y-126137997D01*
X160782442Y-126121728D01*
X160740318Y-126092076D01*
X160703797Y-126056976D01*
X160672879Y-126016428D01*
X160658123Y-125991546D01*
X160636753Y-125943757D01*
X160622376Y-125893264D01*
X160614994Y-125840065D01*
X160613915Y-125809341D01*
X160614159Y-125805189D01*
X160764368Y-125805189D01*
X160768627Y-125853893D01*
X160782854Y-125902469D01*
X160794654Y-125926822D01*
X160822850Y-125967048D01*
X160861238Y-126001803D01*
X160876964Y-126012063D01*
X160925036Y-126033267D01*
X160973861Y-126042324D01*
X160993712Y-126043082D01*
X161045157Y-126037519D01*
X161092328Y-126020831D01*
X161112659Y-126009376D01*
X161151933Y-125978282D01*
X161183628Y-125939771D01*
X161195701Y-125919495D01*
X161215310Y-125872562D01*
X161224923Y-125823049D01*
X161225987Y-125799327D01*
X161220989Y-125748593D01*
X161205994Y-125701567D01*
X161195701Y-125681114D01*
X161167382Y-125641204D01*
X161128139Y-125606609D01*
X161111926Y-125596362D01*
X161066168Y-125576278D01*
X161015815Y-125566433D01*
X160991026Y-125565343D01*
X160940338Y-125570865D01*
X160894245Y-125587432D01*
X160874522Y-125598804D01*
X160833970Y-125632076D01*
X160803682Y-125670507D01*
X160793922Y-125687220D01*
X160774787Y-125733319D01*
X160765407Y-125781916D01*
X160764368Y-125805189D01*
X160614159Y-125805189D01*
X160616846Y-125759424D01*
X160627150Y-125705676D01*
X160644873Y-125654478D01*
X160660809Y-125621763D01*
X160690165Y-125576322D01*
X160725201Y-125536446D01*
X160765917Y-125502133D01*
X160790991Y-125485475D01*
X160838922Y-125461035D01*
X160889016Y-125444594D01*
X160941275Y-125436151D01*
X160971242Y-125434917D01*
X161022636Y-125438798D01*
X161072038Y-125450442D01*
X161103866Y-125462516D01*
X161150577Y-125487464D01*
X161192431Y-125518116D01*
X161225987Y-125548734D01*
X161225987Y-125262970D01*
X161086525Y-125262970D01*
X161086525Y-125137918D01*
X161366915Y-125137918D01*
X161366915Y-126030625D01*
G37*
X128543207Y-92579819D02*
X128209874Y-92103628D01*
X127971779Y-92579819D02*
X127971779Y-91579819D01*
X127971779Y-91579819D02*
X128352731Y-91579819D01*
X128352731Y-91579819D02*
X128447969Y-91627438D01*
X128447969Y-91627438D02*
X128495588Y-91675057D01*
X128495588Y-91675057D02*
X128543207Y-91770295D01*
X128543207Y-91770295D02*
X128543207Y-91913152D01*
X128543207Y-91913152D02*
X128495588Y-92008390D01*
X128495588Y-92008390D02*
X128447969Y-92056009D01*
X128447969Y-92056009D02*
X128352731Y-92103628D01*
X128352731Y-92103628D02*
X127971779Y-92103628D01*
X129305112Y-92056009D02*
X128971779Y-92056009D01*
X128971779Y-92579819D02*
X128971779Y-91579819D01*
X128971779Y-91579819D02*
X129447969Y-91579819D01*
X130590827Y-92579819D02*
X130590827Y-91579819D01*
X131067017Y-91913152D02*
X131067017Y-92579819D01*
X131067017Y-92008390D02*
X131114636Y-91960771D01*
X131114636Y-91960771D02*
X131209874Y-91913152D01*
X131209874Y-91913152D02*
X131352731Y-91913152D01*
X131352731Y-91913152D02*
X131447969Y-91960771D01*
X131447969Y-91960771D02*
X131495588Y-92056009D01*
X131495588Y-92056009D02*
X131495588Y-92579819D01*
X183883445Y-109185057D02*
X183788207Y-109137438D01*
X183788207Y-109137438D02*
X183692969Y-109042200D01*
X183692969Y-109042200D02*
X183550112Y-108899342D01*
X183550112Y-108899342D02*
X183454874Y-108851723D01*
X183454874Y-108851723D02*
X183359636Y-108851723D01*
X183407255Y-109089819D02*
X183312017Y-109042200D01*
X183312017Y-109042200D02*
X183216779Y-108946961D01*
X183216779Y-108946961D02*
X183169160Y-108756485D01*
X183169160Y-108756485D02*
X183169160Y-108423152D01*
X183169160Y-108423152D02*
X183216779Y-108232676D01*
X183216779Y-108232676D02*
X183312017Y-108137438D01*
X183312017Y-108137438D02*
X183407255Y-108089819D01*
X183407255Y-108089819D02*
X183597731Y-108089819D01*
X183597731Y-108089819D02*
X183692969Y-108137438D01*
X183692969Y-108137438D02*
X183788207Y-108232676D01*
X183788207Y-108232676D02*
X183835826Y-108423152D01*
X183835826Y-108423152D02*
X183835826Y-108756485D01*
X183835826Y-108756485D02*
X183788207Y-108946961D01*
X183788207Y-108946961D02*
X183692969Y-109042200D01*
X183692969Y-109042200D02*
X183597731Y-109089819D01*
X183597731Y-109089819D02*
X183407255Y-109089819D01*
X184264398Y-108708866D02*
X185026303Y-108708866D01*
X185645350Y-109089819D02*
X185550112Y-109042200D01*
X185550112Y-109042200D02*
X185502493Y-108994580D01*
X185502493Y-108994580D02*
X185454874Y-108899342D01*
X185454874Y-108899342D02*
X185454874Y-108613628D01*
X185454874Y-108613628D02*
X185502493Y-108518390D01*
X185502493Y-108518390D02*
X185550112Y-108470771D01*
X185550112Y-108470771D02*
X185645350Y-108423152D01*
X185645350Y-108423152D02*
X185788207Y-108423152D01*
X185788207Y-108423152D02*
X185883445Y-108470771D01*
X185883445Y-108470771D02*
X185931064Y-108518390D01*
X185931064Y-108518390D02*
X185978683Y-108613628D01*
X185978683Y-108613628D02*
X185978683Y-108899342D01*
X185978683Y-108899342D02*
X185931064Y-108994580D01*
X185931064Y-108994580D02*
X185883445Y-109042200D01*
X185883445Y-109042200D02*
X185788207Y-109089819D01*
X185788207Y-109089819D02*
X185645350Y-109089819D01*
X186835826Y-108423152D02*
X186835826Y-109089819D01*
X186407255Y-108423152D02*
X186407255Y-108946961D01*
X186407255Y-108946961D02*
X186454874Y-109042200D01*
X186454874Y-109042200D02*
X186550112Y-109089819D01*
X186550112Y-109089819D02*
X186692969Y-109089819D01*
X186692969Y-109089819D02*
X186788207Y-109042200D01*
X186788207Y-109042200D02*
X186835826Y-108994580D01*
X187169160Y-108423152D02*
X187550112Y-108423152D01*
X187312017Y-108089819D02*
X187312017Y-108946961D01*
X187312017Y-108946961D02*
X187359636Y-109042200D01*
X187359636Y-109042200D02*
X187454874Y-109089819D01*
X187454874Y-109089819D02*
X187550112Y-109089819D01*
D10*
X187708217Y-134732895D02*
X187327265Y-134732895D01*
X187327265Y-134732895D02*
X187289169Y-135113847D01*
X187289169Y-135113847D02*
X187327265Y-135075752D01*
X187327265Y-135075752D02*
X187403455Y-135037657D01*
X187403455Y-135037657D02*
X187593931Y-135037657D01*
X187593931Y-135037657D02*
X187670122Y-135075752D01*
X187670122Y-135075752D02*
X187708217Y-135113847D01*
X187708217Y-135113847D02*
X187746312Y-135190038D01*
X187746312Y-135190038D02*
X187746312Y-135380514D01*
X187746312Y-135380514D02*
X187708217Y-135456704D01*
X187708217Y-135456704D02*
X187670122Y-135494800D01*
X187670122Y-135494800D02*
X187593931Y-135532895D01*
X187593931Y-135532895D02*
X187403455Y-135532895D01*
X187403455Y-135532895D02*
X187327265Y-135494800D01*
X187327265Y-135494800D02*
X187289169Y-135456704D01*
X187974884Y-134732895D02*
X188241551Y-135532895D01*
X188241551Y-135532895D02*
X188508217Y-134732895D01*
X170515646Y-91201419D02*
X171134693Y-91201419D01*
X171134693Y-91201419D02*
X170801360Y-91582371D01*
X170801360Y-91582371D02*
X170944217Y-91582371D01*
X170944217Y-91582371D02*
X171039455Y-91629990D01*
X171039455Y-91629990D02*
X171087074Y-91677609D01*
X171087074Y-91677609D02*
X171134693Y-91772847D01*
X171134693Y-91772847D02*
X171134693Y-92010942D01*
X171134693Y-92010942D02*
X171087074Y-92106180D01*
X171087074Y-92106180D02*
X171039455Y-92153800D01*
X171039455Y-92153800D02*
X170944217Y-92201419D01*
X170944217Y-92201419D02*
X170658503Y-92201419D01*
X170658503Y-92201419D02*
X170563265Y-92153800D01*
X170563265Y-92153800D02*
X170515646Y-92106180D01*
X171468027Y-91534752D02*
X171706122Y-92201419D01*
X171706122Y-92201419D02*
X171944217Y-91534752D01*
X172229932Y-91201419D02*
X172848979Y-91201419D01*
X172848979Y-91201419D02*
X172515646Y-91582371D01*
X172515646Y-91582371D02*
X172658503Y-91582371D01*
X172658503Y-91582371D02*
X172753741Y-91629990D01*
X172753741Y-91629990D02*
X172801360Y-91677609D01*
X172801360Y-91677609D02*
X172848979Y-91772847D01*
X172848979Y-91772847D02*
X172848979Y-92010942D01*
X172848979Y-92010942D02*
X172801360Y-92106180D01*
X172801360Y-92106180D02*
X172753741Y-92153800D01*
X172753741Y-92153800D02*
X172658503Y-92201419D01*
X172658503Y-92201419D02*
X172372789Y-92201419D01*
X172372789Y-92201419D02*
X172277551Y-92153800D01*
X172277551Y-92153800D02*
X172229932Y-92106180D01*
D11*
X128447969Y-103669875D02*
X127971779Y-103669875D01*
X127971779Y-103669875D02*
X127971779Y-102669875D01*
X128971779Y-102669875D02*
X129162255Y-102669875D01*
X129162255Y-102669875D02*
X129257493Y-102717494D01*
X129257493Y-102717494D02*
X129352731Y-102812732D01*
X129352731Y-102812732D02*
X129400350Y-103003208D01*
X129400350Y-103003208D02*
X129400350Y-103336541D01*
X129400350Y-103336541D02*
X129352731Y-103527017D01*
X129352731Y-103527017D02*
X129257493Y-103622256D01*
X129257493Y-103622256D02*
X129162255Y-103669875D01*
X129162255Y-103669875D02*
X128971779Y-103669875D01*
X128971779Y-103669875D02*
X128876541Y-103622256D01*
X128876541Y-103622256D02*
X128781303Y-103527017D01*
X128781303Y-103527017D02*
X128733684Y-103336541D01*
X128733684Y-103336541D02*
X128733684Y-103003208D01*
X128733684Y-103003208D02*
X128781303Y-102812732D01*
X128781303Y-102812732D02*
X128876541Y-102717494D01*
X128876541Y-102717494D02*
X128971779Y-102669875D01*
X128257493Y-105660771D02*
X128209874Y-105613152D01*
X128209874Y-105613152D02*
X128114636Y-105470295D01*
X128114636Y-105470295D02*
X128067017Y-105375057D01*
X128067017Y-105375057D02*
X128019398Y-105232200D01*
X128019398Y-105232200D02*
X127971779Y-104994104D01*
X127971779Y-104994104D02*
X127971779Y-104803628D01*
X127971779Y-104803628D02*
X128019398Y-104565533D01*
X128019398Y-104565533D02*
X128067017Y-104422676D01*
X128067017Y-104422676D02*
X128114636Y-104327438D01*
X128114636Y-104327438D02*
X128209874Y-104184580D01*
X128209874Y-104184580D02*
X128257493Y-104136961D01*
X129209874Y-105184580D02*
X129162255Y-105232200D01*
X129162255Y-105232200D02*
X129019398Y-105279819D01*
X129019398Y-105279819D02*
X128924160Y-105279819D01*
X128924160Y-105279819D02*
X128781303Y-105232200D01*
X128781303Y-105232200D02*
X128686065Y-105136961D01*
X128686065Y-105136961D02*
X128638446Y-105041723D01*
X128638446Y-105041723D02*
X128590827Y-104851247D01*
X128590827Y-104851247D02*
X128590827Y-104708390D01*
X128590827Y-104708390D02*
X128638446Y-104517914D01*
X128638446Y-104517914D02*
X128686065Y-104422676D01*
X128686065Y-104422676D02*
X128781303Y-104327438D01*
X128781303Y-104327438D02*
X128924160Y-104279819D01*
X128924160Y-104279819D02*
X129019398Y-104279819D01*
X129019398Y-104279819D02*
X129162255Y-104327438D01*
X129162255Y-104327438D02*
X129209874Y-104375057D01*
X130114636Y-105279819D02*
X129638446Y-105279819D01*
X129638446Y-105279819D02*
X129638446Y-104279819D01*
X130447970Y-105279819D02*
X130447970Y-104279819D01*
X131019398Y-105279819D02*
X130590827Y-104708390D01*
X131019398Y-104279819D02*
X130447970Y-104851247D01*
X131638446Y-104279819D02*
X131733684Y-104279819D01*
X131733684Y-104279819D02*
X131828922Y-104327438D01*
X131828922Y-104327438D02*
X131876541Y-104375057D01*
X131876541Y-104375057D02*
X131924160Y-104470295D01*
X131924160Y-104470295D02*
X131971779Y-104660771D01*
X131971779Y-104660771D02*
X131971779Y-104898866D01*
X131971779Y-104898866D02*
X131924160Y-105089342D01*
X131924160Y-105089342D02*
X131876541Y-105184580D01*
X131876541Y-105184580D02*
X131828922Y-105232200D01*
X131828922Y-105232200D02*
X131733684Y-105279819D01*
X131733684Y-105279819D02*
X131638446Y-105279819D01*
X131638446Y-105279819D02*
X131543208Y-105232200D01*
X131543208Y-105232200D02*
X131495589Y-105184580D01*
X131495589Y-105184580D02*
X131447970Y-105089342D01*
X131447970Y-105089342D02*
X131400351Y-104898866D01*
X131400351Y-104898866D02*
X131400351Y-104660771D01*
X131400351Y-104660771D02*
X131447970Y-104470295D01*
X131447970Y-104470295D02*
X131495589Y-104375057D01*
X131495589Y-104375057D02*
X131543208Y-104327438D01*
X131543208Y-104327438D02*
X131638446Y-104279819D01*
X132305113Y-105660771D02*
X132352732Y-105613152D01*
X132352732Y-105613152D02*
X132447970Y-105470295D01*
X132447970Y-105470295D02*
X132495589Y-105375057D01*
X132495589Y-105375057D02*
X132543208Y-105232200D01*
X132543208Y-105232200D02*
X132590827Y-104994104D01*
X132590827Y-104994104D02*
X132590827Y-104803628D01*
X132590827Y-104803628D02*
X132543208Y-104565533D01*
X132543208Y-104565533D02*
X132495589Y-104422676D01*
X132495589Y-104422676D02*
X132447970Y-104327438D01*
X132447970Y-104327438D02*
X132352732Y-104184580D01*
X132352732Y-104184580D02*
X132305113Y-104136961D01*
X183216779Y-97659819D02*
X183216779Y-96659819D01*
X183692969Y-97278866D02*
X184454874Y-97278866D01*
X185073921Y-97659819D02*
X184978683Y-97612200D01*
X184978683Y-97612200D02*
X184931064Y-97564580D01*
X184931064Y-97564580D02*
X184883445Y-97469342D01*
X184883445Y-97469342D02*
X184883445Y-97183628D01*
X184883445Y-97183628D02*
X184931064Y-97088390D01*
X184931064Y-97088390D02*
X184978683Y-97040771D01*
X184978683Y-97040771D02*
X185073921Y-96993152D01*
X185073921Y-96993152D02*
X185216778Y-96993152D01*
X185216778Y-96993152D02*
X185312016Y-97040771D01*
X185312016Y-97040771D02*
X185359635Y-97088390D01*
X185359635Y-97088390D02*
X185407254Y-97183628D01*
X185407254Y-97183628D02*
X185407254Y-97469342D01*
X185407254Y-97469342D02*
X185359635Y-97564580D01*
X185359635Y-97564580D02*
X185312016Y-97612200D01*
X185312016Y-97612200D02*
X185216778Y-97659819D01*
X185216778Y-97659819D02*
X185073921Y-97659819D01*
X186264397Y-96993152D02*
X186264397Y-97659819D01*
X185835826Y-96993152D02*
X185835826Y-97516961D01*
X185835826Y-97516961D02*
X185883445Y-97612200D01*
X185883445Y-97612200D02*
X185978683Y-97659819D01*
X185978683Y-97659819D02*
X186121540Y-97659819D01*
X186121540Y-97659819D02*
X186216778Y-97612200D01*
X186216778Y-97612200D02*
X186264397Y-97564580D01*
X186597731Y-96993152D02*
X186978683Y-96993152D01*
X186740588Y-96659819D02*
X186740588Y-97516961D01*
X186740588Y-97516961D02*
X186788207Y-97612200D01*
X186788207Y-97612200D02*
X186883445Y-97659819D01*
X186883445Y-97659819D02*
X186978683Y-97659819D01*
D12*
G36*
X144967797Y-97462437D02*
G01*
X145133110Y-97473895D01*
X145307708Y-97496917D01*
X145462633Y-97530337D01*
X145579769Y-97567257D01*
X145731904Y-97636953D01*
X145870054Y-97735566D01*
X145975689Y-97856466D01*
X146001039Y-97897083D01*
X146068221Y-98049856D01*
X146107411Y-98211368D01*
X146125326Y-98374034D01*
X146128436Y-98484829D01*
X146118627Y-98649363D01*
X146082387Y-98826039D01*
X146019443Y-98986259D01*
X145929796Y-99130023D01*
X145849413Y-99222637D01*
X145708828Y-99332801D01*
X145558857Y-99406092D01*
X145381683Y-99459874D01*
X145213258Y-99489790D01*
X145025943Y-99506158D01*
X144904487Y-99509476D01*
X144469148Y-99509476D01*
X144469148Y-100346545D01*
X144899797Y-100346545D01*
X144899797Y-100760000D01*
X143554703Y-100760000D01*
X143554703Y-100346545D01*
X143967376Y-100346545D01*
X143967376Y-99109309D01*
X144469148Y-99109309D01*
X144778653Y-99109309D01*
X144940783Y-99104857D01*
X145098014Y-99089470D01*
X145254855Y-99056497D01*
X145266357Y-99053035D01*
X145416349Y-98982247D01*
X145529018Y-98866988D01*
X145534438Y-98858422D01*
X145596147Y-98705030D01*
X145618312Y-98548190D01*
X145620411Y-98473886D01*
X145605944Y-98311702D01*
X145555936Y-98162530D01*
X145459669Y-98036173D01*
X145437522Y-98017445D01*
X145298365Y-97940784D01*
X145129792Y-97896064D01*
X144970298Y-97877183D01*
X144813824Y-97872072D01*
X144469148Y-97872072D01*
X144469148Y-99109309D01*
X143967376Y-99109309D01*
X143967376Y-97872072D01*
X143554703Y-97872072D01*
X143554703Y-97458618D01*
X144788032Y-97458618D01*
X144967797Y-97462437D01*
G37*
G36*
X147945603Y-98409016D02*
G01*
X148131136Y-98425845D01*
X148285223Y-98476335D01*
X148428618Y-98581353D01*
X148526730Y-98734842D01*
X148573900Y-98899774D01*
X148588994Y-99055955D01*
X148589623Y-99098367D01*
X148589623Y-100355143D01*
X148981193Y-100355143D01*
X148981193Y-100760000D01*
X148134745Y-100760000D01*
X148134745Y-99263279D01*
X148124633Y-99099661D01*
X148079693Y-98945104D01*
X148062840Y-98917822D01*
X147928103Y-98827550D01*
X147842435Y-98817780D01*
X147669771Y-98846403D01*
X147510207Y-98910516D01*
X147354961Y-98996669D01*
X147210283Y-99092840D01*
X147185129Y-99110872D01*
X147185129Y-100355143D01*
X147585296Y-100355143D01*
X147585296Y-100760000D01*
X146316796Y-100760000D01*
X146316796Y-100355143D01*
X146730251Y-100355143D01*
X146730251Y-97858785D01*
X146316796Y-97858785D01*
X146316796Y-97458618D01*
X147185129Y-97458618D01*
X147185129Y-98738060D01*
X147311475Y-98643267D01*
X147459413Y-98550723D01*
X147603339Y-98481315D01*
X147766182Y-98429581D01*
X147923566Y-98409337D01*
X147945603Y-98409016D01*
G37*
G36*
X150392065Y-98416352D02*
G01*
X150562452Y-98443456D01*
X150727964Y-98498887D01*
X150862309Y-98580403D01*
X150904654Y-98617697D01*
X151008553Y-98754183D01*
X151072361Y-98907580D01*
X151106154Y-99066566D01*
X151119378Y-99248665D01*
X151119588Y-99276566D01*
X151119588Y-100355143D01*
X151506469Y-100355143D01*
X151506469Y-100760000D01*
X150719420Y-100760000D01*
X150719420Y-100491919D01*
X150593125Y-100600023D01*
X150461610Y-100685762D01*
X150301577Y-100757521D01*
X150134437Y-100798837D01*
X149985519Y-100810020D01*
X149818089Y-100794026D01*
X149662527Y-100746041D01*
X149594731Y-100713105D01*
X149462694Y-100622891D01*
X149346178Y-100501502D01*
X149311018Y-100452058D01*
X149238356Y-100302395D01*
X149206385Y-100139269D01*
X149204724Y-100090188D01*
X149637718Y-100090188D01*
X149669923Y-100244375D01*
X149751828Y-100355143D01*
X149892209Y-100437471D01*
X150046482Y-100460655D01*
X150211102Y-100443754D01*
X150370446Y-100393049D01*
X150524515Y-100308541D01*
X150654997Y-100206867D01*
X150673307Y-100190230D01*
X150673307Y-99928401D01*
X150543370Y-99841303D01*
X150394870Y-99767957D01*
X150227808Y-99718841D01*
X150079309Y-99704870D01*
X149921429Y-99729085D01*
X149776495Y-99808293D01*
X149768241Y-99815073D01*
X149670348Y-99938562D01*
X149637718Y-100090188D01*
X149204724Y-100090188D01*
X149224073Y-99923929D01*
X149282118Y-99773148D01*
X149321960Y-99708778D01*
X149431394Y-99585017D01*
X149567916Y-99486795D01*
X149640062Y-99450076D01*
X149790455Y-99394829D01*
X149954124Y-99363752D01*
X150042575Y-99359413D01*
X150208904Y-99371577D01*
X150369469Y-99408066D01*
X150524270Y-99468883D01*
X150673307Y-99554026D01*
X150673307Y-99302358D01*
X150662087Y-99146165D01*
X150613954Y-98988756D01*
X150558415Y-98910006D01*
X150419151Y-98824735D01*
X150261248Y-98794107D01*
X150183258Y-98791207D01*
X150022997Y-98806491D01*
X149873754Y-98860767D01*
X149747551Y-98961774D01*
X149668199Y-99071793D01*
X149232861Y-98962372D01*
X149324051Y-98816674D01*
X149431439Y-98693479D01*
X149555025Y-98592788D01*
X149630683Y-98546573D01*
X149779288Y-98480078D01*
X149942853Y-98435345D01*
X150100805Y-98413852D01*
X150227027Y-98409016D01*
X150392065Y-98416352D01*
G37*
G36*
X153150125Y-98538757D02*
G01*
X153150125Y-98459036D01*
X153545603Y-98459036D01*
X153545603Y-99209351D01*
X153150125Y-99209351D01*
X153150125Y-99067885D01*
X153042170Y-98943077D01*
X152898999Y-98845292D01*
X152732830Y-98792639D01*
X152609274Y-98782609D01*
X152445729Y-98802930D01*
X152314619Y-98863893D01*
X152213993Y-98990775D01*
X152200509Y-99073356D01*
X152253460Y-99220856D01*
X152287264Y-99251556D01*
X152440542Y-99315239D01*
X152604841Y-99351744D01*
X152677271Y-99364103D01*
X152982868Y-99424284D01*
X153143152Y-99462557D01*
X153313454Y-99529014D01*
X153450364Y-99616155D01*
X153570577Y-99748028D01*
X153642705Y-99909686D01*
X153666080Y-100067154D01*
X153666748Y-100101130D01*
X153647149Y-100271428D01*
X153588355Y-100421818D01*
X153490364Y-100552301D01*
X153418988Y-100616189D01*
X153285387Y-100700990D01*
X153131563Y-100761563D01*
X152957515Y-100797906D01*
X152788634Y-100809831D01*
X152763245Y-100810020D01*
X152602044Y-100797906D01*
X152443579Y-100761563D01*
X152291222Y-100703459D01*
X152180970Y-100641200D01*
X152180970Y-100760000D01*
X151776113Y-100760000D01*
X151776113Y-99959665D01*
X152180970Y-99959665D01*
X152180970Y-100042512D01*
X152238019Y-100190798D01*
X152347620Y-100308859D01*
X152366203Y-100322316D01*
X152509669Y-100394444D01*
X152671983Y-100426181D01*
X152721821Y-100427829D01*
X152886562Y-100414672D01*
X153037859Y-100366793D01*
X153071186Y-100348108D01*
X153177557Y-100226162D01*
X153198583Y-100111290D01*
X153131508Y-99964797D01*
X153096978Y-99941688D01*
X152944961Y-99884438D01*
X152781057Y-99843945D01*
X152690558Y-99825233D01*
X152455303Y-99774431D01*
X152292295Y-99732519D01*
X152136822Y-99670186D01*
X151998733Y-99582076D01*
X151943370Y-99530579D01*
X151850814Y-99400561D01*
X151796678Y-99248008D01*
X151780802Y-99089769D01*
X151800538Y-98923679D01*
X151859744Y-98778485D01*
X151900383Y-98718520D01*
X152009142Y-98606060D01*
X152139830Y-98518882D01*
X152207543Y-98487173D01*
X152361122Y-98436569D01*
X152518312Y-98411763D01*
X152592079Y-98409016D01*
X152751228Y-98417124D01*
X152914622Y-98445632D01*
X153076738Y-98501381D01*
X153150125Y-98538757D01*
G37*
G36*
X155380746Y-98419078D02*
G01*
X155545659Y-98449267D01*
X155698848Y-98499581D01*
X155840314Y-98570020D01*
X155969030Y-98658778D01*
X156096435Y-98779301D01*
X156194218Y-98904805D01*
X156267836Y-99028806D01*
X156337055Y-99184877D01*
X156388395Y-99354528D01*
X156418651Y-99514113D01*
X156435219Y-99684094D01*
X156437439Y-99734570D01*
X154500690Y-99734570D01*
X154537778Y-99902113D01*
X154602439Y-100048636D01*
X154706624Y-100186786D01*
X154757829Y-100234780D01*
X154886773Y-100323566D01*
X155047882Y-100388137D01*
X155208934Y-100415580D01*
X155285394Y-100418450D01*
X155452419Y-100405811D01*
X155609993Y-100367892D01*
X155709790Y-100328569D01*
X155847433Y-100247529D01*
X155967271Y-100139232D01*
X156037271Y-100051891D01*
X156437439Y-100227745D01*
X156335492Y-100363105D01*
X156218792Y-100480781D01*
X156087341Y-100580774D01*
X155941137Y-100663084D01*
X155784577Y-100727369D01*
X155621277Y-100773286D01*
X155451235Y-100800837D01*
X155274452Y-100810020D01*
X155114969Y-100802690D01*
X154942411Y-100776361D01*
X154780210Y-100730883D01*
X154628364Y-100666256D01*
X154610111Y-100656831D01*
X154473140Y-100572323D01*
X154352191Y-100472770D01*
X154235275Y-100342788D01*
X154158360Y-100228527D01*
X154087920Y-100086671D01*
X154037606Y-99936217D01*
X154007418Y-99777166D01*
X153997355Y-99609518D01*
X154007320Y-99442944D01*
X154013654Y-99409434D01*
X154513977Y-99409434D01*
X155960676Y-99409434D01*
X155913374Y-99260322D01*
X155834423Y-99115089D01*
X155727689Y-98991380D01*
X155690251Y-98958464D01*
X155555032Y-98868201D01*
X155407295Y-98811369D01*
X155247042Y-98787967D01*
X155213489Y-98787299D01*
X155043741Y-98807524D01*
X154889140Y-98868201D01*
X154761737Y-98958464D01*
X154654591Y-99075716D01*
X154574464Y-99214492D01*
X154521356Y-99374791D01*
X154513977Y-99409434D01*
X154013654Y-99409434D01*
X154037215Y-99284773D01*
X154087041Y-99135003D01*
X154156796Y-98993635D01*
X154243845Y-98863600D01*
X154359291Y-98735295D01*
X154493284Y-98626031D01*
X154592917Y-98563768D01*
X154735164Y-98496064D01*
X154884445Y-98447704D01*
X155040760Y-98418688D01*
X155204110Y-98409016D01*
X155380746Y-98419078D01*
G37*
G36*
X157593391Y-97872072D02*
G01*
X157593391Y-100346545D01*
X158681346Y-100346545D01*
X158681346Y-99309392D01*
X159092456Y-99309392D01*
X159092456Y-100760000D01*
X156665659Y-100760000D01*
X156665659Y-100346545D01*
X157091619Y-100346545D01*
X157091619Y-97872072D01*
X156665659Y-97872072D01*
X156665659Y-97458618D01*
X158019351Y-97458618D01*
X158019351Y-97872072D01*
X157593391Y-97872072D01*
G37*
G36*
X160778220Y-98419225D02*
G01*
X160936587Y-98449853D01*
X161086943Y-98500900D01*
X161229288Y-98572365D01*
X161360544Y-98661025D01*
X161490340Y-98777467D01*
X161601218Y-98911591D01*
X161664626Y-99010830D01*
X161734040Y-99151123D01*
X161788425Y-99316427D01*
X161817708Y-99489644D01*
X161823286Y-99609518D01*
X161813224Y-99771353D01*
X161783035Y-99926252D01*
X161725017Y-100092222D01*
X161662281Y-100215240D01*
X161574891Y-100345275D01*
X161459178Y-100474515D01*
X161325040Y-100585702D01*
X161225380Y-100649797D01*
X161083279Y-100719895D01*
X160933656Y-100769965D01*
X160776510Y-100800006D01*
X160611842Y-100810020D01*
X160442582Y-100800006D01*
X160281821Y-100769965D01*
X160129560Y-100719895D01*
X159985799Y-100649797D01*
X159854005Y-100562554D01*
X159724189Y-100447355D01*
X159613908Y-100314104D01*
X159551242Y-100215240D01*
X159483538Y-100074214D01*
X159430493Y-99907269D01*
X159403895Y-99751503D01*
X159396489Y-99609518D01*
X159874033Y-99609518D01*
X159889899Y-99769099D01*
X159937497Y-99920167D01*
X159970167Y-99987020D01*
X160061165Y-100117906D01*
X160176671Y-100224799D01*
X160238248Y-100266043D01*
X160382986Y-100332334D01*
X160537784Y-100364830D01*
X160612623Y-100368429D01*
X160771044Y-100351532D01*
X160929533Y-100295539D01*
X160983091Y-100266043D01*
X161108510Y-100170609D01*
X161215879Y-100041869D01*
X161247264Y-99989364D01*
X161308495Y-99842970D01*
X161338510Y-99685740D01*
X161341835Y-99609518D01*
X161326227Y-99450830D01*
X161279403Y-99301171D01*
X161247264Y-99235143D01*
X161158042Y-99104882D01*
X161044054Y-98997323D01*
X160983091Y-98955338D01*
X160839733Y-98886516D01*
X160683991Y-98852780D01*
X160607934Y-98849043D01*
X160448878Y-98866199D01*
X160300658Y-98917667D01*
X160235903Y-98952993D01*
X160110604Y-99049320D01*
X160009038Y-99169380D01*
X159970167Y-99232798D01*
X159907924Y-99379808D01*
X159877413Y-99535073D01*
X159874033Y-99609518D01*
X159396489Y-99609518D01*
X159406161Y-99441039D01*
X159435178Y-99281842D01*
X159483538Y-99131926D01*
X159551242Y-98991290D01*
X159648312Y-98847193D01*
X159764548Y-98721765D01*
X159899950Y-98615009D01*
X159983454Y-98563768D01*
X160126482Y-98496064D01*
X160278890Y-98447704D01*
X160440676Y-98418688D01*
X160611842Y-98409016D01*
X160778220Y-98419225D01*
G37*
G36*
X163532498Y-98419225D02*
G01*
X163690865Y-98449853D01*
X163841221Y-98500900D01*
X163983566Y-98572365D01*
X164114822Y-98661025D01*
X164244618Y-98777467D01*
X164355495Y-98911591D01*
X164418904Y-99010830D01*
X164488318Y-99151123D01*
X164542702Y-99316427D01*
X164571986Y-99489644D01*
X164577564Y-99609518D01*
X164567501Y-99771353D01*
X164537313Y-99926252D01*
X164479295Y-100092222D01*
X164416559Y-100215240D01*
X164329169Y-100345275D01*
X164213455Y-100474515D01*
X164079318Y-100585702D01*
X163979658Y-100649797D01*
X163837557Y-100719895D01*
X163687934Y-100769965D01*
X163530788Y-100800006D01*
X163366120Y-100810020D01*
X163196859Y-100800006D01*
X163036099Y-100769965D01*
X162883838Y-100719895D01*
X162740076Y-100649797D01*
X162608283Y-100562554D01*
X162478466Y-100447355D01*
X162368186Y-100314104D01*
X162305519Y-100215240D01*
X162237815Y-100074214D01*
X162184770Y-99907269D01*
X162158172Y-99751503D01*
X162150767Y-99609518D01*
X162628311Y-99609518D01*
X162644177Y-99769099D01*
X162691774Y-99920167D01*
X162724445Y-99987020D01*
X162815443Y-100117906D01*
X162930949Y-100224799D01*
X162992526Y-100266043D01*
X163137263Y-100332334D01*
X163292062Y-100364830D01*
X163366901Y-100368429D01*
X163525322Y-100351532D01*
X163683811Y-100295539D01*
X163737369Y-100266043D01*
X163862787Y-100170609D01*
X163970157Y-100041869D01*
X164001542Y-99989364D01*
X164062773Y-99842970D01*
X164092788Y-99685740D01*
X164096113Y-99609518D01*
X164080505Y-99450830D01*
X164033681Y-99301171D01*
X164001542Y-99235143D01*
X163912320Y-99104882D01*
X163798332Y-98997323D01*
X163737369Y-98955338D01*
X163594010Y-98886516D01*
X163438269Y-98852780D01*
X163362212Y-98849043D01*
X163203156Y-98866199D01*
X163054936Y-98917667D01*
X162990181Y-98952993D01*
X162864881Y-99049320D01*
X162763316Y-99169380D01*
X162724445Y-99232798D01*
X162662202Y-99379808D01*
X162631691Y-99535073D01*
X162628311Y-99609518D01*
X162150767Y-99609518D01*
X162160439Y-99441039D01*
X162189455Y-99281842D01*
X162237815Y-99131926D01*
X162305519Y-98991290D01*
X162402590Y-98847193D01*
X162518826Y-98721765D01*
X162654227Y-98615009D01*
X162737732Y-98563768D01*
X162880760Y-98496064D01*
X163033168Y-98447704D01*
X163194954Y-98418688D01*
X163366120Y-98409016D01*
X163532498Y-98419225D01*
G37*
G36*
X165252847Y-100355143D02*
G01*
X165252847Y-98865457D01*
X164863621Y-98865457D01*
X164863621Y-98459036D01*
X165705380Y-98459036D01*
X165705380Y-98733370D01*
X165832024Y-98639928D01*
X165983039Y-98548703D01*
X166133010Y-98480285D01*
X166306657Y-98429288D01*
X166478882Y-98409332D01*
X166503370Y-98409016D01*
X166666438Y-98426332D01*
X166823401Y-98488528D01*
X166949003Y-98595958D01*
X167043244Y-98748622D01*
X167052819Y-98770886D01*
X167190534Y-98672265D01*
X167325730Y-98590360D01*
X167484640Y-98514138D01*
X167639924Y-98461986D01*
X167816504Y-98431564D01*
X167890669Y-98428555D01*
X168053992Y-98444583D01*
X168208081Y-98499240D01*
X168335387Y-98592686D01*
X168430168Y-98726121D01*
X168482191Y-98883170D01*
X168501212Y-99053618D01*
X168501863Y-99095240D01*
X168501863Y-100355143D01*
X168905938Y-100355143D01*
X168905938Y-100760000D01*
X168050893Y-100760000D01*
X168050893Y-99289071D01*
X168045382Y-99128477D01*
X168035261Y-99042093D01*
X167970977Y-98897367D01*
X167955540Y-98880307D01*
X167807907Y-98817051D01*
X167749986Y-98813872D01*
X167586607Y-98840324D01*
X167457676Y-98888904D01*
X167318941Y-98962379D01*
X167185841Y-99052413D01*
X167105966Y-99114780D01*
X167105966Y-100355143D01*
X167496755Y-100355143D01*
X167496755Y-100760000D01*
X166651088Y-100760000D01*
X166651088Y-99231235D01*
X166639995Y-99071018D01*
X166588008Y-98917750D01*
X166583873Y-98911570D01*
X166450446Y-98823413D01*
X166362686Y-98813872D01*
X166191029Y-98843258D01*
X166031612Y-98909081D01*
X165876013Y-98997532D01*
X165730677Y-99096267D01*
X165705380Y-99114780D01*
X165705380Y-100355143D01*
X166111800Y-100355143D01*
X166111800Y-100760000D01*
X164837048Y-100760000D01*
X164837048Y-100355143D01*
X165252847Y-100355143D01*
G37*
G36*
X152429512Y-104241457D02*
G01*
X152928158Y-105552161D01*
X153425241Y-104241457D01*
X153104013Y-104241457D01*
X153104013Y-103835036D01*
X154212289Y-103835036D01*
X154212289Y-104241457D01*
X153860579Y-104241457D01*
X153124334Y-106186020D01*
X152713224Y-106186020D01*
X151961347Y-104241457D01*
X151552582Y-104241457D01*
X151552582Y-103835036D01*
X152730419Y-103835036D01*
X152730419Y-104241457D01*
X152429512Y-104241457D01*
G37*
G36*
X156308479Y-105731143D02*
G01*
X156308479Y-106136000D01*
X154969637Y-106136000D01*
X154969637Y-105731143D01*
X155424515Y-105731143D01*
X155424515Y-103230096D01*
X154969637Y-103230096D01*
X154969637Y-102834618D01*
X155880175Y-102834618D01*
X155880175Y-105731143D01*
X156308479Y-105731143D01*
G37*
G36*
X157315150Y-106136000D02*
G01*
X157315150Y-105535748D01*
X157902115Y-105535748D01*
X157902115Y-106136000D01*
X157315150Y-106136000D01*
G37*
G36*
X159799629Y-102795740D02*
G01*
X159952842Y-102829171D01*
X160120426Y-102898707D01*
X160270260Y-103000337D01*
X160402343Y-103134060D01*
X160480538Y-103241038D01*
X160566099Y-103391843D01*
X160637158Y-103558981D01*
X160693716Y-103742453D01*
X160728520Y-103900991D01*
X160754044Y-104069983D01*
X160770286Y-104249428D01*
X160777247Y-104439327D01*
X160777537Y-104488435D01*
X160774121Y-104652677D01*
X160763874Y-104809324D01*
X160742561Y-104987277D01*
X160711411Y-105154293D01*
X160670424Y-105310373D01*
X160637635Y-105408351D01*
X160571159Y-105566734D01*
X160493464Y-105707463D01*
X160390931Y-105846682D01*
X160273743Y-105962844D01*
X160242156Y-105988281D01*
X160108018Y-106074792D01*
X159961961Y-106136586D01*
X159803985Y-106173662D01*
X159634089Y-106186020D01*
X159466073Y-106174820D01*
X159310804Y-106141217D01*
X159141305Y-106071324D01*
X158990162Y-105969172D01*
X158878230Y-105859404D01*
X158779044Y-105727235D01*
X158693483Y-105576022D01*
X158622423Y-105409124D01*
X158565866Y-105226541D01*
X158531061Y-105069181D01*
X158505538Y-104901783D01*
X158489296Y-104724347D01*
X158482335Y-104536872D01*
X158482045Y-104488435D01*
X158968186Y-104488435D01*
X158970799Y-104654838D01*
X158981416Y-104846148D01*
X159000200Y-105018912D01*
X159027151Y-105173129D01*
X159070272Y-105333706D01*
X159135443Y-105487290D01*
X159229330Y-105622699D01*
X159359477Y-105728789D01*
X159515589Y-105785914D01*
X159634089Y-105796795D01*
X159804930Y-105772684D01*
X159950793Y-105700350D01*
X160071680Y-105579793D01*
X160128046Y-105491980D01*
X160193522Y-105338684D01*
X160236845Y-105176092D01*
X160263922Y-105018601D01*
X160282793Y-104841112D01*
X160291983Y-104684724D01*
X160295921Y-104515537D01*
X160296085Y-104471240D01*
X160293374Y-104300478D01*
X160285241Y-104142636D01*
X160267449Y-103963503D01*
X160241186Y-103804558D01*
X160198486Y-103640473D01*
X160133250Y-103485782D01*
X160122575Y-103466914D01*
X160026734Y-103337660D01*
X159897192Y-103236393D01*
X159744652Y-103181864D01*
X159630182Y-103171478D01*
X159470105Y-103192140D01*
X159317461Y-103264784D01*
X159193875Y-103389730D01*
X159127628Y-103502085D01*
X159065501Y-103662016D01*
X159024395Y-103823986D01*
X158994500Y-104008927D01*
X158978151Y-104180591D01*
X158969587Y-104368208D01*
X158968186Y-104488435D01*
X158482045Y-104488435D01*
X158485441Y-104323724D01*
X158495631Y-104166645D01*
X158516825Y-103988226D01*
X158547801Y-103820797D01*
X158588559Y-103664360D01*
X158621166Y-103566174D01*
X158688132Y-103407145D01*
X158766618Y-103265844D01*
X158870421Y-103126064D01*
X158989270Y-103009438D01*
X159021333Y-102983899D01*
X159157523Y-102896704D01*
X159305046Y-102834422D01*
X159463901Y-102797053D01*
X159634089Y-102784597D01*
X159799629Y-102795740D01*
G37*
D13*
%TO.C,SW5*%
X146822000Y-134416800D03*
X146822000Y-128116802D03*
X150622000Y-134416800D03*
X150622000Y-128116802D03*
%TD*%
%TO.C,SW4*%
X152887600Y-134417199D03*
X152887600Y-128117201D03*
X156687600Y-134417199D03*
X156687600Y-128117201D03*
%TD*%
%TO.C,SW3*%
X158912400Y-134416800D03*
X158912400Y-128116802D03*
X162712400Y-134416800D03*
X162712400Y-128116802D03*
%TD*%
%TO.C,SW2*%
X164957600Y-134416800D03*
X164957600Y-128116802D03*
X168757600Y-134416800D03*
X168757600Y-128116802D03*
%TD*%
%TO.C,SW1*%
X172242400Y-134417199D03*
X172242400Y-128117201D03*
X176042400Y-134417199D03*
X176042400Y-128117201D03*
%TD*%
D14*
%TO.C,R27*%
X176708800Y-124968000D03*
X178358800Y-124968000D03*
%TD*%
D15*
%TO.C,R26*%
X135788400Y-133553200D03*
X135788400Y-135203200D03*
%TD*%
%TO.C,R25*%
X138785600Y-133553200D03*
X138785600Y-135203200D03*
%TD*%
%TO.C,R24*%
X141732000Y-133553200D03*
X141732000Y-135203200D03*
%TD*%
%TO.C,R23*%
X144678400Y-133579600D03*
X144678400Y-135229600D03*
%TD*%
D16*
%TO.C,D5*%
X173684998Y-124968000D03*
X175260000Y-124968000D03*
%TD*%
D17*
%TO.C,D4*%
X134264400Y-135178800D03*
X134264400Y-133603798D03*
%TD*%
%TO.C,D3*%
X137312400Y-135179002D03*
X137312400Y-133604000D03*
%TD*%
%TO.C,D2*%
X140258800Y-135179002D03*
X140258800Y-133604000D03*
%TD*%
%TO.C,D1*%
X143205200Y-133604000D03*
X143205200Y-135179002D03*
%TD*%
D18*
%TO.C,R18*%
X169100000Y-106400000D03*
X167450000Y-106400000D03*
%TD*%
D19*
%TO.C,C2*%
X146050000Y-106680000D03*
X144500000Y-106680000D03*
%TD*%
D20*
%TO.C,U5*%
X146552500Y-94294999D03*
X146552500Y-93345000D03*
X146552500Y-92395001D03*
X144277500Y-92395001D03*
X144277500Y-94294999D03*
%TD*%
D19*
%TO.C,C7*%
X162420600Y-117348000D03*
X160870600Y-117348000D03*
%TD*%
D21*
%TO.C,C12*%
X142240000Y-94609998D03*
X142240000Y-92710000D03*
%TD*%
D22*
%TO.C,Q1*%
X186791600Y-133400800D03*
X185841600Y-131525799D03*
X187741600Y-131525799D03*
%TD*%
D23*
%TO.C,R14*%
X128270000Y-121792000D03*
X128270000Y-120142000D03*
%TD*%
D18*
%TO.C,R1*%
X146049000Y-102997000D03*
X144399000Y-102997000D03*
%TD*%
D24*
%TO.C,J3*%
X127547699Y-131699000D03*
D25*
X127797699Y-134524000D03*
X127797699Y-128874000D03*
%TD*%
D26*
%TO.C,U3*%
X140147402Y-126680398D03*
X140147402Y-127180399D03*
X140147402Y-127680398D03*
X140147402Y-128180397D03*
X140147402Y-128680398D03*
X144372402Y-128680398D03*
X144372402Y-128180397D03*
X144372402Y-127680398D03*
X144372402Y-127180399D03*
X144372402Y-126680398D03*
%TD*%
D23*
%TO.C,R13*%
X128270000Y-110235000D03*
X128270000Y-108585000D03*
%TD*%
D19*
%TO.C,C6*%
X162420600Y-112420400D03*
X160870600Y-112420400D03*
%TD*%
D27*
%TO.C,C17*%
X137160000Y-106680000D03*
X138256016Y-105583984D03*
%TD*%
D28*
%TO.C,J2*%
X177800000Y-137414000D03*
D29*
X180340000Y-137414000D03*
X182879999Y-137414000D03*
X185420000Y-137414000D03*
X187960000Y-137414000D03*
%TD*%
D30*
%TO.C,L1*%
X135383860Y-102619720D03*
X136904140Y-104140000D03*
%TD*%
D24*
%TO.C,J5*%
X124850000Y-120142000D03*
D25*
X125100000Y-122967000D03*
X125100000Y-117317000D03*
%TD*%
D31*
%TO.C,R11*%
X141632400Y-121031000D03*
X140612400Y-121031000D03*
%TD*%
D27*
%TO.C,C16*%
X132039992Y-101640008D03*
X133136008Y-100543992D03*
%TD*%
D32*
%TO.C,U2*%
X168935400Y-111001000D03*
X167665400Y-111001000D03*
X166395400Y-111001000D03*
X165125400Y-111001000D03*
X165125400Y-115951000D03*
X166395400Y-115951000D03*
X167665400Y-115951000D03*
X168935400Y-115951000D03*
%TD*%
D14*
%TO.C,R15*%
X170815000Y-107950000D03*
X172465000Y-107950000D03*
%TD*%
D33*
%TO.C,U4*%
X158485000Y-110726300D03*
X157835000Y-110726300D03*
X157185000Y-110726300D03*
X156535000Y-110726300D03*
X155885000Y-110726300D03*
X155235000Y-110726300D03*
X154585000Y-110726300D03*
X153935000Y-110726300D03*
X153935000Y-116451300D03*
X154585000Y-116451300D03*
X155235000Y-116451300D03*
X155885000Y-116451300D03*
X156535000Y-116451300D03*
X157185000Y-116451300D03*
X157835000Y-116451300D03*
X158485000Y-116451300D03*
%TD*%
D31*
%TO.C,R12*%
X144324800Y-121005600D03*
X143304800Y-121005600D03*
%TD*%
D34*
%TO.C,T1*%
X151892000Y-111760000D03*
X151892000Y-113030000D03*
X151892000Y-114300000D03*
X148712000Y-114300000D03*
X148712000Y-111760000D03*
%TD*%
D35*
%TO.C,Y1*%
X135879903Y-128209400D03*
X138079903Y-128209400D03*
X138079903Y-126509400D03*
X135879903Y-126509400D03*
%TD*%
D36*
%TO.C,R21*%
X161188400Y-111201200D03*
X162208398Y-111201200D03*
%TD*%
D18*
%TO.C,R3*%
X169100000Y-119380000D03*
X167450000Y-119380000D03*
%TD*%
D37*
%TO.C,C14*%
X151130000Y-94120000D03*
X151130000Y-92570000D03*
%TD*%
D36*
%TO.C,R19*%
X161159000Y-116128800D03*
X162179000Y-116128800D03*
%TD*%
%TO.C,R20*%
X161161000Y-115163600D03*
X162181000Y-115163600D03*
%TD*%
D19*
%TO.C,C5*%
X162420600Y-113919000D03*
X160870600Y-113919000D03*
%TD*%
D37*
%TO.C,C19*%
X141605000Y-119787000D03*
X141605000Y-118237000D03*
%TD*%
D38*
%TO.C,C13*%
X182105000Y-113030000D03*
X183655000Y-113030000D03*
%TD*%
D24*
%TO.C,J8*%
X124804500Y-108585000D03*
D25*
X125054500Y-111410000D03*
X125054500Y-105760000D03*
%TD*%
D39*
%TO.C,C1*%
X129651992Y-97151992D03*
X130748008Y-98248008D03*
%TD*%
D40*
%TO.C,C10*%
X171100000Y-113525000D03*
X171100000Y-115075000D03*
%TD*%
D22*
%TO.C,Q2*%
X183296600Y-133430799D03*
X182346600Y-131555798D03*
X184246600Y-131555798D03*
%TD*%
D38*
%TO.C,C15*%
X182105000Y-102235000D03*
X183655000Y-102235000D03*
%TD*%
D36*
%TO.C,R22*%
X161186400Y-110236000D03*
X162206400Y-110236000D03*
%TD*%
D14*
%TO.C,R8*%
X187677600Y-129290599D03*
X186027600Y-129290599D03*
%TD*%
D18*
%TO.C,R4*%
X169100000Y-107950000D03*
X167450000Y-107950000D03*
%TD*%
%TO.C,R10*%
X182332400Y-127817399D03*
X183982400Y-127817399D03*
%TD*%
D28*
%TO.C,J1*%
X171450000Y-89154000D03*
D29*
X168910000Y-89154000D03*
%TD*%
D14*
%TO.C,R16*%
X170816000Y-119380000D03*
X172466000Y-119380000D03*
%TD*%
%TO.C,R7*%
X183969200Y-129341399D03*
X182319200Y-129341399D03*
%TD*%
D38*
%TO.C,C8*%
X135328902Y-130153399D03*
X136878902Y-130153399D03*
%TD*%
D40*
%TO.C,C21*%
X138700000Y-123350000D03*
X138700000Y-124900000D03*
%TD*%
D18*
%TO.C,R17*%
X169100000Y-120900000D03*
X167450000Y-120900000D03*
%TD*%
D37*
%TO.C,C22*%
X160000000Y-120400000D03*
X160000000Y-118850000D03*
%TD*%
D19*
%TO.C,C9*%
X137091402Y-124819399D03*
X135541402Y-124819399D03*
%TD*%
D21*
%TO.C,C11*%
X148590000Y-94615000D03*
X148590000Y-92715002D03*
%TD*%
D19*
%TO.C,C4*%
X162420600Y-109016800D03*
X160870600Y-109016800D03*
%TD*%
D24*
%TO.C,J7*%
X124841000Y-97053400D03*
D25*
X125091000Y-99878400D03*
X125091000Y-94228400D03*
%TD*%
D41*
%TO.C,R6*%
X141630400Y-122988800D03*
X141630400Y-121968800D03*
%TD*%
D40*
%TO.C,C3*%
X157886400Y-118846000D03*
X157886400Y-120396000D03*
%TD*%
D37*
%TO.C,C18*%
X144322800Y-119951800D03*
X144322800Y-118401800D03*
%TD*%
D18*
%TO.C,R9*%
X186040800Y-127766599D03*
X187690800Y-127766599D03*
%TD*%
D41*
%TO.C,R5*%
X144322800Y-122938000D03*
X144322800Y-121918000D03*
%TD*%
D42*
%TO.C,J4*%
X189495100Y-113309400D03*
D43*
X189245100Y-110484400D03*
X189245100Y-116134400D03*
%TD*%
D42*
%TO.C,J6*%
X189520500Y-102108000D03*
D43*
X189270500Y-99283000D03*
X189270500Y-104933000D03*
%TD*%
D40*
%TO.C,C20*%
X131699000Y-131800000D03*
X131699000Y-133350000D03*
%TD*%
D14*
%TO.C,R2*%
X144400000Y-104775000D03*
X146050000Y-104775000D03*
%TD*%
D44*
%TO.C,A1*%
X163550600Y-89154000D03*
D45*
X161010600Y-89154000D03*
X158470601Y-89154000D03*
X155930600Y-89154000D03*
X153390600Y-89154000D03*
X150850600Y-89154000D03*
X148310600Y-89154000D03*
X145770599Y-89154000D03*
X140690600Y-89154000D03*
X138150600Y-89154000D03*
X135610601Y-89154000D03*
X133070600Y-89154000D03*
X130530600Y-89154000D03*
X127990600Y-89154000D03*
X127990600Y-137414000D03*
X130530600Y-137414000D03*
X133070600Y-137414000D03*
X135610600Y-137414000D03*
X138150600Y-137414000D03*
X140690600Y-137414000D03*
X143230600Y-137414000D03*
X145770600Y-137414000D03*
X149830600Y-137414000D03*
X152370600Y-137414000D03*
X154910600Y-137414000D03*
X157450600Y-137414000D03*
X159990600Y-137414000D03*
X162530600Y-137414000D03*
X165070600Y-137414000D03*
X167610600Y-137414000D03*
X170150600Y-137414000D03*
X172690600Y-137414000D03*
%TD*%
M02*
