M48
; DRILL file {KiCad 8.0.6} date 2025-07-28T17:23:45+0200
; FORMAT={-:-/ absolute / inch / decimal}
; #@! TF.CreationDate,2025-07-28T17:23:45+02:00
; #@! TF.GenerationSoftware,Kicad,Pcbnew,8.0.6
; #@! TF.FileFunction,Plated,1,4,PTH
FMAT,2
INCH
; #@! TA.AperFunction,Plated,PTH,ViaDrill
T1C0.0118
; #@! TA.AperFunction,Plated,PTH,ComponentDrill
T2C0.0394
%
G90
G05
T1
X4.896Y-4.5
X4.999Y-4.5
X5.02Y-3.94
X5.04Y-3.7
X5.04Y-4.162
X5.048Y-4.384
X5.05Y-4.848
X5.052Y-4.618
X5.0526Y-3.9626
X5.068Y-3.7
X5.078Y-3.988
X5.099Y-4.5
X5.101Y-4.698
X5.1021Y-4.0121
X5.104Y-3.7
X5.1289Y-4.0389
X5.138Y-3.7
X5.153Y-4.063
X5.168Y-3.7
X5.1798Y-4.0898
X5.1935Y-3.7255
X5.197Y-4.599
X5.197Y-4.698
X5.197Y-4.8
X5.197Y-4.903
X5.197Y-5.002
X5.197Y-5.103
X5.198Y-3.594
X5.198Y-3.693
X5.198Y-4.5
X5.198Y-5.3
X5.2Y-4.285
X5.2039Y-4.1139
X5.2175Y-3.7495
X5.2279Y-4.1379
X5.2444Y-3.7764
X5.2505Y-4.1605
X5.2684Y-3.8004
X5.276Y-4.186
X5.2953Y-3.8273
X5.298Y-3.595
X5.298Y-3.693
X5.3Y-4.599
X5.3Y-4.698
X5.3Y-4.8
X5.3Y-4.9
X5.3Y-5.002
X5.3006Y-4.2106
X5.301Y-4.401
X5.301Y-4.5
X5.3079Y-4.9391
X5.3193Y-3.8513
X5.326Y-4.236
X5.3434Y-3.8754
X5.3501Y-4.2601
X5.366Y-3.898
X5.3769Y-4.2869
X5.379Y-5.3483
X5.3914Y-3.9234
X5.3929Y-5.0141
X5.4Y-3.594
X5.4Y-3.693
X5.4Y-4.6
X5.4Y-4.698
X5.401Y-4.311
X5.401Y-4.402
X5.401Y-4.5
X5.4186Y-3.9506
X5.4278Y-4.3378
X5.444Y-3.976
X5.4519Y-4.3619
X5.456Y-5.15
X5.4681Y-4.0001
X5.4759Y-4.3859
X5.4922Y-5.345
X5.4949Y-4.0269
X5.4985Y-4.4085
X5.5Y-3.595
X5.5Y-3.693
X5.5108Y-4.9368
X5.519Y-4.051
X5.524Y-4.434
X5.532Y-3.72
X5.542Y-4.846
X5.542Y-4.888
X5.542Y-4.932
X5.542Y-5.15
X5.5458Y-4.0778
X5.55Y-4.46
X5.5668Y-5.0818
X5.5699Y-4.1019
X5.574Y-4.484
X5.5868Y-5.0618
X5.5939Y-4.1259
X5.595Y-5.105
X5.595Y-4.6864
X5.5981Y-4.5081
X5.6093Y-5.3465
X5.6165Y-4.1485
X5.6207Y-4.5307
X5.628Y-4.85
X5.628Y-4.892
X5.628Y-4.936
X5.642Y-4.174
X5.6441Y-4.0091
X5.6462Y-4.5562
X5.674Y-4.586
X5.7065Y-4.2405
X5.71Y-4.586
X5.712Y-4.852
X5.712Y-4.938
X5.7205Y-3.6772
X5.722Y-4.7225
X5.73Y-5.348
X5.732Y-4.266
X5.734Y-5.078
X5.744Y-4.586
X5.752Y-4.938
X5.752Y-4.992
X5.7546Y-4.2886
X5.776Y-4.586
X5.7799Y-4.3139
X5.786Y-4.992
X5.8054Y-4.3394
X5.812Y-4.586
X5.82Y-4.992
X5.828Y-4.362
X5.846Y-4.586
X5.8543Y-4.5512
X5.858Y-4.992
X5.878Y-4.586
X5.896Y-4.992
X5.899Y-4.099
X5.899Y-4.201
X5.9055Y-3.6457
X5.914Y-4.586
X5.914Y-4.669
X5.914Y-4.781
X5.93Y-4.992
X5.964Y-4.992
X5.998Y-4.202
X6.0Y-4.992
X6.034Y-4.992
X6.046Y-4.746
X6.068Y-4.992
X6.0897Y-4.4747
X6.1Y-4.097
X6.1Y-4.202
X6.101Y-4.3
X6.102Y-4.992
X6.137Y-4.478
X6.1372Y-4.446
X6.14Y-4.992
X6.142Y-4.745
X6.178Y-4.992
X6.188Y-4.538
X6.192Y-4.418
X6.198Y-3.599
X6.198Y-3.698
X6.199Y-4.202
X6.2Y-4.097
X6.203Y-4.799
X6.212Y-4.992
X6.214Y-4.317
X6.2396Y-4.5354
X6.24Y-4.404
X6.246Y-4.992
X6.2559Y-4.6732
X6.282Y-4.992
X6.286Y-4.557
X6.287Y-4.49
X6.288Y-4.385
X6.298Y-3.6
X6.298Y-3.698
X6.299Y-4.799
X6.301Y-4.202
X6.318Y-4.992
X6.352Y-4.992
X6.368Y-4.659
X6.386Y-4.992
X6.398Y-4.701
X6.399Y-4.802
X6.4Y-3.599
X6.4Y-3.698
X6.401Y-4.1
X6.401Y-4.199
X6.424Y-4.992
X6.462Y-4.992
X6.496Y-4.992
X6.499Y-4.802
X6.5Y-3.6
X6.5Y-3.698
X6.501Y-4.299
X6.503Y-4.479
X6.504Y-4.097
X6.53Y-4.992
X6.566Y-4.992
X6.57Y-5.166
X6.599Y-3.994
X6.599Y-4.801
X6.6Y-3.698
X6.6Y-4.097
X6.602Y-4.992
X6.606Y-4.479
X6.627Y-4.299
X6.636Y-4.992
X6.67Y-4.992
X6.7Y-4.801
X6.702Y-3.895
X6.702Y-3.994
X6.703Y-3.799
X6.708Y-4.992
X6.71Y-5.248
X6.749Y-4.588
X6.793Y-4.296
X6.793Y-4.402
X6.797Y-3.696
X6.8Y-4.801
X6.802Y-3.896
X6.802Y-3.994
X6.814Y-4.992
X6.84Y-4.114
X6.842Y-4.768
X6.85Y-4.992
X6.874Y-5.166
X6.882Y-4.992
X6.896Y-4.8
X6.897Y-3.598
X6.897Y-3.696
X6.898Y-4.296
X6.898Y-4.402
X6.898Y-4.501
X6.898Y-4.599
X6.905Y-3.994
X6.916Y-4.992
X6.95Y-4.992
X6.988Y-4.992
X7.0Y-3.601
X7.0Y-3.7
X7.0Y-3.801
X7.0Y-3.9
X7.0Y-4.701
X7.0Y-4.8
X7.001Y-4.197
X7.001Y-4.296
X7.001Y-4.402
X7.001Y-4.501
X7.022Y-4.992
X7.06Y-4.932
X7.06Y-4.992
X7.094Y-4.992
X7.1Y-3.5
X7.1Y-3.602
X7.1Y-3.7
X7.1Y-3.802
X7.1Y-3.9
X7.1Y-4.098
X7.1Y-4.603
X7.1Y-4.701
X7.101Y-4.198
X7.101Y-4.296
X7.101Y-4.403
X7.13Y-4.992
X7.134Y-5.14
X7.176Y-4.986
X7.179Y-4.947
X7.199Y-4.296
X7.2Y-3.499
X7.2Y-3.601
X7.2Y-3.7
X7.2Y-3.8
X7.2Y-3.899
X7.2Y-4.098
X7.2Y-4.198
X7.203Y-4.601
X7.203Y-4.7
X7.2058Y-4.9202
X7.2299Y-4.8961
X7.252Y-5.252
X7.2539Y-4.8721
X7.2564Y-5.1282
X7.2765Y-4.8495
X7.3Y-3.5
X7.3Y-3.602
X7.3Y-3.7
X7.3Y-3.8
X7.3Y-4.099
X7.3Y-4.199
X7.302Y-4.824
X7.303Y-4.602
X7.303Y-4.7
X7.314Y-4.986
X7.3164Y-5.1282
X7.32Y-5.262
X7.328Y-4.798
X7.338Y-4.354
X7.34Y-4.574
X7.342Y-4.132
X7.346Y-3.91
X7.352Y-4.774
X7.3761Y-4.7499
X7.3964Y-5.1282
X7.3987Y-4.7273
X7.4Y-3.5
X7.4Y-3.602
X7.4Y-3.701
X7.4Y-3.801
X7.414Y-5.2786
X7.4242Y-4.7018
X7.4499Y-4.6801
X7.4725Y-4.6575
X7.498Y-4.632
X7.5Y-3.501
X7.5Y-3.603
X7.5Y-3.701
X7.5Y-3.801
T2
X5.039Y-3.51
X5.039Y-5.41
X5.139Y-3.51
X5.139Y-5.41
X5.239Y-3.51
X5.239Y-5.41
X5.339Y-5.41
X5.339Y-3.51
X5.439Y-3.51
X5.439Y-5.41
X5.539Y-3.51
X5.539Y-5.41
X5.639Y-5.41
X5.739Y-3.51
X5.739Y-5.41
X5.839Y-3.51
X5.8988Y-5.41
X5.939Y-3.51
X5.9988Y-5.41
X6.039Y-3.51
X6.0988Y-5.41
X6.139Y-3.51
X6.1988Y-5.41
X6.239Y-3.51
X6.2988Y-5.41
X6.339Y-3.51
X6.3988Y-5.41
X6.439Y-3.51
X6.4988Y-5.41
X6.5988Y-5.41
X6.65Y-3.51
X6.6988Y-5.41
X6.75Y-3.51
X6.7988Y-5.41
X7.0Y-5.41
X7.1Y-5.41
X7.2Y-5.41
X7.3Y-5.41
X7.4Y-5.41
M30
