%TF.GenerationSoftware,KiCad,Pcbnew,8.0.6*%
%TF.CreationDate,2025-07-28T17:23:45+02:00*%
%TF.ProjectId,PhaseLoom,50686173-654c-46f6-9f6d-2e6b69636164,rev?*%
%TF.SameCoordinates,Original*%
%TF.FileFunction,Copper,L4,Bot*%
%TF.FilePolarity,Positive*%
%FSLAX46Y46*%
G04 Gerber Fmt 4.6, Leading zero omitted, Abs format (unit mm)*
G04 Created by KiCad (PCBNEW 8.0.6) date 2025-07-28 17:23:45*
%MOMM*%
%LPD*%
G01*
G04 APERTURE LIST*
G04 Aperture macros list*
%AMRoundRect*
0 Rectangle with rounded corners*
0 $1 Rounding radius*
0 $2 $3 $4 $5 $6 $7 $8 $9 X,Y pos of 4 corners*
0 Add a 4 corners polygon primitive as box body*
4,1,4,$2,$3,$4,$5,$6,$7,$8,$9,$2,$3,0*
0 Add four circle primitives for the rounded corners*
1,1,$1+$1,$2,$3*
1,1,$1+$1,$4,$5*
1,1,$1+$1,$6,$7*
1,1,$1+$1,$8,$9*
0 Add four rect primitives between the rounded corners*
20,1,$1+$1,$2,$3,$4,$5,0*
20,1,$1+$1,$4,$5,$6,$7,0*
20,1,$1+$1,$6,$7,$8,$9,0*
20,1,$1+$1,$8,$9,$2,$3,0*%
G04 Aperture macros list end*
%TA.AperFunction,SMDPad,CuDef*%
%ADD10RoundRect,0.250000X-1.600000X0.425000X-1.600000X-0.425000X1.600000X-0.425000X1.600000X0.425000X0*%
%TD*%
%TA.AperFunction,ComponentPad*%
%ADD11R,1.700000X1.700000*%
%TD*%
%TA.AperFunction,ComponentPad*%
%ADD12O,1.700000X1.700000*%
%TD*%
%TA.AperFunction,SMDPad,CuDef*%
%ADD13RoundRect,0.250000X1.600000X-0.425000X1.600000X0.425000X-1.600000X0.425000X-1.600000X-0.425000X0*%
%TD*%
%TA.AperFunction,ComponentPad*%
%ADD14R,1.600000X1.600000*%
%TD*%
%TA.AperFunction,ComponentPad*%
%ADD15O,1.600000X1.600000*%
%TD*%
%TA.AperFunction,ViaPad*%
%ADD16C,0.600000*%
%TD*%
%TA.AperFunction,Conductor*%
%ADD17C,0.200000*%
%TD*%
%TA.AperFunction,Conductor*%
%ADD18C,0.500000*%
%TD*%
%TA.AperFunction,Conductor*%
%ADD19C,0.199400*%
%TD*%
G04 APERTURE END LIST*
D10*
%TO.P,J3,2,Ext*%
%TO.N,GND*%
X127797699Y-134524000D03*
X127797699Y-128874000D03*
%TD*%
D11*
%TO.P,J2,1,Pin_1*%
%TO.N,/SDA_5V*%
X177800000Y-137414000D03*
D12*
%TO.P,J2,2,Pin_2*%
%TO.N,/SCL_5V*%
X180340000Y-137414000D03*
%TO.P,J2,3,Pin_3*%
%TO.N,GND*%
X182879999Y-137414000D03*
%TO.P,J2,4,Pin_4*%
%TO.N,+3V3*%
X185420000Y-137414000D03*
%TO.P,J2,5,Pin_5*%
%TO.N,+5V*%
X187960000Y-137414000D03*
%TD*%
D10*
%TO.P,J5,2,Ext*%
%TO.N,GND*%
X125100000Y-122967000D03*
X125100000Y-117317000D03*
%TD*%
%TO.P,J8,2,Ext*%
%TO.N,GND*%
X125054500Y-111410000D03*
X125054500Y-105760000D03*
%TD*%
D11*
%TO.P,J1,1,Pin_1*%
%TO.N,+3V3*%
X171450000Y-89154000D03*
D12*
%TO.P,J1,2,Pin_2*%
%TO.N,GND*%
X168910000Y-89154000D03*
%TD*%
D10*
%TO.P,J7,2,Ext*%
%TO.N,GND*%
X125091000Y-99878400D03*
X125091000Y-94228400D03*
%TD*%
D13*
%TO.P,J4,2,Ext*%
%TO.N,GND*%
X189245100Y-110484400D03*
X189245100Y-116134400D03*
%TD*%
%TO.P,J6,2,Ext*%
%TO.N,GND*%
X189270500Y-99283000D03*
X189270500Y-104933000D03*
%TD*%
D14*
%TO.P,A1,1,NC*%
%TO.N,unconnected-(A1-NC-Pad1)*%
X163550600Y-89154000D03*
D15*
%TO.P,A1,2,IOREF*%
%TO.N,unconnected-(A1-IOREF-Pad2)*%
X161010600Y-89154000D03*
%TO.P,A1,3,~{RESET}*%
%TO.N,unconnected-(A1-~{RESET}-Pad3)*%
X158470601Y-89154000D03*
%TO.P,A1,4,3V3*%
%TO.N,unconnected-(A1-3V3-Pad4)*%
X155930600Y-89154000D03*
%TO.P,A1,5,+5V*%
%TO.N,+5V*%
X153390600Y-89154000D03*
%TO.P,A1,6,GND*%
%TO.N,GND*%
X150850600Y-89154000D03*
%TO.P,A1,7,GND*%
X148310600Y-89154000D03*
%TO.P,A1,8,VIN*%
%TO.N,unconnected-(A1-VIN-Pad8)*%
X145770599Y-89154000D03*
%TO.P,A1,9,A0*%
%TO.N,unconnected-(A1-A0-Pad9)*%
X140690600Y-89154000D03*
%TO.P,A1,10,A1*%
%TO.N,unconnected-(A1-A1-Pad10)*%
X138150600Y-89154000D03*
%TO.P,A1,11,A2*%
%TO.N,unconnected-(A1-A2-Pad11)*%
X135610601Y-89154000D03*
%TO.P,A1,12,A3*%
%TO.N,unconnected-(A1-A3-Pad12)*%
X133070600Y-89154000D03*
%TO.P,A1,13,SDA/A4*%
%TO.N,unconnected-(A1-SDA{slash}A4-Pad13)*%
X130530600Y-89154000D03*
%TO.P,A1,14,SCL/A5*%
%TO.N,unconnected-(A1-SCL{slash}A5-Pad14)*%
X127990600Y-89154000D03*
%TO.P,A1,15,D0/RX*%
%TO.N,unconnected-(A1-D0{slash}RX-Pad15)*%
X127990600Y-137414000D03*
%TO.P,A1,16,D1/TX*%
%TO.N,unconnected-(A1-D1{slash}TX-Pad16)*%
X130530600Y-137414000D03*
%TO.P,A1,17,D2*%
%TO.N,unconnected-(A1-D2-Pad17)*%
X133070600Y-137414000D03*
%TO.P,A1,18,D3*%
%TO.N,unconnected-(A1-D3-Pad18)*%
X135610600Y-137414000D03*
%TO.P,A1,19,D4*%
%TO.N,USRLED1*%
X138150600Y-137414000D03*
%TO.P,A1,20,D5*%
%TO.N,USRLED2*%
X140690600Y-137414000D03*
%TO.P,A1,21,D6*%
%TO.N,USRLED3*%
X143230600Y-137414000D03*
%TO.P,A1,22,D7*%
%TO.N,USRLED4*%
X145770600Y-137414000D03*
%TO.P,A1,23,D8*%
%TO.N,USR5*%
X149830600Y-137414000D03*
%TO.P,A1,24,D9*%
%TO.N,USR4*%
X152370600Y-137414000D03*
%TO.P,A1,25,D10*%
%TO.N,USR3*%
X154910600Y-137414000D03*
%TO.P,A1,26,D11*%
%TO.N,USR2*%
X157450600Y-137414000D03*
%TO.P,A1,27,D12*%
%TO.N,USR1*%
X159990600Y-137414000D03*
%TO.P,A1,28,D13*%
%TO.N,USRLED5*%
X162530600Y-137414000D03*
%TO.P,A1,29,GND*%
%TO.N,GND*%
X165070600Y-137414000D03*
%TO.P,A1,30,AREF*%
%TO.N,unconnected-(A1-AREF-Pad30)*%
X167610600Y-137414000D03*
%TO.P,A1,31,SDA/A4*%
%TO.N,/SDA_5V*%
X170150600Y-137414000D03*
%TO.P,A1,32,SCL/A5*%
%TO.N,/SCL_5V*%
X172690600Y-137414000D03*
%TD*%
D16*
%TO.N,GND*%
X175387000Y-101447600D03*
X182854600Y-109118400D03*
X159715200Y-111379000D03*
X157276800Y-112217200D03*
X167792400Y-113766600D03*
X165176200Y-113766600D03*
X168325800Y-109194600D03*
X165125400Y-109194600D03*
X154965400Y-109220000D03*
X149834600Y-106705400D03*
X152349200Y-106730800D03*
X156006800Y-120523000D03*
X157556200Y-121894600D03*
X159994600Y-121894600D03*
X162534600Y-121970800D03*
X165074600Y-121970800D03*
X162509200Y-119405400D03*
X167614600Y-121945400D03*
X170180000Y-121945400D03*
X172720000Y-121945400D03*
X175158400Y-121920000D03*
X177800000Y-121920000D03*
X162585400Y-106654600D03*
X160045400Y-106730800D03*
X157454600Y-106730800D03*
X154940000Y-106730800D03*
X154940000Y-104063800D03*
X172542200Y-111810800D03*
X172542200Y-109118400D03*
X175209200Y-109118400D03*
X175209200Y-111810800D03*
X137160000Y-91287600D03*
X139700000Y-93802200D03*
X132029200Y-91287600D03*
X134569200Y-93802200D03*
X139700000Y-91313000D03*
X137160000Y-93802200D03*
X134569200Y-91313000D03*
X132029200Y-93802200D03*
X170256200Y-96494600D03*
X150215600Y-121437400D03*
X150215600Y-118592600D03*
X182880000Y-99034600D03*
X185420000Y-104114600D03*
X182880000Y-104089200D03*
X185420000Y-106654600D03*
X182880000Y-106629200D03*
X180340000Y-104089200D03*
X190500000Y-96545400D03*
X182880000Y-96520000D03*
X185420000Y-96520000D03*
X187960000Y-96545400D03*
X190500000Y-88925400D03*
X185420000Y-88900000D03*
X182880000Y-88874600D03*
X180340000Y-88900000D03*
X187960000Y-88900000D03*
X187960000Y-94005400D03*
X190500000Y-91516200D03*
X190500000Y-94005400D03*
X187960000Y-91490800D03*
X167640000Y-93929200D03*
X132029200Y-134620000D03*
X134620000Y-124460000D03*
X134620000Y-127050800D03*
X132003800Y-129616200D03*
X157480000Y-104063800D03*
X129565400Y-119329200D03*
X132003800Y-121920000D03*
X129514600Y-114300000D03*
X126974600Y-114300000D03*
X124358400Y-114300000D03*
X134620000Y-121920000D03*
X132003800Y-124536200D03*
X132003800Y-127050800D03*
X132003800Y-119329200D03*
X132029200Y-114300000D03*
X132003800Y-116814600D03*
X134645400Y-114300000D03*
X137185400Y-114300000D03*
X134645400Y-111785400D03*
X137185400Y-111810800D03*
X134620000Y-116814600D03*
X137160000Y-119329200D03*
X137160000Y-116840000D03*
X134620000Y-119329200D03*
X157429200Y-91414600D03*
X159969200Y-93929200D03*
X159969200Y-91440000D03*
X157429200Y-93929200D03*
X165100000Y-91440000D03*
X162560000Y-93929200D03*
X162560000Y-91414600D03*
X165100000Y-93929200D03*
X162585400Y-104140000D03*
X167640000Y-104063800D03*
X167614600Y-101447600D03*
X165201600Y-104063800D03*
X185496200Y-116890800D03*
X182956200Y-116865400D03*
X182956200Y-119380000D03*
X185496200Y-119380000D03*
X177800000Y-119405400D03*
X180340000Y-119405400D03*
X180340000Y-116916200D03*
X175209200Y-116814600D03*
X175209200Y-114325400D03*
X180365400Y-111836200D03*
X177825400Y-111810800D03*
X177825400Y-114325400D03*
X180365400Y-106629200D03*
X177825400Y-109118400D03*
X177825400Y-106603800D03*
X180365400Y-109118400D03*
X175183800Y-91389200D03*
X175183800Y-93878400D03*
X172643800Y-93878400D03*
X172770800Y-98958400D03*
X170230800Y-101447600D03*
X170230800Y-98933000D03*
X172770800Y-101447600D03*
X177800000Y-99060000D03*
X180340000Y-96570800D03*
X180340000Y-99060000D03*
X177800000Y-96545400D03*
X185420000Y-93980000D03*
X182880000Y-91465400D03*
X185420000Y-91490800D03*
X182880000Y-93980000D03*
X177800000Y-93980000D03*
X180340000Y-93980000D03*
X180340000Y-91490800D03*
X177800000Y-91465400D03*
X159664400Y-115747800D03*
%TO.N,/Q-*%
X155879800Y-113741200D03*
X161747200Y-118338600D03*
%TO.N,/Q+*%
X155885000Y-112928402D03*
X159689800Y-114046000D03*
%TO.N,+5V*%
X185775600Y-126644400D03*
X182270400Y-126644400D03*
%TO.N,GND*%
X137184471Y-109498471D03*
X154990800Y-126796800D03*
X173786800Y-121107200D03*
X149758400Y-126796800D03*
X176530000Y-126796800D03*
X140181671Y-102894471D03*
X143412630Y-115726630D03*
X128981457Y-101295457D03*
X132080000Y-108839000D03*
X146710401Y-116484400D03*
X161340800Y-126796800D03*
X138477628Y-110791628D03*
X143306800Y-106019600D03*
X160477200Y-126796800D03*
X128016000Y-105714800D03*
X184249485Y-123750915D03*
X142085485Y-104798285D03*
X139571013Y-102283813D03*
X130505200Y-93980000D03*
X157784800Y-126796800D03*
X128320800Y-117297200D03*
X180187600Y-126796800D03*
X130274613Y-102588613D03*
X136296144Y-99008944D03*
X136979903Y-127359400D03*
X135721407Y-98434207D03*
X142766052Y-115080052D03*
X128016000Y-93980000D03*
X175666400Y-126796800D03*
X170383200Y-126796800D03*
X182345671Y-125654729D03*
X144119600Y-116484400D03*
X135891314Y-108205314D03*
X142113000Y-129667000D03*
X133817593Y-96530393D03*
X145084800Y-125425200D03*
X187352515Y-120647885D03*
X137866970Y-110180970D03*
X166878000Y-131216400D03*
X186741858Y-121258542D03*
X139663022Y-111977022D03*
X174802800Y-126796800D03*
X173990000Y-126796800D03*
X135110750Y-97823550D03*
X188316600Y-134075799D03*
X145084800Y-123240800D03*
X139088285Y-111402285D03*
X131913779Y-94626579D03*
X186486800Y-104952800D03*
X145897600Y-116484400D03*
X174599600Y-131216400D03*
X140309600Y-112623600D03*
X148488400Y-116484400D03*
X146100800Y-125425200D03*
X133206935Y-95919735D03*
X164134800Y-126796800D03*
X158496000Y-111861600D03*
X152400000Y-126796800D03*
X190449200Y-117652800D03*
X154127200Y-126796800D03*
X185470800Y-122529600D03*
X147456463Y-110220063D03*
X141474828Y-104187628D03*
X136573813Y-108887813D03*
X148793200Y-126796800D03*
X130885271Y-103199271D03*
X148031200Y-110794800D03*
X142660222Y-105373022D03*
X150215600Y-116484400D03*
X131267200Y-93980000D03*
X144946222Y-107709822D03*
X133363822Y-105677822D03*
X132524436Y-95237236D03*
X140766800Y-124155200D03*
X142951200Y-125374400D03*
X137631278Y-100344078D03*
X187927252Y-120073148D03*
X128727200Y-93980000D03*
X163169600Y-126796800D03*
X158648400Y-126796800D03*
X166776400Y-126796800D03*
X145592800Y-108356400D03*
X177495200Y-126796800D03*
X128334878Y-100648878D03*
X150622000Y-126796800D03*
X153568400Y-120548400D03*
X189227885Y-118874115D03*
X156921200Y-126796800D03*
X150000000Y-92600000D03*
X134500092Y-97212892D03*
X181102000Y-126796800D03*
X128219200Y-111353600D03*
X183638828Y-124361572D03*
X134634078Y-106948078D03*
X173075600Y-126796800D03*
X186588400Y-99314000D03*
X135280657Y-107594657D03*
X154678252Y-113657252D03*
X136942722Y-99655522D03*
X151485600Y-126796800D03*
X149834600Y-104114600D03*
X165862000Y-126796800D03*
X149301201Y-116484400D03*
X140766800Y-123088400D03*
X132178428Y-104492428D03*
X188573830Y-119426570D03*
X173736000Y-104495600D03*
X132789085Y-105103085D03*
X186131200Y-121869200D03*
X129641601Y-93980000D03*
X142191315Y-114505315D03*
X145034000Y-116484400D03*
X167690800Y-126796800D03*
X146964400Y-126796800D03*
X138582400Y-130810000D03*
X155956000Y-126796800D03*
X179324000Y-126796800D03*
X138277857Y-100990657D03*
X147624800Y-116484400D03*
X131567770Y-103881770D03*
X184824222Y-123176178D03*
X162204400Y-126796800D03*
X145300000Y-93400000D03*
X142951200Y-123190000D03*
X146167537Y-108931137D03*
X183028170Y-124972230D03*
X169418000Y-126796800D03*
X128270000Y-123139200D03*
X189802622Y-118299378D03*
X146100800Y-126796800D03*
X146809885Y-109573485D03*
X168554400Y-126796800D03*
X164998400Y-126796800D03*
X140970000Y-113284000D03*
X186436000Y-116179600D03*
X153263600Y-126796800D03*
X140864170Y-103576970D03*
X147828000Y-126796800D03*
X178358800Y-126796800D03*
X134820903Y-125454399D03*
X138888514Y-101601314D03*
X141580658Y-113894658D03*
X134010400Y-106324400D03*
X148700000Y-115600000D03*
X140766800Y-125272800D03*
X142951200Y-124256800D03*
X140766800Y-130810000D03*
X186385200Y-110591600D03*
X127508000Y-100076000D03*
X159562800Y-126796800D03*
X129592114Y-101906114D03*
%TO.N,/SDA_5V*%
X184200800Y-133400800D03*
%TO.N,/SCL_5V*%
X185928000Y-133654800D03*
%TO.N,USRLED5*%
X170434000Y-133299200D03*
%TO.N,+3V3*%
X145643602Y-128981200D03*
X142476400Y-135802193D03*
X139502651Y-135763321D03*
X139973901Y-125394400D03*
X143359888Y-101830888D03*
X136625417Y-135847795D03*
X179324000Y-125272800D03*
X187868600Y-130255799D03*
X171424600Y-116535200D03*
X184312600Y-130255799D03*
X158900000Y-118700000D03*
X145541988Y-135839200D03*
X140512800Y-94488000D03*
X158484982Y-115200000D03*
%TO.N,/CLK1*%
X142113439Y-119035718D03*
X157835600Y-109651800D03*
%TO.N,/CLK0*%
X157175200Y-115265200D03*
X145338796Y-119951800D03*
%TO.N,Net-(Q1-S)*%
X185836600Y-130255799D03*
X141904403Y-128569400D03*
%TO.N,Net-(Q2-S)*%
X181203600Y-130556000D03*
X141396403Y-129077400D03*
%TD*%
D17*
%TO.N,/Q-*%
X156387800Y-114604800D02*
X159639000Y-114604800D01*
X155879800Y-113741200D02*
X155879800Y-114096800D01*
X155879800Y-114096800D02*
X156387800Y-114604800D01*
X159639000Y-114604800D02*
X161747200Y-116713000D01*
X161747200Y-116713000D02*
X161747200Y-118338600D01*
%TO.N,/Q+*%
X157002598Y-114046000D02*
X155885000Y-112928402D01*
X159689800Y-114046000D02*
X157002598Y-114046000D01*
D18*
%TO.N,+5V*%
X179250000Y-123624000D02*
X179250000Y-102796000D01*
X185775600Y-126644400D02*
X189179200Y-130048000D01*
X182270400Y-126644400D02*
X185775600Y-126644400D01*
X156591000Y-92354400D02*
X153390600Y-89154000D01*
X179250000Y-102796000D02*
X168808400Y-92354400D01*
X189179200Y-130048000D02*
X189179200Y-136194800D01*
X182270400Y-126644400D02*
X179250000Y-123624000D01*
X189179200Y-136194800D02*
X187960000Y-137414000D01*
X168808400Y-92354400D02*
X156591000Y-92354400D01*
D19*
%TO.N,/SDA_5V*%
X177800000Y-137414000D02*
X181813200Y-133400800D01*
X181813200Y-133400800D02*
X184200800Y-133400800D01*
%TO.N,/SCL_5V*%
X184505600Y-135128000D02*
X185928000Y-133705600D01*
X182778400Y-135128000D02*
X184505600Y-135128000D01*
X185928000Y-133705600D02*
X185928000Y-133654800D01*
X180340000Y-137414000D02*
X178917600Y-138836400D01*
X180492400Y-137414000D02*
X182778400Y-135128000D01*
X174113000Y-138836400D02*
X172690600Y-137414000D01*
X178917600Y-138836400D02*
X174113000Y-138836400D01*
%TO.N,USRLED5*%
X170434000Y-133299200D02*
X166645400Y-133299200D01*
X166645400Y-133299200D02*
X162530600Y-137414000D01*
%TO.N,/CLK1*%
X157835600Y-109651800D02*
X153800000Y-113687400D01*
X153800000Y-113687400D02*
X153800000Y-115400000D01*
X142381082Y-119035718D02*
X143616800Y-117800000D01*
X142113439Y-119035718D02*
X142381082Y-119035718D01*
X153800000Y-115400000D02*
X151400000Y-117800000D01*
X151400000Y-117800000D02*
X143616800Y-117800000D01*
%TO.N,/CLK0*%
X149961517Y-120400000D02*
X152040400Y-120400000D01*
X149135517Y-121354000D02*
X149135517Y-119446000D01*
X148191517Y-119210000D02*
X148309517Y-119210000D01*
X147955517Y-120164000D02*
X147955517Y-119446000D01*
X148781517Y-121590000D02*
X148899517Y-121590000D01*
X149725517Y-119446000D02*
X149725517Y-120164000D01*
X152040400Y-120400000D02*
X157175200Y-115265200D01*
X148545517Y-119446000D02*
X148545517Y-121354000D01*
X145786996Y-120400000D02*
X147719517Y-120400000D01*
X149371517Y-119210000D02*
X149489517Y-119210000D01*
X145338796Y-119951800D02*
X145786996Y-120400000D01*
X149489517Y-119210000D02*
G75*
G02*
X149725500Y-119446000I-17J-236000D01*
G01*
X148545517Y-121354000D02*
G75*
G03*
X148781517Y-121589983I235983J0D01*
G01*
X148309517Y-119210000D02*
G75*
G02*
X148545500Y-119446000I-17J-236000D01*
G01*
X149725517Y-120164000D02*
G75*
G03*
X149961517Y-120399983I235983J0D01*
G01*
X148899517Y-121590000D02*
G75*
G03*
X149135500Y-121354000I-17J236000D01*
G01*
X147955517Y-119446000D02*
G75*
G02*
X148191517Y-119210017I235983J0D01*
G01*
X149135517Y-119446000D02*
G75*
G02*
X149371517Y-119210017I235983J0D01*
G01*
X147719517Y-120400000D02*
G75*
G03*
X147955500Y-120164000I-17J236000D01*
G01*
%TO.N,Net-(Q1-S)*%
X172306400Y-129133600D02*
X171040000Y-130400000D01*
X185836600Y-130255799D02*
X184714401Y-129133600D01*
X184714401Y-129133600D02*
X172306400Y-129133600D01*
X171040000Y-130400000D02*
X143735003Y-130400000D01*
X143735003Y-130400000D02*
X141904403Y-128569400D01*
%TO.N,Net-(Q2-S)*%
X179222400Y-132080000D02*
X143637000Y-132080000D01*
X143637000Y-132080000D02*
X141396403Y-129839403D01*
X180746400Y-130556000D02*
X179222400Y-132080000D01*
X141396403Y-129839403D02*
X141396403Y-129077400D01*
X181203600Y-130556000D02*
X180746400Y-130556000D01*
%TD*%
%TA.AperFunction,Conductor*%
%TO.N,GND*%
G36*
X150384675Y-88961007D02*
G01*
X150350600Y-89088174D01*
X150350600Y-89219826D01*
X150384675Y-89346993D01*
X150417588Y-89404000D01*
X148743612Y-89404000D01*
X148776525Y-89346993D01*
X148810600Y-89219826D01*
X148810600Y-89088174D01*
X148776525Y-88961007D01*
X148743612Y-88904000D01*
X150417588Y-88904000D01*
X150384675Y-88961007D01*
G37*
%TD.AperFunction*%
%TA.AperFunction,Conductor*%
G36*
X190605512Y-87001121D02*
G01*
X190700073Y-87011775D01*
X190721669Y-87016705D01*
X190806202Y-87046283D01*
X190826168Y-87055899D01*
X190864079Y-87079720D01*
X190901987Y-87103540D01*
X190919319Y-87117361D01*
X190971646Y-87169688D01*
X190999423Y-87224205D01*
X191000642Y-87239504D01*
X191021039Y-98008812D01*
X191002242Y-98067039D01*
X190952810Y-98103096D01*
X190922039Y-98108000D01*
X189520501Y-98108000D01*
X189520500Y-98108001D01*
X189520500Y-100457998D01*
X189520501Y-100457999D01*
X190920472Y-100457999D01*
X190921826Y-100457930D01*
X190922082Y-100457999D01*
X190922998Y-100457999D01*
X190922998Y-100458245D01*
X190980903Y-100473852D01*
X191019340Y-100521457D01*
X191025864Y-100556614D01*
X191031741Y-103659548D01*
X191012944Y-103717775D01*
X190963512Y-103753832D01*
X190922697Y-103758225D01*
X190920491Y-103758000D01*
X189520501Y-103758000D01*
X189520500Y-103758001D01*
X189520500Y-106107998D01*
X189520501Y-106107999D01*
X190920481Y-106107999D01*
X190927496Y-106107282D01*
X190987308Y-106120175D01*
X191028118Y-106165762D01*
X191036562Y-106205581D01*
X191042261Y-109214618D01*
X191023464Y-109272845D01*
X190974032Y-109308902D01*
X190933201Y-109313294D01*
X190895080Y-109309400D01*
X189495101Y-109309400D01*
X189495100Y-109309401D01*
X189495100Y-111659398D01*
X189495101Y-111659399D01*
X190895086Y-111659399D01*
X190938008Y-111655014D01*
X190997819Y-111667909D01*
X191038628Y-111713498D01*
X191047070Y-111753314D01*
X191052964Y-114865713D01*
X191034167Y-114923939D01*
X190984735Y-114959996D01*
X190943902Y-114964387D01*
X190895088Y-114959400D01*
X189495101Y-114959400D01*
X189495100Y-114959401D01*
X189495100Y-117309398D01*
X189495101Y-117309399D01*
X190895086Y-117309399D01*
X190948707Y-117303921D01*
X191008518Y-117316816D01*
X191049327Y-117362405D01*
X191057769Y-117402221D01*
X191098863Y-139099906D01*
X191098240Y-139111178D01*
X191088225Y-139200061D01*
X191083293Y-139221673D01*
X191053718Y-139306196D01*
X191044098Y-139326171D01*
X190996459Y-139401987D01*
X190982638Y-139419319D01*
X190919319Y-139482638D01*
X190901987Y-139496459D01*
X190826171Y-139544098D01*
X190806196Y-139553718D01*
X190721673Y-139583293D01*
X190700061Y-139588225D01*
X190605529Y-139598877D01*
X190594444Y-139599500D01*
X127575508Y-139599500D01*
X127517317Y-139580593D01*
X127505504Y-139570504D01*
X125829496Y-137894496D01*
X125801719Y-137839979D01*
X125800500Y-137824492D01*
X125800500Y-137413996D01*
X126985259Y-137413996D01*
X126985259Y-137414003D01*
X127004574Y-137610126D01*
X127004575Y-137610129D01*
X127061787Y-137798730D01*
X127061788Y-137798732D01*
X127120757Y-137909054D01*
X127154690Y-137972538D01*
X127154692Y-137972540D01*
X127154693Y-137972542D01*
X127279712Y-138124878D01*
X127279721Y-138124887D01*
X127419918Y-138239944D01*
X127432062Y-138249910D01*
X127527970Y-138301174D01*
X127604774Y-138342227D01*
X127605873Y-138342814D01*
X127794468Y-138400024D01*
X127794470Y-138400024D01*
X127794473Y-138400025D01*
X127990597Y-138419341D01*
X127990600Y-138419341D01*
X127990603Y-138419341D01*
X128186726Y-138400025D01*
X128186727Y-138400024D01*
X128186732Y-138400024D01*
X128375327Y-138342814D01*
X128549138Y-138249910D01*
X128701483Y-138124883D01*
X128826510Y-137972538D01*
X128919414Y-137798727D01*
X128976624Y-137610132D01*
X128976934Y-137606993D01*
X128995941Y-137414003D01*
X128995941Y-137413996D01*
X129525259Y-137413996D01*
X129525259Y-137414003D01*
X129544574Y-137610126D01*
X129544575Y-137610129D01*
X129601787Y-137798730D01*
X129601788Y-137798732D01*
X129660757Y-137909054D01*
X129694690Y-137972538D01*
X129694692Y-137972540D01*
X129694693Y-137972542D01*
X129819712Y-138124878D01*
X129819721Y-138124887D01*
X129959918Y-138239944D01*
X129972062Y-138249910D01*
X130067970Y-138301174D01*
X130144774Y-138342227D01*
X130145873Y-138342814D01*
X130334468Y-138400024D01*
X130334470Y-138400024D01*
X130334473Y-138400025D01*
X130530597Y-138419341D01*
X130530600Y-138419341D01*
X130530603Y-138419341D01*
X130726726Y-138400025D01*
X130726727Y-138400024D01*
X130726732Y-138400024D01*
X130915327Y-138342814D01*
X131089138Y-138249910D01*
X131241483Y-138124883D01*
X131366510Y-137972538D01*
X131459414Y-137798727D01*
X131516624Y-137610132D01*
X131516934Y-137606993D01*
X131535941Y-137414003D01*
X131535941Y-137413996D01*
X132065259Y-137413996D01*
X132065259Y-137414003D01*
X132084574Y-137610126D01*
X132084575Y-137610129D01*
X132141787Y-137798730D01*
X132141788Y-137798732D01*
X132200757Y-137909054D01*
X132234690Y-137972538D01*
X132234692Y-137972540D01*
X132234693Y-137972542D01*
X132359712Y-138124878D01*
X132359721Y-138124887D01*
X132499918Y-138239944D01*
X132512062Y-138249910D01*
X132607970Y-138301174D01*
X132684774Y-138342227D01*
X132685873Y-138342814D01*
X132874468Y-138400024D01*
X132874470Y-138400024D01*
X132874473Y-138400025D01*
X133070597Y-138419341D01*
X133070600Y-138419341D01*
X133070603Y-138419341D01*
X133266726Y-138400025D01*
X133266727Y-138400024D01*
X133266732Y-138400024D01*
X133455327Y-138342814D01*
X133629138Y-138249910D01*
X133781483Y-138124883D01*
X133906510Y-137972538D01*
X133999414Y-137798727D01*
X134056624Y-137610132D01*
X134056934Y-137606993D01*
X134075941Y-137414003D01*
X134075941Y-137413996D01*
X134605259Y-137413996D01*
X134605259Y-137414003D01*
X134624574Y-137610126D01*
X134624575Y-137610129D01*
X134681787Y-137798730D01*
X134681788Y-137798732D01*
X134740757Y-137909054D01*
X134774690Y-137972538D01*
X134774692Y-137972540D01*
X134774693Y-137972542D01*
X134899712Y-138124878D01*
X134899721Y-138124887D01*
X135039918Y-138239944D01*
X135052062Y-138249910D01*
X135147970Y-138301174D01*
X135224774Y-138342227D01*
X135225873Y-138342814D01*
X135414468Y-138400024D01*
X135414470Y-138400024D01*
X135414473Y-138400025D01*
X135610597Y-138419341D01*
X135610600Y-138419341D01*
X135610603Y-138419341D01*
X135806726Y-138400025D01*
X135806727Y-138400024D01*
X135806732Y-138400024D01*
X135995327Y-138342814D01*
X136169138Y-138249910D01*
X136321483Y-138124883D01*
X136446510Y-137972538D01*
X136539414Y-137798727D01*
X136596624Y-137610132D01*
X136596934Y-137606993D01*
X136615941Y-137414003D01*
X136615941Y-137413996D01*
X137145259Y-137413996D01*
X137145259Y-137414003D01*
X137164574Y-137610126D01*
X137164575Y-137610129D01*
X137221787Y-137798730D01*
X137221788Y-137798732D01*
X137280757Y-137909054D01*
X137314690Y-137972538D01*
X137314692Y-137972540D01*
X137314693Y-137972542D01*
X137439712Y-138124878D01*
X137439721Y-138124887D01*
X137579918Y-138239944D01*
X137592062Y-138249910D01*
X137687970Y-138301174D01*
X137764774Y-138342227D01*
X137765873Y-138342814D01*
X137954468Y-138400024D01*
X137954470Y-138400024D01*
X137954473Y-138400025D01*
X138150597Y-138419341D01*
X138150600Y-138419341D01*
X138150603Y-138419341D01*
X138346726Y-138400025D01*
X138346727Y-138400024D01*
X138346732Y-138400024D01*
X138535327Y-138342814D01*
X138709138Y-138249910D01*
X138861483Y-138124883D01*
X138986510Y-137972538D01*
X139079414Y-137798727D01*
X139136624Y-137610132D01*
X139136934Y-137606993D01*
X139155941Y-137414003D01*
X139155941Y-137413996D01*
X139685259Y-137413996D01*
X139685259Y-137414003D01*
X139704574Y-137610126D01*
X139704575Y-137610129D01*
X139761787Y-137798730D01*
X139761788Y-137798732D01*
X139820757Y-137909054D01*
X139854690Y-137972538D01*
X139854692Y-137972540D01*
X139854693Y-137972542D01*
X139979712Y-138124878D01*
X139979721Y-138124887D01*
X140119918Y-138239944D01*
X140132062Y-138249910D01*
X140227970Y-138301174D01*
X140304774Y-138342227D01*
X140305873Y-138342814D01*
X140494468Y-138400024D01*
X140494470Y-138400024D01*
X140494473Y-138400025D01*
X140690597Y-138419341D01*
X140690600Y-138419341D01*
X140690603Y-138419341D01*
X140886726Y-138400025D01*
X140886727Y-138400024D01*
X140886732Y-138400024D01*
X141075327Y-138342814D01*
X141249138Y-138249910D01*
X141401483Y-138124883D01*
X141526510Y-137972538D01*
X141619414Y-137798727D01*
X141676624Y-137610132D01*
X141676934Y-137606993D01*
X141695941Y-137414003D01*
X141695941Y-137413996D01*
X142225259Y-137413996D01*
X142225259Y-137414003D01*
X142244574Y-137610126D01*
X142244575Y-137610129D01*
X142301787Y-137798730D01*
X142301788Y-137798732D01*
X142360757Y-137909054D01*
X142394690Y-137972538D01*
X142394692Y-137972540D01*
X142394693Y-137972542D01*
X142519712Y-138124878D01*
X142519721Y-138124887D01*
X142659918Y-138239944D01*
X142672062Y-138249910D01*
X142767970Y-138301174D01*
X142844774Y-138342227D01*
X142845873Y-138342814D01*
X143034468Y-138400024D01*
X143034470Y-138400024D01*
X143034473Y-138400025D01*
X143230597Y-138419341D01*
X143230600Y-138419341D01*
X143230603Y-138419341D01*
X143426726Y-138400025D01*
X143426727Y-138400024D01*
X143426732Y-138400024D01*
X143615327Y-138342814D01*
X143789138Y-138249910D01*
X143941483Y-138124883D01*
X144066510Y-137972538D01*
X144159414Y-137798727D01*
X144216624Y-137610132D01*
X144216934Y-137606993D01*
X144235941Y-137414003D01*
X144235941Y-137413996D01*
X144765259Y-137413996D01*
X144765259Y-137414003D01*
X144784574Y-137610126D01*
X144784575Y-137610129D01*
X144841787Y-137798730D01*
X144841788Y-137798732D01*
X144900757Y-137909054D01*
X144934690Y-137972538D01*
X144934692Y-137972540D01*
X144934693Y-137972542D01*
X145059712Y-138124878D01*
X145059721Y-138124887D01*
X145199918Y-138239944D01*
X145212062Y-138249910D01*
X145307970Y-138301174D01*
X145384774Y-138342227D01*
X145385873Y-138342814D01*
X145574468Y-138400024D01*
X145574470Y-138400024D01*
X145574473Y-138400025D01*
X145770597Y-138419341D01*
X145770600Y-138419341D01*
X145770603Y-138419341D01*
X145966726Y-138400025D01*
X145966727Y-138400024D01*
X145966732Y-138400024D01*
X146155327Y-138342814D01*
X146329138Y-138249910D01*
X146481483Y-138124883D01*
X146606510Y-137972538D01*
X146699414Y-137798727D01*
X146756624Y-137610132D01*
X146756934Y-137606993D01*
X146775941Y-137414003D01*
X146775941Y-137413996D01*
X148825259Y-137413996D01*
X148825259Y-137414003D01*
X148844574Y-137610126D01*
X148844575Y-137610129D01*
X148901787Y-137798730D01*
X148901788Y-137798732D01*
X148960757Y-137909054D01*
X148994690Y-137972538D01*
X148994692Y-137972540D01*
X148994693Y-137972542D01*
X149119712Y-138124878D01*
X149119721Y-138124887D01*
X149259918Y-138239944D01*
X149272062Y-138249910D01*
X149367970Y-138301174D01*
X149444774Y-138342227D01*
X149445873Y-138342814D01*
X149634468Y-138400024D01*
X149634470Y-138400024D01*
X149634473Y-138400025D01*
X149830597Y-138419341D01*
X149830600Y-138419341D01*
X149830603Y-138419341D01*
X150026726Y-138400025D01*
X150026727Y-138400024D01*
X150026732Y-138400024D01*
X150215327Y-138342814D01*
X150389138Y-138249910D01*
X150541483Y-138124883D01*
X150666510Y-137972538D01*
X150759414Y-137798727D01*
X150816624Y-137610132D01*
X150816934Y-137606993D01*
X150835941Y-137414003D01*
X150835941Y-137413996D01*
X151365259Y-137413996D01*
X151365259Y-137414003D01*
X151384574Y-137610126D01*
X151384575Y-137610129D01*
X151441787Y-137798730D01*
X151441788Y-137798732D01*
X151500757Y-137909054D01*
X151534690Y-137972538D01*
X151534692Y-137972540D01*
X151534693Y-137972542D01*
X151659712Y-138124878D01*
X151659721Y-138124887D01*
X151799918Y-138239944D01*
X151812062Y-138249910D01*
X151907970Y-138301174D01*
X151984774Y-138342227D01*
X151985873Y-138342814D01*
X152174468Y-138400024D01*
X152174470Y-138400024D01*
X152174473Y-138400025D01*
X152370597Y-138419341D01*
X152370600Y-138419341D01*
X152370603Y-138419341D01*
X152566726Y-138400025D01*
X152566727Y-138400024D01*
X152566732Y-138400024D01*
X152755327Y-138342814D01*
X152929138Y-138249910D01*
X153081483Y-138124883D01*
X153206510Y-137972538D01*
X153299414Y-137798727D01*
X153356624Y-137610132D01*
X153356934Y-137606993D01*
X153375941Y-137414003D01*
X153375941Y-137413996D01*
X153905259Y-137413996D01*
X153905259Y-137414003D01*
X153924574Y-137610126D01*
X153924575Y-137610129D01*
X153981787Y-137798730D01*
X153981788Y-137798732D01*
X154040757Y-137909054D01*
X154074690Y-137972538D01*
X154074692Y-137972540D01*
X154074693Y-137972542D01*
X154199712Y-138124878D01*
X154199721Y-138124887D01*
X154339918Y-138239944D01*
X154352062Y-138249910D01*
X154447970Y-138301174D01*
X154524774Y-138342227D01*
X154525873Y-138342814D01*
X154714468Y-138400024D01*
X154714470Y-138400024D01*
X154714473Y-138400025D01*
X154910597Y-138419341D01*
X154910600Y-138419341D01*
X154910603Y-138419341D01*
X155106726Y-138400025D01*
X155106727Y-138400024D01*
X155106732Y-138400024D01*
X155295327Y-138342814D01*
X155469138Y-138249910D01*
X155621483Y-138124883D01*
X155746510Y-137972538D01*
X155839414Y-137798727D01*
X155896624Y-137610132D01*
X155896934Y-137606993D01*
X155915941Y-137414003D01*
X155915941Y-137413996D01*
X156445259Y-137413996D01*
X156445259Y-137414003D01*
X156464574Y-137610126D01*
X156464575Y-137610129D01*
X156521787Y-137798730D01*
X156521788Y-137798732D01*
X156580757Y-137909054D01*
X156614690Y-137972538D01*
X156614692Y-137972540D01*
X156614693Y-137972542D01*
X156739712Y-138124878D01*
X156739721Y-138124887D01*
X156879918Y-138239944D01*
X156892062Y-138249910D01*
X156987970Y-138301174D01*
X157064774Y-138342227D01*
X157065873Y-138342814D01*
X157254468Y-138400024D01*
X157254470Y-138400024D01*
X157254473Y-138400025D01*
X157450597Y-138419341D01*
X157450600Y-138419341D01*
X157450603Y-138419341D01*
X157646726Y-138400025D01*
X157646727Y-138400024D01*
X157646732Y-138400024D01*
X157835327Y-138342814D01*
X158009138Y-138249910D01*
X158161483Y-138124883D01*
X158286510Y-137972538D01*
X158379414Y-137798727D01*
X158436624Y-137610132D01*
X158436934Y-137606993D01*
X158455941Y-137414003D01*
X158455941Y-137413996D01*
X158985259Y-137413996D01*
X158985259Y-137414003D01*
X159004574Y-137610126D01*
X159004575Y-137610129D01*
X159061787Y-137798730D01*
X159061788Y-137798732D01*
X159120757Y-137909054D01*
X159154690Y-137972538D01*
X159154692Y-137972540D01*
X159154693Y-137972542D01*
X159279712Y-138124878D01*
X159279721Y-138124887D01*
X159419918Y-138239944D01*
X159432062Y-138249910D01*
X159527970Y-138301174D01*
X159604774Y-138342227D01*
X159605873Y-138342814D01*
X159794468Y-138400024D01*
X159794470Y-138400024D01*
X159794473Y-138400025D01*
X159990597Y-138419341D01*
X159990600Y-138419341D01*
X159990603Y-138419341D01*
X160186726Y-138400025D01*
X160186727Y-138400024D01*
X160186732Y-138400024D01*
X160375327Y-138342814D01*
X160549138Y-138249910D01*
X160701483Y-138124883D01*
X160826510Y-137972538D01*
X160919414Y-137798727D01*
X160976624Y-137610132D01*
X160976934Y-137606993D01*
X160995941Y-137414003D01*
X160995941Y-137413996D01*
X161525259Y-137413996D01*
X161525259Y-137414003D01*
X161544574Y-137610126D01*
X161544575Y-137610129D01*
X161601787Y-137798730D01*
X161601788Y-137798732D01*
X161660757Y-137909054D01*
X161694690Y-137972538D01*
X161694692Y-137972540D01*
X161694693Y-137972542D01*
X161819712Y-138124878D01*
X161819721Y-138124887D01*
X161959918Y-138239944D01*
X161972062Y-138249910D01*
X162067970Y-138301174D01*
X162144774Y-138342227D01*
X162145873Y-138342814D01*
X162334468Y-138400024D01*
X162334470Y-138400024D01*
X162334473Y-138400025D01*
X162530597Y-138419341D01*
X162530600Y-138419341D01*
X162530603Y-138419341D01*
X162726726Y-138400025D01*
X162726727Y-138400024D01*
X162726732Y-138400024D01*
X162915327Y-138342814D01*
X163089138Y-138249910D01*
X163241483Y-138124883D01*
X163366510Y-137972538D01*
X163459414Y-137798727D01*
X163516624Y-137610132D01*
X163516934Y-137606993D01*
X163535941Y-137414003D01*
X163535941Y-137413996D01*
X163516625Y-137217873D01*
X163516624Y-137217870D01*
X163516624Y-137217868D01*
X163459414Y-137029273D01*
X163452386Y-137016125D01*
X163441629Y-136955896D01*
X163468329Y-136900844D01*
X163469642Y-136899503D01*
X163917708Y-136451437D01*
X163972223Y-136423662D01*
X164032655Y-136433233D01*
X164075920Y-136476498D01*
X164085491Y-136536930D01*
X164068806Y-136578227D01*
X163940465Y-136761518D01*
X163844333Y-136967676D01*
X163791728Y-137164000D01*
X164637588Y-137164000D01*
X164604675Y-137221007D01*
X164570600Y-137348174D01*
X164570600Y-137479826D01*
X164604675Y-137606993D01*
X164637588Y-137664000D01*
X163791728Y-137664000D01*
X163844333Y-137860323D01*
X163940465Y-138066481D01*
X164070934Y-138252811D01*
X164231788Y-138413665D01*
X164418118Y-138544134D01*
X164624276Y-138640266D01*
X164820600Y-138692872D01*
X164820600Y-137847012D01*
X164877607Y-137879925D01*
X165004774Y-137914000D01*
X165136426Y-137914000D01*
X165263593Y-137879925D01*
X165320600Y-137847012D01*
X165320600Y-138692871D01*
X165516923Y-138640266D01*
X165723081Y-138544134D01*
X165909411Y-138413665D01*
X166070265Y-138252811D01*
X166200734Y-138066481D01*
X166296866Y-137860323D01*
X166349472Y-137664000D01*
X165503612Y-137664000D01*
X165536525Y-137606993D01*
X165570600Y-137479826D01*
X165570600Y-137413996D01*
X166605259Y-137413996D01*
X166605259Y-137414003D01*
X166624574Y-137610126D01*
X166624575Y-137610129D01*
X166681787Y-137798730D01*
X166681788Y-137798732D01*
X166740757Y-137909054D01*
X166774690Y-137972538D01*
X166774692Y-137972540D01*
X166774693Y-137972542D01*
X166899712Y-138124878D01*
X166899721Y-138124887D01*
X167039918Y-138239944D01*
X167052062Y-138249910D01*
X167147970Y-138301174D01*
X167224774Y-138342227D01*
X167225873Y-138342814D01*
X167414468Y-138400024D01*
X167414470Y-138400024D01*
X167414473Y-138400025D01*
X167610597Y-138419341D01*
X167610600Y-138419341D01*
X167610603Y-138419341D01*
X167806726Y-138400025D01*
X167806727Y-138400024D01*
X167806732Y-138400024D01*
X167995327Y-138342814D01*
X168169138Y-138249910D01*
X168321483Y-138124883D01*
X168446510Y-137972538D01*
X168539414Y-137798727D01*
X168596624Y-137610132D01*
X168596934Y-137606993D01*
X168615941Y-137414003D01*
X168615941Y-137413996D01*
X169145259Y-137413996D01*
X169145259Y-137414003D01*
X169164574Y-137610126D01*
X169164575Y-137610129D01*
X169221787Y-137798730D01*
X169221788Y-137798732D01*
X169280757Y-137909054D01*
X169314690Y-137972538D01*
X169314692Y-137972540D01*
X169314693Y-137972542D01*
X169439712Y-138124878D01*
X169439721Y-138124887D01*
X169579918Y-138239944D01*
X169592062Y-138249910D01*
X169687970Y-138301174D01*
X169764774Y-138342227D01*
X169765873Y-138342814D01*
X169954468Y-138400024D01*
X169954470Y-138400024D01*
X169954473Y-138400025D01*
X170150597Y-138419341D01*
X170150600Y-138419341D01*
X170150603Y-138419341D01*
X170346726Y-138400025D01*
X170346727Y-138400024D01*
X170346732Y-138400024D01*
X170535327Y-138342814D01*
X170709138Y-138249910D01*
X170861483Y-138124883D01*
X170986510Y-137972538D01*
X171079414Y-137798727D01*
X171136624Y-137610132D01*
X171136934Y-137606993D01*
X171155941Y-137414003D01*
X171155941Y-137413996D01*
X171685259Y-137413996D01*
X171685259Y-137414003D01*
X171704574Y-137610126D01*
X171704575Y-137610129D01*
X171761787Y-137798730D01*
X171761788Y-137798732D01*
X171820757Y-137909054D01*
X171854690Y-137972538D01*
X171854692Y-137972540D01*
X171854693Y-137972542D01*
X171979712Y-138124878D01*
X171979721Y-138124887D01*
X172119918Y-138239944D01*
X172132062Y-138249910D01*
X172227970Y-138301174D01*
X172304774Y-138342227D01*
X172305873Y-138342814D01*
X172494468Y-138400024D01*
X172494470Y-138400024D01*
X172494473Y-138400025D01*
X172690597Y-138419341D01*
X172690600Y-138419341D01*
X172690603Y-138419341D01*
X172886726Y-138400025D01*
X172886732Y-138400024D01*
X172922308Y-138389232D01*
X173075327Y-138342814D01*
X173088467Y-138335789D01*
X173148698Y-138325029D01*
X173203752Y-138351726D01*
X173205146Y-138353092D01*
X173872781Y-139020727D01*
X173872780Y-139020727D01*
X173928672Y-139076618D01*
X173928677Y-139076622D01*
X173997123Y-139116139D01*
X173997127Y-139116141D01*
X174073475Y-139136599D01*
X174073477Y-139136600D01*
X174073478Y-139136600D01*
X178957123Y-139136600D01*
X178957123Y-139136599D01*
X179033473Y-139116141D01*
X179061430Y-139100000D01*
X179101927Y-139076620D01*
X179788508Y-138390037D01*
X179843023Y-138362262D01*
X179903455Y-138371833D01*
X179905172Y-138372729D01*
X179936046Y-138389232D01*
X180073997Y-138431078D01*
X180134065Y-138449300D01*
X180134070Y-138449301D01*
X180339997Y-138469583D01*
X180340000Y-138469583D01*
X180340003Y-138469583D01*
X180545929Y-138449301D01*
X180545934Y-138449300D01*
X180743954Y-138389232D01*
X180926450Y-138291685D01*
X181086410Y-138160410D01*
X181217685Y-138000450D01*
X181315232Y-137817954D01*
X181360819Y-137667671D01*
X181395802Y-137617477D01*
X181453611Y-137597430D01*
X181512162Y-137615191D01*
X181549091Y-137663975D01*
X181551182Y-137670788D01*
X181606568Y-137877489D01*
X181706398Y-138091577D01*
X181841885Y-138285073D01*
X182008925Y-138452113D01*
X182202421Y-138587600D01*
X182416508Y-138687430D01*
X182629999Y-138744634D01*
X182629999Y-137847012D01*
X182687006Y-137879925D01*
X182814173Y-137914000D01*
X182945825Y-137914000D01*
X183072992Y-137879925D01*
X183129999Y-137847012D01*
X183129999Y-138744633D01*
X183343489Y-138687430D01*
X183557576Y-138587600D01*
X183751072Y-138452113D01*
X183918112Y-138285073D01*
X184053599Y-138091577D01*
X184153429Y-137877490D01*
X184208816Y-137670784D01*
X184242140Y-137619470D01*
X184299261Y-137597543D01*
X184358362Y-137613378D01*
X184396867Y-137660928D01*
X184399180Y-137667669D01*
X184444768Y-137817954D01*
X184542316Y-138000452D01*
X184644430Y-138124878D01*
X184673590Y-138160410D01*
X184673595Y-138160414D01*
X184833547Y-138291683D01*
X184833548Y-138291683D01*
X184833550Y-138291685D01*
X185016046Y-138389232D01*
X185153997Y-138431078D01*
X185214065Y-138449300D01*
X185214070Y-138449301D01*
X185419997Y-138469583D01*
X185420000Y-138469583D01*
X185420003Y-138469583D01*
X185625929Y-138449301D01*
X185625934Y-138449300D01*
X185823954Y-138389232D01*
X186006450Y-138291685D01*
X186166410Y-138160410D01*
X186297685Y-138000450D01*
X186395232Y-137817954D01*
X186455300Y-137619934D01*
X186455301Y-137619929D01*
X186475583Y-137414003D01*
X186475583Y-137413996D01*
X186455301Y-137208070D01*
X186455300Y-137208065D01*
X186401064Y-137029273D01*
X186395232Y-137010046D01*
X186297685Y-136827550D01*
X186251164Y-136770864D01*
X186166414Y-136667595D01*
X186166410Y-136667590D01*
X186166404Y-136667585D01*
X186006452Y-136536316D01*
X185823954Y-136438768D01*
X185625934Y-136378699D01*
X185625929Y-136378698D01*
X185420003Y-136358417D01*
X185419997Y-136358417D01*
X185214070Y-136378698D01*
X185214065Y-136378699D01*
X185016045Y-136438768D01*
X184833547Y-136536316D01*
X184673595Y-136667585D01*
X184673585Y-136667595D01*
X184542316Y-136827547D01*
X184444768Y-137010045D01*
X184399180Y-137160330D01*
X184364195Y-137210527D01*
X184306387Y-137230573D01*
X184247836Y-137212812D01*
X184210907Y-137164027D01*
X184208816Y-137157215D01*
X184153428Y-136950505D01*
X184053604Y-136736432D01*
X184053600Y-136736424D01*
X183918112Y-136542926D01*
X183751072Y-136375886D01*
X183557576Y-136240399D01*
X183343488Y-136140569D01*
X183129999Y-136083364D01*
X183129999Y-136980988D01*
X183072992Y-136948075D01*
X182945825Y-136914000D01*
X182814173Y-136914000D01*
X182687006Y-136948075D01*
X182629999Y-136980988D01*
X182629999Y-136083363D01*
X182464493Y-136127711D01*
X182403392Y-136124508D01*
X182355842Y-136086003D01*
X182340006Y-136026903D01*
X182361933Y-135969781D01*
X182368860Y-135962086D01*
X182873751Y-135457196D01*
X182928268Y-135429419D01*
X182943755Y-135428200D01*
X184545123Y-135428200D01*
X184545123Y-135428199D01*
X184598790Y-135413818D01*
X184621470Y-135407742D01*
X184621470Y-135407741D01*
X184621473Y-135407741D01*
X184655939Y-135387842D01*
X184689927Y-135368220D01*
X185873850Y-134184295D01*
X185928367Y-134156519D01*
X185943854Y-134155300D01*
X185999959Y-134155300D01*
X185999961Y-134155300D01*
X186138053Y-134114753D01*
X186259128Y-134036943D01*
X186353377Y-133928173D01*
X186413165Y-133797257D01*
X186433647Y-133654800D01*
X186430594Y-133633569D01*
X186413165Y-133512343D01*
X186362223Y-133400797D01*
X186353377Y-133381427D01*
X186259128Y-133272657D01*
X186259127Y-133272656D01*
X186259126Y-133272655D01*
X186138057Y-133194849D01*
X186138054Y-133194847D01*
X186138053Y-133194847D01*
X186138050Y-133194846D01*
X185999964Y-133154300D01*
X185999961Y-133154300D01*
X185856039Y-133154300D01*
X185856035Y-133154300D01*
X185717949Y-133194846D01*
X185717942Y-133194849D01*
X185596873Y-133272655D01*
X185502622Y-133381428D01*
X185442834Y-133512343D01*
X185422353Y-133654797D01*
X185422353Y-133654802D01*
X185431880Y-133721067D01*
X185421447Y-133781357D01*
X185403892Y-133805160D01*
X184410249Y-134798804D01*
X184355732Y-134826581D01*
X184340245Y-134827800D01*
X182738875Y-134827800D01*
X182662530Y-134848257D01*
X182662519Y-134848262D01*
X182637471Y-134862723D01*
X182637471Y-134862724D01*
X182612416Y-134877189D01*
X182594074Y-134887779D01*
X180990806Y-136491045D01*
X180936289Y-136518822D01*
X180875857Y-136509251D01*
X180874133Y-136508351D01*
X180863529Y-136502683D01*
X180743954Y-136438768D01*
X180545934Y-136378699D01*
X180545929Y-136378698D01*
X180340003Y-136358417D01*
X180339997Y-136358417D01*
X180134070Y-136378698D01*
X180134065Y-136378699D01*
X179936045Y-136438768D01*
X179753547Y-136536316D01*
X179593595Y-136667585D01*
X179593585Y-136667595D01*
X179462316Y-136827547D01*
X179364768Y-137010045D01*
X179304699Y-137208065D01*
X179304698Y-137208070D01*
X179284417Y-137413996D01*
X179284417Y-137414003D01*
X179304698Y-137619929D01*
X179304699Y-137619934D01*
X179364768Y-137817954D01*
X179364768Y-137817956D01*
X179381266Y-137848821D01*
X179392021Y-137909054D01*
X179365318Y-137964105D01*
X179363959Y-137965491D01*
X179019504Y-138309947D01*
X178964987Y-138337725D01*
X178904555Y-138328154D01*
X178861290Y-138284889D01*
X178850500Y-138239944D01*
X178850500Y-136829055D01*
X178869407Y-136770864D01*
X178879496Y-136759051D01*
X181908551Y-133729996D01*
X181963068Y-133702219D01*
X181978555Y-133701000D01*
X183753456Y-133701000D01*
X183811647Y-133719907D01*
X183828275Y-133735169D01*
X183869670Y-133782941D01*
X183869672Y-133782943D01*
X183891943Y-133797256D01*
X183990747Y-133860753D01*
X184097203Y-133892011D01*
X184128835Y-133901299D01*
X184128836Y-133901299D01*
X184128839Y-133901300D01*
X184128841Y-133901300D01*
X184272759Y-133901300D01*
X184272761Y-133901300D01*
X184410853Y-133860753D01*
X184531928Y-133782943D01*
X184626177Y-133674173D01*
X184685965Y-133543257D01*
X184706447Y-133400800D01*
X184700508Y-133359495D01*
X184685965Y-133258343D01*
X184656967Y-133194847D01*
X184626177Y-133127427D01*
X184531928Y-133018657D01*
X184531927Y-133018656D01*
X184531926Y-133018655D01*
X184410857Y-132940849D01*
X184410854Y-132940847D01*
X184410853Y-132940847D01*
X184410850Y-132940846D01*
X184272764Y-132900300D01*
X184272761Y-132900300D01*
X184128839Y-132900300D01*
X184128835Y-132900300D01*
X183990749Y-132940846D01*
X183990742Y-132940849D01*
X183869672Y-133018656D01*
X183869670Y-133018658D01*
X183828275Y-133066431D01*
X183775879Y-133098027D01*
X183753456Y-133100600D01*
X181773675Y-133100600D01*
X181697330Y-133121057D01*
X181697319Y-133121062D01*
X181672271Y-133135523D01*
X181672271Y-133135524D01*
X181647216Y-133149989D01*
X181628874Y-133160579D01*
X178454949Y-136334504D01*
X178400432Y-136362281D01*
X178384945Y-136363500D01*
X176930252Y-136363500D01*
X176930251Y-136363500D01*
X176930241Y-136363501D01*
X176871772Y-136375132D01*
X176871766Y-136375134D01*
X176805451Y-136419445D01*
X176805445Y-136419451D01*
X176761134Y-136485766D01*
X176761132Y-136485772D01*
X176749501Y-136544241D01*
X176749500Y-136544253D01*
X176749500Y-138283746D01*
X176749501Y-138283758D01*
X176760315Y-138338121D01*
X176761133Y-138342231D01*
X176787839Y-138382199D01*
X176804448Y-138441085D01*
X176783271Y-138498489D01*
X176732398Y-138532483D01*
X176705524Y-138536200D01*
X174278354Y-138536200D01*
X174220163Y-138517293D01*
X174208350Y-138507204D01*
X173629692Y-137928546D01*
X173601915Y-137874029D01*
X173611486Y-137813597D01*
X173612390Y-137811867D01*
X173619412Y-137798731D01*
X173619413Y-137798728D01*
X173619414Y-137798727D01*
X173676624Y-137610132D01*
X173676934Y-137606993D01*
X173695941Y-137414003D01*
X173695941Y-137413996D01*
X173676625Y-137217873D01*
X173676624Y-137217870D01*
X173676624Y-137217868D01*
X173619414Y-137029273D01*
X173611197Y-137013901D01*
X173577774Y-136951371D01*
X173526510Y-136855462D01*
X173449412Y-136761518D01*
X173401487Y-136703121D01*
X173401478Y-136703112D01*
X173249142Y-136578093D01*
X173249140Y-136578092D01*
X173249138Y-136578090D01*
X173187078Y-136544918D01*
X173075332Y-136485188D01*
X173075330Y-136485187D01*
X173075323Y-136485185D01*
X172904062Y-136433233D01*
X172886729Y-136427975D01*
X172886726Y-136427974D01*
X172690603Y-136408659D01*
X172690597Y-136408659D01*
X172494473Y-136427974D01*
X172494470Y-136427975D01*
X172305869Y-136485187D01*
X172305867Y-136485188D01*
X172132067Y-136578087D01*
X172132057Y-136578093D01*
X171979721Y-136703112D01*
X171979712Y-136703121D01*
X171854693Y-136855457D01*
X171854687Y-136855467D01*
X171761788Y-137029267D01*
X171761787Y-137029269D01*
X171704575Y-137217870D01*
X171704574Y-137217873D01*
X171685259Y-137413996D01*
X171155941Y-137413996D01*
X171136625Y-137217873D01*
X171136624Y-137217870D01*
X171136624Y-137217868D01*
X171079414Y-137029273D01*
X171071197Y-137013901D01*
X171037774Y-136951371D01*
X170986510Y-136855462D01*
X170909412Y-136761518D01*
X170861487Y-136703121D01*
X170861478Y-136703112D01*
X170709142Y-136578093D01*
X170709140Y-136578092D01*
X170709138Y-136578090D01*
X170647078Y-136544918D01*
X170535332Y-136485188D01*
X170535330Y-136485187D01*
X170535323Y-136485185D01*
X170364062Y-136433233D01*
X170346729Y-136427975D01*
X170346726Y-136427974D01*
X170150603Y-136408659D01*
X170150597Y-136408659D01*
X169954473Y-136427974D01*
X169954470Y-136427975D01*
X169765869Y-136485187D01*
X169765867Y-136485188D01*
X169592067Y-136578087D01*
X169592057Y-136578093D01*
X169439721Y-136703112D01*
X169439712Y-136703121D01*
X169314693Y-136855457D01*
X169314687Y-136855467D01*
X169221788Y-137029267D01*
X169221787Y-137029269D01*
X169164575Y-137217870D01*
X169164574Y-137217873D01*
X169145259Y-137413996D01*
X168615941Y-137413996D01*
X168596625Y-137217873D01*
X168596624Y-137217870D01*
X168596624Y-137217868D01*
X168539414Y-137029273D01*
X168531197Y-137013901D01*
X168497774Y-136951371D01*
X168446510Y-136855462D01*
X168369412Y-136761518D01*
X168321487Y-136703121D01*
X168321478Y-136703112D01*
X168169142Y-136578093D01*
X168169140Y-136578092D01*
X168169138Y-136578090D01*
X168107078Y-136544918D01*
X167995332Y-136485188D01*
X167995330Y-136485187D01*
X167995323Y-136485185D01*
X167824062Y-136433233D01*
X167806729Y-136427975D01*
X167806726Y-136427974D01*
X167610603Y-136408659D01*
X167610597Y-136408659D01*
X167414473Y-136427974D01*
X167414470Y-136427975D01*
X167225869Y-136485187D01*
X167225867Y-136485188D01*
X167052067Y-136578087D01*
X167052057Y-136578093D01*
X166899721Y-136703112D01*
X166899712Y-136703121D01*
X166774693Y-136855457D01*
X166774687Y-136855467D01*
X166681788Y-137029267D01*
X166681787Y-137029269D01*
X166624575Y-137217870D01*
X166624574Y-137217873D01*
X166605259Y-137413996D01*
X165570600Y-137413996D01*
X165570600Y-137348174D01*
X165536525Y-137221007D01*
X165503612Y-137164000D01*
X166349472Y-137164000D01*
X166296866Y-136967676D01*
X166200734Y-136761518D01*
X166070265Y-136575188D01*
X165909411Y-136414334D01*
X165723081Y-136283865D01*
X165516923Y-136187732D01*
X165320600Y-136135127D01*
X165320600Y-136980988D01*
X165263593Y-136948075D01*
X165136426Y-136914000D01*
X165004774Y-136914000D01*
X164877607Y-136948075D01*
X164820600Y-136980988D01*
X164820600Y-136135127D01*
X164624276Y-136187732D01*
X164418118Y-136283865D01*
X164234828Y-136412206D01*
X164176316Y-136430095D01*
X164118464Y-136410175D01*
X164083370Y-136360055D01*
X164084438Y-136298878D01*
X164108040Y-136261106D01*
X165101023Y-135268124D01*
X166740751Y-133628396D01*
X166795268Y-133600619D01*
X166810755Y-133599400D01*
X169986656Y-133599400D01*
X170044847Y-133618307D01*
X170061475Y-133633569D01*
X170096659Y-133674173D01*
X170102872Y-133681343D01*
X170223947Y-133759153D01*
X170304973Y-133782944D01*
X170362035Y-133799699D01*
X170362036Y-133799699D01*
X170362039Y-133799700D01*
X170362041Y-133799700D01*
X170505959Y-133799700D01*
X170505961Y-133799700D01*
X170644053Y-133759153D01*
X170765128Y-133681343D01*
X170859377Y-133572573D01*
X170919165Y-133441657D01*
X170930978Y-133359493D01*
X170939647Y-133299202D01*
X170939647Y-133299197D01*
X170919165Y-133156743D01*
X170902868Y-133121059D01*
X170859377Y-133025827D01*
X170765128Y-132917057D01*
X170765127Y-132917056D01*
X170765126Y-132917055D01*
X170644057Y-132839249D01*
X170644054Y-132839247D01*
X170644053Y-132839247D01*
X170644050Y-132839246D01*
X170505964Y-132798700D01*
X170505961Y-132798700D01*
X170362039Y-132798700D01*
X170362035Y-132798700D01*
X170223949Y-132839246D01*
X170223942Y-132839249D01*
X170102872Y-132917056D01*
X170102870Y-132917058D01*
X170061475Y-132964831D01*
X170009079Y-132996427D01*
X169986656Y-132999000D01*
X166605875Y-132999000D01*
X166529530Y-133019457D01*
X166529519Y-133019462D01*
X166504471Y-133033923D01*
X166504471Y-133033924D01*
X166479416Y-133048389D01*
X166461074Y-133058979D01*
X163045145Y-136474906D01*
X162990628Y-136502683D01*
X162930196Y-136493112D01*
X162928476Y-136492214D01*
X162915333Y-136485189D01*
X162915331Y-136485188D01*
X162915327Y-136485186D01*
X162744062Y-136433233D01*
X162726729Y-136427975D01*
X162726726Y-136427974D01*
X162530603Y-136408659D01*
X162530597Y-136408659D01*
X162334473Y-136427974D01*
X162334470Y-136427975D01*
X162145869Y-136485187D01*
X162145867Y-136485188D01*
X161972067Y-136578087D01*
X161972057Y-136578093D01*
X161819721Y-136703112D01*
X161819712Y-136703121D01*
X161694693Y-136855457D01*
X161694687Y-136855467D01*
X161601788Y-137029267D01*
X161601787Y-137029269D01*
X161544575Y-137217870D01*
X161544574Y-137217873D01*
X161525259Y-137413996D01*
X160995941Y-137413996D01*
X160976625Y-137217873D01*
X160976624Y-137217870D01*
X160976624Y-137217868D01*
X160919414Y-137029273D01*
X160911197Y-137013901D01*
X160877774Y-136951371D01*
X160826510Y-136855462D01*
X160749412Y-136761518D01*
X160701487Y-136703121D01*
X160701478Y-136703112D01*
X160549142Y-136578093D01*
X160549140Y-136578092D01*
X160549138Y-136578090D01*
X160487078Y-136544918D01*
X160375332Y-136485188D01*
X160375330Y-136485187D01*
X160375323Y-136485185D01*
X160204062Y-136433233D01*
X160186729Y-136427975D01*
X160186726Y-136427974D01*
X159990603Y-136408659D01*
X159990597Y-136408659D01*
X159794473Y-136427974D01*
X159794470Y-136427975D01*
X159605869Y-136485187D01*
X159605867Y-136485188D01*
X159432067Y-136578087D01*
X159432057Y-136578093D01*
X159279721Y-136703112D01*
X159279712Y-136703121D01*
X159154693Y-136855457D01*
X159154687Y-136855467D01*
X159061788Y-137029267D01*
X159061787Y-137029269D01*
X159004575Y-137217870D01*
X159004574Y-137217873D01*
X158985259Y-137413996D01*
X158455941Y-137413996D01*
X158436625Y-137217873D01*
X158436624Y-137217870D01*
X158436624Y-137217868D01*
X158379414Y-137029273D01*
X158371197Y-137013901D01*
X158337774Y-136951371D01*
X158286510Y-136855462D01*
X158209412Y-136761518D01*
X158161487Y-136703121D01*
X158161478Y-136703112D01*
X158009142Y-136578093D01*
X158009140Y-136578092D01*
X158009138Y-136578090D01*
X157947078Y-136544918D01*
X157835332Y-136485188D01*
X157835330Y-136485187D01*
X157835323Y-136485185D01*
X157664062Y-136433233D01*
X157646729Y-136427975D01*
X157646726Y-136427974D01*
X157450603Y-136408659D01*
X157450597Y-136408659D01*
X157254473Y-136427974D01*
X157254470Y-136427975D01*
X157065869Y-136485187D01*
X157065867Y-136485188D01*
X156892067Y-136578087D01*
X156892057Y-136578093D01*
X156739721Y-136703112D01*
X156739712Y-136703121D01*
X156614693Y-136855457D01*
X156614687Y-136855467D01*
X156521788Y-137029267D01*
X156521787Y-137029269D01*
X156464575Y-137217870D01*
X156464574Y-137217873D01*
X156445259Y-137413996D01*
X155915941Y-137413996D01*
X155896625Y-137217873D01*
X155896624Y-137217870D01*
X155896624Y-137217868D01*
X155839414Y-137029273D01*
X155831197Y-137013901D01*
X155797774Y-136951371D01*
X155746510Y-136855462D01*
X155669412Y-136761518D01*
X155621487Y-136703121D01*
X155621478Y-136703112D01*
X155469142Y-136578093D01*
X155469140Y-136578092D01*
X155469138Y-136578090D01*
X155407078Y-136544918D01*
X155295332Y-136485188D01*
X155295330Y-136485187D01*
X155295323Y-136485185D01*
X155124062Y-136433233D01*
X155106729Y-136427975D01*
X155106726Y-136427974D01*
X154910603Y-136408659D01*
X154910597Y-136408659D01*
X154714473Y-136427974D01*
X154714470Y-136427975D01*
X154525869Y-136485187D01*
X154525867Y-136485188D01*
X154352067Y-136578087D01*
X154352057Y-136578093D01*
X154199721Y-136703112D01*
X154199712Y-136703121D01*
X154074693Y-136855457D01*
X154074687Y-136855467D01*
X153981788Y-137029267D01*
X153981787Y-137029269D01*
X153924575Y-137217870D01*
X153924574Y-137217873D01*
X153905259Y-137413996D01*
X153375941Y-137413996D01*
X153356625Y-137217873D01*
X153356624Y-137217870D01*
X153356624Y-137217868D01*
X153299414Y-137029273D01*
X153291197Y-137013901D01*
X153257774Y-136951371D01*
X153206510Y-136855462D01*
X153129412Y-136761518D01*
X153081487Y-136703121D01*
X153081478Y-136703112D01*
X152929142Y-136578093D01*
X152929140Y-136578092D01*
X152929138Y-136578090D01*
X152867078Y-136544918D01*
X152755332Y-136485188D01*
X152755330Y-136485187D01*
X152755323Y-136485185D01*
X152584062Y-136433233D01*
X152566729Y-136427975D01*
X152566726Y-136427974D01*
X152370603Y-136408659D01*
X152370597Y-136408659D01*
X152174473Y-136427974D01*
X152174470Y-136427975D01*
X151985869Y-136485187D01*
X151985867Y-136485188D01*
X151812067Y-136578087D01*
X151812057Y-136578093D01*
X151659721Y-136703112D01*
X151659712Y-136703121D01*
X151534693Y-136855457D01*
X151534687Y-136855467D01*
X151441788Y-137029267D01*
X151441787Y-137029269D01*
X151384575Y-137217870D01*
X151384574Y-137217873D01*
X151365259Y-137413996D01*
X150835941Y-137413996D01*
X150816625Y-137217873D01*
X150816624Y-137217870D01*
X150816624Y-137217868D01*
X150759414Y-137029273D01*
X150751197Y-137013901D01*
X150717774Y-136951371D01*
X150666510Y-136855462D01*
X150589412Y-136761518D01*
X150541487Y-136703121D01*
X150541478Y-136703112D01*
X150389142Y-136578093D01*
X150389140Y-136578092D01*
X150389138Y-136578090D01*
X150327078Y-136544918D01*
X150215332Y-136485188D01*
X150215330Y-136485187D01*
X150215323Y-136485185D01*
X150044062Y-136433233D01*
X150026729Y-136427975D01*
X150026726Y-136427974D01*
X149830603Y-136408659D01*
X149830597Y-136408659D01*
X149634473Y-136427974D01*
X149634470Y-136427975D01*
X149445869Y-136485187D01*
X149445867Y-136485188D01*
X149272067Y-136578087D01*
X149272057Y-136578093D01*
X149119721Y-136703112D01*
X149119712Y-136703121D01*
X148994693Y-136855457D01*
X148994687Y-136855467D01*
X148901788Y-137029267D01*
X148901787Y-137029269D01*
X148844575Y-137217870D01*
X148844574Y-137217873D01*
X148825259Y-137413996D01*
X146775941Y-137413996D01*
X146756625Y-137217873D01*
X146756624Y-137217870D01*
X146756624Y-137217868D01*
X146699414Y-137029273D01*
X146691197Y-137013901D01*
X146657774Y-136951371D01*
X146606510Y-136855462D01*
X146529412Y-136761518D01*
X146481487Y-136703121D01*
X146481478Y-136703112D01*
X146329142Y-136578093D01*
X146329140Y-136578092D01*
X146329138Y-136578090D01*
X146267078Y-136544918D01*
X146155332Y-136485188D01*
X146155330Y-136485187D01*
X146155323Y-136485185D01*
X145984062Y-136433233D01*
X145966729Y-136427975D01*
X145966726Y-136427974D01*
X145890056Y-136420423D01*
X145833999Y-136395903D01*
X145803060Y-136343116D01*
X145809058Y-136282225D01*
X145846235Y-136238617D01*
X145873116Y-136221343D01*
X145967365Y-136112573D01*
X146027153Y-135981657D01*
X146046399Y-135847797D01*
X146047635Y-135839202D01*
X146047635Y-135839197D01*
X146027153Y-135696743D01*
X145992500Y-135620864D01*
X145967365Y-135565827D01*
X145873116Y-135457057D01*
X145873115Y-135457056D01*
X145873114Y-135457055D01*
X145752045Y-135379249D01*
X145752042Y-135379247D01*
X145752041Y-135379247D01*
X145752038Y-135379246D01*
X145613952Y-135338700D01*
X145613949Y-135338700D01*
X145470027Y-135338700D01*
X145470023Y-135338700D01*
X145331937Y-135379246D01*
X145331930Y-135379249D01*
X145210861Y-135457055D01*
X145116610Y-135565828D01*
X145056822Y-135696743D01*
X145036341Y-135839197D01*
X145036341Y-135839202D01*
X145056822Y-135981656D01*
X145104477Y-136086003D01*
X145116611Y-136112573D01*
X145181736Y-136187732D01*
X145210861Y-136221344D01*
X145276957Y-136263821D01*
X145331935Y-136299153D01*
X145359134Y-136307139D01*
X145409642Y-136341673D01*
X145430205Y-136399300D01*
X145412968Y-136458007D01*
X145377914Y-136489439D01*
X145212063Y-136578089D01*
X145212057Y-136578093D01*
X145059721Y-136703112D01*
X145059712Y-136703121D01*
X144934693Y-136855457D01*
X144934687Y-136855467D01*
X144841788Y-137029267D01*
X144841787Y-137029269D01*
X144784575Y-137217870D01*
X144784574Y-137217873D01*
X144765259Y-137413996D01*
X144235941Y-137413996D01*
X144216625Y-137217873D01*
X144216624Y-137217870D01*
X144216624Y-137217868D01*
X144159414Y-137029273D01*
X144151197Y-137013901D01*
X144117774Y-136951371D01*
X144066510Y-136855462D01*
X143989412Y-136761518D01*
X143941487Y-136703121D01*
X143941478Y-136703112D01*
X143789142Y-136578093D01*
X143789140Y-136578092D01*
X143789138Y-136578090D01*
X143727078Y-136544918D01*
X143615332Y-136485188D01*
X143615330Y-136485187D01*
X143615323Y-136485185D01*
X143444062Y-136433233D01*
X143426729Y-136427975D01*
X143426726Y-136427974D01*
X143230603Y-136408659D01*
X143230597Y-136408659D01*
X143034473Y-136427974D01*
X143034470Y-136427975D01*
X142845869Y-136485187D01*
X142845867Y-136485188D01*
X142672067Y-136578087D01*
X142672057Y-136578093D01*
X142519721Y-136703112D01*
X142519712Y-136703121D01*
X142394693Y-136855457D01*
X142394687Y-136855467D01*
X142301788Y-137029267D01*
X142301787Y-137029269D01*
X142244575Y-137217870D01*
X142244574Y-137217873D01*
X142225259Y-137413996D01*
X141695941Y-137413996D01*
X141676625Y-137217873D01*
X141676624Y-137217870D01*
X141676624Y-137217868D01*
X141619414Y-137029273D01*
X141611197Y-137013901D01*
X141577774Y-136951371D01*
X141526510Y-136855462D01*
X141449412Y-136761518D01*
X141401487Y-136703121D01*
X141401478Y-136703112D01*
X141249142Y-136578093D01*
X141249140Y-136578092D01*
X141249138Y-136578090D01*
X141187078Y-136544918D01*
X141075332Y-136485188D01*
X141075330Y-136485187D01*
X141075323Y-136485185D01*
X140904062Y-136433233D01*
X140886729Y-136427975D01*
X140886726Y-136427974D01*
X140690603Y-136408659D01*
X140690597Y-136408659D01*
X140494473Y-136427974D01*
X140494470Y-136427975D01*
X140305869Y-136485187D01*
X140305867Y-136485188D01*
X140132067Y-136578087D01*
X140132057Y-136578093D01*
X139979721Y-136703112D01*
X139979712Y-136703121D01*
X139854693Y-136855457D01*
X139854687Y-136855467D01*
X139761788Y-137029267D01*
X139761787Y-137029269D01*
X139704575Y-137217870D01*
X139704574Y-137217873D01*
X139685259Y-137413996D01*
X139155941Y-137413996D01*
X139136625Y-137217873D01*
X139136624Y-137217870D01*
X139136624Y-137217868D01*
X139079414Y-137029273D01*
X139071197Y-137013901D01*
X139037774Y-136951371D01*
X138986510Y-136855462D01*
X138909412Y-136761518D01*
X138861487Y-136703121D01*
X138861478Y-136703112D01*
X138709142Y-136578093D01*
X138709140Y-136578092D01*
X138709138Y-136578090D01*
X138647078Y-136544918D01*
X138535332Y-136485188D01*
X138535330Y-136485187D01*
X138535323Y-136485185D01*
X138364062Y-136433233D01*
X138346729Y-136427975D01*
X138346726Y-136427974D01*
X138150603Y-136408659D01*
X138150597Y-136408659D01*
X137954473Y-136427974D01*
X137954470Y-136427975D01*
X137765869Y-136485187D01*
X137765867Y-136485188D01*
X137592067Y-136578087D01*
X137592057Y-136578093D01*
X137439721Y-136703112D01*
X137439712Y-136703121D01*
X137314693Y-136855457D01*
X137314687Y-136855467D01*
X137221788Y-137029267D01*
X137221787Y-137029269D01*
X137164575Y-137217870D01*
X137164574Y-137217873D01*
X137145259Y-137413996D01*
X136615941Y-137413996D01*
X136596625Y-137217873D01*
X136596624Y-137217870D01*
X136596624Y-137217868D01*
X136539414Y-137029273D01*
X136531197Y-137013901D01*
X136497774Y-136951371D01*
X136446510Y-136855462D01*
X136369412Y-136761518D01*
X136321487Y-136703121D01*
X136321478Y-136703112D01*
X136169142Y-136578093D01*
X136169140Y-136578092D01*
X136169138Y-136578090D01*
X136107078Y-136544918D01*
X135995332Y-136485188D01*
X135995330Y-136485187D01*
X135995323Y-136485185D01*
X135824062Y-136433233D01*
X135806729Y-136427975D01*
X135806726Y-136427974D01*
X135610603Y-136408659D01*
X135610597Y-136408659D01*
X135414473Y-136427974D01*
X135414470Y-136427975D01*
X135225869Y-136485187D01*
X135225867Y-136485188D01*
X135052067Y-136578087D01*
X135052057Y-136578093D01*
X134899721Y-136703112D01*
X134899712Y-136703121D01*
X134774693Y-136855457D01*
X134774687Y-136855467D01*
X134681788Y-137029267D01*
X134681787Y-137029269D01*
X134624575Y-137217870D01*
X134624574Y-137217873D01*
X134605259Y-137413996D01*
X134075941Y-137413996D01*
X134056625Y-137217873D01*
X134056624Y-137217870D01*
X134056624Y-137217868D01*
X133999414Y-137029273D01*
X133991197Y-137013901D01*
X133957774Y-136951371D01*
X133906510Y-136855462D01*
X133829412Y-136761518D01*
X133781487Y-136703121D01*
X133781478Y-136703112D01*
X133629142Y-136578093D01*
X133629140Y-136578092D01*
X133629138Y-136578090D01*
X133567078Y-136544918D01*
X133455332Y-136485188D01*
X133455330Y-136485187D01*
X133455323Y-136485185D01*
X133284062Y-136433233D01*
X133266729Y-136427975D01*
X133266726Y-136427974D01*
X133070603Y-136408659D01*
X133070597Y-136408659D01*
X132874473Y-136427974D01*
X132874470Y-136427975D01*
X132685869Y-136485187D01*
X132685867Y-136485188D01*
X132512067Y-136578087D01*
X132512057Y-136578093D01*
X132359721Y-136703112D01*
X132359712Y-136703121D01*
X132234693Y-136855457D01*
X132234687Y-136855467D01*
X132141788Y-137029267D01*
X132141787Y-137029269D01*
X132084575Y-137217870D01*
X132084574Y-137217873D01*
X132065259Y-137413996D01*
X131535941Y-137413996D01*
X131516625Y-137217873D01*
X131516624Y-137217870D01*
X131516624Y-137217868D01*
X131459414Y-137029273D01*
X131451197Y-137013901D01*
X131417774Y-136951371D01*
X131366510Y-136855462D01*
X131289412Y-136761518D01*
X131241487Y-136703121D01*
X131241478Y-136703112D01*
X131089142Y-136578093D01*
X131089140Y-136578092D01*
X131089138Y-136578090D01*
X131027078Y-136544918D01*
X130915332Y-136485188D01*
X130915330Y-136485187D01*
X130915323Y-136485185D01*
X130744062Y-136433233D01*
X130726729Y-136427975D01*
X130726726Y-136427974D01*
X130530603Y-136408659D01*
X130530597Y-136408659D01*
X130334473Y-136427974D01*
X130334470Y-136427975D01*
X130145869Y-136485187D01*
X130145867Y-136485188D01*
X129972067Y-136578087D01*
X129972057Y-136578093D01*
X129819721Y-136703112D01*
X129819712Y-136703121D01*
X129694693Y-136855457D01*
X129694687Y-136855467D01*
X129601788Y-137029267D01*
X129601787Y-137029269D01*
X129544575Y-137217870D01*
X129544574Y-137217873D01*
X129525259Y-137413996D01*
X128995941Y-137413996D01*
X128976625Y-137217873D01*
X128976624Y-137217870D01*
X128976624Y-137217868D01*
X128919414Y-137029273D01*
X128911197Y-137013901D01*
X128877774Y-136951371D01*
X128826510Y-136855462D01*
X128749412Y-136761518D01*
X128701487Y-136703121D01*
X128701478Y-136703112D01*
X128549142Y-136578093D01*
X128549140Y-136578092D01*
X128549138Y-136578090D01*
X128487078Y-136544918D01*
X128375332Y-136485188D01*
X128375330Y-136485187D01*
X128375323Y-136485185D01*
X128204062Y-136433233D01*
X128186729Y-136427975D01*
X128186726Y-136427974D01*
X127990603Y-136408659D01*
X127990597Y-136408659D01*
X127794473Y-136427974D01*
X127794470Y-136427975D01*
X127605869Y-136485187D01*
X127605867Y-136485188D01*
X127432067Y-136578087D01*
X127432057Y-136578093D01*
X127279721Y-136703112D01*
X127279712Y-136703121D01*
X127154693Y-136855457D01*
X127154687Y-136855467D01*
X127061788Y-137029267D01*
X127061787Y-137029269D01*
X127004575Y-137217870D01*
X127004574Y-137217873D01*
X126985259Y-137413996D01*
X125800500Y-137413996D01*
X125800500Y-135847792D01*
X136119770Y-135847792D01*
X136119770Y-135847797D01*
X136140251Y-135990251D01*
X136196114Y-136112571D01*
X136200040Y-136121168D01*
X136286842Y-136221344D01*
X136294290Y-136229939D01*
X136407498Y-136302693D01*
X136415364Y-136307748D01*
X136506488Y-136334504D01*
X136553452Y-136348294D01*
X136553453Y-136348294D01*
X136553456Y-136348295D01*
X136553458Y-136348295D01*
X136697376Y-136348295D01*
X136697378Y-136348295D01*
X136835470Y-136307748D01*
X136956545Y-136229938D01*
X137050794Y-136121168D01*
X137110582Y-135990252D01*
X137117409Y-135942766D01*
X137131064Y-135847797D01*
X137131064Y-135847792D01*
X137118918Y-135763318D01*
X138997004Y-135763318D01*
X138997004Y-135763323D01*
X139017485Y-135905777D01*
X139077273Y-136036692D01*
X139077274Y-136036694D01*
X139171523Y-136145464D01*
X139171524Y-136145465D01*
X139289593Y-136221343D01*
X139292598Y-136223274D01*
X139397610Y-136254108D01*
X139430686Y-136263820D01*
X139430687Y-136263820D01*
X139430690Y-136263821D01*
X139430692Y-136263821D01*
X139574610Y-136263821D01*
X139574612Y-136263821D01*
X139712704Y-136223274D01*
X139833779Y-136145464D01*
X139928028Y-136036694D01*
X139987816Y-135905778D01*
X140002710Y-135802190D01*
X141970753Y-135802190D01*
X141970753Y-135802195D01*
X141991234Y-135944649D01*
X142033498Y-136037193D01*
X142051023Y-136075566D01*
X142145272Y-136184336D01*
X142145273Y-136184337D01*
X142266342Y-136262143D01*
X142266347Y-136262146D01*
X142372803Y-136293404D01*
X142404435Y-136302692D01*
X142404436Y-136302692D01*
X142404439Y-136302693D01*
X142404441Y-136302693D01*
X142548359Y-136302693D01*
X142548361Y-136302693D01*
X142686453Y-136262146D01*
X142807528Y-136184336D01*
X142901777Y-136075566D01*
X142961565Y-135944650D01*
X142975490Y-135847797D01*
X142982047Y-135802195D01*
X142982047Y-135802190D01*
X142961565Y-135659736D01*
X142957315Y-135650429D01*
X142901777Y-135528820D01*
X142807528Y-135420050D01*
X142807527Y-135420049D01*
X142807526Y-135420048D01*
X142686457Y-135342242D01*
X142686454Y-135342240D01*
X142686453Y-135342240D01*
X142674397Y-135338700D01*
X142548364Y-135301693D01*
X142548361Y-135301693D01*
X142404439Y-135301693D01*
X142404435Y-135301693D01*
X142266349Y-135342239D01*
X142266342Y-135342242D01*
X142145273Y-135420048D01*
X142051022Y-135528821D01*
X141991234Y-135659736D01*
X141970753Y-135802190D01*
X140002710Y-135802190D01*
X140008298Y-135763321D01*
X139999961Y-135705338D01*
X139987816Y-135620864D01*
X139966606Y-135574422D01*
X139928028Y-135489948D01*
X139833779Y-135381178D01*
X139833778Y-135381177D01*
X139833777Y-135381176D01*
X139712708Y-135303370D01*
X139712705Y-135303368D01*
X139712704Y-135303368D01*
X139712701Y-135303367D01*
X139574615Y-135262821D01*
X139574612Y-135262821D01*
X139430690Y-135262821D01*
X139430686Y-135262821D01*
X139292600Y-135303367D01*
X139292593Y-135303370D01*
X139171524Y-135381176D01*
X139077273Y-135489949D01*
X139017485Y-135620864D01*
X138997004Y-135763318D01*
X137118918Y-135763318D01*
X137110582Y-135705338D01*
X137085588Y-135650609D01*
X137050794Y-135574422D01*
X136956545Y-135465652D01*
X136956544Y-135465651D01*
X136956543Y-135465650D01*
X136835474Y-135387844D01*
X136835471Y-135387842D01*
X136835470Y-135387842D01*
X136835467Y-135387841D01*
X136697381Y-135347295D01*
X136697378Y-135347295D01*
X136553456Y-135347295D01*
X136553452Y-135347295D01*
X136415366Y-135387841D01*
X136415359Y-135387844D01*
X136294290Y-135465650D01*
X136200039Y-135574423D01*
X136140251Y-135705338D01*
X136119770Y-135847792D01*
X125800500Y-135847792D01*
X125800500Y-135744584D01*
X125819407Y-135686393D01*
X125868907Y-135650429D01*
X125930093Y-135650429D01*
X125930641Y-135650609D01*
X126045007Y-135688506D01*
X126147711Y-135698999D01*
X127547697Y-135698999D01*
X127547699Y-135698998D01*
X127547699Y-134774001D01*
X128047699Y-134774001D01*
X128047699Y-135698998D01*
X128047700Y-135698999D01*
X129447685Y-135698999D01*
X129550386Y-135688507D01*
X129550398Y-135688504D01*
X129716823Y-135633356D01*
X129866039Y-135541319D01*
X129990018Y-135417340D01*
X130082055Y-135268124D01*
X130137205Y-135101693D01*
X130147699Y-134998987D01*
X130147699Y-134774001D01*
X130147698Y-134774000D01*
X128047700Y-134774000D01*
X128047699Y-134774001D01*
X127547699Y-134774001D01*
X127547699Y-133349001D01*
X128047699Y-133349001D01*
X128047699Y-134273999D01*
X128047700Y-134274000D01*
X130147697Y-134274000D01*
X130147698Y-134273999D01*
X130147698Y-134049013D01*
X130137206Y-133946312D01*
X130137203Y-133946300D01*
X130082055Y-133779875D01*
X129990018Y-133630659D01*
X129866039Y-133506680D01*
X129716823Y-133414643D01*
X129550392Y-133359493D01*
X129447686Y-133349000D01*
X128047700Y-133349000D01*
X128047699Y-133349001D01*
X127547699Y-133349001D01*
X127547698Y-133349000D01*
X126147712Y-133349000D01*
X126045011Y-133359492D01*
X126044999Y-133359495D01*
X125930640Y-133397390D01*
X125869456Y-133397746D01*
X125819747Y-133362071D01*
X125800502Y-133303991D01*
X125800500Y-133303415D01*
X125800500Y-130094584D01*
X125819407Y-130036393D01*
X125868907Y-130000429D01*
X125930093Y-130000429D01*
X125930641Y-130000609D01*
X126045007Y-130038506D01*
X126147711Y-130048999D01*
X127547697Y-130048999D01*
X127547699Y-130048998D01*
X127547699Y-129124001D01*
X128047699Y-129124001D01*
X128047699Y-130048998D01*
X128047700Y-130048999D01*
X129447685Y-130048999D01*
X129550386Y-130038507D01*
X129550398Y-130038504D01*
X129716823Y-129983356D01*
X129866039Y-129891319D01*
X129990018Y-129767340D01*
X130082055Y-129618124D01*
X130137205Y-129451693D01*
X130147699Y-129348987D01*
X130147699Y-129124001D01*
X130147698Y-129124000D01*
X128047700Y-129124000D01*
X128047699Y-129124001D01*
X127547699Y-129124001D01*
X127547699Y-129077397D01*
X140890756Y-129077397D01*
X140890756Y-129077402D01*
X140911237Y-129219856D01*
X140927092Y-129254573D01*
X140971026Y-129350773D01*
X141058473Y-129451693D01*
X141069912Y-129464894D01*
X141067968Y-129466577D01*
X141093629Y-129509126D01*
X141096203Y-129531554D01*
X141096203Y-129878927D01*
X141116659Y-129955269D01*
X141116663Y-129955278D01*
X141124410Y-129968697D01*
X141124416Y-129968706D01*
X141147425Y-130008560D01*
X141156183Y-130023730D01*
X143452673Y-132320220D01*
X143521128Y-132359742D01*
X143543484Y-132365732D01*
X143577017Y-132374718D01*
X143577020Y-132374718D01*
X143597478Y-132380200D01*
X143597479Y-132380200D01*
X143597480Y-132380200D01*
X179261923Y-132380200D01*
X179261923Y-132380199D01*
X179338273Y-132359741D01*
X179349539Y-132353236D01*
X179363326Y-132345277D01*
X179363327Y-132345276D01*
X179377336Y-132337187D01*
X179406727Y-132320220D01*
X180765126Y-130961819D01*
X180819641Y-130934044D01*
X180880073Y-130943615D01*
X180888651Y-130948541D01*
X180993542Y-131015950D01*
X180993547Y-131015953D01*
X181100003Y-131047211D01*
X181131635Y-131056499D01*
X181131636Y-131056499D01*
X181131639Y-131056500D01*
X181131641Y-131056500D01*
X181275559Y-131056500D01*
X181275561Y-131056500D01*
X181413653Y-131015953D01*
X181534728Y-130938143D01*
X181628977Y-130829373D01*
X181688765Y-130698457D01*
X181709247Y-130556000D01*
X181705389Y-130529170D01*
X181688765Y-130413543D01*
X181628977Y-130282628D01*
X181628977Y-130282627D01*
X181605728Y-130255796D01*
X183806953Y-130255796D01*
X183806953Y-130255800D01*
X183827434Y-130398255D01*
X183834416Y-130413543D01*
X183887223Y-130529172D01*
X183935015Y-130584327D01*
X183981473Y-130637943D01*
X184102542Y-130715749D01*
X184102547Y-130715752D01*
X184209003Y-130747010D01*
X184240635Y-130756298D01*
X184240636Y-130756298D01*
X184240639Y-130756299D01*
X184240641Y-130756299D01*
X184384559Y-130756299D01*
X184384561Y-130756299D01*
X184522653Y-130715752D01*
X184643728Y-130637942D01*
X184737977Y-130529172D01*
X184797765Y-130398256D01*
X184815306Y-130276257D01*
X184818247Y-130255800D01*
X184818247Y-130255796D01*
X184797765Y-130113342D01*
X184796920Y-130111491D01*
X184737977Y-129982426D01*
X184643728Y-129873656D01*
X184643727Y-129873655D01*
X184643726Y-129873654D01*
X184522657Y-129795848D01*
X184522654Y-129795846D01*
X184522653Y-129795846D01*
X184522650Y-129795845D01*
X184384564Y-129755299D01*
X184384561Y-129755299D01*
X184240639Y-129755299D01*
X184240635Y-129755299D01*
X184102549Y-129795845D01*
X184102542Y-129795848D01*
X183981473Y-129873654D01*
X183887222Y-129982427D01*
X183827434Y-130113342D01*
X183806953Y-130255796D01*
X181605728Y-130255796D01*
X181534728Y-130173857D01*
X181534727Y-130173856D01*
X181534726Y-130173855D01*
X181413657Y-130096049D01*
X181413654Y-130096047D01*
X181413653Y-130096047D01*
X181413650Y-130096046D01*
X181275564Y-130055500D01*
X181275561Y-130055500D01*
X181131639Y-130055500D01*
X181131635Y-130055500D01*
X180993549Y-130096046D01*
X180993542Y-130096049D01*
X180872472Y-130173856D01*
X180872470Y-130173858D01*
X180831075Y-130221631D01*
X180778679Y-130253227D01*
X180756256Y-130255800D01*
X180706875Y-130255800D01*
X180630530Y-130276257D01*
X180630529Y-130276257D01*
X180562072Y-130315781D01*
X179127049Y-131750804D01*
X179072532Y-131778581D01*
X179057045Y-131779800D01*
X143802355Y-131779800D01*
X143744164Y-131760893D01*
X143732351Y-131750804D01*
X141725599Y-129744052D01*
X141697822Y-129689535D01*
X141696603Y-129674048D01*
X141696603Y-129531554D01*
X141715510Y-129473363D01*
X141723110Y-129465081D01*
X141722894Y-129464894D01*
X141733454Y-129452707D01*
X141821780Y-129350773D01*
X141881568Y-129219857D01*
X141884689Y-129198144D01*
X141911685Y-129143238D01*
X141965798Y-129114683D01*
X142026361Y-129123390D01*
X142052686Y-129142229D01*
X143494784Y-130584327D01*
X143494783Y-130584327D01*
X143550675Y-130640218D01*
X143550680Y-130640222D01*
X143619126Y-130679739D01*
X143619130Y-130679741D01*
X143695478Y-130700199D01*
X143695480Y-130700200D01*
X143695481Y-130700200D01*
X171079523Y-130700200D01*
X171079523Y-130700199D01*
X171155873Y-130679741D01*
X171167139Y-130673236D01*
X171180926Y-130665277D01*
X171180927Y-130665276D01*
X171194936Y-130657187D01*
X171224327Y-130640220D01*
X172401751Y-129462796D01*
X172456268Y-129435019D01*
X172471755Y-129433800D01*
X184549046Y-129433800D01*
X184607237Y-129452707D01*
X184619050Y-129462796D01*
X185306106Y-130149852D01*
X185333883Y-130204369D01*
X185334095Y-130233942D01*
X185330953Y-130255799D01*
X185330953Y-130255800D01*
X185351434Y-130398255D01*
X185358416Y-130413543D01*
X185411223Y-130529172D01*
X185459015Y-130584327D01*
X185505473Y-130637943D01*
X185626542Y-130715749D01*
X185626547Y-130715752D01*
X185733003Y-130747010D01*
X185764635Y-130756298D01*
X185764636Y-130756298D01*
X185764639Y-130756299D01*
X185764641Y-130756299D01*
X185908559Y-130756299D01*
X185908561Y-130756299D01*
X186046653Y-130715752D01*
X186167728Y-130637942D01*
X186261977Y-130529172D01*
X186321765Y-130398256D01*
X186339306Y-130276257D01*
X186342247Y-130255800D01*
X186342247Y-130255796D01*
X186321765Y-130113342D01*
X186320920Y-130111491D01*
X186261977Y-129982426D01*
X186167728Y-129873656D01*
X186167727Y-129873655D01*
X186167726Y-129873654D01*
X186046657Y-129795848D01*
X186046654Y-129795846D01*
X186046653Y-129795846D01*
X186046650Y-129795845D01*
X185908564Y-129755299D01*
X185908561Y-129755299D01*
X185801655Y-129755299D01*
X185743464Y-129736392D01*
X185731651Y-129726303D01*
X185354335Y-129348987D01*
X184898728Y-128893380D01*
X184855329Y-128868324D01*
X184855328Y-128868323D01*
X184830275Y-128853859D01*
X184830270Y-128853857D01*
X184753925Y-128833400D01*
X184753923Y-128833400D01*
X172266878Y-128833400D01*
X172266875Y-128833400D01*
X172190530Y-128853857D01*
X172190519Y-128853862D01*
X172165471Y-128868323D01*
X172165471Y-128868324D01*
X172140416Y-128882789D01*
X172122074Y-128893379D01*
X170944649Y-130070804D01*
X170890132Y-130098581D01*
X170874645Y-130099800D01*
X143900357Y-130099800D01*
X143842166Y-130080893D01*
X143830353Y-130070804D01*
X142740747Y-128981197D01*
X145137955Y-128981197D01*
X145137955Y-128981202D01*
X145158436Y-129123656D01*
X145202371Y-129219858D01*
X145218225Y-129254573D01*
X145301582Y-129350773D01*
X145312475Y-129363344D01*
X145422107Y-129433800D01*
X145433549Y-129441153D01*
X145540005Y-129472411D01*
X145571637Y-129481699D01*
X145571638Y-129481699D01*
X145571641Y-129481700D01*
X145571643Y-129481700D01*
X145715561Y-129481700D01*
X145715563Y-129481700D01*
X145853655Y-129441153D01*
X145974730Y-129363343D01*
X146068979Y-129254573D01*
X146128767Y-129123657D01*
X146149249Y-128981200D01*
X146142598Y-128934943D01*
X146128767Y-128838743D01*
X146112913Y-128804028D01*
X146068979Y-128707827D01*
X145974730Y-128599057D01*
X145974729Y-128599056D01*
X145974728Y-128599055D01*
X145853659Y-128521249D01*
X145853656Y-128521247D01*
X145853655Y-128521247D01*
X145853652Y-128521246D01*
X145715566Y-128480700D01*
X145715563Y-128480700D01*
X145571641Y-128480700D01*
X145571637Y-128480700D01*
X145433551Y-128521246D01*
X145433544Y-128521249D01*
X145312475Y-128599055D01*
X145218224Y-128707828D01*
X145158436Y-128838743D01*
X145137955Y-128981197D01*
X142740747Y-128981197D01*
X142434896Y-128675346D01*
X142407119Y-128620829D01*
X142406908Y-128591251D01*
X142410050Y-128569400D01*
X142410050Y-128569397D01*
X142389568Y-128426943D01*
X142329910Y-128296312D01*
X142329780Y-128296027D01*
X142235531Y-128187257D01*
X142235530Y-128187256D01*
X142235529Y-128187255D01*
X142114460Y-128109449D01*
X142114457Y-128109447D01*
X142114456Y-128109447D01*
X142114453Y-128109446D01*
X141976367Y-128068900D01*
X141976364Y-128068900D01*
X141832442Y-128068900D01*
X141832438Y-128068900D01*
X141694352Y-128109446D01*
X141694345Y-128109449D01*
X141573276Y-128187255D01*
X141479025Y-128296028D01*
X141419237Y-128426943D01*
X141409769Y-128492792D01*
X141382772Y-128547700D01*
X141331232Y-128574893D01*
X141331236Y-128574905D01*
X141331179Y-128574921D01*
X141328658Y-128576252D01*
X141325874Y-128576693D01*
X141324447Y-128576898D01*
X141186352Y-128617446D01*
X141186345Y-128617449D01*
X141065276Y-128695255D01*
X140971025Y-128804028D01*
X140911237Y-128934943D01*
X140890756Y-129077397D01*
X127547699Y-129077397D01*
X127547699Y-127699001D01*
X128047699Y-127699001D01*
X128047699Y-128623999D01*
X128047700Y-128624000D01*
X130147697Y-128624000D01*
X130147698Y-128623999D01*
X130147698Y-128399013D01*
X130137206Y-128296312D01*
X130137203Y-128296300D01*
X130082055Y-128129875D01*
X129990018Y-127980659D01*
X129866039Y-127856680D01*
X129716823Y-127764643D01*
X129550392Y-127709493D01*
X129447686Y-127699000D01*
X128047700Y-127699000D01*
X128047699Y-127699001D01*
X127547699Y-127699001D01*
X127547698Y-127699000D01*
X126147712Y-127699000D01*
X126045011Y-127709492D01*
X126044999Y-127709495D01*
X125930640Y-127747390D01*
X125869456Y-127747746D01*
X125819747Y-127712071D01*
X125800502Y-127653991D01*
X125800500Y-127653415D01*
X125800500Y-127342082D01*
X125800462Y-127341508D01*
X125800463Y-127315877D01*
X125774795Y-127120872D01*
X125733372Y-126966254D01*
X125730000Y-126940635D01*
X125730000Y-126365000D01*
X124759397Y-125394397D01*
X139468254Y-125394397D01*
X139468254Y-125394402D01*
X139488735Y-125536856D01*
X139542665Y-125654943D01*
X139548524Y-125667773D01*
X139604829Y-125732753D01*
X139642774Y-125776544D01*
X139763843Y-125854350D01*
X139763848Y-125854353D01*
X139870304Y-125885611D01*
X139901936Y-125894899D01*
X139901937Y-125894899D01*
X139901940Y-125894900D01*
X139901942Y-125894900D01*
X140045860Y-125894900D01*
X140045862Y-125894900D01*
X140183954Y-125854353D01*
X140305029Y-125776543D01*
X140399278Y-125667773D01*
X140459066Y-125536857D01*
X140476549Y-125415257D01*
X140479548Y-125394402D01*
X140479548Y-125394397D01*
X140459066Y-125251943D01*
X140418510Y-125163139D01*
X140399278Y-125121027D01*
X140305029Y-125012257D01*
X140305028Y-125012256D01*
X140305027Y-125012255D01*
X140183958Y-124934449D01*
X140183955Y-124934447D01*
X140183954Y-124934447D01*
X140173703Y-124931437D01*
X140045865Y-124893900D01*
X140045862Y-124893900D01*
X139901940Y-124893900D01*
X139901936Y-124893900D01*
X139763850Y-124934446D01*
X139763843Y-124934449D01*
X139642774Y-125012255D01*
X139548523Y-125121028D01*
X139488735Y-125251943D01*
X139468254Y-125394397D01*
X124759397Y-125394397D01*
X123676003Y-124311003D01*
X123648226Y-124256486D01*
X123657797Y-124196054D01*
X123701062Y-124152789D01*
X123746007Y-124141999D01*
X124849999Y-124141999D01*
X124850000Y-124141998D01*
X124850000Y-123217001D01*
X125350000Y-123217001D01*
X125350000Y-124141998D01*
X125350001Y-124141999D01*
X126749986Y-124141999D01*
X126852687Y-124131507D01*
X126852699Y-124131504D01*
X127019124Y-124076356D01*
X127168340Y-123984319D01*
X127292319Y-123860340D01*
X127384356Y-123711124D01*
X127439506Y-123544693D01*
X127450000Y-123441987D01*
X127450000Y-123217001D01*
X127449999Y-123217000D01*
X125350001Y-123217000D01*
X125350000Y-123217001D01*
X124850000Y-123217001D01*
X124850000Y-121792001D01*
X125350000Y-121792001D01*
X125350000Y-122716999D01*
X125350001Y-122717000D01*
X127449998Y-122717000D01*
X127449999Y-122716999D01*
X127449999Y-122492013D01*
X127439507Y-122389312D01*
X127439504Y-122389300D01*
X127384356Y-122222875D01*
X127292319Y-122073659D01*
X127168340Y-121949680D01*
X127019124Y-121857643D01*
X126852693Y-121802493D01*
X126749987Y-121792000D01*
X125350001Y-121792000D01*
X125350000Y-121792001D01*
X124850000Y-121792001D01*
X124849999Y-121792000D01*
X123450021Y-121792000D01*
X123409560Y-121796134D01*
X123349749Y-121783237D01*
X123308942Y-121737648D01*
X123300500Y-121697646D01*
X123300500Y-119035715D01*
X141607792Y-119035715D01*
X141607792Y-119035720D01*
X141628273Y-119178174D01*
X141669193Y-119267775D01*
X141688062Y-119309091D01*
X141754342Y-119385583D01*
X141782312Y-119417862D01*
X141903381Y-119495668D01*
X141903386Y-119495671D01*
X142009842Y-119526929D01*
X142041474Y-119536217D01*
X142041475Y-119536217D01*
X142041478Y-119536218D01*
X142041480Y-119536218D01*
X142185398Y-119536218D01*
X142185400Y-119536218D01*
X142323492Y-119495671D01*
X142444567Y-119417861D01*
X142538816Y-119309091D01*
X142538818Y-119309087D01*
X142542643Y-119303136D01*
X142543875Y-119303928D01*
X142561758Y-119281466D01*
X142560819Y-119280527D01*
X142565406Y-119275939D01*
X142565409Y-119275938D01*
X143712151Y-118129196D01*
X143766668Y-118101419D01*
X143782155Y-118100200D01*
X151439523Y-118100200D01*
X151439523Y-118100199D01*
X151515873Y-118079741D01*
X151541012Y-118065227D01*
X151584327Y-118040220D01*
X154040220Y-115584327D01*
X154079742Y-115515872D01*
X154100200Y-115439521D01*
X154100200Y-115360478D01*
X154100200Y-113852754D01*
X154119107Y-113794563D01*
X154129190Y-113782756D01*
X155242003Y-112669943D01*
X155296517Y-112642168D01*
X155356949Y-112651739D01*
X155400214Y-112695004D01*
X155409785Y-112755436D01*
X155402061Y-112781068D01*
X155399834Y-112785944D01*
X155399834Y-112785945D01*
X155379353Y-112928399D01*
X155379353Y-112928404D01*
X155399834Y-113070858D01*
X155459622Y-113201773D01*
X155459623Y-113201775D01*
X155516114Y-113266970D01*
X155539931Y-113323329D01*
X155526072Y-113382924D01*
X155516114Y-113396630D01*
X155454423Y-113467826D01*
X155394634Y-113598743D01*
X155374153Y-113741197D01*
X155374153Y-113741202D01*
X155394634Y-113883656D01*
X155454423Y-114014573D01*
X155548672Y-114123343D01*
X155549260Y-114123721D01*
X155549630Y-114124174D01*
X155554027Y-114127984D01*
X155553367Y-114128744D01*
X155587991Y-114171088D01*
X155591362Y-114181380D01*
X155599779Y-114212789D01*
X155599779Y-114212790D01*
X155610009Y-114230508D01*
X155610011Y-114230511D01*
X155639340Y-114281311D01*
X156147340Y-114789311D01*
X156147339Y-114789311D01*
X156203289Y-114845260D01*
X156271807Y-114884819D01*
X156271811Y-114884821D01*
X156348235Y-114905299D01*
X156348237Y-114905300D01*
X156348238Y-114905300D01*
X156427362Y-114905300D01*
X156635291Y-114905300D01*
X156693482Y-114924207D01*
X156729446Y-114973707D01*
X156729446Y-115034893D01*
X156725344Y-115045426D01*
X156690034Y-115122741D01*
X156690034Y-115122743D01*
X156669553Y-115265197D01*
X156669553Y-115265200D01*
X156671056Y-115275653D01*
X156672695Y-115287054D01*
X156662260Y-115347343D01*
X156644706Y-115371145D01*
X151945049Y-120070804D01*
X151890532Y-120098581D01*
X151875045Y-120099800D01*
X150124717Y-120099800D01*
X150066526Y-120080893D01*
X150030562Y-120031393D01*
X150025717Y-120000800D01*
X150025717Y-119400175D01*
X150025700Y-119399912D01*
X150025700Y-119385587D01*
X149998816Y-119267792D01*
X149946396Y-119158935D01*
X149946395Y-119158934D01*
X149946394Y-119158931D01*
X149871064Y-119064464D01*
X149776602Y-118989127D01*
X149667745Y-118936697D01*
X149549951Y-118909804D01*
X149549947Y-118909803D01*
X149534465Y-118909802D01*
X149534419Y-118909800D01*
X149529039Y-118909800D01*
X149489539Y-118909800D01*
X149489530Y-118909799D01*
X149434041Y-118909796D01*
X149433991Y-118909800D01*
X149325817Y-118909800D01*
X149325600Y-118909813D01*
X149311122Y-118909813D01*
X149193319Y-118936692D01*
X149084451Y-118989113D01*
X148989974Y-119064448D01*
X148989973Y-119064449D01*
X148917907Y-119154812D01*
X148866842Y-119188517D01*
X148805719Y-119185770D01*
X148763107Y-119154809D01*
X148691064Y-119064464D01*
X148596602Y-118989127D01*
X148487745Y-118936697D01*
X148369951Y-118909804D01*
X148369947Y-118909803D01*
X148354465Y-118909802D01*
X148354419Y-118909800D01*
X148349039Y-118909800D01*
X148309539Y-118909800D01*
X148309530Y-118909799D01*
X148254041Y-118909796D01*
X148253991Y-118909800D01*
X148145817Y-118909800D01*
X148145600Y-118909813D01*
X148131122Y-118909813D01*
X148013319Y-118936692D01*
X147904451Y-118989113D01*
X147809974Y-119064448D01*
X147734634Y-119158917D01*
X147734631Y-119158922D01*
X147682208Y-119267775D01*
X147682207Y-119267778D01*
X147682206Y-119267781D01*
X147672777Y-119309091D01*
X147655317Y-119385583D01*
X147655317Y-120000800D01*
X147636410Y-120058991D01*
X147586910Y-120094955D01*
X147556317Y-120099800D01*
X145952351Y-120099800D01*
X145894160Y-120080893D01*
X145882347Y-120070804D01*
X145869289Y-120057746D01*
X145841512Y-120003229D01*
X145841301Y-119973651D01*
X145844443Y-119951800D01*
X145844443Y-119951797D01*
X145823961Y-119809343D01*
X145764173Y-119678428D01*
X145764173Y-119678427D01*
X145669924Y-119569657D01*
X145669923Y-119569656D01*
X145669922Y-119569655D01*
X145548853Y-119491849D01*
X145548850Y-119491847D01*
X145548849Y-119491847D01*
X145548846Y-119491846D01*
X145410760Y-119451300D01*
X145410757Y-119451300D01*
X145266835Y-119451300D01*
X145266831Y-119451300D01*
X145128745Y-119491846D01*
X145128738Y-119491849D01*
X145007669Y-119569655D01*
X144913418Y-119678428D01*
X144853630Y-119809343D01*
X144833149Y-119951797D01*
X144833149Y-119951802D01*
X144853630Y-120094256D01*
X144856162Y-120099800D01*
X144913419Y-120225173D01*
X145007668Y-120333943D01*
X145007669Y-120333944D01*
X145128738Y-120411750D01*
X145128743Y-120411753D01*
X145235199Y-120443011D01*
X145266831Y-120452299D01*
X145266832Y-120452299D01*
X145266835Y-120452300D01*
X145266837Y-120452300D01*
X145373741Y-120452300D01*
X145431932Y-120471207D01*
X145443744Y-120481296D01*
X145540362Y-120577913D01*
X145602669Y-120640220D01*
X145671124Y-120679742D01*
X145693480Y-120685732D01*
X145727013Y-120694718D01*
X145727016Y-120694718D01*
X145747474Y-120700200D01*
X145747475Y-120700200D01*
X145826518Y-120700200D01*
X147663991Y-120700200D01*
X147664041Y-120700203D01*
X147671990Y-120700202D01*
X147671992Y-120700203D01*
X147678505Y-120700202D01*
X147678559Y-120700219D01*
X147719539Y-120700216D01*
X147719539Y-120700217D01*
X147779953Y-120700213D01*
X147897751Y-120673319D01*
X148006611Y-120620888D01*
X148084590Y-120558696D01*
X148141871Y-120537196D01*
X148200852Y-120553471D01*
X148239003Y-120601306D01*
X148245317Y-120636096D01*
X148245317Y-121312976D01*
X148245300Y-121313028D01*
X148245300Y-121354000D01*
X148245300Y-121414418D01*
X148272190Y-121532224D01*
X148272191Y-121532227D01*
X148272192Y-121532229D01*
X148324617Y-121641087D01*
X148324619Y-121641090D01*
X148324621Y-121641093D01*
X148399964Y-121735564D01*
X148494440Y-121810900D01*
X148494445Y-121810902D01*
X148494446Y-121810903D01*
X148603311Y-121863322D01*
X148603313Y-121863323D01*
X148721121Y-121890204D01*
X148781535Y-121890200D01*
X148781540Y-121890200D01*
X148843991Y-121890200D01*
X148844041Y-121890203D01*
X148851990Y-121890202D01*
X148851992Y-121890203D01*
X148858505Y-121890202D01*
X148858559Y-121890219D01*
X148899539Y-121890216D01*
X148899539Y-121890217D01*
X148959953Y-121890213D01*
X149077751Y-121863319D01*
X149186611Y-121810888D01*
X149281076Y-121735548D01*
X149356408Y-121641078D01*
X149408832Y-121532214D01*
X149435717Y-121414414D01*
X149435717Y-121354000D01*
X149435717Y-121306453D01*
X149435717Y-120636104D01*
X149454624Y-120577913D01*
X149504124Y-120541949D01*
X149565310Y-120541949D01*
X149596435Y-120558698D01*
X149674440Y-120620900D01*
X149674445Y-120620902D01*
X149674446Y-120620903D01*
X149783311Y-120673322D01*
X149783313Y-120673323D01*
X149901121Y-120700204D01*
X149961535Y-120700200D01*
X149961540Y-120700200D01*
X152079923Y-120700200D01*
X152079923Y-120700199D01*
X152156273Y-120679741D01*
X152167539Y-120673236D01*
X152181326Y-120665277D01*
X152181327Y-120665276D01*
X152195336Y-120657187D01*
X152224727Y-120640220D01*
X154164949Y-118699997D01*
X158394353Y-118699997D01*
X158394353Y-118700002D01*
X158414834Y-118842456D01*
X158457873Y-118936697D01*
X158474623Y-118973373D01*
X158553540Y-119064449D01*
X158568873Y-119082144D01*
X158688363Y-119158935D01*
X158689947Y-119159953D01*
X158777873Y-119185770D01*
X158828035Y-119200499D01*
X158828036Y-119200499D01*
X158828039Y-119200500D01*
X158828041Y-119200500D01*
X158971959Y-119200500D01*
X158971961Y-119200500D01*
X159110053Y-119159953D01*
X159231128Y-119082143D01*
X159325377Y-118973373D01*
X159385165Y-118842457D01*
X159396683Y-118762345D01*
X159405647Y-118700002D01*
X159405647Y-118699997D01*
X159385165Y-118557543D01*
X159355323Y-118492199D01*
X159325377Y-118426627D01*
X159231128Y-118317857D01*
X159231127Y-118317856D01*
X159231126Y-118317855D01*
X159110057Y-118240049D01*
X159110054Y-118240047D01*
X159110053Y-118240047D01*
X159110050Y-118240046D01*
X158971964Y-118199500D01*
X158971961Y-118199500D01*
X158828039Y-118199500D01*
X158828035Y-118199500D01*
X158689949Y-118240046D01*
X158689942Y-118240049D01*
X158568873Y-118317855D01*
X158474622Y-118426628D01*
X158414834Y-118557543D01*
X158394353Y-118699997D01*
X154164949Y-118699997D01*
X157070250Y-115794695D01*
X157124767Y-115766919D01*
X157140254Y-115765700D01*
X157247159Y-115765700D01*
X157247161Y-115765700D01*
X157385253Y-115725153D01*
X157506328Y-115647343D01*
X157600577Y-115538573D01*
X157660365Y-115407657D01*
X157680847Y-115265200D01*
X157671472Y-115199997D01*
X157660365Y-115122743D01*
X157660365Y-115122741D01*
X157625056Y-115045426D01*
X157618081Y-114984640D01*
X157648167Y-114931363D01*
X157703823Y-114905945D01*
X157715109Y-114905300D01*
X157915297Y-114905300D01*
X157973488Y-114924207D01*
X158009452Y-114973707D01*
X158009452Y-115034893D01*
X158005350Y-115045427D01*
X157999816Y-115057544D01*
X157979335Y-115199997D01*
X157979335Y-115200002D01*
X157999816Y-115342456D01*
X158029593Y-115407657D01*
X158059605Y-115473373D01*
X158116099Y-115538571D01*
X158153855Y-115582144D01*
X158157252Y-115584327D01*
X158274929Y-115659953D01*
X158381385Y-115691211D01*
X158413017Y-115700499D01*
X158413018Y-115700499D01*
X158413021Y-115700500D01*
X158413023Y-115700500D01*
X158556941Y-115700500D01*
X158556943Y-115700500D01*
X158695035Y-115659953D01*
X158816110Y-115582143D01*
X158910359Y-115473373D01*
X158970147Y-115342457D01*
X158979752Y-115275653D01*
X158990629Y-115200002D01*
X158990629Y-115199997D01*
X158970147Y-115057544D01*
X158964614Y-115045427D01*
X158957639Y-114984641D01*
X158987725Y-114931364D01*
X159043381Y-114905945D01*
X159054667Y-114905300D01*
X159473521Y-114905300D01*
X159531712Y-114924207D01*
X159543525Y-114934296D01*
X161417704Y-116808475D01*
X161445481Y-116862992D01*
X161446700Y-116878479D01*
X161446700Y-117884705D01*
X161427793Y-117942896D01*
X161420458Y-117950889D01*
X161420709Y-117951106D01*
X161321822Y-118065228D01*
X161262034Y-118196143D01*
X161241553Y-118338597D01*
X161241553Y-118338602D01*
X161262034Y-118481056D01*
X161305288Y-118575767D01*
X161321823Y-118611973D01*
X161398096Y-118699997D01*
X161416073Y-118720744D01*
X161537142Y-118798550D01*
X161537147Y-118798553D01*
X161643603Y-118829811D01*
X161675235Y-118839099D01*
X161675236Y-118839099D01*
X161675239Y-118839100D01*
X161675241Y-118839100D01*
X161819159Y-118839100D01*
X161819161Y-118839100D01*
X161957253Y-118798553D01*
X162078328Y-118720743D01*
X162172577Y-118611973D01*
X162232365Y-118481057D01*
X162252847Y-118338600D01*
X162252231Y-118334319D01*
X162232365Y-118196143D01*
X162201791Y-118129196D01*
X162172577Y-118065227D01*
X162078328Y-117956457D01*
X162078327Y-117956456D01*
X162073691Y-117951106D01*
X162075724Y-117949343D01*
X162050267Y-117907105D01*
X162047700Y-117884705D01*
X162047700Y-116673437D01*
X162047699Y-116673435D01*
X162027221Y-116597011D01*
X162027219Y-116597007D01*
X161991533Y-116535197D01*
X170918953Y-116535197D01*
X170918953Y-116535202D01*
X170939434Y-116677656D01*
X170967592Y-116739312D01*
X170999223Y-116808573D01*
X171093472Y-116917343D01*
X171093473Y-116917344D01*
X171214542Y-116995150D01*
X171214547Y-116995153D01*
X171321003Y-117026411D01*
X171352635Y-117035699D01*
X171352636Y-117035699D01*
X171352639Y-117035700D01*
X171352641Y-117035700D01*
X171496559Y-117035700D01*
X171496561Y-117035700D01*
X171634653Y-116995153D01*
X171755728Y-116917343D01*
X171849977Y-116808573D01*
X171909765Y-116677657D01*
X171930247Y-116535200D01*
X171929282Y-116528489D01*
X171909765Y-116392743D01*
X171849977Y-116261828D01*
X171849977Y-116261827D01*
X171755728Y-116153057D01*
X171755727Y-116153056D01*
X171755726Y-116153055D01*
X171634657Y-116075249D01*
X171634654Y-116075247D01*
X171634653Y-116075247D01*
X171634650Y-116075246D01*
X171496564Y-116034700D01*
X171496561Y-116034700D01*
X171352639Y-116034700D01*
X171352635Y-116034700D01*
X171214549Y-116075246D01*
X171214542Y-116075249D01*
X171093473Y-116153055D01*
X170999222Y-116261828D01*
X170939434Y-116392743D01*
X170918953Y-116535197D01*
X161991533Y-116535197D01*
X161987660Y-116528489D01*
X161931711Y-116472539D01*
X161931711Y-116472540D01*
X160024074Y-114564903D01*
X159996297Y-114510386D01*
X160005868Y-114449954D01*
X160019259Y-114430068D01*
X160020925Y-114428144D01*
X160020928Y-114428143D01*
X160115177Y-114319373D01*
X160174965Y-114188457D01*
X160184327Y-114123343D01*
X160195447Y-114046002D01*
X160195447Y-114045997D01*
X160174965Y-113903543D01*
X160151770Y-113852754D01*
X160115177Y-113772627D01*
X160020928Y-113663857D01*
X160020927Y-113663856D01*
X160020926Y-113663855D01*
X159899857Y-113586049D01*
X159899854Y-113586047D01*
X159899853Y-113586047D01*
X159899850Y-113586046D01*
X159761764Y-113545500D01*
X159761761Y-113545500D01*
X159617839Y-113545500D01*
X159617835Y-113545500D01*
X159479749Y-113586046D01*
X159479742Y-113586049D01*
X159358676Y-113663854D01*
X159358671Y-113663858D01*
X159317536Y-113711331D01*
X159265140Y-113742927D01*
X159242717Y-113745500D01*
X157168077Y-113745500D01*
X157109886Y-113726593D01*
X157098073Y-113716504D01*
X156415546Y-113033977D01*
X156387769Y-112979460D01*
X156387558Y-112949884D01*
X156390647Y-112928402D01*
X156370165Y-112785945D01*
X156310377Y-112655029D01*
X156216128Y-112546259D01*
X156216127Y-112546258D01*
X156216126Y-112546257D01*
X156095057Y-112468451D01*
X156095054Y-112468449D01*
X156095053Y-112468449D01*
X156095050Y-112468448D01*
X155956964Y-112427902D01*
X155956961Y-112427902D01*
X155813039Y-112427902D01*
X155813035Y-112427902D01*
X155719455Y-112455380D01*
X155658295Y-112453632D01*
X155609842Y-112416269D01*
X155592604Y-112357562D01*
X155613166Y-112299935D01*
X155621555Y-112290390D01*
X157730650Y-110181295D01*
X157785167Y-110153519D01*
X157800654Y-110152300D01*
X157907559Y-110152300D01*
X157907561Y-110152300D01*
X158045653Y-110111753D01*
X158166728Y-110033943D01*
X158260977Y-109925173D01*
X158320765Y-109794257D01*
X158341247Y-109651800D01*
X158320765Y-109509343D01*
X158260977Y-109378427D01*
X158166728Y-109269657D01*
X158166727Y-109269656D01*
X158166726Y-109269655D01*
X158045657Y-109191849D01*
X158045654Y-109191847D01*
X158045653Y-109191847D01*
X158045650Y-109191846D01*
X157907564Y-109151300D01*
X157907561Y-109151300D01*
X157763639Y-109151300D01*
X157763635Y-109151300D01*
X157625549Y-109191846D01*
X157625542Y-109191849D01*
X157504473Y-109269655D01*
X157410222Y-109378428D01*
X157350434Y-109509343D01*
X157329953Y-109651797D01*
X157329953Y-109651800D01*
X157333095Y-109673654D01*
X157322660Y-109733943D01*
X157305106Y-109757745D01*
X153559780Y-113503073D01*
X153559777Y-113503077D01*
X153542726Y-113532612D01*
X153542726Y-113532613D01*
X153520258Y-113571528D01*
X153499800Y-113647875D01*
X153499800Y-115234645D01*
X153480893Y-115292836D01*
X153470804Y-115304649D01*
X151304649Y-117470804D01*
X151250132Y-117498581D01*
X151234645Y-117499800D01*
X143577275Y-117499800D01*
X143500930Y-117520257D01*
X143500919Y-117520262D01*
X143475871Y-117534723D01*
X143475871Y-117534724D01*
X143454172Y-117547252D01*
X143432472Y-117559780D01*
X142435935Y-118556315D01*
X142381419Y-118584092D01*
X142330468Y-118577138D01*
X142330286Y-118577760D01*
X142326175Y-118576553D01*
X142324812Y-118576367D01*
X142323497Y-118575766D01*
X142185403Y-118535218D01*
X142185400Y-118535218D01*
X142041478Y-118535218D01*
X142041474Y-118535218D01*
X141903388Y-118575764D01*
X141903381Y-118575767D01*
X141782312Y-118653573D01*
X141688061Y-118762346D01*
X141628273Y-118893261D01*
X141607792Y-119035715D01*
X123300500Y-119035715D01*
X123300500Y-118586354D01*
X123319407Y-118528163D01*
X123368907Y-118492199D01*
X123409563Y-118487867D01*
X123450013Y-118491999D01*
X124849998Y-118491999D01*
X124850000Y-118491998D01*
X124850000Y-117567001D01*
X125350000Y-117567001D01*
X125350000Y-118491998D01*
X125350001Y-118491999D01*
X126749986Y-118491999D01*
X126852687Y-118481507D01*
X126852699Y-118481504D01*
X127019124Y-118426356D01*
X127168340Y-118334319D01*
X127292319Y-118210340D01*
X127384356Y-118061124D01*
X127439506Y-117894693D01*
X127450000Y-117791987D01*
X127450000Y-117567001D01*
X127449999Y-117567000D01*
X125350001Y-117567000D01*
X125350000Y-117567001D01*
X124850000Y-117567001D01*
X124850000Y-116142001D01*
X125350000Y-116142001D01*
X125350000Y-117066999D01*
X125350001Y-117067000D01*
X127449998Y-117067000D01*
X127449999Y-117066999D01*
X127449999Y-116842013D01*
X127439507Y-116739312D01*
X127439504Y-116739300D01*
X127384356Y-116572875D01*
X127292319Y-116423659D01*
X127168340Y-116299680D01*
X127019124Y-116207643D01*
X126852693Y-116152493D01*
X126749987Y-116142000D01*
X125350001Y-116142000D01*
X125350000Y-116142001D01*
X124850000Y-116142001D01*
X124849999Y-116142000D01*
X123450021Y-116142000D01*
X123409560Y-116146134D01*
X123349749Y-116133237D01*
X123308942Y-116087648D01*
X123300500Y-116047646D01*
X123300500Y-112683872D01*
X123319407Y-112625681D01*
X123368907Y-112589717D01*
X123402001Y-112585339D01*
X123402001Y-112585000D01*
X124804498Y-112584999D01*
X124804500Y-112584998D01*
X124804500Y-111660001D01*
X125304500Y-111660001D01*
X125304500Y-112584998D01*
X125304501Y-112584999D01*
X126704486Y-112584999D01*
X126807187Y-112574507D01*
X126807199Y-112574504D01*
X126973624Y-112519356D01*
X127122840Y-112427319D01*
X127246819Y-112303340D01*
X127338856Y-112154124D01*
X127394006Y-111987693D01*
X127404500Y-111884987D01*
X127404500Y-111660001D01*
X127404499Y-111660000D01*
X125304501Y-111660000D01*
X125304500Y-111660001D01*
X124804500Y-111660001D01*
X124804500Y-110235001D01*
X125304500Y-110235001D01*
X125304500Y-111159999D01*
X125304501Y-111160000D01*
X127404498Y-111160000D01*
X127404499Y-111159999D01*
X127404499Y-110935013D01*
X127394007Y-110832312D01*
X127394004Y-110832300D01*
X127338856Y-110665875D01*
X127246819Y-110516659D01*
X127122840Y-110392680D01*
X126973624Y-110300643D01*
X126807193Y-110245493D01*
X126704487Y-110235000D01*
X125304501Y-110235000D01*
X125304500Y-110235001D01*
X124804500Y-110235001D01*
X124804499Y-110235000D01*
X123404519Y-110235000D01*
X123404519Y-110235001D01*
X123404518Y-110235000D01*
X123402002Y-110235001D01*
X123402002Y-110234322D01*
X123345444Y-110219068D01*
X123307017Y-110171454D01*
X123300500Y-110136128D01*
X123300500Y-107033872D01*
X123319407Y-106975681D01*
X123368907Y-106939717D01*
X123402001Y-106935339D01*
X123402001Y-106935000D01*
X124804498Y-106934999D01*
X124804500Y-106934998D01*
X124804500Y-106010001D01*
X125304500Y-106010001D01*
X125304500Y-106934998D01*
X125304501Y-106934999D01*
X126704486Y-106934999D01*
X126807187Y-106924507D01*
X126807199Y-106924504D01*
X126973624Y-106869356D01*
X127122840Y-106777319D01*
X127246819Y-106653340D01*
X127338856Y-106504124D01*
X127394006Y-106337693D01*
X127404500Y-106234987D01*
X127404500Y-106010001D01*
X127404499Y-106010000D01*
X125304501Y-106010000D01*
X125304500Y-106010001D01*
X124804500Y-106010001D01*
X124804500Y-104585001D01*
X125304500Y-104585001D01*
X125304500Y-105509999D01*
X125304501Y-105510000D01*
X127404498Y-105510000D01*
X127404499Y-105509999D01*
X127404499Y-105285013D01*
X127394007Y-105182312D01*
X127394004Y-105182300D01*
X127338856Y-105015875D01*
X127246819Y-104866659D01*
X127122840Y-104742680D01*
X126973624Y-104650643D01*
X126807193Y-104595493D01*
X126704487Y-104585000D01*
X125304501Y-104585000D01*
X125304500Y-104585001D01*
X124804500Y-104585001D01*
X124804499Y-104585000D01*
X123404519Y-104585000D01*
X123404519Y-104585001D01*
X123404518Y-104585000D01*
X123402002Y-104585001D01*
X123402002Y-104584322D01*
X123345444Y-104569068D01*
X123307017Y-104521454D01*
X123300500Y-104486128D01*
X123300500Y-101830885D01*
X142854241Y-101830885D01*
X142854241Y-101830890D01*
X142874722Y-101973344D01*
X142934510Y-102104259D01*
X142934511Y-102104261D01*
X143028760Y-102213031D01*
X143028761Y-102213032D01*
X143149830Y-102290838D01*
X143149835Y-102290841D01*
X143256291Y-102322099D01*
X143287923Y-102331387D01*
X143287924Y-102331387D01*
X143287927Y-102331388D01*
X143287929Y-102331388D01*
X143431847Y-102331388D01*
X143431849Y-102331388D01*
X143569941Y-102290841D01*
X143691016Y-102213031D01*
X143785265Y-102104261D01*
X143845053Y-101973345D01*
X143865535Y-101830888D01*
X143845053Y-101688431D01*
X143785265Y-101557515D01*
X143691016Y-101448745D01*
X143691015Y-101448744D01*
X143691014Y-101448743D01*
X143569945Y-101370937D01*
X143569942Y-101370935D01*
X143569941Y-101370935D01*
X143569938Y-101370934D01*
X143431852Y-101330388D01*
X143431849Y-101330388D01*
X143287927Y-101330388D01*
X143287923Y-101330388D01*
X143149837Y-101370934D01*
X143149830Y-101370937D01*
X143028761Y-101448743D01*
X142934510Y-101557516D01*
X142874722Y-101688431D01*
X142854241Y-101830885D01*
X123300500Y-101830885D01*
X123300500Y-101148673D01*
X123319407Y-101090482D01*
X123368907Y-101054518D01*
X123409564Y-101050186D01*
X123441015Y-101053399D01*
X124840998Y-101053399D01*
X124841000Y-101053398D01*
X124841000Y-100128401D01*
X125341000Y-100128401D01*
X125341000Y-101053398D01*
X125341001Y-101053399D01*
X126740986Y-101053399D01*
X126843687Y-101042907D01*
X126843699Y-101042904D01*
X127010124Y-100987756D01*
X127159340Y-100895719D01*
X127283319Y-100771740D01*
X127375356Y-100622524D01*
X127430506Y-100456093D01*
X127441000Y-100353387D01*
X127441000Y-100128401D01*
X127440999Y-100128400D01*
X125341001Y-100128400D01*
X125341000Y-100128401D01*
X124841000Y-100128401D01*
X124841000Y-98703401D01*
X125341000Y-98703401D01*
X125341000Y-99628399D01*
X125341001Y-99628400D01*
X127440998Y-99628400D01*
X127440999Y-99628399D01*
X127440999Y-99403413D01*
X127430507Y-99300712D01*
X127430504Y-99300700D01*
X127375356Y-99134275D01*
X127283319Y-98985059D01*
X127159340Y-98861080D01*
X127010124Y-98769043D01*
X126843693Y-98713893D01*
X126740987Y-98703400D01*
X125341001Y-98703400D01*
X125341000Y-98703401D01*
X124841000Y-98703401D01*
X124840999Y-98703400D01*
X123441013Y-98703400D01*
X123409561Y-98706614D01*
X123349750Y-98693719D01*
X123308942Y-98648130D01*
X123300500Y-98608127D01*
X123300500Y-95498673D01*
X123319407Y-95440482D01*
X123368907Y-95404518D01*
X123409564Y-95400186D01*
X123441015Y-95403399D01*
X124840998Y-95403399D01*
X124841000Y-95403398D01*
X124841000Y-94478401D01*
X125341000Y-94478401D01*
X125341000Y-95403398D01*
X125341001Y-95403399D01*
X126740986Y-95403399D01*
X126843687Y-95392907D01*
X126843699Y-95392904D01*
X127010124Y-95337756D01*
X127159340Y-95245719D01*
X127283319Y-95121740D01*
X127375356Y-94972524D01*
X127430506Y-94806093D01*
X127441000Y-94703387D01*
X127441000Y-94487997D01*
X140007153Y-94487997D01*
X140007153Y-94488002D01*
X140027634Y-94630456D01*
X140060941Y-94703387D01*
X140087423Y-94761373D01*
X140126173Y-94806093D01*
X140181673Y-94870144D01*
X140302742Y-94947950D01*
X140302747Y-94947953D01*
X140409203Y-94979211D01*
X140440835Y-94988499D01*
X140440836Y-94988499D01*
X140440839Y-94988500D01*
X140440841Y-94988500D01*
X140584759Y-94988500D01*
X140584761Y-94988500D01*
X140722853Y-94947953D01*
X140843928Y-94870143D01*
X140938177Y-94761373D01*
X140997965Y-94630457D01*
X141018447Y-94488000D01*
X140997965Y-94345543D01*
X140938177Y-94214627D01*
X140843928Y-94105857D01*
X140843927Y-94105856D01*
X140843926Y-94105855D01*
X140722857Y-94028049D01*
X140722854Y-94028047D01*
X140722853Y-94028047D01*
X140722850Y-94028046D01*
X140584764Y-93987500D01*
X140584761Y-93987500D01*
X140440839Y-93987500D01*
X140440835Y-93987500D01*
X140302749Y-94028046D01*
X140302742Y-94028049D01*
X140181673Y-94105855D01*
X140087422Y-94214628D01*
X140027634Y-94345543D01*
X140007153Y-94487997D01*
X127441000Y-94487997D01*
X127441000Y-94478401D01*
X127440999Y-94478400D01*
X125341001Y-94478400D01*
X125341000Y-94478401D01*
X124841000Y-94478401D01*
X124841000Y-93053401D01*
X125341000Y-93053401D01*
X125341000Y-93978399D01*
X125341001Y-93978400D01*
X127440998Y-93978400D01*
X127440999Y-93978399D01*
X127440999Y-93753413D01*
X127430507Y-93650712D01*
X127430504Y-93650700D01*
X127375356Y-93484275D01*
X127283319Y-93335059D01*
X127159340Y-93211080D01*
X127010124Y-93119043D01*
X126843693Y-93063893D01*
X126740987Y-93053400D01*
X125341001Y-93053400D01*
X125341000Y-93053401D01*
X124841000Y-93053401D01*
X124840999Y-93053400D01*
X123441013Y-93053400D01*
X123409561Y-93056614D01*
X123349750Y-93043719D01*
X123308942Y-92998130D01*
X123300500Y-92958127D01*
X123300500Y-92180102D01*
X123300501Y-92180099D01*
X123300500Y-92119064D01*
X123300977Y-92109362D01*
X123309140Y-92026476D01*
X123312926Y-92007440D01*
X123329838Y-91951689D01*
X123354567Y-91910432D01*
X125730000Y-89535000D01*
X125730000Y-89259466D01*
X125733374Y-89233842D01*
X125746314Y-89185554D01*
X125754770Y-89153996D01*
X126985259Y-89153996D01*
X126985259Y-89154003D01*
X127004574Y-89350126D01*
X127004575Y-89350129D01*
X127004576Y-89350132D01*
X127061403Y-89537466D01*
X127061787Y-89538730D01*
X127061788Y-89538732D01*
X127105187Y-89619925D01*
X127154690Y-89712538D01*
X127154692Y-89712540D01*
X127154693Y-89712542D01*
X127279712Y-89864878D01*
X127279721Y-89864887D01*
X127412381Y-89973758D01*
X127432062Y-89989910D01*
X127511239Y-90032231D01*
X127604774Y-90082227D01*
X127605873Y-90082814D01*
X127794468Y-90140024D01*
X127794470Y-90140024D01*
X127794473Y-90140025D01*
X127990597Y-90159341D01*
X127990600Y-90159341D01*
X127990603Y-90159341D01*
X128186726Y-90140025D01*
X128186727Y-90140024D01*
X128186732Y-90140024D01*
X128375327Y-90082814D01*
X128549138Y-89989910D01*
X128701483Y-89864883D01*
X128826510Y-89712538D01*
X128919414Y-89538727D01*
X128976624Y-89350132D01*
X128976934Y-89346993D01*
X128995941Y-89154003D01*
X128995941Y-89153996D01*
X129525259Y-89153996D01*
X129525259Y-89154003D01*
X129544574Y-89350126D01*
X129544575Y-89350129D01*
X129544576Y-89350132D01*
X129601403Y-89537466D01*
X129601787Y-89538730D01*
X129601788Y-89538732D01*
X129645187Y-89619925D01*
X129694690Y-89712538D01*
X129694692Y-89712540D01*
X129694693Y-89712542D01*
X129819712Y-89864878D01*
X129819721Y-89864887D01*
X129952381Y-89973758D01*
X129972062Y-89989910D01*
X130051239Y-90032231D01*
X130144774Y-90082227D01*
X130145873Y-90082814D01*
X130334468Y-90140024D01*
X130334470Y-90140024D01*
X130334473Y-90140025D01*
X130530597Y-90159341D01*
X130530600Y-90159341D01*
X130530603Y-90159341D01*
X130726726Y-90140025D01*
X130726727Y-90140024D01*
X130726732Y-90140024D01*
X130915327Y-90082814D01*
X131089138Y-89989910D01*
X131241483Y-89864883D01*
X131366510Y-89712538D01*
X131459414Y-89538727D01*
X131516624Y-89350132D01*
X131516934Y-89346993D01*
X131535941Y-89154003D01*
X131535941Y-89153996D01*
X132065259Y-89153996D01*
X132065259Y-89154003D01*
X132084574Y-89350126D01*
X132084575Y-89350129D01*
X132084576Y-89350132D01*
X132141403Y-89537466D01*
X132141787Y-89538730D01*
X132141788Y-89538732D01*
X132185187Y-89619925D01*
X132234690Y-89712538D01*
X132234692Y-89712540D01*
X132234693Y-89712542D01*
X132359712Y-89864878D01*
X132359721Y-89864887D01*
X132492381Y-89973758D01*
X132512062Y-89989910D01*
X132591239Y-90032231D01*
X132684774Y-90082227D01*
X132685873Y-90082814D01*
X132874468Y-90140024D01*
X132874470Y-90140024D01*
X132874473Y-90140025D01*
X133070597Y-90159341D01*
X133070600Y-90159341D01*
X133070603Y-90159341D01*
X133266726Y-90140025D01*
X133266727Y-90140024D01*
X133266732Y-90140024D01*
X133455327Y-90082814D01*
X133629138Y-89989910D01*
X133781483Y-89864883D01*
X133906510Y-89712538D01*
X133999414Y-89538727D01*
X134056624Y-89350132D01*
X134056934Y-89346993D01*
X134075941Y-89154003D01*
X134075941Y-89153996D01*
X134605260Y-89153996D01*
X134605260Y-89154003D01*
X134624575Y-89350126D01*
X134624576Y-89350129D01*
X134624577Y-89350132D01*
X134681404Y-89537466D01*
X134681788Y-89538730D01*
X134681789Y-89538732D01*
X134725188Y-89619925D01*
X134774691Y-89712538D01*
X134774693Y-89712540D01*
X134774694Y-89712542D01*
X134899713Y-89864878D01*
X134899722Y-89864887D01*
X135032382Y-89973758D01*
X135052063Y-89989910D01*
X135131240Y-90032231D01*
X135224775Y-90082227D01*
X135225874Y-90082814D01*
X135414469Y-90140024D01*
X135414471Y-90140024D01*
X135414474Y-90140025D01*
X135610598Y-90159341D01*
X135610601Y-90159341D01*
X135610604Y-90159341D01*
X135806727Y-90140025D01*
X135806728Y-90140024D01*
X135806733Y-90140024D01*
X135995328Y-90082814D01*
X136169139Y-89989910D01*
X136321484Y-89864883D01*
X136446511Y-89712538D01*
X136539415Y-89538727D01*
X136596625Y-89350132D01*
X136596935Y-89346993D01*
X136615942Y-89154003D01*
X136615942Y-89153996D01*
X137145259Y-89153996D01*
X137145259Y-89154003D01*
X137164574Y-89350126D01*
X137164575Y-89350129D01*
X137164576Y-89350132D01*
X137221403Y-89537466D01*
X137221787Y-89538730D01*
X137221788Y-89538732D01*
X137265187Y-89619925D01*
X137314690Y-89712538D01*
X137314692Y-89712540D01*
X137314693Y-89712542D01*
X137439712Y-89864878D01*
X137439721Y-89864887D01*
X137572381Y-89973758D01*
X137592062Y-89989910D01*
X137671239Y-90032231D01*
X137764774Y-90082227D01*
X137765873Y-90082814D01*
X137954468Y-90140024D01*
X137954470Y-90140024D01*
X137954473Y-90140025D01*
X138150597Y-90159341D01*
X138150600Y-90159341D01*
X138150603Y-90159341D01*
X138346726Y-90140025D01*
X138346727Y-90140024D01*
X138346732Y-90140024D01*
X138535327Y-90082814D01*
X138709138Y-89989910D01*
X138861483Y-89864883D01*
X138986510Y-89712538D01*
X139079414Y-89538727D01*
X139136624Y-89350132D01*
X139136934Y-89346993D01*
X139155941Y-89154003D01*
X139155941Y-89153996D01*
X139685259Y-89153996D01*
X139685259Y-89154003D01*
X139704574Y-89350126D01*
X139704575Y-89350129D01*
X139704576Y-89350132D01*
X139761403Y-89537466D01*
X139761787Y-89538730D01*
X139761788Y-89538732D01*
X139805187Y-89619925D01*
X139854690Y-89712538D01*
X139854692Y-89712540D01*
X139854693Y-89712542D01*
X139979712Y-89864878D01*
X139979721Y-89864887D01*
X140112381Y-89973758D01*
X140132062Y-89989910D01*
X140211239Y-90032231D01*
X140304774Y-90082227D01*
X140305873Y-90082814D01*
X140494468Y-90140024D01*
X140494470Y-90140024D01*
X140494473Y-90140025D01*
X140690597Y-90159341D01*
X140690600Y-90159341D01*
X140690603Y-90159341D01*
X140886726Y-90140025D01*
X140886727Y-90140024D01*
X140886732Y-90140024D01*
X141075327Y-90082814D01*
X141249138Y-89989910D01*
X141401483Y-89864883D01*
X141526510Y-89712538D01*
X141619414Y-89538727D01*
X141676624Y-89350132D01*
X141676934Y-89346993D01*
X141695941Y-89154003D01*
X141695941Y-89153996D01*
X144765258Y-89153996D01*
X144765258Y-89154003D01*
X144784573Y-89350126D01*
X144784574Y-89350129D01*
X144784575Y-89350132D01*
X144841402Y-89537466D01*
X144841786Y-89538730D01*
X144841787Y-89538732D01*
X144885186Y-89619925D01*
X144934689Y-89712538D01*
X144934691Y-89712540D01*
X144934692Y-89712542D01*
X145059711Y-89864878D01*
X145059720Y-89864887D01*
X145192380Y-89973758D01*
X145212061Y-89989910D01*
X145291238Y-90032231D01*
X145384773Y-90082227D01*
X145385872Y-90082814D01*
X145574467Y-90140024D01*
X145574469Y-90140024D01*
X145574472Y-90140025D01*
X145770596Y-90159341D01*
X145770599Y-90159341D01*
X145770602Y-90159341D01*
X145966725Y-90140025D01*
X145966726Y-90140024D01*
X145966731Y-90140024D01*
X146155326Y-90082814D01*
X146329137Y-89989910D01*
X146481482Y-89864883D01*
X146606509Y-89712538D01*
X146699413Y-89538727D01*
X146756623Y-89350132D01*
X146756933Y-89346993D01*
X146775940Y-89154003D01*
X146775940Y-89153996D01*
X146756624Y-88957873D01*
X146756623Y-88957870D01*
X146756623Y-88957868D01*
X146740282Y-88904000D01*
X147031728Y-88904000D01*
X147877588Y-88904000D01*
X147844675Y-88961007D01*
X147810600Y-89088174D01*
X147810600Y-89219826D01*
X147844675Y-89346993D01*
X147877588Y-89404000D01*
X147031728Y-89404000D01*
X147084333Y-89600323D01*
X147180465Y-89806481D01*
X147310934Y-89992811D01*
X147471788Y-90153665D01*
X147658118Y-90284134D01*
X147864276Y-90380266D01*
X148060600Y-90432872D01*
X148060600Y-89587012D01*
X148117607Y-89619925D01*
X148244774Y-89654000D01*
X148376426Y-89654000D01*
X148503593Y-89619925D01*
X148560600Y-89587012D01*
X148560600Y-90432871D01*
X148756923Y-90380266D01*
X148963081Y-90284134D01*
X149149411Y-90153665D01*
X149310265Y-89992811D01*
X149440734Y-89806481D01*
X149490875Y-89698954D01*
X149532603Y-89654206D01*
X149592665Y-89642531D01*
X149648118Y-89668389D01*
X149670325Y-89698954D01*
X149720465Y-89806481D01*
X149850934Y-89992811D01*
X150011788Y-90153665D01*
X150198118Y-90284134D01*
X150404276Y-90380266D01*
X150600600Y-90432872D01*
X150600600Y-89587012D01*
X150657607Y-89619925D01*
X150784774Y-89654000D01*
X150916426Y-89654000D01*
X151043593Y-89619925D01*
X151100600Y-89587012D01*
X151100600Y-90432871D01*
X151296923Y-90380266D01*
X151503081Y-90284134D01*
X151689411Y-90153665D01*
X151850265Y-89992811D01*
X151980734Y-89806481D01*
X152076866Y-89600323D01*
X152129472Y-89404000D01*
X151283612Y-89404000D01*
X151316525Y-89346993D01*
X151350600Y-89219826D01*
X151350600Y-89153996D01*
X152385259Y-89153996D01*
X152385259Y-89154003D01*
X152404574Y-89350126D01*
X152404575Y-89350129D01*
X152404576Y-89350132D01*
X152461403Y-89537466D01*
X152461787Y-89538730D01*
X152461788Y-89538732D01*
X152505187Y-89619925D01*
X152554690Y-89712538D01*
X152554692Y-89712540D01*
X152554693Y-89712542D01*
X152679712Y-89864878D01*
X152679721Y-89864887D01*
X152812381Y-89973758D01*
X152832062Y-89989910D01*
X152911239Y-90032231D01*
X153004774Y-90082227D01*
X153005873Y-90082814D01*
X153194468Y-90140024D01*
X153194470Y-90140024D01*
X153194473Y-90140025D01*
X153390597Y-90159341D01*
X153390600Y-90159341D01*
X153390603Y-90159341D01*
X153586726Y-90140025D01*
X153586727Y-90140024D01*
X153586732Y-90140024D01*
X153647177Y-90121688D01*
X153708348Y-90122889D01*
X153745918Y-90146421D01*
X156314386Y-92714889D01*
X156314388Y-92714890D01*
X156314389Y-92714891D01*
X156314390Y-92714892D01*
X156417107Y-92774196D01*
X156417109Y-92774197D01*
X156417113Y-92774199D01*
X156441322Y-92780684D01*
X156441325Y-92780687D01*
X156441326Y-92780686D01*
X156531688Y-92804899D01*
X156531690Y-92804900D01*
X156531691Y-92804900D01*
X168580789Y-92804900D01*
X168638980Y-92823807D01*
X168650793Y-92833896D01*
X178770504Y-102953607D01*
X178798281Y-103008124D01*
X178799500Y-103023611D01*
X178799500Y-123683309D01*
X178823713Y-123773673D01*
X178823712Y-123773673D01*
X178830200Y-123797886D01*
X178830202Y-123797890D01*
X178889507Y-123900609D01*
X178889509Y-123900611D01*
X178889511Y-123900614D01*
X179638749Y-124649852D01*
X179666525Y-124704367D01*
X179656954Y-124764799D01*
X179613689Y-124808064D01*
X179553257Y-124817635D01*
X179540911Y-124814622D01*
X179540847Y-124814842D01*
X179534049Y-124812846D01*
X179522878Y-124809565D01*
X179395964Y-124772300D01*
X179395961Y-124772300D01*
X179252039Y-124772300D01*
X179252035Y-124772300D01*
X179113949Y-124812846D01*
X179113942Y-124812849D01*
X178992873Y-124890655D01*
X178898622Y-124999428D01*
X178838834Y-125130343D01*
X178818353Y-125272797D01*
X178818353Y-125272802D01*
X178838834Y-125415256D01*
X178894368Y-125536856D01*
X178898623Y-125546173D01*
X178992872Y-125654943D01*
X178992873Y-125654944D01*
X179113942Y-125732750D01*
X179113947Y-125732753D01*
X179220403Y-125764011D01*
X179252035Y-125773299D01*
X179252036Y-125773299D01*
X179252039Y-125773300D01*
X179252041Y-125773300D01*
X179395959Y-125773300D01*
X179395961Y-125773300D01*
X179534053Y-125732753D01*
X179655128Y-125654943D01*
X179749377Y-125546173D01*
X179809165Y-125415257D01*
X179829647Y-125272800D01*
X179826648Y-125251943D01*
X179809165Y-125130343D01*
X179809165Y-125130341D01*
X179776478Y-125058767D01*
X179769503Y-124997981D01*
X179799589Y-124944704D01*
X179855246Y-124919286D01*
X179915212Y-124931437D01*
X179936529Y-124947632D01*
X181336947Y-126348051D01*
X181780576Y-126791680D01*
X181800625Y-126820557D01*
X181845023Y-126917773D01*
X181856385Y-126930885D01*
X181939273Y-127026544D01*
X182060342Y-127104350D01*
X182060347Y-127104353D01*
X182166803Y-127135611D01*
X182198435Y-127144899D01*
X182198436Y-127144899D01*
X182198439Y-127144900D01*
X182198441Y-127144900D01*
X182342359Y-127144900D01*
X182342361Y-127144900D01*
X182480453Y-127104353D01*
X182480456Y-127104350D01*
X182481562Y-127103847D01*
X182483931Y-127103331D01*
X182487247Y-127102358D01*
X182487316Y-127102595D01*
X182522688Y-127094900D01*
X185523312Y-127094900D01*
X185558682Y-127102593D01*
X185558752Y-127102357D01*
X185562065Y-127103329D01*
X185564434Y-127103845D01*
X185565539Y-127104349D01*
X185565542Y-127104349D01*
X185565547Y-127104353D01*
X185587881Y-127110910D01*
X185629992Y-127135895D01*
X188103500Y-129609403D01*
X188131277Y-129663920D01*
X188121706Y-129724352D01*
X188078441Y-129767617D01*
X188018009Y-129777188D01*
X188005605Y-129774397D01*
X187940564Y-129755299D01*
X187940561Y-129755299D01*
X187796639Y-129755299D01*
X187796635Y-129755299D01*
X187658549Y-129795845D01*
X187658542Y-129795848D01*
X187537473Y-129873654D01*
X187443222Y-129982427D01*
X187383434Y-130113342D01*
X187362953Y-130255796D01*
X187362953Y-130255800D01*
X187383434Y-130398255D01*
X187390416Y-130413543D01*
X187443223Y-130529172D01*
X187491015Y-130584327D01*
X187537473Y-130637943D01*
X187658542Y-130715749D01*
X187658547Y-130715752D01*
X187765003Y-130747010D01*
X187796635Y-130756298D01*
X187796636Y-130756298D01*
X187796639Y-130756299D01*
X187796641Y-130756299D01*
X187940559Y-130756299D01*
X187940561Y-130756299D01*
X188078653Y-130715752D01*
X188199728Y-130637942D01*
X188293977Y-130529172D01*
X188353765Y-130398256D01*
X188371306Y-130276257D01*
X188374247Y-130255800D01*
X188374247Y-130255796D01*
X188353499Y-130111491D01*
X188363932Y-130051202D01*
X188407810Y-130008560D01*
X188468373Y-129999852D01*
X188521495Y-130027398D01*
X188699704Y-130205607D01*
X188727481Y-130260124D01*
X188728700Y-130275611D01*
X188728700Y-135967189D01*
X188709793Y-136025380D01*
X188699703Y-136037193D01*
X188355406Y-136381489D01*
X188300890Y-136409266D01*
X188256665Y-136406222D01*
X188165934Y-136378699D01*
X188165929Y-136378698D01*
X187960003Y-136358417D01*
X187959997Y-136358417D01*
X187754070Y-136378698D01*
X187754065Y-136378699D01*
X187556045Y-136438768D01*
X187373547Y-136536316D01*
X187213595Y-136667585D01*
X187213585Y-136667595D01*
X187082316Y-136827547D01*
X186984768Y-137010045D01*
X186924699Y-137208065D01*
X186924698Y-137208070D01*
X186904417Y-137413996D01*
X186904417Y-137414003D01*
X186924698Y-137619929D01*
X186924699Y-137619934D01*
X186984768Y-137817954D01*
X187082316Y-138000452D01*
X187184430Y-138124878D01*
X187213590Y-138160410D01*
X187213595Y-138160414D01*
X187373547Y-138291683D01*
X187373548Y-138291683D01*
X187373550Y-138291685D01*
X187556046Y-138389232D01*
X187693997Y-138431078D01*
X187754065Y-138449300D01*
X187754070Y-138449301D01*
X187959997Y-138469583D01*
X187960000Y-138469583D01*
X187960003Y-138469583D01*
X188165929Y-138449301D01*
X188165934Y-138449300D01*
X188363954Y-138389232D01*
X188546450Y-138291685D01*
X188706410Y-138160410D01*
X188837685Y-138000450D01*
X188935232Y-137817954D01*
X188995300Y-137619934D01*
X188995301Y-137619929D01*
X189015583Y-137414003D01*
X189015583Y-137413996D01*
X188995301Y-137208070D01*
X188995300Y-137208065D01*
X188967777Y-137117333D01*
X188968978Y-137056159D01*
X188992508Y-137018593D01*
X189539689Y-136471414D01*
X189598999Y-136368687D01*
X189615327Y-136307748D01*
X189629700Y-136254109D01*
X189629700Y-129988691D01*
X189598999Y-129874114D01*
X189598733Y-129873654D01*
X189553811Y-129795846D01*
X189553811Y-129795845D01*
X189539690Y-129771388D01*
X189539689Y-129771386D01*
X186265422Y-126497119D01*
X186245376Y-126468246D01*
X186200977Y-126371027D01*
X186106728Y-126262257D01*
X186106727Y-126262256D01*
X186106726Y-126262255D01*
X185985657Y-126184449D01*
X185985654Y-126184447D01*
X185985653Y-126184447D01*
X185985650Y-126184446D01*
X185847564Y-126143900D01*
X185847561Y-126143900D01*
X185703639Y-126143900D01*
X185703635Y-126143900D01*
X185565543Y-126184448D01*
X185564438Y-126184953D01*
X185562068Y-126185468D01*
X185558753Y-126186442D01*
X185558683Y-126186204D01*
X185523312Y-126193900D01*
X182522688Y-126193900D01*
X182487316Y-126186204D01*
X182487247Y-126186442D01*
X182483920Y-126185465D01*
X182481557Y-126184951D01*
X182480454Y-126184447D01*
X182458119Y-126177889D01*
X182416007Y-126152903D01*
X179729496Y-123466392D01*
X179701719Y-123411875D01*
X179700500Y-123396388D01*
X179700500Y-116384401D01*
X186895101Y-116384401D01*
X186895101Y-116609386D01*
X186905592Y-116712087D01*
X186905595Y-116712099D01*
X186960743Y-116878524D01*
X187052780Y-117027740D01*
X187176759Y-117151719D01*
X187325975Y-117243756D01*
X187492406Y-117298906D01*
X187595112Y-117309399D01*
X188995098Y-117309399D01*
X188995100Y-117309398D01*
X188995100Y-116384401D01*
X188995099Y-116384400D01*
X186895102Y-116384400D01*
X186895101Y-116384401D01*
X179700500Y-116384401D01*
X179700500Y-115659412D01*
X186895100Y-115659412D01*
X186895100Y-115884399D01*
X186895101Y-115884400D01*
X188995099Y-115884400D01*
X188995100Y-115884399D01*
X188995100Y-114959401D01*
X188995099Y-114959400D01*
X187595113Y-114959400D01*
X187492412Y-114969892D01*
X187492400Y-114969895D01*
X187325975Y-115025043D01*
X187176759Y-115117080D01*
X187052780Y-115241059D01*
X186960743Y-115390275D01*
X186905593Y-115556706D01*
X186895100Y-115659412D01*
X179700500Y-115659412D01*
X179700500Y-110734401D01*
X186895101Y-110734401D01*
X186895101Y-110959386D01*
X186905592Y-111062087D01*
X186905595Y-111062099D01*
X186960743Y-111228524D01*
X187052780Y-111377740D01*
X187176759Y-111501719D01*
X187325975Y-111593756D01*
X187492406Y-111648906D01*
X187595112Y-111659399D01*
X188995098Y-111659399D01*
X188995100Y-111659398D01*
X188995100Y-110734401D01*
X188995099Y-110734400D01*
X186895102Y-110734400D01*
X186895101Y-110734401D01*
X179700500Y-110734401D01*
X179700500Y-110009412D01*
X186895100Y-110009412D01*
X186895100Y-110234399D01*
X186895101Y-110234400D01*
X188995099Y-110234400D01*
X188995100Y-110234399D01*
X188995100Y-109309401D01*
X188995099Y-109309400D01*
X187595113Y-109309400D01*
X187492412Y-109319892D01*
X187492400Y-109319895D01*
X187325975Y-109375043D01*
X187176759Y-109467080D01*
X187052780Y-109591059D01*
X186960743Y-109740275D01*
X186905593Y-109906706D01*
X186895100Y-110009412D01*
X179700500Y-110009412D01*
X179700500Y-105183001D01*
X186920501Y-105183001D01*
X186920501Y-105407986D01*
X186930992Y-105510687D01*
X186930995Y-105510699D01*
X186986143Y-105677124D01*
X187078180Y-105826340D01*
X187202159Y-105950319D01*
X187351375Y-106042356D01*
X187517806Y-106097506D01*
X187620512Y-106107999D01*
X189020498Y-106107999D01*
X189020500Y-106107998D01*
X189020500Y-105183001D01*
X189020499Y-105183000D01*
X186920502Y-105183000D01*
X186920501Y-105183001D01*
X179700500Y-105183001D01*
X179700500Y-104458012D01*
X186920500Y-104458012D01*
X186920500Y-104682999D01*
X186920501Y-104683000D01*
X189020499Y-104683000D01*
X189020500Y-104682999D01*
X189020500Y-103758001D01*
X189020499Y-103758000D01*
X187620513Y-103758000D01*
X187517812Y-103768492D01*
X187517800Y-103768495D01*
X187351375Y-103823643D01*
X187202159Y-103915680D01*
X187078180Y-104039659D01*
X186986143Y-104188875D01*
X186930993Y-104355306D01*
X186920500Y-104458012D01*
X179700500Y-104458012D01*
X179700500Y-102736692D01*
X179700500Y-102736691D01*
X179669799Y-102622114D01*
X179644731Y-102578696D01*
X179610489Y-102519386D01*
X176624104Y-99533001D01*
X186920501Y-99533001D01*
X186920501Y-99757986D01*
X186930992Y-99860687D01*
X186930995Y-99860699D01*
X186986143Y-100027124D01*
X187078180Y-100176340D01*
X187202159Y-100300319D01*
X187351375Y-100392356D01*
X187517806Y-100447506D01*
X187620512Y-100457999D01*
X189020498Y-100457999D01*
X189020500Y-100457998D01*
X189020500Y-99533001D01*
X189020499Y-99533000D01*
X186920502Y-99533000D01*
X186920501Y-99533001D01*
X176624104Y-99533001D01*
X175899115Y-98808012D01*
X186920500Y-98808012D01*
X186920500Y-99032999D01*
X186920501Y-99033000D01*
X189020499Y-99033000D01*
X189020500Y-99032999D01*
X189020500Y-98108001D01*
X189020499Y-98108000D01*
X187620513Y-98108000D01*
X187517812Y-98118492D01*
X187517800Y-98118495D01*
X187351375Y-98173643D01*
X187202159Y-98265680D01*
X187078180Y-98389659D01*
X186986143Y-98538875D01*
X186930993Y-98705306D01*
X186920500Y-98808012D01*
X175899115Y-98808012D01*
X169085014Y-91993911D01*
X169085011Y-91993909D01*
X169085009Y-91993907D01*
X168982290Y-91934602D01*
X168982286Y-91934600D01*
X168958073Y-91928112D01*
X168958073Y-91928113D01*
X168867709Y-91903900D01*
X168867707Y-91903900D01*
X156818611Y-91903900D01*
X156760420Y-91884993D01*
X156748607Y-91874904D01*
X154383021Y-89509318D01*
X154355244Y-89454801D01*
X154358287Y-89410577D01*
X154376624Y-89350132D01*
X154376934Y-89346993D01*
X154395941Y-89154003D01*
X154395941Y-89153996D01*
X154925259Y-89153996D01*
X154925259Y-89154003D01*
X154944574Y-89350126D01*
X154944575Y-89350129D01*
X154944576Y-89350132D01*
X155001403Y-89537466D01*
X155001787Y-89538730D01*
X155001788Y-89538732D01*
X155045187Y-89619925D01*
X155094690Y-89712538D01*
X155094692Y-89712540D01*
X155094693Y-89712542D01*
X155219712Y-89864878D01*
X155219721Y-89864887D01*
X155352381Y-89973758D01*
X155372062Y-89989910D01*
X155451239Y-90032231D01*
X155544774Y-90082227D01*
X155545873Y-90082814D01*
X155734468Y-90140024D01*
X155734470Y-90140024D01*
X155734473Y-90140025D01*
X155930597Y-90159341D01*
X155930600Y-90159341D01*
X155930603Y-90159341D01*
X156126726Y-90140025D01*
X156126727Y-90140024D01*
X156126732Y-90140024D01*
X156315327Y-90082814D01*
X156489138Y-89989910D01*
X156641483Y-89864883D01*
X156766510Y-89712538D01*
X156859414Y-89538727D01*
X156916624Y-89350132D01*
X156916934Y-89346993D01*
X156935941Y-89154003D01*
X156935941Y-89153996D01*
X157465260Y-89153996D01*
X157465260Y-89154003D01*
X157484575Y-89350126D01*
X157484576Y-89350129D01*
X157484577Y-89350132D01*
X157541404Y-89537466D01*
X157541788Y-89538730D01*
X157541789Y-89538732D01*
X157585188Y-89619925D01*
X157634691Y-89712538D01*
X157634693Y-89712540D01*
X157634694Y-89712542D01*
X157759713Y-89864878D01*
X157759722Y-89864887D01*
X157892382Y-89973758D01*
X157912063Y-89989910D01*
X157991240Y-90032231D01*
X158084775Y-90082227D01*
X158085874Y-90082814D01*
X158274469Y-90140024D01*
X158274471Y-90140024D01*
X158274474Y-90140025D01*
X158470598Y-90159341D01*
X158470601Y-90159341D01*
X158470604Y-90159341D01*
X158666727Y-90140025D01*
X158666728Y-90140024D01*
X158666733Y-90140024D01*
X158855328Y-90082814D01*
X159029139Y-89989910D01*
X159181484Y-89864883D01*
X159306511Y-89712538D01*
X159399415Y-89538727D01*
X159456625Y-89350132D01*
X159456935Y-89346993D01*
X159475942Y-89154003D01*
X159475942Y-89153996D01*
X160005259Y-89153996D01*
X160005259Y-89154003D01*
X160024574Y-89350126D01*
X160024575Y-89350129D01*
X160024576Y-89350132D01*
X160081403Y-89537466D01*
X160081787Y-89538730D01*
X160081788Y-89538732D01*
X160125187Y-89619925D01*
X160174690Y-89712538D01*
X160174692Y-89712540D01*
X160174693Y-89712542D01*
X160299712Y-89864878D01*
X160299721Y-89864887D01*
X160432381Y-89973758D01*
X160452062Y-89989910D01*
X160531239Y-90032231D01*
X160624774Y-90082227D01*
X160625873Y-90082814D01*
X160814468Y-90140024D01*
X160814470Y-90140024D01*
X160814473Y-90140025D01*
X161010597Y-90159341D01*
X161010600Y-90159341D01*
X161010603Y-90159341D01*
X161206726Y-90140025D01*
X161206727Y-90140024D01*
X161206732Y-90140024D01*
X161395327Y-90082814D01*
X161569138Y-89989910D01*
X161721483Y-89864883D01*
X161846510Y-89712538D01*
X161939414Y-89538727D01*
X161996624Y-89350132D01*
X161996934Y-89346993D01*
X162015941Y-89154003D01*
X162015941Y-89153996D01*
X161996625Y-88957873D01*
X161996624Y-88957870D01*
X161996624Y-88957868D01*
X161939414Y-88769273D01*
X161931197Y-88753901D01*
X161906490Y-88707676D01*
X161846510Y-88595462D01*
X161769412Y-88501518D01*
X161721487Y-88443121D01*
X161721478Y-88443112D01*
X161588833Y-88334253D01*
X162550100Y-88334253D01*
X162550100Y-89973746D01*
X162550101Y-89973758D01*
X162561732Y-90032227D01*
X162561734Y-90032233D01*
X162595532Y-90082814D01*
X162606048Y-90098552D01*
X162672369Y-90142867D01*
X162716831Y-90151711D01*
X162730841Y-90154498D01*
X162730846Y-90154498D01*
X162730852Y-90154500D01*
X162730853Y-90154500D01*
X164370347Y-90154500D01*
X164370348Y-90154500D01*
X164428831Y-90142867D01*
X164495152Y-90098552D01*
X164539467Y-90032231D01*
X164551100Y-89973748D01*
X164551100Y-88904000D01*
X167579364Y-88904000D01*
X168476988Y-88904000D01*
X168444075Y-88961007D01*
X168410000Y-89088174D01*
X168410000Y-89219826D01*
X168444075Y-89346993D01*
X168476988Y-89404000D01*
X167579364Y-89404000D01*
X167636569Y-89617489D01*
X167736399Y-89831577D01*
X167871886Y-90025073D01*
X168038926Y-90192113D01*
X168232422Y-90327600D01*
X168446509Y-90427430D01*
X168660000Y-90484634D01*
X168660000Y-89587012D01*
X168717007Y-89619925D01*
X168844174Y-89654000D01*
X168975826Y-89654000D01*
X169102993Y-89619925D01*
X169160000Y-89587012D01*
X169160000Y-90484633D01*
X169373490Y-90427430D01*
X169587577Y-90327600D01*
X169781073Y-90192113D01*
X169948113Y-90025073D01*
X170083600Y-89831577D01*
X170183430Y-89617490D01*
X170204873Y-89537466D01*
X170238197Y-89486152D01*
X170295318Y-89464225D01*
X170354419Y-89480060D01*
X170392924Y-89527610D01*
X170399500Y-89563089D01*
X170399500Y-90023746D01*
X170399501Y-90023758D01*
X170411132Y-90082227D01*
X170411134Y-90082233D01*
X170449750Y-90140025D01*
X170455448Y-90148552D01*
X170521769Y-90192867D01*
X170566231Y-90201711D01*
X170580241Y-90204498D01*
X170580246Y-90204498D01*
X170580252Y-90204500D01*
X170580253Y-90204500D01*
X172319747Y-90204500D01*
X172319748Y-90204500D01*
X172378231Y-90192867D01*
X172444552Y-90148552D01*
X172488867Y-90082231D01*
X172500500Y-90023748D01*
X172500500Y-88284252D01*
X172488867Y-88225769D01*
X172444552Y-88159448D01*
X172444548Y-88159445D01*
X172378233Y-88115134D01*
X172378231Y-88115133D01*
X172378228Y-88115132D01*
X172378227Y-88115132D01*
X172319758Y-88103501D01*
X172319748Y-88103500D01*
X170580252Y-88103500D01*
X170580251Y-88103500D01*
X170580241Y-88103501D01*
X170521772Y-88115132D01*
X170521766Y-88115134D01*
X170455451Y-88159445D01*
X170455445Y-88159451D01*
X170411134Y-88225766D01*
X170411132Y-88225772D01*
X170399501Y-88284241D01*
X170399500Y-88284253D01*
X170399500Y-88744910D01*
X170380593Y-88803101D01*
X170331093Y-88839065D01*
X170269907Y-88839065D01*
X170220407Y-88803101D01*
X170204873Y-88770533D01*
X170183429Y-88690505D01*
X170083605Y-88476432D01*
X170083601Y-88476424D01*
X169948113Y-88282926D01*
X169781073Y-88115886D01*
X169587577Y-87980399D01*
X169373489Y-87880569D01*
X169160000Y-87823364D01*
X169160000Y-88720988D01*
X169102993Y-88688075D01*
X168975826Y-88654000D01*
X168844174Y-88654000D01*
X168717007Y-88688075D01*
X168660000Y-88720988D01*
X168660000Y-87823364D01*
X168446505Y-87880570D01*
X168232432Y-87980394D01*
X168232424Y-87980398D01*
X168038926Y-88115886D01*
X167871886Y-88282926D01*
X167736398Y-88476424D01*
X167736394Y-88476432D01*
X167636570Y-88690505D01*
X167579364Y-88904000D01*
X164551100Y-88904000D01*
X164551100Y-88334252D01*
X164539467Y-88275769D01*
X164495152Y-88209448D01*
X164433086Y-88167976D01*
X164428833Y-88165134D01*
X164428831Y-88165133D01*
X164428828Y-88165132D01*
X164428827Y-88165132D01*
X164370358Y-88153501D01*
X164370348Y-88153500D01*
X162730852Y-88153500D01*
X162730851Y-88153500D01*
X162730841Y-88153501D01*
X162672372Y-88165132D01*
X162672366Y-88165134D01*
X162606051Y-88209445D01*
X162606045Y-88209451D01*
X162561734Y-88275766D01*
X162561732Y-88275772D01*
X162550101Y-88334241D01*
X162550100Y-88334253D01*
X161588833Y-88334253D01*
X161569142Y-88318093D01*
X161569140Y-88318092D01*
X161569138Y-88318090D01*
X161528218Y-88296218D01*
X161395332Y-88225188D01*
X161395330Y-88225187D01*
X161206729Y-88167975D01*
X161206726Y-88167974D01*
X161010603Y-88148659D01*
X161010597Y-88148659D01*
X160814473Y-88167974D01*
X160814470Y-88167975D01*
X160625869Y-88225187D01*
X160625867Y-88225188D01*
X160452067Y-88318087D01*
X160452057Y-88318093D01*
X160299721Y-88443112D01*
X160299712Y-88443121D01*
X160174693Y-88595457D01*
X160174687Y-88595467D01*
X160081788Y-88769267D01*
X160081787Y-88769269D01*
X160024575Y-88957870D01*
X160024574Y-88957873D01*
X160005259Y-89153996D01*
X159475942Y-89153996D01*
X159456626Y-88957873D01*
X159456625Y-88957870D01*
X159456625Y-88957868D01*
X159399415Y-88769273D01*
X159391198Y-88753901D01*
X159366491Y-88707676D01*
X159306511Y-88595462D01*
X159229413Y-88501518D01*
X159181488Y-88443121D01*
X159181479Y-88443112D01*
X159029143Y-88318093D01*
X159029141Y-88318092D01*
X159029139Y-88318090D01*
X158988219Y-88296218D01*
X158855333Y-88225188D01*
X158855331Y-88225187D01*
X158666730Y-88167975D01*
X158666727Y-88167974D01*
X158470604Y-88148659D01*
X158470598Y-88148659D01*
X158274474Y-88167974D01*
X158274471Y-88167975D01*
X158085870Y-88225187D01*
X158085868Y-88225188D01*
X157912068Y-88318087D01*
X157912058Y-88318093D01*
X157759722Y-88443112D01*
X157759713Y-88443121D01*
X157634694Y-88595457D01*
X157634688Y-88595467D01*
X157541789Y-88769267D01*
X157541788Y-88769269D01*
X157484576Y-88957870D01*
X157484575Y-88957873D01*
X157465260Y-89153996D01*
X156935941Y-89153996D01*
X156916625Y-88957873D01*
X156916624Y-88957870D01*
X156916624Y-88957868D01*
X156859414Y-88769273D01*
X156851197Y-88753901D01*
X156826490Y-88707676D01*
X156766510Y-88595462D01*
X156689412Y-88501518D01*
X156641487Y-88443121D01*
X156641478Y-88443112D01*
X156489142Y-88318093D01*
X156489140Y-88318092D01*
X156489138Y-88318090D01*
X156448218Y-88296218D01*
X156315332Y-88225188D01*
X156315330Y-88225187D01*
X156126729Y-88167975D01*
X156126726Y-88167974D01*
X155930603Y-88148659D01*
X155930597Y-88148659D01*
X155734473Y-88167974D01*
X155734470Y-88167975D01*
X155545869Y-88225187D01*
X155545867Y-88225188D01*
X155372067Y-88318087D01*
X155372057Y-88318093D01*
X155219721Y-88443112D01*
X155219712Y-88443121D01*
X155094693Y-88595457D01*
X155094687Y-88595467D01*
X155001788Y-88769267D01*
X155001787Y-88769269D01*
X154944575Y-88957870D01*
X154944574Y-88957873D01*
X154925259Y-89153996D01*
X154395941Y-89153996D01*
X154376625Y-88957873D01*
X154376624Y-88957870D01*
X154376624Y-88957868D01*
X154319414Y-88769273D01*
X154311197Y-88753901D01*
X154286490Y-88707676D01*
X154226510Y-88595462D01*
X154149412Y-88501518D01*
X154101487Y-88443121D01*
X154101478Y-88443112D01*
X153949142Y-88318093D01*
X153949140Y-88318092D01*
X153949138Y-88318090D01*
X153908218Y-88296218D01*
X153775332Y-88225188D01*
X153775330Y-88225187D01*
X153586729Y-88167975D01*
X153586726Y-88167974D01*
X153390603Y-88148659D01*
X153390597Y-88148659D01*
X153194473Y-88167974D01*
X153194470Y-88167975D01*
X153005869Y-88225187D01*
X153005867Y-88225188D01*
X152832067Y-88318087D01*
X152832057Y-88318093D01*
X152679721Y-88443112D01*
X152679712Y-88443121D01*
X152554693Y-88595457D01*
X152554687Y-88595467D01*
X152461788Y-88769267D01*
X152461787Y-88769269D01*
X152404575Y-88957870D01*
X152404574Y-88957873D01*
X152385259Y-89153996D01*
X151350600Y-89153996D01*
X151350600Y-89088174D01*
X151316525Y-88961007D01*
X151283612Y-88904000D01*
X152129472Y-88904000D01*
X152076866Y-88707676D01*
X151980734Y-88501518D01*
X151850265Y-88315188D01*
X151689411Y-88154334D01*
X151503081Y-88023865D01*
X151296923Y-87927732D01*
X151100600Y-87875127D01*
X151100600Y-88720988D01*
X151043593Y-88688075D01*
X150916426Y-88654000D01*
X150784774Y-88654000D01*
X150657607Y-88688075D01*
X150600600Y-88720988D01*
X150600600Y-87875127D01*
X150404276Y-87927732D01*
X150198118Y-88023865D01*
X150011788Y-88154334D01*
X149850934Y-88315188D01*
X149720465Y-88501518D01*
X149670325Y-88609045D01*
X149628596Y-88653793D01*
X149568535Y-88665468D01*
X149513082Y-88639610D01*
X149490875Y-88609045D01*
X149440734Y-88501518D01*
X149310265Y-88315188D01*
X149149411Y-88154334D01*
X148963081Y-88023865D01*
X148756923Y-87927732D01*
X148560600Y-87875127D01*
X148560600Y-88720988D01*
X148503593Y-88688075D01*
X148376426Y-88654000D01*
X148244774Y-88654000D01*
X148117607Y-88688075D01*
X148060600Y-88720988D01*
X148060600Y-87875127D01*
X147864276Y-87927732D01*
X147658118Y-88023865D01*
X147471788Y-88154334D01*
X147310934Y-88315188D01*
X147180465Y-88501518D01*
X147084333Y-88707676D01*
X147031728Y-88904000D01*
X146740282Y-88904000D01*
X146699413Y-88769273D01*
X146691196Y-88753901D01*
X146666489Y-88707676D01*
X146606509Y-88595462D01*
X146529411Y-88501518D01*
X146481486Y-88443121D01*
X146481477Y-88443112D01*
X146329141Y-88318093D01*
X146329139Y-88318092D01*
X146329137Y-88318090D01*
X146288217Y-88296218D01*
X146155331Y-88225188D01*
X146155329Y-88225187D01*
X145966728Y-88167975D01*
X145966725Y-88167974D01*
X145770602Y-88148659D01*
X145770596Y-88148659D01*
X145574472Y-88167974D01*
X145574469Y-88167975D01*
X145385868Y-88225187D01*
X145385866Y-88225188D01*
X145212066Y-88318087D01*
X145212056Y-88318093D01*
X145059720Y-88443112D01*
X145059711Y-88443121D01*
X144934692Y-88595457D01*
X144934686Y-88595467D01*
X144841787Y-88769267D01*
X144841786Y-88769269D01*
X144784574Y-88957870D01*
X144784573Y-88957873D01*
X144765258Y-89153996D01*
X141695941Y-89153996D01*
X141676625Y-88957873D01*
X141676624Y-88957870D01*
X141676624Y-88957868D01*
X141619414Y-88769273D01*
X141611197Y-88753901D01*
X141586490Y-88707676D01*
X141526510Y-88595462D01*
X141449412Y-88501518D01*
X141401487Y-88443121D01*
X141401478Y-88443112D01*
X141249142Y-88318093D01*
X141249140Y-88318092D01*
X141249138Y-88318090D01*
X141208218Y-88296218D01*
X141075332Y-88225188D01*
X141075330Y-88225187D01*
X140886729Y-88167975D01*
X140886726Y-88167974D01*
X140690603Y-88148659D01*
X140690597Y-88148659D01*
X140494473Y-88167974D01*
X140494470Y-88167975D01*
X140305869Y-88225187D01*
X140305867Y-88225188D01*
X140132067Y-88318087D01*
X140132057Y-88318093D01*
X139979721Y-88443112D01*
X139979712Y-88443121D01*
X139854693Y-88595457D01*
X139854687Y-88595467D01*
X139761788Y-88769267D01*
X139761787Y-88769269D01*
X139704575Y-88957870D01*
X139704574Y-88957873D01*
X139685259Y-89153996D01*
X139155941Y-89153996D01*
X139136625Y-88957873D01*
X139136624Y-88957870D01*
X139136624Y-88957868D01*
X139079414Y-88769273D01*
X139071197Y-88753901D01*
X139046490Y-88707676D01*
X138986510Y-88595462D01*
X138909412Y-88501518D01*
X138861487Y-88443121D01*
X138861478Y-88443112D01*
X138709142Y-88318093D01*
X138709140Y-88318092D01*
X138709138Y-88318090D01*
X138668218Y-88296218D01*
X138535332Y-88225188D01*
X138535330Y-88225187D01*
X138346729Y-88167975D01*
X138346726Y-88167974D01*
X138150603Y-88148659D01*
X138150597Y-88148659D01*
X137954473Y-88167974D01*
X137954470Y-88167975D01*
X137765869Y-88225187D01*
X137765867Y-88225188D01*
X137592067Y-88318087D01*
X137592057Y-88318093D01*
X137439721Y-88443112D01*
X137439712Y-88443121D01*
X137314693Y-88595457D01*
X137314687Y-88595467D01*
X137221788Y-88769267D01*
X137221787Y-88769269D01*
X137164575Y-88957870D01*
X137164574Y-88957873D01*
X137145259Y-89153996D01*
X136615942Y-89153996D01*
X136596626Y-88957873D01*
X136596625Y-88957870D01*
X136596625Y-88957868D01*
X136539415Y-88769273D01*
X136531198Y-88753901D01*
X136506491Y-88707676D01*
X136446511Y-88595462D01*
X136369413Y-88501518D01*
X136321488Y-88443121D01*
X136321479Y-88443112D01*
X136169143Y-88318093D01*
X136169141Y-88318092D01*
X136169139Y-88318090D01*
X136128219Y-88296218D01*
X135995333Y-88225188D01*
X135995331Y-88225187D01*
X135806730Y-88167975D01*
X135806727Y-88167974D01*
X135610604Y-88148659D01*
X135610598Y-88148659D01*
X135414474Y-88167974D01*
X135414471Y-88167975D01*
X135225870Y-88225187D01*
X135225868Y-88225188D01*
X135052068Y-88318087D01*
X135052058Y-88318093D01*
X134899722Y-88443112D01*
X134899713Y-88443121D01*
X134774694Y-88595457D01*
X134774688Y-88595467D01*
X134681789Y-88769267D01*
X134681788Y-88769269D01*
X134624576Y-88957870D01*
X134624575Y-88957873D01*
X134605260Y-89153996D01*
X134075941Y-89153996D01*
X134056625Y-88957873D01*
X134056624Y-88957870D01*
X134056624Y-88957868D01*
X133999414Y-88769273D01*
X133991197Y-88753901D01*
X133966490Y-88707676D01*
X133906510Y-88595462D01*
X133829412Y-88501518D01*
X133781487Y-88443121D01*
X133781478Y-88443112D01*
X133629142Y-88318093D01*
X133629140Y-88318092D01*
X133629138Y-88318090D01*
X133588218Y-88296218D01*
X133455332Y-88225188D01*
X133455330Y-88225187D01*
X133266729Y-88167975D01*
X133266726Y-88167974D01*
X133070603Y-88148659D01*
X133070597Y-88148659D01*
X132874473Y-88167974D01*
X132874470Y-88167975D01*
X132685869Y-88225187D01*
X132685867Y-88225188D01*
X132512067Y-88318087D01*
X132512057Y-88318093D01*
X132359721Y-88443112D01*
X132359712Y-88443121D01*
X132234693Y-88595457D01*
X132234687Y-88595467D01*
X132141788Y-88769267D01*
X132141787Y-88769269D01*
X132084575Y-88957870D01*
X132084574Y-88957873D01*
X132065259Y-89153996D01*
X131535941Y-89153996D01*
X131516625Y-88957873D01*
X131516624Y-88957870D01*
X131516624Y-88957868D01*
X131459414Y-88769273D01*
X131451197Y-88753901D01*
X131426490Y-88707676D01*
X131366510Y-88595462D01*
X131289412Y-88501518D01*
X131241487Y-88443121D01*
X131241478Y-88443112D01*
X131089142Y-88318093D01*
X131089140Y-88318092D01*
X131089138Y-88318090D01*
X131048218Y-88296218D01*
X130915332Y-88225188D01*
X130915330Y-88225187D01*
X130726729Y-88167975D01*
X130726726Y-88167974D01*
X130530603Y-88148659D01*
X130530597Y-88148659D01*
X130334473Y-88167974D01*
X130334470Y-88167975D01*
X130145869Y-88225187D01*
X130145867Y-88225188D01*
X129972067Y-88318087D01*
X129972057Y-88318093D01*
X129819721Y-88443112D01*
X129819712Y-88443121D01*
X129694693Y-88595457D01*
X129694687Y-88595467D01*
X129601788Y-88769267D01*
X129601787Y-88769269D01*
X129544575Y-88957870D01*
X129544574Y-88957873D01*
X129525259Y-89153996D01*
X128995941Y-89153996D01*
X128976625Y-88957873D01*
X128976624Y-88957870D01*
X128976624Y-88957868D01*
X128919414Y-88769273D01*
X128911197Y-88753901D01*
X128886490Y-88707676D01*
X128826510Y-88595462D01*
X128749412Y-88501518D01*
X128701487Y-88443121D01*
X128701478Y-88443112D01*
X128549142Y-88318093D01*
X128549140Y-88318092D01*
X128549138Y-88318090D01*
X128508218Y-88296218D01*
X128375332Y-88225188D01*
X128375330Y-88225187D01*
X128186729Y-88167975D01*
X128186726Y-88167974D01*
X127990603Y-88148659D01*
X127990597Y-88148659D01*
X127794473Y-88167974D01*
X127794470Y-88167975D01*
X127605869Y-88225187D01*
X127605867Y-88225188D01*
X127432067Y-88318087D01*
X127432057Y-88318093D01*
X127279721Y-88443112D01*
X127279712Y-88443121D01*
X127154693Y-88595457D01*
X127154687Y-88595467D01*
X127061788Y-88769267D01*
X127061787Y-88769269D01*
X127004575Y-88957870D01*
X127004574Y-88957873D01*
X126985259Y-89153996D01*
X125754770Y-89153996D01*
X125774826Y-89079148D01*
X125800500Y-88884130D01*
X125800500Y-88785779D01*
X125800500Y-88769273D01*
X125800500Y-87505555D01*
X125801121Y-87494488D01*
X125811776Y-87399924D01*
X125816704Y-87378332D01*
X125846285Y-87293794D01*
X125855897Y-87273834D01*
X125903541Y-87198010D01*
X125917357Y-87180684D01*
X125980684Y-87117357D01*
X125998012Y-87103540D01*
X126073834Y-87055897D01*
X126093794Y-87046285D01*
X126178332Y-87016704D01*
X126199924Y-87011776D01*
X126294487Y-87001121D01*
X126305556Y-87000500D01*
X126365892Y-87000500D01*
X190534108Y-87000500D01*
X190594444Y-87000500D01*
X190605512Y-87001121D01*
G37*
%TD.AperFunction*%
%TD*%
M02*
